<svg width="617" height="677" viewBox="0 0 617 677" fill="none" xmlns="http://www.w3.org/2000/svg">
<g filter="url(#filter0_i_152_140)">
<path fill-rule="evenodd" clip-rule="evenodd" d="M505.438 570.384C500.564 581.887 494.161 592.773 486.171 602.86C419.235 687.36 266.251 683.756 144.472 594.81C22.6927 505.864 -21.7662 365.258 45.17 280.758C80.8294 235.741 140.91 215.73 207.683 220.305C247.049 87.3391 335.805 -3.17335 427.193 7.61468C537.089 20.5876 609.175 175.136 588.202 352.807C577.909 439.998 547.118 516.555 505.438 570.384Z" fill="url(#paint0_linear_152_140)" fill-opacity="0.31"/>
</g>
<path d="M31.259 581.559V591.4C31.259 594.51 34.4385 597.037 37.548 597.037H609.965C613.063 597.037 616.254 594.51 616.254 591.4V581.559H31.259Z" fill="#CCCCCC"/>
<path d="M541.962 475.388H105.551C102.884 475.388 100.718 473.222 100.718 470.555V188.457C100.718 185.79 102.884 183.624 105.551 183.624H541.962C544.629 183.624 546.795 185.79 546.795 188.457V470.555C546.795 473.222 544.629 475.388 541.962 475.388Z" fill="#4E4E4E"/>
<path d="M533.041 446.288H114.472V197.08H533.041V446.288Z" fill="url(#paint1_linear_152_140)"/>
<path d="M615.601 579.823L547.691 471.454C547.132 470.557 546.154 470.021 545.106 470.021H102.406C101.358 470.021 100.379 470.557 99.8203 471.454L31.9106 579.823C30.1403 582.653 32.1668 586.333 35.5093 586.333H612.002C615.345 586.333 617.371 582.653 615.601 579.823Z" fill="#F5F5F5"/>
<path d="M392.633 571.965L386.041 555.147C385.366 553.435 383.712 552.306 381.86 552.306H265.56C263.708 552.306 262.054 553.435 261.379 555.171L254.857 571.976C253.914 574.399 255.696 576.996 258.281 576.996H389.209C391.806 576.996 393.576 574.387 392.633 571.965Z" fill="#CCCCCC"/>
<path d="M260.423 575.108C259.724 575.108 259.107 574.782 258.711 574.2C258.315 573.629 258.234 572.93 258.49 572.278L264.802 556.02C265.233 554.902 266.281 554.192 267.469 554.192H379.961C381.149 554.192 382.186 554.902 382.617 555.997L388.999 572.267C389.255 572.919 389.173 573.629 388.789 574.2C388.393 574.782 387.764 575.108 387.065 575.108H260.423Z" fill="#F5F5F5"/>
<path d="M558.15 540.577L524.457 483.16C523.013 480.691 520.416 479.224 517.505 479.224H130.008C127.097 479.224 124.499 480.691 123.055 483.16L89.3625 540.577C88.9083 541.345 88.9199 542.277 89.3741 543.069C89.84 543.907 90.7018 544.408 91.6452 544.408H555.856C556.811 544.408 557.673 543.907 558.139 543.069C558.593 542.277 558.604 541.345 558.15 540.577Z" fill="#CCCCCC"/>
<path d="M325.864 190.312C325.864 191.477 324.92 192.432 323.756 192.432C322.591 192.432 321.648 191.477 321.648 190.312C321.648 189.147 322.591 188.204 323.756 188.204C324.92 188.204 325.864 189.147 325.864 190.312Z" fill="#323232"/>
<path d="M156.713 473.681H129.612C127.608 473.681 125.955 472.039 125.955 470.024C125.955 468.009 127.608 466.367 129.612 466.367H156.713C158.727 466.367 160.369 468.009 160.369 470.024C160.369 472.039 158.727 473.681 156.713 473.681Z" fill="#4E4E4E"/>
<path d="M509.888 473.681H482.787C480.772 473.681 479.13 472.039 479.13 470.024C479.13 468.009 480.772 466.367 482.787 466.367H509.888C511.903 466.367 513.545 468.009 513.545 470.024C513.545 472.039 511.903 473.681 509.888 473.681Z" fill="#4E4E4E"/>
<path d="M117.244 198.733V275.191L193.586 198.733H117.244Z" fill="#DADADA" fill-opacity="0.1"/>
<path d="M238.61 199.419L119.119 319.096V431.064L234.761 315.241L350.403 199.419H238.61Z" fill="#DADADA" fill-opacity="0.1"/>
<path d="M409.252 541.286L238.016 541.275C234.953 541.275 232.623 540.588 232.833 539.737L234.196 534.252C234.405 533.402 237.002 532.715 240.007 532.715L407.446 532.726C410.451 532.726 413.037 533.413 413.235 534.264L414.457 539.749C414.655 540.588 412.315 541.286 409.252 541.286Z" fill="#323232"/>
<path d="M445.238 541.285H421.387C419.43 541.285 417.543 540.039 417.194 538.502L416.495 535.497C416.134 533.959 417.404 532.725 419.325 532.725H442.641C444.563 532.725 446.508 533.959 446.985 535.497L447.917 538.502C448.406 540.039 447.195 541.285 445.238 541.285Z" fill="#323232"/>
<path d="M480.004 541.285H456.164C454.195 541.285 452.204 540.039 451.703 538.502L450.736 535.497C450.247 533.959 451.4 532.725 453.322 532.725H476.638C478.559 532.725 480.609 533.971 481.226 535.497L482.438 538.513C483.055 540.039 481.96 541.285 480.004 541.285Z" fill="#323232"/>
<path d="M514.546 541.285H490.706C488.738 541.285 486.641 540.039 486.001 538.502L484.766 535.497C484.137 533.959 485.174 532.725 487.096 532.725H510.411C512.333 532.725 514.499 533.971 515.256 535.497L516.735 538.513C517.492 540.039 516.514 541.285 514.546 541.285Z" fill="#323232"/>
<path d="M509.923 530.711H486.677C484.755 530.711 482.694 529.477 482.065 527.951L480.819 524.969C480.19 523.444 481.191 522.221 483.066 522.221H505.8C507.663 522.221 509.795 523.455 510.552 524.969L512.031 527.951C512.776 529.477 511.844 530.711 509.923 530.711Z" fill="#323232"/>
<path d="M543.616 530.711H520.358C518.437 530.711 516.27 529.477 515.502 527.951L513.988 524.969C513.231 523.444 514.116 522.221 515.991 522.221H538.713C540.588 522.221 542.836 523.455 543.721 524.969L545.468 527.951C546.353 529.477 545.526 530.711 543.616 530.711Z" fill="#323232"/>
<path d="M549.09 541.285H525.238C523.282 541.285 521.069 540.039 520.3 538.513L518.798 535.497C518.017 533.971 518.961 532.725 520.882 532.725H544.198C546.108 532.725 548.391 533.971 549.288 535.497L551.035 538.513C551.92 540.039 551.058 541.285 549.09 541.285Z" fill="#323232"/>
<path d="M538.27 520.393H515.595C513.731 520.393 511.588 519.077 510.82 517.458L509.317 514.267C508.549 512.636 509.399 511.32 511.227 511.32H533.379C535.207 511.32 537.408 512.648 538.293 514.267L540.04 517.458C540.937 519.077 540.145 520.393 538.27 520.393Z" fill="#323232"/>
<path d="M437.797 520.393H415.11C413.247 520.393 411.453 519.077 411.104 517.458L410.417 514.267C410.067 512.636 411.255 511.32 413.084 511.32H435.235C437.064 511.32 438.915 512.648 439.393 514.267L440.325 517.458C440.79 519.077 439.661 520.393 437.797 520.393Z" fill="#323232"/>
<path d="M404.908 520.393H382.233C380.369 520.393 378.681 519.077 378.471 517.458L378.052 514.267C377.842 512.636 379.146 511.32 380.963 511.32H403.126C404.943 511.32 406.702 512.648 407.028 514.267L407.68 517.458C408.018 519.077 406.783 520.393 404.908 520.393Z" fill="#323232"/>
<path d="M372.274 520.393H349.587C347.724 520.393 346.152 519.077 346.07 517.458L345.919 514.267C345.849 512.636 347.258 511.32 349.087 511.32H371.238C373.066 511.32 374.708 512.648 374.906 514.267L375.291 517.458C375.489 519.077 374.138 520.393 372.274 520.393Z" fill="#323232"/>
<path d="M339.793 520.393H317.106C315.242 520.393 313.775 519.077 313.833 517.458L313.949 514.267C314.019 512.636 315.533 511.32 317.362 511.32H339.513C341.342 511.32 342.867 512.648 342.925 514.267L343.054 517.458C343.123 519.077 341.656 520.393 339.793 520.393Z" fill="#323232"/>
<path d="M307.638 520.393H284.951C283.087 520.393 281.725 519.077 281.923 517.458L282.307 514.267C282.493 512.636 284.124 511.32 285.952 511.32H308.104C309.921 511.32 311.341 512.648 311.283 514.267L311.143 517.458C311.062 519.077 309.501 520.393 307.638 520.393Z" fill="#323232"/>
<path d="M275.307 520.393H252.632C250.768 520.393 249.511 519.077 249.848 517.458L250.489 514.267C250.815 512.636 252.562 511.32 254.379 511.32H276.53C278.359 511.32 279.675 512.648 279.465 514.267L279.057 517.458C278.859 519.077 277.171 520.393 275.307 520.393Z" fill="#323232"/>
<path d="M242.989 520.393H220.314C218.439 520.393 217.309 519.077 217.763 517.458L218.672 514.267C219.138 512.636 220.989 511.32 222.818 511.32H244.969C246.798 511.32 247.997 512.648 247.659 514.267L246.984 517.458C246.646 519.077 244.853 520.393 242.989 520.393Z" fill="#323232"/>
<path d="M210.589 520.393H187.914C186.039 520.393 185.014 519.077 185.608 517.458L186.784 514.267C187.378 512.636 189.346 511.32 191.175 511.32H213.314C215.143 511.32 216.238 512.648 215.76 514.267L214.828 517.458C214.351 519.077 212.453 520.393 210.589 520.393Z" fill="#323232"/>
<path d="M178.748 520.393H156.072C154.197 520.393 153.277 519.077 154.011 517.458L155.443 514.267C156.177 512.636 158.25 511.32 160.067 511.32H182.218C184.047 511.32 185.025 512.648 184.419 514.267L183.231 517.458C182.614 519.077 180.611 520.393 178.748 520.393Z" fill="#323232"/>
<path d="M146.371 520.393H109.616C107.752 520.393 106.984 519.077 107.915 517.458L109.72 514.267C110.652 512.636 112.877 511.32 114.693 511.32H150.599C152.428 511.32 153.301 512.648 152.556 514.267L151.1 517.458C150.354 519.077 148.247 520.393 146.371 520.393Z" fill="#323232"/>
<path d="M503.505 520.393H450.083C447.172 520.393 444.575 519.659 444.307 518.762L442.572 512.951C442.292 512.054 444.388 511.32 447.242 511.32H499.429C502.282 511.32 504.926 512.054 505.345 512.951L508.047 518.762C508.466 519.671 506.428 520.393 503.505 520.393Z" fill="#323232"/>
<path d="M527.276 499.139H505.777C504.006 499.139 501.945 497.858 501.176 496.286L499.674 493.199C498.905 491.639 499.686 490.358 501.409 490.358H522.373C524.096 490.358 526.228 491.639 527.113 493.211L528.86 496.297C529.745 497.87 529.034 499.139 527.276 499.139Z" fill="#323232"/>
<path d="M496.134 499.139H474.646C472.864 499.139 470.919 497.858 470.29 496.286L469.056 493.199C468.427 491.639 469.312 490.358 471.036 490.358H491.999C493.735 490.358 495.738 491.639 496.495 493.211L497.974 496.297C498.731 497.87 497.904 499.139 496.134 499.139Z" fill="#323232"/>
<path d="M464.735 499.139H443.236C441.466 499.139 439.637 497.858 439.148 496.286L438.17 493.199C437.681 491.639 438.682 490.358 440.406 490.358H461.369C463.105 490.358 464.991 491.639 465.609 493.211L466.82 496.297C467.437 497.87 466.505 499.139 464.735 499.139Z" fill="#323232"/>
<path d="M433.872 499.139H412.385C410.614 499.139 408.891 497.858 408.53 496.286L407.831 493.199C407.47 491.639 408.576 490.358 410.312 490.358H431.275C432.999 490.358 434.792 491.639 435.27 493.211L436.213 496.297C436.69 497.87 435.642 499.139 433.872 499.139Z" fill="#323232"/>
<path d="M403.266 499.139H381.778C380.008 499.139 378.389 497.858 378.168 496.286L377.737 493.199C377.504 491.639 378.727 490.358 380.451 490.358H401.414C403.149 490.358 404.827 491.639 405.164 493.211L405.851 496.297C406.189 497.87 405.036 499.139 403.266 499.139Z" fill="#323232"/>
<path d="M372.135 499.139H350.647C348.865 499.139 347.363 497.858 347.281 496.286L347.107 493.199C347.025 491.639 348.353 490.358 350.088 490.358H371.04C372.775 490.358 374.347 491.639 374.557 493.211L374.953 496.297C375.163 497.87 373.905 499.139 372.135 499.139Z" fill="#323232"/>
<path d="M341.097 499.139H319.598C317.84 499.139 316.442 497.858 316.489 496.286L316.594 493.199C316.64 491.639 318.084 490.358 319.808 490.358H340.771C342.495 490.358 343.962 491.639 344.032 493.211L344.172 496.297C344.242 497.87 342.868 499.139 341.097 499.139Z" fill="#323232"/>
<path d="M310.467 499.139H288.98C287.21 499.139 285.917 497.858 286.103 496.286L286.476 493.199C286.662 491.639 288.211 490.358 289.935 490.358H310.898C312.622 490.358 313.973 491.639 313.903 493.211L313.787 496.297C313.728 497.87 312.238 499.139 310.467 499.139Z" fill="#323232"/>
<path d="M279.233 499.139H257.734C255.975 499.139 254.799 497.858 255.125 496.286L255.754 493.199C256.08 491.639 257.734 490.358 259.457 490.358H280.432C282.156 490.358 283.391 491.639 283.193 493.211L282.797 496.297C282.599 497.87 281.003 499.139 279.233 499.139Z" fill="#323232"/>
<path d="M247.426 499.139H225.939C224.157 499.139 223.109 497.858 223.563 496.286L224.471 493.199C224.937 491.639 226.708 490.358 228.443 490.358H249.406C251.13 490.358 252.248 491.639 251.91 493.211L251.246 496.297C250.909 497.87 249.197 499.139 247.426 499.139Z" fill="#323232"/>
<path d="M216.04 499.139H194.54C192.782 499.139 191.827 497.858 192.432 496.286L193.609 493.199C194.214 491.639 196.101 490.358 197.813 490.358H218.788C220.512 490.358 221.525 491.639 221.047 493.211L220.104 496.297C219.627 497.87 217.81 499.139 216.04 499.139Z" fill="#323232"/>
<path d="M185.107 499.139H163.608C161.838 499.139 160.999 497.858 161.745 496.286L163.189 493.199C163.922 491.639 165.926 490.358 167.649 490.358H188.613C190.336 490.358 191.245 491.639 190.627 493.211L189.416 496.297C188.799 497.87 186.877 499.139 185.107 499.139Z" fill="#323232"/>
<path d="M154.174 499.139H121.029C119.258 499.139 118.571 497.858 119.503 496.286L121.308 493.199C122.24 491.639 124.383 490.358 126.106 490.358H158.437C160.16 490.358 160.952 491.639 160.207 493.211L158.728 496.297C157.982 497.87 155.944 499.139 154.174 499.139Z" fill="#323232"/>
<path d="M532.773 509.783L510.691 509.772C508.863 509.772 506.767 508.514 505.998 506.953L504.496 503.89C503.727 502.33 504.542 501.06 506.312 501.06H527.87C529.652 501.06 531.806 502.33 532.703 503.89L534.45 506.953C535.347 508.514 534.59 509.783 532.773 509.783Z" fill="#323232"/>
<path d="M454.801 509.783L432.708 509.772C430.891 509.772 429.062 508.514 428.632 506.953L427.781 503.89C427.339 502.33 428.434 501.06 430.204 501.06H451.761C453.543 501.06 455.43 502.33 455.989 503.89L457.084 506.953C457.631 508.514 456.618 509.783 454.801 509.783Z" fill="#323232"/>
<path d="M422.808 509.783L400.715 509.772C398.898 509.772 397.186 508.514 396.883 506.953L396.301 503.89C396.009 502.33 397.197 501.06 398.968 501.06H420.537C422.307 501.06 424.089 502.33 424.508 503.89L425.335 506.953C425.754 508.514 424.613 509.783 422.808 509.783Z" fill="#323232"/>
<path d="M391.014 509.783L368.932 509.772C367.104 509.772 365.508 508.514 365.345 506.953L365.031 503.89C364.868 502.33 366.172 501.06 367.942 501.06H389.511C391.281 501.06 392.947 502.33 393.238 503.89L393.797 506.953C394.077 508.514 392.83 509.783 391.014 509.783Z" fill="#323232"/>
<path d="M359.021 509.783L336.928 509.772C335.111 509.772 333.62 508.514 333.597 506.953L333.55 503.89C333.527 502.33 334.936 501.06 336.718 501.06H358.275C360.057 501.06 361.606 502.33 361.758 503.89L362.049 506.953C362.189 508.514 360.838 509.783 359.021 509.783Z" fill="#323232"/>
<path d="M327.134 509.783L305.041 509.772C303.224 509.772 301.838 508.514 301.955 506.953L302.176 503.89C302.292 502.33 303.818 501.06 305.588 501.06H327.146C328.927 501.06 330.372 502.33 330.383 503.89L330.407 506.953C330.407 508.514 328.951 509.783 327.134 509.783Z" fill="#323232"/>
<path d="M295.653 509.783L273.56 509.772C271.743 509.772 270.474 508.514 270.718 506.953L271.208 503.89C271.452 502.33 273.094 501.06 274.864 501.06H296.422C298.192 501.06 299.543 502.33 299.415 503.89L299.17 506.953C299.042 508.514 297.47 509.783 295.653 509.783Z" fill="#323232"/>
<path d="M264.278 509.783L242.197 509.772C240.38 509.772 239.215 508.514 239.588 506.953L240.345 503.89C240.729 502.33 242.464 501.06 244.246 501.06H265.804C267.574 501.06 268.808 502.33 268.552 503.89L268.04 506.953C267.783 508.514 266.095 509.783 264.278 509.783Z" fill="#323232"/>
<path d="M232.601 509.783L210.508 509.772C208.691 509.772 207.643 508.514 208.155 506.953L209.168 503.89C209.681 502.33 211.544 501.06 213.314 501.06H234.872C236.654 501.06 237.772 502.33 237.376 503.89L236.607 506.953C236.211 508.514 234.418 509.783 232.601 509.783Z" fill="#323232"/>
<path d="M200.654 509.783L178.573 509.772C176.756 509.772 175.801 508.514 176.465 506.953L177.746 503.89C178.398 502.33 180.366 501.06 182.137 501.06H203.694C205.476 501.06 206.477 502.33 205.953 503.89L204.905 506.953C204.381 508.514 202.471 509.783 200.654 509.783Z" fill="#323232"/>
<path d="M169.804 509.783L147.722 509.772C145.894 509.772 145.055 508.514 145.847 506.953L147.385 503.89C148.176 502.33 150.25 501.06 152.02 501.06H173.577C175.359 501.06 176.256 502.33 175.592 503.89L174.299 506.953C173.635 508.514 171.621 509.783 169.804 509.783Z" fill="#323232"/>
<path d="M138.591 509.897H115.252C113.435 509.897 112.713 508.627 113.633 507.067L115.45 504.004C116.37 502.443 118.56 501.174 120.33 501.174H143.122C144.892 501.185 145.684 502.443 144.892 504.004L143.32 507.067C142.528 508.627 140.408 509.897 138.591 509.897Z" fill="#323232"/>
<path d="M500.78 509.772H464.98C463.163 509.772 461.218 508.514 460.647 506.953L459.529 503.89C458.947 502.33 459.925 501.06 461.695 501.06H496.646C498.416 501.06 500.466 502.33 501.223 503.89L502.702 506.953C503.459 508.514 502.597 509.772 500.78 509.772Z" fill="#323232"/>
<path d="M521.767 488.505H500.862C499.15 488.505 497.123 487.131 496.354 485.431L496.343 485.396C495.574 483.707 496.32 482.333 498.02 482.333H518.576C520.264 482.333 522.361 483.719 523.246 485.407L523.269 485.442C524.166 487.131 523.49 488.505 521.767 488.505Z" fill="#323232"/>
<path d="M491.486 488.505H470.593C468.869 488.505 466.959 487.131 466.33 485.431L466.318 485.396C465.69 483.707 466.551 482.333 468.24 482.333H488.796C490.485 482.333 492.476 483.719 493.222 485.407L493.245 485.442C493.99 487.131 493.21 488.505 491.486 488.505Z" fill="#323232"/>
<path d="M460.95 488.505H440.056C438.333 488.505 436.539 487.131 436.05 485.431L436.038 485.396C435.549 483.707 436.516 482.333 438.204 482.333H458.76C460.461 482.333 462.336 483.719 462.941 485.407L462.953 485.442C463.57 487.131 462.673 488.505 460.95 488.505Z" fill="#323232"/>
<path d="M431.263 488.505H410.369C408.646 488.505 406.957 487.131 406.608 485.431L406.596 485.396C406.235 483.707 407.318 482.333 409.007 482.333H429.563C431.263 482.333 433.022 483.719 433.499 485.407L433.511 485.442C433.988 487.131 432.987 488.505 431.263 488.505Z" fill="#323232"/>
<path d="M401.553 488.505H380.66C378.936 488.505 377.352 487.131 377.131 485.431V485.396C376.91 483.707 378.098 482.333 379.786 482.333H400.342C402.031 482.333 403.696 483.719 404.034 485.407L404.046 485.442C404.395 487.131 403.277 488.505 401.553 488.505Z" fill="#323232"/>
<path d="M370.912 488.505H350.007C348.283 488.505 346.828 487.131 346.746 485.431L346.734 485.396C346.653 483.707 347.957 482.333 349.646 482.333H370.202C371.891 482.333 373.439 483.719 373.649 485.407V485.442C373.859 487.131 372.636 488.505 370.912 488.505Z" fill="#323232"/>
<path d="M340.737 488.505H319.831C318.108 488.505 316.757 487.131 316.815 485.431V485.396C316.862 483.707 318.271 482.333 319.971 482.333H340.527C342.216 482.333 343.648 483.719 343.718 485.407V485.442C343.788 487.131 342.449 488.505 340.737 488.505Z" fill="#323232"/>
<path d="M310.956 488.505H290.051C288.328 488.505 287.081 487.131 287.268 485.431V485.396C287.454 483.707 288.98 482.333 290.668 482.333H311.224C312.925 482.333 314.241 483.719 314.182 485.407V485.442C314.112 487.131 312.668 488.505 310.956 488.505Z" fill="#323232"/>
<path d="M281.259 488.505H260.365C258.642 488.505 257.512 487.131 257.827 485.431V485.396C258.153 483.707 259.783 482.333 261.472 482.333H282.028C283.728 482.333 284.939 483.719 284.741 485.407L284.73 485.442C284.532 487.131 282.983 488.505 281.259 488.505Z" fill="#323232"/>
<path d="M251.281 488.505H230.376C228.653 488.505 227.628 487.131 228.082 485.431L228.105 485.396C228.559 483.707 230.295 482.333 231.984 482.333H252.539C254.24 482.333 255.334 483.719 255.008 485.407L254.997 485.442C254.659 487.131 252.993 488.505 251.281 488.505Z" fill="#323232"/>
<path d="M219.126 488.505H198.22C196.497 488.505 195.588 487.131 196.194 485.431L196.206 485.396C196.811 483.707 198.663 482.333 200.363 482.333H220.919C222.608 482.333 223.586 483.719 223.109 485.407L223.097 485.442C222.619 487.131 220.838 488.505 219.126 488.505Z" fill="#323232"/>
<path d="M189.044 488.505H168.15C166.426 488.505 165.623 487.131 166.368 485.431L166.38 485.396C167.114 483.707 169.082 482.333 170.771 482.333H191.338C193.027 482.333 193.9 483.719 193.283 485.407L193.271 485.442C192.654 487.131 190.767 488.505 189.044 488.505Z" fill="#323232"/>
<path d="M158.961 488.505H126.736C125.012 488.505 124.371 487.131 125.292 485.431L125.315 485.407C126.235 483.707 128.355 482.333 130.043 482.333H161.745C163.433 482.333 164.202 483.719 163.445 485.407L163.433 485.442C162.688 487.131 160.685 488.505 158.961 488.505Z" fill="#323232"/>
<path d="M122.252 541.274L98.4119 541.262C96.4553 541.262 95.6051 540.028 96.5252 538.49L98.342 535.486C99.2737 533.948 101.58 532.702 103.49 532.702H126.806C128.727 532.702 129.636 533.948 128.832 535.486L127.26 538.49C126.456 540.028 124.22 541.274 122.252 541.274Z" fill="#323232"/>
<path d="M163.107 522.221H111.083C108.148 522.221 105.365 522.896 104.852 523.747L101.545 529.185C101.032 530.024 103.035 530.711 106.04 530.711H159.276C162.28 530.711 165.006 530.024 165.367 529.185L167.742 523.747C168.115 522.896 166.042 522.221 163.107 522.221Z" fill="#323232"/>
<path d="M194.925 530.711H171.679C169.757 530.711 168.733 529.477 169.385 527.951L170.654 524.969C171.306 523.444 173.344 522.221 175.22 522.221H197.942C199.817 522.221 200.911 523.455 200.376 524.969L199.351 527.951C198.815 529.477 196.847 530.711 194.925 530.711Z" fill="#323232"/>
<path d="M228.617 530.711H205.359C203.438 530.711 202.308 529.477 202.82 527.951L203.822 524.969C204.334 523.444 206.268 522.221 208.143 522.221H230.876C232.74 522.221 233.939 523.455 233.555 524.969L232.786 527.951C232.39 529.477 230.527 530.711 228.617 530.711Z" fill="#323232"/>
<path d="M261.542 530.711H238.284C236.374 530.711 235.128 529.477 235.501 527.951L236.246 524.969C236.619 523.444 238.447 522.221 240.322 522.221H263.044C264.919 522.221 266.224 523.455 265.967 524.969L265.467 527.951C265.21 529.477 263.452 530.711 261.542 530.711Z" fill="#323232"/>
<path d="M295.002 530.711H271.755C269.834 530.711 268.483 529.477 268.727 527.951L269.193 524.969C269.438 523.444 271.162 522.221 273.025 522.221H295.759C297.622 522.221 299.043 523.455 298.926 524.969L298.693 527.951C298.565 529.477 296.923 530.711 295.002 530.711Z" fill="#323232"/>
<path d="M328.472 530.711H305.215C303.305 530.711 301.837 529.477 301.942 527.951L302.152 524.969C302.268 523.444 303.864 522.221 305.739 522.221H328.461C330.336 522.221 331.861 523.455 331.873 524.969L331.908 527.951C331.92 529.477 330.394 530.711 328.472 530.711Z" fill="#323232"/>
<path d="M361.944 530.711H338.686C336.776 530.711 335.192 529.477 335.169 527.951L335.111 524.969C335.076 523.444 336.567 522.221 338.442 522.221H361.164C363.039 522.221 364.681 523.455 364.832 524.969L365.135 527.951C365.286 529.477 363.854 530.711 361.944 530.711Z" fill="#323232"/>
<path d="M395.078 530.711H371.832C369.911 530.711 368.222 529.477 368.059 527.951L367.744 524.969C367.581 523.444 368.956 522.221 370.831 522.221H393.564C395.428 522.221 397.175 523.455 397.466 524.969L398.025 527.951C398.316 529.477 397 530.711 395.078 530.711Z" fill="#323232"/>
<path d="M428.549 530.711H405.292C403.382 530.711 401.576 529.477 401.285 527.951L400.691 524.969C400.389 523.444 401.67 522.221 403.533 522.221H426.267C428.142 522.221 429.993 523.455 430.413 524.969L431.251 527.951C431.671 529.477 430.459 530.711 428.549 530.711Z" fill="#323232"/>
<path d="M476.125 530.711H439.742C437.832 530.711 435.922 529.477 435.479 527.951L434.618 524.969C434.175 523.444 435.34 522.221 437.203 522.221H472.759C474.634 522.221 476.649 523.455 477.266 524.969L478.478 527.951C479.095 529.477 478.035 530.711 476.125 530.711Z" fill="#323232"/>
<path d="M157.015 541.274H133.175C131.219 541.274 130.264 540.028 131.044 538.49L132.593 535.486C133.373 533.948 135.574 532.702 137.484 532.702H160.8C162.722 532.702 163.735 533.948 163.083 535.486L161.779 538.502C161.115 540.028 158.984 541.274 157.015 541.274Z" fill="#323232"/>
<path d="M191.559 541.274H167.719C165.751 541.274 164.691 540.028 165.343 538.49L166.613 535.486C167.265 533.948 169.349 532.702 171.259 532.702H194.575C196.497 532.702 197.627 533.96 197.103 535.486L196.066 538.502C195.542 540.028 193.527 541.274 191.559 541.274Z" fill="#323232"/>
<path d="M226.102 541.274H202.25C200.294 541.274 199.117 540.028 199.63 538.49L200.631 535.486C201.144 533.948 203.124 532.702 205.034 532.702L228.35 532.714C230.271 532.714 231.518 533.96 231.122 535.486L230.365 538.502C229.969 540.028 228.059 541.274 226.102 541.274Z" fill="#323232"/>
<g filter="url(#filter1_d_152_140)">
<path fill-rule="evenodd" clip-rule="evenodd" d="M377.791 355.835C423.264 334.872 454.826 288.886 454.826 235.529C454.826 162.404 395.547 103.125 322.423 103.125C249.298 103.125 190.019 162.404 190.019 235.529C190.019 308.653 249.298 367.933 322.423 367.933C325.019 367.933 327.599 367.858 330.159 367.71C329.179 369.217 328.14 370.78 327.054 372.414C323.433 377.864 319.289 384.101 315.049 391.646L377.791 355.835Z" fill="white"/>
</g>
<rect width="5.51809" height="56.9809" transform="matrix(0.999972 -0.00743443 0.0065794 0.999978 251.572 152.708)" fill="#F0F0F2"/>
<rect width="5.51809" height="56.9809" transform="matrix(0.999972 -0.00743443 0.0065794 0.999978 392.245 153.402)" fill="#F0F0F2"/>
<ellipse rx="7.48883" ry="7.96057" transform="matrix(0.999972 -0.00743443 0.0065794 0.999978 394.975 148.772)" fill="#D2D3D5"/>
<ellipse rx="7.48883" ry="7.96057" transform="matrix(0.999972 -0.00743443 0.0065794 0.999978 254.301 148.076)" fill="#D2D3D5"/>
<ellipse rx="20.8899" ry="22.2058" transform="matrix(0.999972 -0.00743443 0.0065794 0.999978 261.925 228.466)" fill="#D2D3D5"/>
<ellipse rx="20.1016" ry="21.7868" transform="matrix(0.999972 -0.00743443 0.0065794 0.999978 389.983 228.836)" fill="#D2D3D5"/>
<g filter="url(#filter2_i_152_140)">
<path d="M376.778 356.441C365.39 361.893 352.071 367.389 324.862 367.591C297.652 367.793 278.779 361.107 272.597 357.835C272.384 325.413 298.082 290.724 325.291 290.522C352.501 290.32 376.565 324.019 376.778 356.441Z" fill="#ECECEC"/>
</g>
<g filter="url(#filter3_i_152_140)">
<ellipse rx="32.3202" ry="12.9883" transform="matrix(0.999972 -0.00743443 0.0065794 0.999978 324.928 295.135)" fill="#D2D3D5"/>
</g>
<g filter="url(#filter4_i_152_140)">
<path fill-rule="evenodd" clip-rule="evenodd" d="M394.669 233.511C394.675 233.071 394.677 232.63 394.674 232.188C390.523 200.373 369.033 174.606 329.634 171.691C291.382 168.859 262.405 204.453 259.882 233.801C259.883 233.864 259.883 233.927 259.884 233.99C259.382 235.737 259.119 237.583 259.131 239.489L259.372 275.976C259.442 286.699 268.192 295.327 278.914 295.247L329.647 294.87C329.913 294.871 330.178 294.87 330.444 294.868C330.707 294.866 330.97 294.863 331.232 294.858L375.668 294.528C386.391 294.448 395.026 285.691 394.955 274.968L394.687 234.229C394.686 233.988 394.68 233.749 394.669 233.511Z" fill="#F8F8F8"/>
</g>
<g filter="url(#filter5_i_152_140)">
<path fill-rule="evenodd" clip-rule="evenodd" d="M379.695 233.58C379.699 233.239 379.7 232.898 379.698 232.555C376.44 207.584 359.573 187.36 328.649 185.072C298.626 182.849 275.882 210.787 273.902 233.821C273.903 233.87 273.903 233.92 273.904 233.969C273.51 235.339 273.304 236.787 273.313 238.282L273.502 266.921C273.557 275.337 280.425 282.109 288.841 282.046L328.404 281.752C328.697 281.754 328.991 281.754 329.285 281.752C329.576 281.749 329.866 281.745 330.156 281.739L364.781 281.482C373.197 281.419 379.975 274.546 379.919 266.13L379.709 234.154C379.708 233.962 379.703 233.771 379.695 233.58Z" fill="#E8E8E8"/>
</g>
<g filter="url(#filter6_i_152_140)">
<path fill-rule="evenodd" clip-rule="evenodd" d="M379.712 236.094C379.716 235.754 379.717 235.413 379.715 235.071C376.457 210.101 359.59 189.877 328.666 187.589C298.643 185.366 275.9 213.303 273.919 236.338C273.92 236.387 273.92 236.436 273.921 236.486C273.527 237.856 273.321 239.304 273.331 240.799L273.519 269.437C273.575 277.853 280.442 284.625 288.858 284.563L328.421 284.268C328.714 284.27 329.008 284.27 329.302 284.268C329.593 284.266 329.884 284.262 330.173 284.255L364.798 283.998C373.214 283.935 379.992 277.062 379.937 268.646L379.726 236.67C379.725 236.477 379.72 236.285 379.712 236.094Z" fill="url(#paint2_linear_152_140)"/>
</g>
<ellipse rx="7.19743" ry="7.57219" transform="matrix(0.951653 -0.307175 0.274669 0.961539 302.987 233.302)" fill="#4BEDDE"/>
<ellipse rx="7.19743" ry="7.57219" transform="matrix(0.951653 -0.307175 0.274669 0.961539 350.111 234)" fill="#4BEDDE"/>
<path d="M343.932 257.026C342.609 262.908 336.009 269.589 326.572 269.83C317.136 270.072 311.256 263.89 309.248 258.548C307.654 254.307 306.858 255.287 326.302 255.155C344.765 255.029 344.466 254.65 343.932 257.026Z" fill="#4BEDDE"/>
<g filter="url(#filter7_d_152_140)">
<path fill-rule="evenodd" clip-rule="evenodd" d="M435.985 139.074C421.168 139.074 409.156 151.086 409.156 165.903C409.156 175.059 413.742 183.143 420.742 187.984L412.375 201.926L432.558 192.516C433.68 192.659 434.824 192.732 435.985 192.732H488.25C503.067 192.732 515.079 180.721 515.079 165.903C515.079 151.086 503.067 139.074 488.25 139.074H435.985Z" fill="url(#paint3_linear_152_140)"/>
</g>
<circle cx="489.805" cy="164.952" r="5.92334" fill="white"/>
<g filter="url(#filter8_d_152_140)">
<path fill-rule="evenodd" clip-rule="evenodd" d="M554.031 109.83C568.849 109.83 580.86 121.842 580.86 136.659C580.86 145.815 576.275 153.899 569.274 158.741L577.641 172.682L557.458 163.272C556.336 163.415 555.192 163.488 554.031 163.488H501.766C486.949 163.488 474.937 151.477 474.937 136.659C474.937 121.842 486.949 109.83 501.766 109.83H554.031Z" fill="url(#paint4_linear_152_140)"/>
</g>
<circle cx="435.288" cy="165.9" r="5.92334" fill="white"/>
<circle cx="500.985" cy="135.881" r="5.92334" fill="white"/>
<circle cx="465.208" cy="164.952" r="5.92334" fill="white"/>
<circle cx="527.466" cy="135.881" r="5.92334" fill="white"/>
<circle cx="553.946" cy="136.58" r="5.92334" fill="white"/>
<path d="M339.537 339.137C337.176 339.11 334.814 339.082 332.474 339.054C329.826 339.023 327.199 338.992 324.551 338.96C323.359 338.946 322.192 338.712 321.047 338.411C319.991 338.134 318.958 337.746 317.971 337.227C316.94 336.685 315.998 336.034 315.147 335.251C314.208 334.401 313.447 333.421 312.908 332.311C312.369 331.201 312.096 330.005 312.089 328.747C312.088 327.003 312.614 325.442 313.602 324.041C314.523 322.683 315.749 321.638 317.15 320.794C318.573 319.928 320.125 319.372 321.74 319.016C322.625 318.828 323.51 318.706 324.438 318.65C324.99 318.635 325.542 318.597 326.094 318.626C327.241 318.662 328.387 318.808 329.51 319.086C330.852 319.411 332.149 319.89 333.378 320.544C334.342 321.085 335.24 321.714 336.07 322.474C337.074 323.413 337.856 324.504 338.393 325.769C338.693 326.479 338.883 327.232 338.984 328.028C339.144 329.442 338.93 330.764 338.385 332.06C338.044 332.873 337.572 333.596 337.012 334.273C336.833 334.492 336.654 334.688 336.475 334.863C336.386 334.95 336.363 335.016 336.406 335.149C336.746 336.257 337.286 337.257 338.137 338.061C338.465 338.374 338.836 338.666 339.253 338.869C339.363 338.915 339.473 339.004 339.582 339.05C339.56 339.094 339.56 339.116 339.537 339.137ZM329.574 330.477C330.17 330.484 330.788 330.469 331.383 330.498C331.648 330.501 331.694 330.414 331.696 330.171C331.685 329.288 331.695 328.405 331.728 327.5C331.731 327.257 331.665 327.19 331.423 327.188C330.208 327.195 329.017 327.159 327.803 327.167C327.516 327.163 327.473 327.075 327.476 326.81C327.512 325.618 327.504 324.448 327.518 323.256C327.52 323.036 327.477 322.969 327.234 322.966C326.307 322.977 325.358 322.966 324.431 322.933C324.188 322.93 324.143 323.018 324.141 323.216C324.127 324.408 324.113 325.6 324.099 326.792C324.096 327.035 324.029 327.1 323.786 327.097C322.594 327.061 321.424 327.069 320.233 327.033C319.946 327.03 319.901 327.118 319.897 327.382C319.909 328.266 319.899 329.126 319.866 330.009C319.864 330.252 319.929 330.341 320.171 330.344C321.342 330.335 322.511 330.371 323.681 330.363C323.968 330.366 324.033 330.456 324.03 330.72C323.994 331.912 324.002 333.082 323.966 334.274C323.964 334.472 324.007 334.539 324.228 334.542C325.155 334.531 326.104 334.542 327.031 334.575C327.274 334.578 327.319 334.49 327.321 334.269C327.313 333.077 327.349 331.885 327.364 330.694C327.366 330.473 327.411 330.407 327.654 330.41C328.359 330.485 328.978 330.47 329.574 330.477Z" fill="#0047CC" fill-opacity="0.8"/>
<g filter="url(#filter9_d_152_140)">
<path d="M295.115 431.836C295.115 432.385 295.102 432.933 295.075 433.481C295.047 434.031 295.007 434.577 294.954 435.123C294.9 435.669 294.834 436.215 294.752 436.758C294.671 437.3 294.578 437.84 294.471 438.379C294.363 438.918 294.244 439.452 294.11 439.985C293.977 440.518 293.83 441.047 293.671 441.573C293.513 442.098 293.339 442.618 293.155 443.136C292.97 443.652 292.772 444.164 292.562 444.672C292.352 445.179 292.129 445.681 291.895 446.176C291.66 446.673 291.413 447.163 291.154 447.647C290.895 448.13 290.625 448.609 290.343 449.079C290.062 449.55 289.767 450.015 289.463 450.47C289.158 450.927 288.841 451.375 288.514 451.818C288.187 452.258 287.851 452.691 287.501 453.114C287.153 453.539 286.794 453.955 286.426 454.361C286.057 454.768 285.679 455.164 285.292 455.554C284.903 455.941 284.506 456.321 284.099 456.689C283.691 457.058 283.277 457.415 282.852 457.765C282.427 458.112 281.996 458.451 281.554 458.778C281.113 459.105 280.666 459.42 280.208 459.725C279.751 460.031 279.288 460.324 278.817 460.605C278.347 460.889 277.869 461.159 277.385 461.418C276.901 461.677 276.41 461.922 275.915 462.157C275.418 462.391 274.917 462.614 274.408 462.824C273.902 463.034 273.39 463.232 272.874 463.417C272.356 463.602 271.834 463.774 271.311 463.933C270.786 464.092 270.256 464.239 269.723 464.372C269.191 464.506 268.656 464.627 268.117 464.733C267.579 464.84 267.038 464.935 266.496 465.014C265.951 465.095 265.407 465.162 264.861 465.216C264.315 465.269 263.767 465.311 263.219 465.337C262.671 465.364 262.123 465.377 261.573 465.377C261.025 465.377 260.477 465.364 259.927 465.337C259.379 465.311 258.832 465.269 258.286 465.216C257.74 465.162 257.194 465.095 256.652 465.014C256.109 464.935 255.569 464.84 255.03 464.733C254.492 464.627 253.955 464.506 253.424 464.372C252.891 464.239 252.362 464.092 251.836 463.933C251.311 463.774 250.789 463.602 250.273 463.417C249.756 463.232 249.244 463.034 248.737 462.824C248.231 462.614 247.728 462.391 247.233 462.157C246.736 461.922 246.246 461.677 245.762 461.418C245.277 461.159 244.801 460.889 244.33 460.605C243.858 460.324 243.395 460.031 242.939 459.725C242.482 459.42 242.034 459.105 241.592 458.778C241.151 458.451 240.719 458.112 240.295 457.765C239.87 457.415 239.454 457.058 239.048 456.689C238.642 456.321 238.243 455.941 237.855 455.554C237.468 455.164 237.088 454.768 236.72 454.361C236.351 453.955 235.994 453.539 235.644 453.114C235.297 452.691 234.958 452.258 234.631 451.818C234.305 451.375 233.989 450.927 233.685 450.47C233.379 450.015 233.086 449.55 232.804 449.079C232.521 448.609 232.25 448.13 231.991 447.647C231.732 447.163 231.487 446.673 231.252 446.176C231.016 445.681 230.795 445.179 230.585 444.672C230.374 444.164 230.177 443.652 229.992 443.136C229.807 442.618 229.635 442.098 229.476 441.573C229.315 441.047 229.17 440.518 229.036 439.985C228.903 439.452 228.782 438.918 228.677 438.379C228.569 437.84 228.474 437.3 228.395 436.758C228.314 436.215 228.246 435.669 228.193 435.123C228.14 434.577 228.098 434.031 228.072 433.481C228.045 432.933 228.032 432.385 228.032 431.836C228.032 431.287 228.045 430.738 228.072 430.19C228.098 429.642 228.14 429.094 228.193 428.548C228.246 428.002 228.314 427.458 228.395 426.913C228.474 426.371 228.569 425.831 228.677 425.292C228.782 424.753 228.903 424.219 229.036 423.686C229.17 423.153 229.315 422.624 229.476 422.098C229.635 421.573 229.807 421.053 229.992 420.535C230.177 420.019 230.374 419.507 230.585 418.999C230.795 418.492 231.016 417.992 231.252 417.495C231.487 416.998 231.732 416.508 231.991 416.024C232.25 415.541 232.521 415.062 232.804 414.592C233.086 414.121 233.379 413.656 233.685 413.201C233.989 412.744 234.305 412.296 234.631 411.855C234.958 411.413 235.297 410.98 235.644 410.557C235.994 410.132 236.351 409.716 236.72 409.31C237.088 408.904 237.468 408.507 237.855 408.117C238.243 407.73 238.642 407.352 239.048 406.983C239.454 406.615 239.87 406.256 240.295 405.908C240.719 405.559 241.151 405.222 241.592 404.895C242.034 404.568 242.482 404.251 242.939 403.947C243.395 403.642 243.858 403.347 244.33 403.066C244.801 402.784 245.277 402.512 245.762 402.255C246.246 401.996 246.736 401.749 247.233 401.514C247.728 401.28 248.231 401.057 248.737 400.847C249.244 400.637 249.756 400.439 250.273 400.254C250.789 400.069 251.311 399.897 251.836 399.738C252.362 399.579 252.891 399.432 253.424 399.299C253.955 399.165 254.492 399.046 255.03 398.939C255.569 398.831 256.109 398.738 256.652 398.657C257.194 398.576 257.74 398.51 258.286 398.455C258.832 398.402 259.379 398.36 259.927 398.334C260.477 398.307 261.025 398.294 261.573 398.294C262.123 398.294 262.671 398.307 263.219 398.334C263.767 398.36 264.315 398.402 264.861 398.455C265.407 398.51 265.951 398.576 266.496 398.657C267.038 398.738 267.579 398.831 268.117 398.939C268.656 399.046 269.191 399.165 269.723 399.299C270.256 399.432 270.786 399.579 271.311 399.738C271.834 399.897 272.356 400.069 272.874 400.254C273.39 400.439 273.902 400.637 274.408 400.847C274.917 401.057 275.418 401.28 275.915 401.514C276.41 401.749 276.901 401.996 277.385 402.255C277.869 402.512 278.347 402.784 278.817 403.066C279.288 403.347 279.751 403.642 280.208 403.947C280.666 404.251 281.113 404.568 281.554 404.895C281.996 405.222 282.427 405.559 282.852 405.908C283.277 406.256 283.691 406.615 284.099 406.983C284.506 407.352 284.903 407.73 285.292 408.117C285.679 408.507 286.057 408.904 286.426 409.31C286.794 409.716 287.153 410.132 287.501 410.557C287.851 410.98 288.187 411.413 288.514 411.855C288.841 412.296 289.158 412.744 289.463 413.201C289.767 413.656 290.062 414.121 290.343 414.592C290.625 415.062 290.895 415.541 291.154 416.024C291.413 416.508 291.66 416.998 291.895 417.495C292.129 417.992 292.352 418.492 292.562 418.999C292.772 419.507 292.97 420.019 293.155 420.535C293.339 421.053 293.513 421.573 293.671 422.098C293.83 422.624 293.977 423.153 294.11 423.686C294.244 424.219 294.363 424.753 294.471 425.292C294.578 425.831 294.671 426.371 294.752 426.913C294.834 427.458 294.9 428.002 294.954 428.548C295.007 429.094 295.047 429.642 295.075 430.19C295.102 430.738 295.115 431.287 295.115 431.836Z" fill="url(#paint5_linear_152_140)"/>
</g>
<path fill-rule="evenodd" clip-rule="evenodd" d="M253.002 415.993C256.895 415.993 260.272 418.206 261.947 421.442C263.619 418.206 266.998 415.993 270.889 415.993C276.447 415.993 280.953 420.499 280.953 426.055C280.953 439.414 265.728 446.958 262.147 446.958C257.942 446.958 242.939 439.535 242.939 426.055C242.939 420.499 247.444 415.993 253.002 415.993Z" fill="white"/>
<g filter="url(#filter10_d_152_140)">
<path d="M55.8529 242.74V327.807C55.8529 332.049 59.2768 335.489 63.4981 335.489H90.4042C92.4306 335.489 94.3748 336.299 95.8093 337.737L127.738 369.814C130.722 372.811 135.564 372.811 138.548 369.814L170.477 337.737C171.912 336.299 173.856 335.489 175.882 335.489H202.792C207.014 335.489 210.434 332.049 210.434 327.807V242.74C210.434 238.498 207.014 235.057 202.792 235.057H63.4981C59.2768 235.057 55.8529 238.498 55.8529 242.74Z" fill="url(#paint6_linear_152_140)"/>
</g>
<path d="M153.905 317.094C153.753 317.094 153.596 317.069 153.448 317.02L141.417 312.922C138.75 313.826 135.971 314.278 133.143 314.278C118.823 314.278 107.174 302.576 107.174 288.19C107.174 273.8 118.823 262.098 133.143 262.098C147.468 262.098 159.116 273.8 159.116 288.19C159.116 294.623 156.782 300.755 152.528 305.544L155.277 315.269C155.421 315.783 155.273 316.333 154.887 316.699C154.62 316.954 154.266 317.094 153.905 317.094Z" fill="white"/>
<g filter="url(#filter11_d_152_140)">
<path d="M556.738 355.81C556.738 357.052 556.708 358.294 556.648 359.537C556.588 360.783 556.494 362.021 556.374 363.259C556.254 364.497 556.1 365.735 555.915 366.964C555.735 368.194 555.521 369.419 555.277 370.64C555.037 371.861 554.763 373.073 554.463 374.281C554.159 375.489 553.829 376.688 553.465 377.879C553.105 379.07 552.715 380.248 552.296 381.421C551.876 382.591 551.43 383.752 550.951 384.904C550.475 386.052 549.974 387.191 549.439 388.314C548.907 389.44 548.351 390.55 547.764 391.646C547.177 392.743 546.564 393.827 545.922 394.893C545.283 395.96 544.62 397.014 543.926 398.046C543.236 399.083 542.521 400.098 541.78 401.1C541.038 402.098 540.272 403.079 539.484 404.039C538.691 405.003 537.881 405.945 537.046 406.866C536.211 407.787 535.35 408.686 534.472 409.569C533.594 410.447 532.69 411.308 531.769 412.143C530.848 412.979 529.905 413.788 528.942 414.581C527.982 415.369 527.001 416.136 526.003 416.877C525.001 417.618 523.986 418.333 522.949 419.023C521.917 419.717 520.867 420.381 519.796 421.019C518.73 421.661 517.65 422.274 516.549 422.861C515.453 423.448 514.343 424.005 513.217 424.536C512.094 425.067 510.955 425.572 509.807 426.048C508.655 426.523 507.498 426.973 506.324 427.393C505.155 427.813 503.973 428.202 502.782 428.562C501.591 428.922 500.392 429.256 499.184 429.556C497.98 429.86 496.763 430.134 495.543 430.374C494.322 430.618 493.097 430.833 491.867 431.012C490.638 431.197 489.4 431.347 488.162 431.471C486.924 431.591 485.686 431.685 484.444 431.745C483.197 431.805 481.955 431.835 480.713 431.835C479.466 431.835 478.224 431.805 476.982 431.745C475.74 431.685 474.497 431.591 473.259 431.471C472.022 431.347 470.788 431.197 469.554 431.012C468.325 430.833 467.1 430.618 465.879 430.374C464.658 430.134 463.446 429.86 462.238 429.556C461.03 429.256 459.83 428.922 458.64 428.562C457.453 428.202 456.271 427.813 455.097 427.393C453.928 426.973 452.767 426.523 451.619 426.048C450.467 425.572 449.331 425.067 448.205 424.536C447.083 424.005 445.969 423.448 444.872 422.861C443.776 422.274 442.692 421.661 441.625 421.019C440.559 420.381 439.505 419.717 438.473 419.023C437.436 418.333 436.421 417.618 435.423 416.877C434.42 416.136 433.444 415.369 432.48 414.581C431.516 413.788 430.578 412.979 429.653 412.143C428.732 411.308 427.832 410.447 426.95 409.569C426.072 408.686 425.215 407.787 424.38 406.866C423.544 405.945 422.73 405.003 421.942 404.039C421.15 403.079 420.387 402.098 419.646 401.1C418.905 400.098 418.186 399.083 417.496 398.046C416.806 397.014 416.138 395.96 415.5 394.893C414.861 393.827 414.249 392.743 413.662 391.646C413.075 390.55 412.514 389.44 411.983 388.314C411.452 387.191 410.946 386.052 410.471 384.904C409.995 383.752 409.546 382.591 409.126 381.421C408.71 380.248 408.316 379.07 407.956 377.879C407.597 376.688 407.262 375.489 406.963 374.281C406.658 373.073 406.389 371.861 406.144 370.64C405.9 369.419 405.69 368.194 405.506 366.964C405.322 365.735 405.172 364.497 405.048 363.259C404.928 362.021 404.838 360.783 404.774 359.537C404.714 358.294 404.684 357.052 404.684 355.81C404.684 354.563 404.714 353.321 404.774 352.079C404.838 350.837 404.928 349.595 405.048 348.357C405.172 347.119 405.322 345.885 405.506 344.651C405.69 343.422 405.9 342.197 406.144 340.976C406.389 339.755 406.658 338.543 406.963 337.335C407.262 336.127 407.597 334.928 407.956 333.737C408.316 332.546 408.71 331.368 409.126 330.194C409.546 329.025 409.995 327.864 410.471 326.712C410.946 325.564 411.452 324.429 411.983 323.302C412.514 322.175 413.075 321.066 413.662 319.969C414.249 318.873 414.861 317.789 415.5 316.722C416.138 315.656 416.806 314.602 417.496 313.57C418.186 312.533 418.905 311.518 419.646 310.52C420.387 309.517 421.15 308.536 421.942 307.577C422.73 306.613 423.544 305.671 424.38 304.75C425.215 303.829 426.072 302.929 426.95 302.047C427.832 301.169 428.732 300.312 429.653 299.477C430.578 298.641 431.516 297.828 432.48 297.039C433.444 296.247 434.42 295.484 435.423 294.743C436.421 294.002 437.436 293.283 438.473 292.593C439.505 291.903 440.559 291.235 441.625 290.597C442.692 289.959 443.776 289.342 444.872 288.759C445.969 288.172 447.083 287.611 448.205 287.08C449.331 286.549 450.467 286.043 451.619 285.568C452.767 285.092 453.928 284.643 455.097 284.223C456.271 283.803 457.453 283.413 458.64 283.053C459.83 282.694 461.03 282.36 462.238 282.06C463.446 281.756 464.658 281.486 465.879 281.242C467.1 280.997 468.325 280.787 469.554 280.603C470.788 280.419 472.022 280.269 473.259 280.145C474.497 280.025 475.74 279.931 476.982 279.871C478.224 279.811 479.466 279.781 480.713 279.781C481.955 279.781 483.197 279.811 484.444 279.871C485.686 279.931 486.924 280.025 488.162 280.145C489.4 280.269 490.638 280.419 491.867 280.603C493.097 280.787 494.322 280.997 495.543 281.242C496.763 281.486 497.98 281.756 499.184 282.06C500.392 282.36 501.591 282.694 502.782 283.053C503.973 283.413 505.155 283.803 506.324 284.223C507.498 284.643 508.655 285.092 509.807 285.568C510.955 286.043 512.094 286.549 513.217 287.08C514.343 287.611 515.453 288.172 516.549 288.759C517.65 289.342 518.73 289.959 519.796 290.597C520.867 291.235 521.917 291.903 522.949 292.593C523.986 293.283 525.001 294.002 526.003 294.743C527.001 295.484 527.982 296.247 528.942 297.039C529.905 297.828 530.848 298.641 531.769 299.477C532.69 300.312 533.594 301.169 534.472 302.047C535.35 302.929 536.211 303.829 537.046 304.75C537.881 305.671 538.691 306.613 539.484 307.577C540.272 308.536 541.038 309.517 541.78 310.52C542.521 311.518 543.236 312.533 543.926 313.57C544.62 314.602 545.283 315.656 545.922 316.722C546.564 317.789 547.177 318.873 547.764 319.969C548.351 321.066 548.907 322.175 549.439 323.302C549.974 324.429 550.475 325.564 550.951 326.712C551.43 327.864 551.876 329.025 552.296 330.194C552.715 331.368 553.105 332.546 553.465 333.737C553.829 334.928 554.159 336.127 554.463 337.335C554.763 338.543 555.037 339.755 555.277 340.976C555.521 342.197 555.735 343.422 555.915 344.651C556.1 345.885 556.254 347.119 556.374 348.357C556.494 349.595 556.588 350.837 556.648 352.079C556.708 353.321 556.738 354.563 556.738 355.81Z" fill="url(#paint7_linear_152_140)"/>
</g>
<path fill-rule="evenodd" clip-rule="evenodd" d="M446.92 343.985H446.924C453.431 343.985 458.751 349.305 458.751 355.811V386.221C458.751 392.727 453.431 398.043 446.924 398.043H446.92C440.413 398.043 435.093 392.727 435.093 386.221V355.811C435.093 349.305 440.413 343.985 446.92 343.985ZM465.507 347.36C468.886 342.858 472.262 338.352 473.958 333.284C475.641 328.217 475.641 322.584 475.08 318.643C474.519 314.702 473.388 312.445 474.519 311.318C475.641 310.191 479.017 310.191 482.401 310.757C485.781 311.318 489.156 312.449 490.848 315.829C492.536 319.204 492.536 324.837 491.975 328.778C491.409 332.719 490.283 334.976 489.722 337.225C489.16 339.478 489.16 341.731 493.667 341.731C498.173 341.731 507.181 339.478 512.249 339.478C517.316 339.478 518.447 341.731 519.008 344.546C519.57 347.364 517.235 349.36 517.796 351.614C518.516 354.496 522.388 354.788 522.996 360.446C523.189 362.215 520.619 365.312 520.619 366.439C520.619 367.561 520.683 373.922 519.561 375.614C518.434 377.306 516.19 376.647 515.067 378.9C513.941 381.157 515.067 384.529 513.941 386.782C512.81 389.035 509.435 390.166 502.675 390.727C495.916 391.288 485.781 391.288 479.025 391.288C472.262 391.288 468.886 391.288 467.199 388.478C465.507 385.655 465.507 380.027 465.507 372.706C465.507 365.385 465.507 356.373 465.507 347.36Z" fill="white"/>
<defs>
<filter id="filter0_i_152_140" x="14.0096" y="6.74392" width="577.821" height="672.207" filterUnits="userSpaceOnUse" color-interpolation-filters="sRGB">
<feFlood flood-opacity="0" result="BackgroundImageFix"/>
<feBlend mode="normal" in="SourceGraphic" in2="BackgroundImageFix" result="shape"/>
<feColorMatrix in="SourceAlpha" type="matrix" values="0 0 0 0 0 0 0 0 0 0 0 0 0 0 0 0 0 0 127 0" result="hardAlpha"/>
<feOffset dy="15"/>
<feGaussianBlur stdDeviation="13"/>
<feComposite in2="hardAlpha" operator="arithmetic" k2="-1" k3="1"/>
<feColorMatrix type="matrix" values="0 0 0 0 0 0 0 0 0 0 0 0 0 0 0 0 0 0 0.2 0"/>
<feBlend mode="normal" in2="shape" result="effect1_innerShadow_152_140"/>
</filter>
<filter id="filter1_d_152_140" x="167.658" y="96.4166" width="309.53" height="333.243" filterUnits="userSpaceOnUse" color-interpolation-filters="sRGB">
<feFlood flood-opacity="0" result="BackgroundImageFix"/>
<feColorMatrix in="SourceAlpha" type="matrix" values="0 0 0 0 0 0 0 0 0 0 0 0 0 0 0 0 0 0 127 0" result="hardAlpha"/>
<feOffset dy="15.6527"/>
<feGaussianBlur stdDeviation="11.1805"/>
<feComposite in2="hardAlpha" operator="out"/>
<feColorMatrix type="matrix" values="0 0 0 0 0 0 0 0 0 0 0 0 0 0 0 0 0 0 0.25 0"/>
<feBlend mode="normal" in2="BackgroundImageFix" result="effect1_dropShadow_152_140"/>
<feBlend mode="normal" in="SourceGraphic" in2="effect1_dropShadow_152_140" result="shape"/>
</filter>
<filter id="filter2_i_152_140" x="272.596" y="290.521" width="104.182" height="77.0744" filterUnits="userSpaceOnUse" color-interpolation-filters="sRGB">
<feFlood flood-opacity="0" result="BackgroundImageFix"/>
<feBlend mode="normal" in="SourceGraphic" in2="BackgroundImageFix" result="shape"/>
<feColorMatrix in="SourceAlpha" type="matrix" values="0 0 0 0 0 0 0 0 0 0 0 0 0 0 0 0 0 0 127 0" result="hardAlpha"/>
<feOffset/>
<feGaussianBlur stdDeviation="23.2142"/>
<feComposite in2="hardAlpha" operator="arithmetic" k2="-1" k3="1"/>
<feColorMatrix type="matrix" values="0 0 0 0 0 0 0 0 0 0 0 0 0 0 0 0 0 0 0.12 0"/>
<feBlend mode="normal" in2="shape" result="effect1_innerShadow_152_140"/>
</filter>
<filter id="filter3_i_152_140" x="292.608" y="278.769" width="64.6389" height="29.3572" filterUnits="userSpaceOnUse" color-interpolation-filters="sRGB">
<feFlood flood-opacity="0" result="BackgroundImageFix"/>
<feBlend mode="normal" in="SourceGraphic" in2="BackgroundImageFix" result="shape"/>
<feColorMatrix in="SourceAlpha" type="matrix" values="0 0 0 0 0 0 0 0 0 0 0 0 0 0 0 0 0 0 127 0" result="hardAlpha"/>
<feMorphology radius="0.844153" operator="erode" in="SourceAlpha" result="effect1_innerShadow_152_140"/>
<feOffset dy="-3.37661"/>
<feGaussianBlur stdDeviation="3.37661"/>
<feComposite in2="hardAlpha" operator="arithmetic" k2="-1" k3="1"/>
<feColorMatrix type="matrix" values="0 0 0 0 0 0 0 0 0 0 0 0 0 0 0 0 0 0 0.1 0"/>
<feBlend mode="normal" in2="shape" result="effect1_innerShadow_152_140"/>
</filter>
<filter id="filter4_i_152_140" x="259.131" y="171.533" width="135.824" height="124.559" filterUnits="userSpaceOnUse" color-interpolation-filters="sRGB">
<feFlood flood-opacity="0" result="BackgroundImageFix"/>
<feBlend mode="normal" in="SourceGraphic" in2="BackgroundImageFix" result="shape"/>
<feColorMatrix in="SourceAlpha" type="matrix" values="0 0 0 0 0 0 0 0 0 0 0 0 0 0 0 0 0 0 127 0" result="hardAlpha"/>
<feOffset dy="0.844153"/>
<feGaussianBlur stdDeviation="7.59738"/>
<feComposite in2="hardAlpha" operator="arithmetic" k2="-1" k3="1"/>
<feColorMatrix type="matrix" values="0 0 0 0 0 0 0 0 0 0 0 0 0 0 0 0 0 0 0.1 0"/>
<feBlend mode="normal" in2="shape" result="effect1_innerShadow_152_140"/>
</filter>
<filter id="filter5_i_152_140" x="273.313" y="184.948" width="106.606" height="97.7617" filterUnits="userSpaceOnUse" color-interpolation-filters="sRGB">
<feFlood flood-opacity="0" result="BackgroundImageFix"/>
<feBlend mode="normal" in="SourceGraphic" in2="BackgroundImageFix" result="shape"/>
<feColorMatrix in="SourceAlpha" type="matrix" values="0 0 0 0 0 0 0 0 0 0 0 0 0 0 0 0 0 0 127 0" result="hardAlpha"/>
<feOffset dy="0.662562"/>
<feGaussianBlur stdDeviation="8.94459"/>
<feComposite in2="hardAlpha" operator="arithmetic" k2="-1" k3="1"/>
<feColorMatrix type="matrix" values="0 0 0 0 0 0 0 0 0 0 0 0 0 0 0 0 0 0 0.25 0"/>
<feBlend mode="normal" in2="shape" result="effect1_innerShadow_152_140"/>
</filter>
<filter id="filter6_i_152_140" x="273.33" y="187.464" width="106.606" height="97.7617" filterUnits="userSpaceOnUse" color-interpolation-filters="sRGB">
<feFlood flood-opacity="0" result="BackgroundImageFix"/>
<feBlend mode="normal" in="SourceGraphic" in2="BackgroundImageFix" result="shape"/>
<feColorMatrix in="SourceAlpha" type="matrix" values="0 0 0 0 0 0 0 0 0 0 0 0 0 0 0 0 0 0 127 0" result="hardAlpha"/>
<feOffset dy="0.662562"/>
<feGaussianBlur stdDeviation="8.94459"/>
<feComposite in2="hardAlpha" operator="arithmetic" k2="-1" k3="1"/>
<feColorMatrix type="matrix" values="0 0 0 0 0 0 0 0 0 0 0 0 0 0 0 0 0 0 0.25 0"/>
<feBlend mode="normal" in2="shape" result="effect1_innerShadow_152_140"/>
</filter>
<filter id="filter7_d_152_140" x="400.212" y="139.074" width="123.812" height="80.7403" filterUnits="userSpaceOnUse" color-interpolation-filters="sRGB">
<feFlood flood-opacity="0" result="BackgroundImageFix"/>
<feColorMatrix in="SourceAlpha" type="matrix" values="0 0 0 0 0 0 0 0 0 0 0 0 0 0 0 0 0 0 127 0" result="hardAlpha"/>
<feOffset dy="8.94438"/>
<feGaussianBlur stdDeviation="4.47219"/>
<feComposite in2="hardAlpha" operator="out"/>
<feColorMatrix type="matrix" values="0 0 0 0 0 0 0 0 0 0 0 0 0 0 0 0 0 0 0.25 0"/>
<feBlend mode="normal" in2="BackgroundImageFix" result="effect1_dropShadow_152_140"/>
<feBlend mode="normal" in="SourceGraphic" in2="effect1_dropShadow_152_140" result="shape"/>
</filter>
<filter id="filter8_d_152_140" x="463.757" y="100.886" width="128.284" height="85.2126" filterUnits="userSpaceOnUse" color-interpolation-filters="sRGB">
<feFlood flood-opacity="0" result="BackgroundImageFix"/>
<feColorMatrix in="SourceAlpha" type="matrix" values="0 0 0 0 0 0 0 0 0 0 0 0 0 0 0 0 0 0 127 0" result="hardAlpha"/>
<feOffset dy="2.23609"/>
<feGaussianBlur stdDeviation="5.59024"/>
<feComposite in2="hardAlpha" operator="out"/>
<feColorMatrix type="matrix" values="0 0 0 0 0 0 0 0 0 0 0 0 0 0 0 0 0 0 0.25 0"/>
<feBlend mode="normal" in2="BackgroundImageFix" result="effect1_dropShadow_152_140"/>
<feBlend mode="normal" in="SourceGraphic" in2="effect1_dropShadow_152_140" result="shape"/>
</filter>
<filter id="filter9_d_152_140" x="224.305" y="398.294" width="74.5365" height="74.5365" filterUnits="userSpaceOnUse" color-interpolation-filters="sRGB">
<feFlood flood-opacity="0" result="BackgroundImageFix"/>
<feColorMatrix in="SourceAlpha" type="matrix" values="0 0 0 0 0 0 0 0 0 0 0 0 0 0 0 0 0 0 127 0" result="hardAlpha"/>
<feOffset dy="3.72682"/>
<feGaussianBlur stdDeviation="1.86341"/>
<feComposite in2="hardAlpha" operator="out"/>
<feColorMatrix type="matrix" values="0 0 0 0 0 0 0 0 0 0 0 0 0 0 0 0 0 0 0.25 0"/>
<feBlend mode="normal" in2="BackgroundImageFix" result="effect1_dropShadow_152_140"/>
<feBlend mode="normal" in="SourceGraphic" in2="effect1_dropShadow_152_140" result="shape"/>
</filter>
<filter id="filter10_d_152_140" x="46.9085" y="235.057" width="172.469" height="154.893" filterUnits="userSpaceOnUse" color-interpolation-filters="sRGB">
<feFlood flood-opacity="0" result="BackgroundImageFix"/>
<feColorMatrix in="SourceAlpha" type="matrix" values="0 0 0 0 0 0 0 0 0 0 0 0 0 0 0 0 0 0 127 0" result="hardAlpha"/>
<feOffset dy="8.94438"/>
<feGaussianBlur stdDeviation="4.47219"/>
<feComposite in2="hardAlpha" operator="out"/>
<feColorMatrix type="matrix" values="0 0 0 0 0 0 0 0 0 0 0 0 0 0 0 0 0 0 0.25 0"/>
<feBlend mode="normal" in2="BackgroundImageFix" result="effect1_dropShadow_152_140"/>
<feBlend mode="normal" in="SourceGraphic" in2="effect1_dropShadow_152_140" result="shape"/>
</filter>
<filter id="filter11_d_152_140" x="393.792" y="265.258" width="210.144" height="210.144" filterUnits="userSpaceOnUse" color-interpolation-filters="sRGB">
<feFlood flood-opacity="0" result="BackgroundImageFix"/>
<feColorMatrix in="SourceAlpha" type="matrix" values="0 0 0 0 0 0 0 0 0 0 0 0 0 0 0 0 0 0 127 0" result="hardAlpha"/>
<feOffset dx="18.1532" dy="14.5226"/>
<feGaussianBlur stdDeviation="14.5226"/>
<feComposite in2="hardAlpha" operator="out"/>
<feColorMatrix type="matrix" values="0 0 0 0 0 0 0 0 0 0 0 0 0 0 0 0 0 0 0.25 0"/>
<feBlend mode="normal" in2="BackgroundImageFix" result="effect1_dropShadow_152_140"/>
<feBlend mode="normal" in="SourceGraphic" in2="effect1_dropShadow_152_140" result="shape"/>
</filter>
<linearGradient id="paint0_linear_152_140" x1="358.002" y1="658.755" x2="402.347" y2="-18.7031" gradientUnits="userSpaceOnUse">
<stop offset="0.0385138" stop-color="#002ABE"/>
<stop offset="1" stop-color="#2BA6A6"/>
</linearGradient>
<linearGradient id="paint1_linear_152_140" x1="323.756" y1="197.08" x2="323.756" y2="446.288" gradientUnits="userSpaceOnUse">
<stop stop-color="#3F69FF"/>
<stop offset="1" stop-color="#112261"/>
</linearGradient>
<linearGradient id="paint2_linear_152_140" x1="326.191" y1="187.456" x2="326.911" y2="284.286" gradientUnits="userSpaceOnUse">
<stop stop-color="#364AB9"/>
<stop offset="1" stop-color="#202E7B"/>
</linearGradient>
<linearGradient id="paint3_linear_152_140" x1="462.117" y1="139.074" x2="462.117" y2="192.733" gradientUnits="userSpaceOnUse">
<stop stop-color="#28E2B9"/>
<stop offset="1" stop-color="#04B9B4"/>
</linearGradient>
<linearGradient id="paint4_linear_152_140" x1="527.899" y1="109.83" x2="527.899" y2="163.489" gradientUnits="userSpaceOnUse">
<stop stop-color="#28E2B9"/>
<stop offset="1" stop-color="#04B9B4"/>
</linearGradient>
<linearGradient id="paint5_linear_152_140" x1="261.574" y1="398.294" x2="261.574" y2="465.377" gradientUnits="userSpaceOnUse">
<stop stop-color="#FF8798"/>
<stop offset="1" stop-color="#ED102F"/>
</linearGradient>
<linearGradient id="paint6_linear_152_140" x1="133.143" y1="235.057" x2="133.143" y2="372.061" gradientUnits="userSpaceOnUse">
<stop stop-color="#65FF2F"/>
<stop offset="1" stop-color="#37A924"/>
</linearGradient>
<linearGradient id="paint7_linear_152_140" x1="480.711" y1="279.781" x2="480.711" y2="431.835" gradientUnits="userSpaceOnUse">
<stop stop-color="#34A6FD"/>
<stop offset="1" stop-color="#1D6AF7"/>
</linearGradient>
</defs>
</svg>
