<svg width="583" height="522" viewBox="0 0 583 522" fill="none" xmlns="http://www.w3.org/2000/svg">
<path d="M561.375 420.71C536.376 448.969 493.508 448.684 322.061 500.312C277.319 513.786 228.97 510.294 187.064 489.624C127.092 460.043 46.6347 420.835 40.8655 420.514C40.6888 420.013 -28.9449 248.371 107.938 179.687C157.262 154.937 105.243 115.879 139.483 73.0888C178.833 23.9186 221.772 78.3119 265.527 56.0173C273.259 52.0813 281.017 45.7467 288.782 36.0261C293.152 30.5583 297.943 25.7786 303.072 21.6497C303.859 21.0133 304.653 20.3943 305.456 19.7925C308.528 17.4862 311.711 15.3986 314.99 13.5213C317.193 12.2631 319.438 11.0969 321.723 10.0287H321.726C325.354 8.3299 329.08 6.86432 332.885 5.62621C338.289 3.86406 343.856 2.55685 349.531 1.67002C352.007 1.28131 354.502 0.976097 357.016 0.74575C405.904 -3.70857 441.571 11.7995 471.097 47.0453C487.998 67.2179 502.31 104.163 492.243 163.52C485.854 201.196 541.796 220.617 561.055 258.417C610.021 354.52 561.818 419.457 561.375 420.71Z" fill="url(#paint0_linear_282_2)"/>
<path d="M31.6893 315.458C44.9717 315.458 55.7355 304.695 55.7355 291.42C55.7355 278.137 44.9717 267.374 31.6893 267.374C18.4068 267.374 7.64307 278.137 7.64307 291.42C7.64307 304.695 18.4068 315.458 31.6893 315.458Z" fill="#4284F6"/>
<path d="M53.3929 313.117C65.3816 301.136 65.3816 281.706 53.3929 269.725C41.4043 257.744 21.9744 257.744 9.98575 269.725C-1.99525 281.706 -1.99525 301.136 9.98575 313.117C21.9744 325.098 41.4043 325.098 53.3929 313.117Z" stroke="#4284F6" stroke-width="0.878617" stroke-miterlimit="10"/>
<path d="M488.437 334.689C503.932 334.689 516.487 322.134 516.487 306.647C516.487 291.16 503.932 278.604 488.437 278.604C472.95 278.604 460.387 291.16 460.387 306.647C460.387 322.134 472.95 334.689 488.437 334.689Z" fill="#4284F6"/>
<path d="M292.539 231.009L284.976 243.036H301.098L292.539 231.009Z" stroke="#4570B4" stroke-opacity="0.4196" stroke-width="0.878617" stroke-miterlimit="10"/>
<path d="M185.766 119.109L175.645 135.155H197.188L185.766 119.109Z" fill="#4570B4" fill-opacity="0.4196"/>
<path d="M261.571 151.537C277.725 151.537 290.824 138.446 290.824 122.292C290.824 106.147 277.725 93.0557 261.571 93.0557C245.418 93.0557 232.327 106.147 232.327 122.292C232.327 138.446 245.418 151.537 261.571 151.537Z" fill="#4284F6"/>
<path d="M260.989 118.678L259.343 115.539C258.279 113.518 259.068 111.03 261.089 109.966C262.459 109.246 262.995 107.547 262.268 106.169L259.818 101.453C259.091 100.082 257.399 99.5466 256.013 100.274L253.87 101.392C251.849 102.456 250.203 104.094 249.154 106.115L248.534 107.325C247.447 109.407 247.462 111.887 248.549 113.97L253.142 122.766L256.212 128.638L260.813 137.434C261.9 139.516 263.929 140.94 266.256 141.239L267.604 141.415C269.862 141.714 272.159 141.3 274.18 140.244L276.324 139.118C277.694 138.399 278.23 136.699 277.518 135.321L275.06 130.605C274.341 129.235 272.641 128.699 271.256 129.411C269.242 130.467 266.746 129.687 265.69 127.666L264.044 124.527L260.989 118.678Z" fill="white"/>
<path d="M475.5 452.102C475.5 455.447 472.798 458.158 469.437 458.158C466.099 458.158 463.381 455.455 463.381 452.102C463.381 448.749 466.084 446.046 469.437 446.046C472.798 446.062 475.5 448.764 475.5 452.102Z" stroke="#4570B4" stroke-opacity="0.4196" stroke-width="0.878617" stroke-miterlimit="10"/>
<path d="M364.2 53.3849C370.378 53.3849 375.393 48.3705 375.393 42.1925C375.393 36.0068 370.378 31 364.2 31C358.014 31 353 36.0068 353 42.1925C353 48.3705 358.014 53.3849 364.2 53.3849Z" fill="white" fill-opacity="0.4196"/>
<path d="M419.1 287.43C425.286 287.43 430.293 282.416 430.293 276.238C430.293 270.06 425.286 265.045 419.1 265.045C412.914 265.045 407.908 270.06 407.908 276.238C407.908 282.416 412.914 287.43 419.1 287.43Z" stroke="#4570B4" stroke-opacity="0.4196" stroke-width="0.878617" stroke-miterlimit="10"/>
<path d="M66.6592 351.18C72.6842 351.18 77.5684 346.296 77.5684 340.271C77.5684 334.254 72.6842 329.37 66.6592 329.37C60.6343 329.37 55.75 334.254 55.75 340.271C55.75 346.296 60.6343 351.18 66.6592 351.18Z" fill="#4570B4" fill-opacity="0.4196"/>
<path d="M471.994 123.418H337.906C332.172 123.418 327.533 128.065 327.533 133.784V214.757C327.533 220.491 332.187 225.13 337.906 225.13H423.427V245.54C423.427 248.954 427.415 250.815 430.033 248.617L457.946 225.13H471.994C477.728 225.13 482.367 220.476 482.367 214.757V133.799C482.367 128.065 477.728 123.418 471.994 123.418Z" fill="#4284F6"/>
<path d="M505.952 133.523C505.952 145.627 502.477 156.903 496.475 166.373C495.533 167.897 494.507 169.382 493.42 170.798C482.465 185.183 465.324 194.446 446.063 194.446C436.179 194.446 426.855 192.012 418.64 187.686C399.348 177.566 386.173 157.102 386.173 133.523C386.173 130.767 386.349 128.049 386.709 125.385C390.613 95.5897 415.708 72.5923 446.063 72.5923C479.135 72.5923 505.952 99.8768 505.952 133.523Z" fill="#68A8DE"/>
<path d="M493.422 170.79C482.467 185.167 465.326 194.43 446.064 194.43C436.181 194.43 426.857 192.003 418.642 187.678C419.76 184.868 423.197 177.427 429.299 173.27C436.901 168.057 460.013 164.933 476.044 166.303C485.506 167.1 490.735 169.205 493.422 170.79Z" fill="#FFEA28"/>
<path d="M419.102 102.617L419.722 132.367C419.722 132.367 420.671 162.759 445.406 162.224C470.149 161.688 475.37 124.137 475.37 124.137L471.481 101.354C471.481 101.354 442.558 82.0619 419.102 102.617Z" fill="#FFB27D"/>
<path d="M445.581 155.075C445.581 155.075 447.411 166.573 444.64 170.34C441.876 174.107 450.152 187.167 450.152 187.167L469.314 169.59C469.314 169.59 468.043 156.705 468.395 145.429L445.581 155.075Z" fill="#FFB27D"/>
<path d="M419.238 109.446C419.238 109.446 426.357 111.712 433.975 111.039C441.592 110.365 444.256 107.303 444.256 107.303C444.256 107.303 446.798 108.375 450.939 108.375C455.081 108.375 458.159 106.369 458.159 106.369C458.159 106.369 455.349 111.176 456.551 117.324C457.745 123.464 461.757 125.064 461.757 125.064C461.757 125.064 464.306 118.916 468.7 118.916C473.102 118.916 474.71 123.594 473.577 129.734C472.444 135.881 465.363 137.351 465.363 137.351L468.379 145.435C468.379 145.435 479.786 133.209 481.118 119.728C482.457 106.239 475.652 102.227 475.652 102.227C475.652 102.227 476.218 92.2059 462.844 88.7456C449.47 85.27 440.658 85.5379 430.629 91.2873C430.629 91.2873 422.216 84.8795 415.134 88.7456C408.053 92.6194 410.059 100.895 413.527 103.023C413.527 103.023 406.721 104.761 408.183 113.175C409.653 121.58 419.46 120.922 419.46 120.922L419.238 109.446Z" fill="#2A2E37"/>
<path d="M445.404 162.223C445.404 162.223 463.395 157.462 465.163 145.435C465.163 145.435 469.627 162.874 445.404 168.792C445.404 168.792 446.124 163.609 445.404 162.223Z" fill="#ED975D"/>
<path d="M538 96.5152C540.496 81.2576 530.146 66.8651 514.88 64.3694C499.623 61.8813 485.23 72.224 482.735 87.4816C480.239 102.739 490.589 117.132 505.854 119.62C521.112 122.116 535.505 111.773 538 96.5152Z" fill="#4570B4" fill-opacity="0.4196"/>
<path d="M507.217 99.5402L507.117 98.2388C506.819 95.5364 507.715 92.5813 510.218 89.5803C512.476 86.9238 513.724 84.9716 513.724 82.7132C513.724 80.1563 512.117 78.4491 508.962 78.4031C507.156 78.4031 505.158 79.0003 503.902 79.9572L502.7 76.8031C504.361 75.6089 507.217 74.7974 509.873 74.7974C515.63 74.7974 518.233 78.3496 518.233 82.162C518.233 85.5688 516.327 88.0186 513.923 90.8741C511.718 93.477 510.915 95.6895 511.068 98.2388L511.121 99.5402H507.217ZM506.122 106.553C506.122 104.7 507.362 103.399 509.123 103.399C510.884 103.399 512.078 104.7 512.078 106.553C512.078 108.314 510.93 109.661 509.07 109.661C507.317 109.661 506.122 108.314 506.122 106.553Z" fill="white"/>
<path d="M293.028 322.739L277.877 338.793C277.877 338.793 274.777 335.6 271.056 330.716C269.288 328.373 267.382 325.64 265.621 322.685C263.317 318.827 261.25 314.586 260.063 310.337C256.074 296.067 257.705 265.973 257.705 265.973C257.705 265.973 264.166 266.669 266.371 269.119C278.804 282.953 293.028 322.739 293.028 322.739Z" fill="#4284F6"/>
<path d="M236.087 375.173H127.63L117.724 291.796C116.583 282.249 123.244 273.56 132.606 272.335L139.129 271.493L222.001 260.722L236.087 375.173Z" fill="#4570B4"/>
<path d="M209.613 263.491C209.613 263.491 174.32 274.829 172.399 277.761C170.493 280.678 187.059 332.384 187.059 332.384L183.867 375.179H255.738L259.366 334.344C259.366 334.344 267.053 325.9 267.527 311.959C268.002 298.01 257.705 265.972 257.705 265.972L232.633 262.68L209.613 263.491Z" fill="#4284F6"/>
<path d="M219.71 183.161C219.71 183.161 195.113 172.581 177.643 197.263C160.18 221.937 178.27 260.72 178.27 260.72C178.27 260.72 222.834 254.901 235.167 253.715C247.492 252.536 250.003 252.536 250.003 252.536C250.003 252.536 256.357 213.561 242.792 199.23C229.218 184.906 219.71 183.161 219.71 183.161Z" fill="#2A2E37"/>
<path d="M228.858 279.401L208.088 265.17C208.088 265.17 209.796 259.726 209.375 254.276C209.275 253.074 209.076 251.864 208.724 250.716C208.548 250.142 208.333 249.583 208.088 249.032L228.858 247.998C228.858 247.998 228.996 249.682 229.379 251.849C229.692 253.541 230.152 255.539 230.848 257.269C231.354 258.555 231.974 259.688 232.747 260.477C235.924 263.7 228.858 279.401 228.858 279.401Z" fill="#FBC79C"/>
<path d="M230.858 257.267C228.186 257.359 216.733 257.527 209.376 254.274C209.277 253.072 209.078 251.862 208.726 250.714C208.726 250.714 222.728 252.421 229.38 251.847C229.694 253.539 230.154 255.537 230.858 257.267Z" fill="#ED975D"/>
<path d="M240.557 192.524L244.017 221.14C244.017 221.14 248.557 250.622 224.756 253.477C200.962 256.348 192.954 228.842 192.954 228.842L190.137 198.464C190.13 198.464 215.232 176.018 240.557 192.524Z" fill="#FBC79C"/>
<path d="M229.694 194.744C229.694 194.744 226.578 202.392 216.343 207.827C207.271 212.635 198.75 213.975 198.75 213.975C198.75 213.975 197.38 222.036 192.794 227.081C192.794 227.081 184.84 212 188.094 199.016C191.34 186.032 208.105 179.762 222.827 181.079C237.534 182.403 242.839 187.8 244.791 196.375C246.751 204.949 243.482 216.539 243.482 216.539C243.482 216.539 240.328 197.423 229.694 194.744Z" fill="#2A2E37"/>
<path d="M190.122 220.783C190.122 220.783 187.297 199.018 204.078 187.466C215.011 179.941 228.775 181.946 228.775 181.946C228.775 181.946 220.094 175.416 203.007 182.957C185.912 190.498 185.039 207.547 186.769 220.783H190.122Z" fill="#68A8DE"/>
<path d="M152.365 375.173H127.622L117.708 291.796C116.575 282.249 123.227 273.56 132.59 272.335L139.113 271.493L152.365 375.173Z" fill="#375C93"/>
<path d="M213.349 248.251C201.995 248.251 193.567 240.343 193.191 239.983L194.715 238.329C194.799 238.413 204.016 247.011 215.53 245.87L215.745 248.121C214.933 248.212 214.137 248.251 213.349 248.251Z" fill="#375C93"/>
<path d="M494.707 421.857H154.408C145.306 421.857 136.632 418.106 130.584 411.537L111.897 391.273C104.639 383.41 110.411 370.962 121.313 370.962H453.52C465.003 370.962 476.035 375.272 484.287 382.989L503.472 400.896C511.633 408.513 506.052 421.857 494.707 421.857Z" fill="#68A8DE"/>
<path d="M339.527 270.757C338.915 271.094 337.95 271.653 336.909 272.273L336.71 271.951C339.826 269.968 344.427 266.868 344.113 266.118C343.638 264.985 341.303 265.582 339.573 266.516C338.578 267.067 336.756 268.146 335.003 269.211L334.872 269.012C337.965 267.052 343.118 263.653 342.781 262.856C342.306 261.716 339.971 262.321 338.241 263.254C337.146 263.852 335.064 265.099 333.158 266.24L333.004 266.003C336.074 264.028 340.063 261.279 339.772 260.583C339.297 259.45 336.97 260.047 335.232 260.981C332.89 262.252 326.099 266.455 326.099 266.455L321.146 268.261C322.218 266.531 325.226 260.108 323.818 260.108C322.409 260.108 318.543 264.587 316.935 269.195C315.741 272.648 315.588 275.725 315.588 277.05L272.188 332.17C272.188 332.17 273.214 333.778 274.776 335.937C279.27 342.153 289.758 343.523 295.814 338.8C300.606 335.064 304.365 330.126 308.07 325.081C315.037 315.588 325.425 290.371 327.852 284.338L337.682 275.144C340.369 273.398 343.799 271.04 343.554 270.42C343.125 269.41 341.058 269.93 339.527 270.757Z" fill="#FBC79C"/>
<path d="M225.368 384.366C225.368 384.366 230.444 388.109 232.45 393.177C234.456 398.253 221.625 401.514 200.22 394.249C184.656 388.967 210.945 372.737 225.368 384.366Z" fill="#00496A"/>
<path d="M217.313 249.62H214.45C213.424 249.62 212.59 248.771 212.59 247.737V245.969C212.59 244.928 213.424 244.085 214.45 244.085H217.313C218.339 244.085 219.174 244.928 219.174 245.969V247.737C219.158 248.771 218.339 249.62 217.313 249.62Z" fill="#00496A"/>
<path d="M202.394 227.235C203.978 235.159 199.852 242.715 193.169 244.093C186.485 245.479 179.794 240.173 178.194 232.242C176.61 224.319 180.736 216.763 187.419 215.385C194.103 213.999 200.809 219.304 202.394 227.235Z" fill="#4570B4"/>
<path d="M195.657 228.627C196.599 233.305 194.164 237.76 190.222 238.572C186.287 239.383 182.337 236.252 181.403 231.582C180.461 226.905 182.895 222.449 186.838 221.638C190.773 220.811 194.723 223.957 195.657 228.627Z" fill="#68A8DE"/>
<path d="M178.208 274.631C178.208 274.631 172.145 275.542 169.68 279.454C159.131 296.227 138.614 347.543 138.614 347.543L158.411 356.285C158.411 356.285 184.44 326.138 186.836 311.799C189.225 297.452 178.208 274.631 178.208 274.631Z" fill="#4284F6"/>
<path d="M156.538 351.915L197.173 378.335L191.432 391.058C191.432 391.058 154.869 377.929 143.623 369.424C132.392 360.911 138.601 347.544 138.601 347.544C138.601 347.544 144.832 346.809 156.538 351.915Z" fill="#FBC79C"/>
<path d="M195.987 377.929C195.987 377.929 209.69 377.278 214.621 377.278C219.558 377.278 228.163 385.378 227.214 387.973C226.257 390.561 216.381 382.622 216.381 382.622L215.822 383.686C215.822 383.686 224.588 389.03 225.055 391.058C225.53 393.095 223.547 392.766 220.684 391.548C217.813 390.323 213.518 387.575 213.518 387.575L213.043 388.149C213.043 388.149 221.334 393.256 221.334 395.116C221.334 396.984 215.363 394.863 210.969 391.946L210.41 392.842C210.41 392.842 215.83 395.598 216.236 397.382C216.634 399.166 213.679 398.438 210.41 396.892C207.141 395.346 204.117 395.185 199.891 394.542C195.665 393.891 190.651 390.76 190.651 390.76L195.987 377.929Z" fill="#FBC79C"/>
<path d="M447.893 303.821L428.41 401.514H284.048L303.425 304.38C303.83 302.32 305.606 300.851 307.658 300.851H445.512C447.051 300.851 448.207 302.282 447.893 303.821Z" fill="#4570B4"/>
<path d="M284.049 401.515L244.393 388.615C242.992 388.156 242.051 386.862 242.051 385.377C242.051 383.493 243.567 381.978 245.45 381.978H287.961L284.049 401.515Z" fill="#00496A"/>
<path d="M179.963 278.596C179.963 278.596 188.843 303.691 183.469 320.931C183.469 320.931 201.621 300.766 179.963 278.596Z" fill="#1D5232"/>
<path d="M271.057 330.716C269.288 328.373 267.382 325.64 265.621 322.685C269.288 308.293 260.76 276.239 260.76 276.239C279.447 300.055 274.234 322.18 271.057 330.716Z" fill="#1D5232"/>
<path d="M209.239 259.441L228.86 279.392C228.86 279.392 225.461 284.2 219.796 284.077C214.138 283.939 210.946 276.751 209.354 272.999C207.746 269.248 204.477 265.16 204.477 265.16L209.239 259.441Z" fill="#F2F2F2"/>
<path d="M228.859 279.408C228.859 279.408 233.919 282.485 238.857 280.342C243.795 278.206 242.463 274.945 240.725 271.492C238.995 268.047 237.127 261.907 237.127 261.907L231.492 258.669C231.492 258.669 232.488 271.791 228.859 279.408Z" fill="#F2F2F2"/>
<path d="M148.598 157.225H59.1881C53.4924 157.225 48.8684 161.849 48.8684 167.545V191.239C48.8684 196.935 53.4924 201.559 59.1881 201.559H134.511L158.925 215.668V167.545C158.925 161.849 154.301 157.225 148.598 157.225Z" fill="#4284F6"/>
<path d="M55.7356 167.951H148.873" stroke="white" stroke-width="0.878617" stroke-miterlimit="10" stroke-linecap="round" stroke-linejoin="round"/>
<path d="M336.131 152.192H389.046" stroke="white" stroke-width="0.878617" stroke-miterlimit="10" stroke-linecap="round" stroke-linejoin="round"/>
<path d="M334.661 162.481H393.456" stroke="white" stroke-width="0.878617" stroke-miterlimit="10" stroke-linecap="round" stroke-linejoin="round"/>
<path d="M334.661 171.301H375.818" stroke="white" stroke-width="0.878617" stroke-miterlimit="10" stroke-linecap="round" stroke-linejoin="round"/>
<path d="M336.131 181.59H408.155" stroke="white" stroke-width="0.878617" stroke-miterlimit="10" stroke-linecap="round" stroke-linejoin="round"/>
<path d="M55.7356 179.311H148.873" stroke="white" stroke-width="0.878617" stroke-miterlimit="10" stroke-linecap="round" stroke-linejoin="round"/>
<path d="M55.7356 190.679H148.873" stroke="white" stroke-width="0.878617" stroke-miterlimit="10" stroke-linecap="round" stroke-linejoin="round"/>
<path d="M83.3512 457.972C106.096 457.972 124.538 439.53 124.538 416.793C124.538 394.048 106.096 375.613 83.3512 375.613C60.5988 375.613 42.1565 394.048 42.1565 416.793C42.1565 439.53 60.5988 457.972 83.3512 457.972Z" fill="#4284F6"/>
<path d="M109.228 401.588H57.4533C56.037 401.588 54.8887 402.729 54.8887 404.153V432.67C54.8887 434.086 56.037 435.235 57.4533 435.235H109.228C110.652 435.235 111.8 434.086 111.8 432.67V404.153C111.8 402.729 110.652 401.588 109.228 401.588ZM110.001 405.699L85.6948 421.592C85.4804 421.73 85.2431 421.791 85.0058 421.791C84.7991 421.791 84.5847 421.738 84.3933 421.623L56.0829 405.738C55.4858 405.401 55.2715 404.643 55.6083 404.038C55.9451 403.441 56.7107 403.234 57.3078 403.564L84.9675 419.081L108.646 403.602C109.22 403.234 109.994 403.395 110.361 403.969C110.736 404.551 110.575 405.324 110.001 405.699Z" fill="white"/>
<path d="M109.696 412.412C114.973 412.412 119.25 408.133 119.25 402.857C119.25 397.582 114.973 393.303 109.696 393.303C104.418 393.303 100.142 397.582 100.142 402.857C100.142 408.133 104.418 412.412 109.696 412.412Z" fill="#FC2E46"/>
<path fill-rule="evenodd" clip-rule="evenodd" d="M501.691 314.514C501.648 314.597 501.646 314.684 501.69 314.816C502.446 317.08 503.74 318.89 506 319.904V319.994C504.325 319.994 502.65 319.994 500.976 319.993C496.36 319.992 491.743 319.99 487.127 320L487.114 320L487.103 320H487.078C485.648 320.003 484.239 319.896 482.829 319.649C481.049 319.338 479.341 318.815 477.712 318.066C476.377 317.453 475.136 316.717 474.018 315.826C470.909 313.403 469 310.118 469 306.5C469 299.044 477.11 293 487.114 293C497.118 293 505.227 299.044 505.227 306.5C505.227 309.501 503.913 312.272 501.691 314.514ZM489.717 304.445H495.312V308.858H489.717V314.392H485.255V308.858H479.659V304.445H485.255V298.912H489.717V304.445Z" fill="white"/>
<defs>
<linearGradient id="paint0_linear_282_2" x1="128.997" y1="137.168" x2="600.826" y2="414.643" gradientUnits="userSpaceOnUse">
<stop stop-color="#FFC362"/>
<stop offset="1" stop-color="#F77979"/>
</linearGradient>
</defs>
</svg>
