<svg width="200" height="53" viewBox="0 0 200 53" fill="none" xmlns="http://www.w3.org/2000/svg">
<path d="M50.5188 51.9237C46.1911 51.9237 41.8633 51.9237 37.576 51.9237C32.7224 51.9237 27.9093 51.9237 23.0557 51.9237C20.8716 51.9237 18.728 51.5193 16.6248 50.9935C14.6833 50.5081 12.7823 49.8206 10.9622 48.8902C9.06127 47.9194 7.32207 46.7466 5.74465 45.331C4.00547 43.794 2.58983 42.0144 1.57867 39.992C0.567516 37.9698 0.0417115 35.7855 0.00126505 33.4802C-0.0391814 30.2849 0.891087 27.4131 2.67073 24.8247C4.32904 22.3169 6.55358 20.3755 9.10171 18.7981C11.6903 17.1803 14.5215 16.1286 17.4741 15.441C19.0919 15.077 20.7098 14.8344 22.4087 14.713C23.4197 14.6726 24.4309 14.5917 25.4421 14.6321C27.5453 14.6726 29.6484 14.9153 31.7112 15.4006C34.1784 15.9669 36.5648 16.8162 38.8299 17.9891C40.6094 18.9599 42.2677 20.0924 43.8047 21.4675C45.6653 23.1664 47.1213 25.1482 48.1325 27.4536C48.6987 28.7479 49.0628 30.123 49.2649 31.5792C49.5887 34.1677 49.2245 36.5945 48.2539 38.9808C47.6471 40.4774 46.7977 41.8122 45.7865 43.0659C45.463 43.4704 45.1395 43.8344 44.8159 44.1581C44.6541 44.3198 44.6137 44.4412 44.6945 44.6837C45.3417 46.7061 46.3529 48.5263 47.9302 49.9823C48.537 50.5485 49.2245 51.0743 49.993 51.4384C50.1953 51.5193 50.3976 51.681 50.5997 51.762C50.5593 51.8428 50.5593 51.8832 50.5188 51.9237ZM32.0752 36.2709C33.1674 36.2709 34.2999 36.2305 35.3919 36.2709C35.8773 36.2709 35.9582 36.1092 35.9582 35.6643C35.9177 34.0464 35.9177 32.4286 35.9582 30.7703C35.9582 30.3253 35.8367 30.2041 35.3919 30.2041C33.1674 30.2445 30.9832 30.2041 28.7586 30.2445C28.2328 30.2445 28.152 30.0826 28.152 29.5972C28.1924 27.4131 28.152 25.2695 28.152 23.0854C28.152 22.681 28.0712 22.5596 27.6262 22.5596C25.9275 22.6 24.1882 22.6 22.4895 22.5596C22.0445 22.5596 21.9637 22.7214 21.9637 23.0854C21.9637 25.2695 21.9637 27.4536 21.9637 29.6378C21.9637 30.0826 21.8423 30.2041 21.3975 30.2041C19.2134 30.1636 17.0697 30.2041 14.8855 30.1636C14.3598 30.1636 14.2789 30.3253 14.2789 30.8107C14.3193 32.4286 14.3193 34.006 14.2789 35.6239C14.2789 36.0686 14.4002 36.2305 14.8451 36.2305C16.9888 36.1901 19.1324 36.2305 21.276 36.1901C21.8018 36.1901 21.9233 36.3519 21.9233 36.8372C21.8828 39.0212 21.9233 41.1649 21.8828 43.3492C21.8828 43.7131 21.9637 43.8344 22.3681 43.8344C24.0669 43.794 25.8061 43.794 27.5047 43.8344C27.9497 43.8344 28.0306 43.6727 28.0306 43.2682C27.9901 41.0841 28.0306 38.9 28.0306 36.7159C28.0306 36.3113 28.1116 36.1901 28.5564 36.1901C29.8507 36.3113 30.9832 36.2709 32.0752 36.2709Z" fill="#0047CC"/>
<path d="M128.987 18.2688C130.443 17.1363 131.858 16.206 133.557 15.7206C134.811 15.3566 136.105 15.1544 137.44 15.1139C139.381 15.033 141.242 15.2353 143.062 15.842C145.57 16.6913 147.592 18.2284 149.25 20.2506C151.394 22.8797 152.648 25.8727 153.295 29.1488C153.699 31.1712 153.821 33.2745 153.659 35.3371C153.416 38.8965 152.365 42.1727 150.302 45.1252C148.603 47.552 146.54 49.5338 143.83 50.7473C142.213 51.4752 140.514 51.8798 138.734 51.9202C137.035 51.9606 135.377 51.8798 133.719 51.3135C131.818 50.6259 130.2 49.5743 129.027 47.8351C128.744 48.0778 128.784 48.4014 128.663 48.6845C127.814 50.7473 126.236 51.5967 124.012 51.5562C121.989 51.5157 120.088 50.1809 119.563 48.3205C119.36 47.6329 119.239 46.9452 119.239 46.2577C119.239 32.6272 119.239 18.9563 119.239 5.32591C119.239 3.54627 119.805 1.88796 121.383 0.836352C123.931 -0.862397 128.016 -0.0130227 128.865 3.74849C128.946 4.15296 128.987 4.55742 128.987 4.96188C128.987 9.16832 128.987 13.3343 128.987 17.5407C128.987 17.7834 128.987 17.9857 128.987 18.2688ZM143.911 33.6788C143.911 31.8993 143.628 30.2814 143.021 28.7848C141.849 25.9941 139.341 23.5267 135.62 23.9717C132.789 24.3357 131.09 25.9941 129.998 28.4613C129.148 30.3623 128.865 32.3845 129.068 34.5282C129.229 36.146 129.593 37.683 130.321 39.1796C131.575 41.6468 133.921 43.4264 137.157 43.1028C139.017 42.9006 140.473 42.0512 141.565 40.6761C143.224 38.5728 143.952 36.146 143.911 33.6788Z" fill="#0047CC"/>
<path d="M83.1591 29.6356C83.1591 26.5617 83.1187 23.4877 83.1591 20.4543C83.1996 18.6341 83.8872 17.0163 85.5455 16.1265C88.0935 14.6704 92.0978 15.5198 92.8258 19.3622C92.9471 19.888 92.9471 20.4138 92.9471 20.9801C92.9471 26.6022 92.9471 32.2646 92.9471 37.8867C92.9471 39.545 93.5133 41.001 94.7268 42.2145C96.7896 44.2367 100.106 44.5604 102.533 42.983C104.191 41.8909 105.041 40.3943 105.243 38.4125C105.324 37.4417 105.324 36.471 105.324 35.5004C105.324 30.4445 105.324 25.3483 105.324 20.2924C105.324 18.1083 106.699 16.0456 109.045 15.6411C112.2 15.0749 114.748 16.6927 114.95 20.0903C115.314 26.1572 115.071 32.2646 115.071 38.3315C115.071 41.0414 114.465 43.7109 112.887 46.0164C111.148 48.524 108.762 50.2229 105.85 51.1127C104.555 51.5171 103.22 51.7597 101.886 51.8812C100.187 52.0833 98.5288 52.0833 96.8301 51.962C93.4729 51.7597 90.318 50.8296 87.6892 48.6455C85.5051 46.8253 84.1297 44.4794 83.5231 41.6887C83.1591 40.0304 83.1187 38.3721 83.1591 36.7137C83.1996 34.3273 83.1591 31.9815 83.1591 29.6356Z" fill="#0047CC"/>
<path d="M182.214 42.6548C186.339 42.6548 190.385 42.6144 194.429 42.6548C196.087 42.6548 197.624 43.0998 198.554 44.6368C198.837 45.122 199.04 45.6478 199.04 46.2142C199.04 46.8209 199.121 47.5083 199 48.0746C198.554 49.9757 196.977 51.1486 195.076 51.1486C187.351 51.1486 179.586 51.1486 171.86 51.1486C170.687 51.1486 169.554 50.8251 168.867 49.733C168.139 48.6004 168.179 47.3871 168.665 46.2142C169.19 44.8389 170.201 43.7468 171.01 42.5739C172.426 40.5515 173.922 38.5697 175.337 36.5475C177.36 33.7566 179.343 30.9658 181.364 28.1751C182.214 27.002 183.064 25.8292 183.912 24.6561C183.994 24.5348 184.074 24.4136 184.034 24.2517C180.394 24.2517 176.713 24.1709 173.073 24.2921C171.01 24.373 168.503 22.472 168.665 19.924C168.786 18.4274 169.312 17.2545 170.566 16.486C171.172 16.122 171.86 15.8793 172.588 15.8793C180.233 15.8793 187.876 15.8389 195.48 15.8793C197.098 15.8793 198.11 16.8905 198.271 18.6297C198.393 20.1667 197.584 21.2991 196.774 22.3912C195.319 24.4136 193.863 26.4358 192.366 28.4582C190.343 31.249 188.362 34.0397 186.339 36.8306C185.005 38.772 183.63 40.673 182.214 42.6548Z" fill="#0047CC"/>
<path d="M67.0633 51.923C63.5849 52.0443 60.4302 51.195 57.4776 49.6175C56.2237 48.9704 55.0508 48.2019 54.1609 46.9885C52.7453 45.0875 53.1094 43.2269 54.525 41.5687C55.2531 40.7193 56.1833 40.2339 57.2349 40.1531C58.1651 40.0722 59.0955 40.3958 59.9852 40.7193C61.4008 41.2451 62.6547 42.1349 64.0703 42.7011C65.9713 43.4292 67.8318 43.7932 69.8946 43.1461C71.1079 42.7821 71.6743 40.4362 70.744 39.6273C69.5307 38.5352 68.1149 37.9286 66.6589 37.3623C64.3534 36.4724 62.0076 35.6231 59.7829 34.4502C57.5989 33.2771 55.9002 31.6188 55.0508 29.2325C54.525 27.7361 54.4846 26.199 54.6867 24.6216C54.889 22.9229 55.4552 21.4263 56.426 20.0916C57.7607 18.2716 59.5403 16.9368 61.6435 16.0874C63.3828 15.3999 65.1623 15.1167 67.0633 15.0763C69.7732 14.9954 72.3618 15.319 74.8695 16.3706C76.6087 17.0986 78.267 17.9479 79.2782 19.6468C80.7342 22.1544 79.5209 25.471 76.6896 26.199C75.8402 26.4417 74.9909 26.0372 74.182 25.7541C72.281 25.0666 70.5013 24.1362 68.5195 23.651C67.1847 23.3273 65.9308 23.4083 64.7579 24.2172C63.9086 24.8239 63.7063 26.3609 64.4344 27.0888C65.5265 28.2214 66.942 28.7877 68.3576 29.3539C70.8654 30.3651 73.4539 31.2549 75.7998 32.5896C78.1052 33.9244 79.8849 35.7445 80.4107 38.4544C81.0173 41.4878 80.5725 44.4 78.631 46.9076C76.5683 49.6175 73.7774 51.0331 70.5013 51.6399C69.288 51.923 68.1149 51.9635 67.0633 51.923Z" fill="#0047CC"/>
<path d="M166.437 33.5197C166.437 37.8475 166.437 42.1754 166.437 46.4627C166.437 47.8783 166.032 49.132 165.062 50.1836C164.374 50.9117 163.484 51.4375 162.433 51.5184C159.682 51.7611 157.7 50.7905 156.851 47.9187C156.73 47.4737 156.649 46.9884 156.649 46.5436C156.649 37.8475 156.649 29.192 156.649 20.496C156.649 18.2311 158.024 15.966 160.37 15.5616C163.201 15.0358 165.668 16.2896 166.275 19.404C166.356 19.849 166.396 20.2938 166.396 20.7387C166.437 25.0261 166.437 29.273 166.437 33.5197Z" fill="#0047CC"/>
</svg>
