<svg width="161" height="42" viewBox="0 0 161 42" fill="none" xmlns="http://www.w3.org/2000/svg">
<path d="M40.7679 41.9004C37.2754 41.9004 33.783 41.9004 30.3232 41.9004C26.4065 41.9004 22.5223 41.9004 18.6056 41.9004C16.8431 41.9004 15.1132 41.5741 13.4159 41.1498C11.8492 40.758 10.3151 40.2033 8.84635 39.4525C7.31229 38.6691 5.90879 37.7226 4.63584 36.5802C3.23234 35.3399 2.08995 33.9038 1.27396 32.2718C0.457976 30.6399 0.0336605 28.8772 0.00102087 27.0168C-0.0316187 24.4383 0.719092 22.1208 2.15523 20.032C3.49346 18.0082 5.28863 16.4416 7.34493 15.1686C9.43386 13.863 11.7186 13.0144 14.1013 12.4595C15.4069 12.1658 16.7125 11.97 18.0834 11.872C18.8993 11.8394 19.7153 11.7741 20.5313 11.8068C22.2286 11.8394 23.9258 12.0352 25.5904 12.4269C27.5814 12.8839 29.5072 13.5693 31.3351 14.5158C32.7711 15.2992 34.1093 16.2131 35.3497 17.3228C36.8511 18.6938 38.0261 20.2931 38.8421 22.1534C39.2991 23.1979 39.5929 24.3077 39.756 25.4828C40.0172 27.5716 39.7234 29.53 38.9401 31.4557C38.4504 32.6635 37.765 33.7406 36.949 34.7523C36.6879 35.0788 36.4268 35.3725 36.1657 35.6337C36.0351 35.7642 36.0025 35.8622 36.0677 36.0579C36.59 37.6899 37.4061 39.1588 38.6789 40.3337C39.1686 40.7907 39.7234 41.215 40.3435 41.5088C40.5068 41.5741 40.67 41.7045 40.8331 41.7699C40.8005 41.8352 40.8005 41.8678 40.7679 41.9004ZM25.8841 29.2689C26.7656 29.2689 27.6794 29.2363 28.5607 29.2689C28.9524 29.2689 29.0176 29.1384 29.0176 28.7793C28.985 27.4738 28.985 26.1682 29.0176 24.83C29.0176 24.4709 28.9196 24.373 28.5607 24.373C26.7655 24.4057 25.0029 24.373 23.2077 24.4057C22.7834 24.4057 22.7182 24.275 22.7182 23.8833C22.7508 22.1208 22.7182 20.3909 22.7182 18.6284C22.7182 18.3021 22.653 18.2041 22.2939 18.2041C20.923 18.2367 19.5195 18.2367 18.1487 18.2041C17.7896 18.2041 17.7243 18.3347 17.7243 18.6284C17.7243 20.3909 17.7243 22.1534 17.7243 23.9161C17.7243 24.275 17.6263 24.373 17.2674 24.373C15.5049 24.3404 13.7749 24.373 12.0124 24.3404C11.5881 24.3404 11.5228 24.4709 11.5228 24.8626C11.5554 26.1682 11.5554 27.4411 11.5228 28.7467C11.5228 29.1057 11.6207 29.2363 11.9798 29.2363C13.7096 29.2037 15.4395 29.2363 17.1694 29.2037C17.5937 29.2037 17.6917 29.3343 17.6917 29.7258C17.6591 31.4884 17.6917 33.2183 17.6591 34.9809C17.6591 35.2746 17.7243 35.3725 18.0507 35.3725C19.4216 35.3399 20.8251 35.3399 22.1959 35.3725C22.555 35.3725 22.6202 35.242 22.6202 34.9156C22.5876 33.153 22.6202 31.3905 22.6202 29.628C22.6202 29.3015 22.6856 29.2037 23.0445 29.2037C24.089 29.3015 25.0029 29.2689 25.8841 29.2689Z" fill="#0047CC"/>
<path d="M104.09 14.7426C105.265 13.8287 106.408 13.078 107.778 12.6863C108.79 12.3925 109.835 12.2293 110.912 12.1967C112.479 12.1314 113.98 12.2946 115.449 12.7842C117.472 13.4696 119.104 14.71 120.443 16.3419C122.173 18.4635 123.184 20.8788 123.707 23.5226C124.033 25.1546 124.131 26.8519 124 28.5165C123.805 31.3888 122.956 34.0326 121.291 36.4153C119.92 38.3737 118.256 39.973 116.069 40.9522C114.763 41.5397 113.393 41.8661 111.956 41.8987C110.585 41.9314 109.247 41.8661 107.909 41.4092C106.375 40.8542 105.069 40.0056 104.123 38.6022C103.894 38.798 103.927 39.0591 103.829 39.2876C103.144 40.9522 101.871 41.6377 100.076 41.605C98.4435 41.5723 96.9095 40.4952 96.4852 38.9939C96.3219 38.4389 96.2241 37.884 96.2241 37.3292C96.2241 26.3296 96.2241 15.2974 96.2241 4.29792C96.2241 2.86178 96.681 1.52355 97.954 0.674923C100.01 -0.69594 103.307 -0.0105091 103.992 3.02497C104.058 3.35137 104.09 3.67776 104.09 4.00416C104.09 7.39869 104.09 10.7606 104.09 14.1551C104.09 14.3509 104.09 14.5141 104.09 14.7426ZM116.134 27.1783C116.134 25.7422 115.906 24.4366 115.416 23.2289C114.47 20.9768 112.446 18.9857 109.443 19.3448C107.158 19.6385 105.787 20.9768 104.906 22.9678C104.221 24.5019 103.992 26.1338 104.156 27.8637C104.286 29.1692 104.58 30.4096 105.167 31.6173C106.179 33.6083 108.072 35.0444 110.683 34.7833C112.185 34.62 113.36 33.9346 114.241 32.8249C115.579 31.1276 116.167 29.1692 116.134 27.1783Z" fill="#0047CC"/>
<path d="M67.1072 23.916C67.1072 21.4354 67.0745 18.9547 67.1072 16.5068C67.1398 15.038 67.6947 13.7324 69.0329 13.0144C71.0891 11.8393 74.3205 12.5248 74.908 15.6255C75.0059 16.0499 75.0059 16.4742 75.0059 16.9311C75.0059 21.468 75.0059 26.0376 75.0059 30.5745C75.0059 31.9127 75.4628 33.0877 76.4421 34.0669C78.1068 35.6988 80.7832 35.9601 82.7415 34.6871C84.0797 33.8058 84.7651 32.5981 84.9284 30.9988C84.9936 30.2154 84.9936 29.432 84.9936 28.6487C84.9936 24.5688 84.9936 20.4562 84.9936 16.3762C84.9936 14.6137 86.1033 12.9491 87.9965 12.6227C90.5424 12.1657 92.5986 13.4713 92.7619 16.2131C93.0556 21.109 92.8597 26.0376 92.8597 30.9334C92.8597 33.1203 92.3702 35.2745 91.0972 37.135C89.6938 39.1586 87.768 40.5296 85.4179 41.2476C84.3734 41.574 83.2963 41.7698 82.2192 41.8678C80.8484 42.0309 79.5102 42.0309 78.1394 41.933C75.4302 41.7698 72.8843 41.0192 70.7628 39.2566C69.0003 37.7878 67.8904 35.8947 67.4009 33.6426C67.1072 32.3044 67.0745 30.9662 67.1072 29.6279C67.1398 27.7021 67.1072 25.8091 67.1072 23.916Z" fill="#0047CC"/>
<path d="M147.043 34.4226C150.373 34.4226 153.637 34.39 156.9 34.4226C158.239 34.4226 159.479 34.7817 160.229 36.0221C160.458 36.4136 160.621 36.838 160.621 37.295C160.621 37.7846 160.687 38.3394 160.589 38.7963C160.229 40.3305 158.957 41.277 157.423 41.277C151.189 41.277 144.923 41.277 138.688 41.277C137.741 41.277 136.827 41.0159 136.272 40.1347C135.685 39.2207 135.718 38.2415 136.109 37.295C136.534 36.1852 137.349 35.3039 138.002 34.3574C139.145 32.7254 140.352 31.1261 141.494 29.4942C143.126 27.242 144.727 24.9899 146.357 22.7378C147.043 21.7912 147.729 20.8447 148.414 19.898C148.48 19.8002 148.544 19.7023 148.512 19.5717C145.575 19.5717 142.604 19.5065 139.667 19.6043C138.002 19.6695 135.979 18.1355 136.109 16.0793C136.207 14.8715 136.631 13.925 137.643 13.3049C138.133 13.0111 138.688 12.8153 139.275 12.8153C145.445 12.8153 151.613 12.7827 157.749 12.8153C159.055 12.8153 159.871 13.6313 160.001 15.0348C160.099 16.2751 159.447 17.189 158.793 18.0703C157.619 19.7023 156.444 21.3342 155.236 22.9663C153.604 25.2183 152.005 27.4704 150.373 29.7226C149.296 31.2893 148.186 32.8234 147.043 34.4226Z" fill="#0047CC"/>
<path d="M54.1182 41.9025C51.3112 42.0003 48.7654 41.3149 46.3827 40.042C45.3708 39.5198 44.4243 38.8996 43.7062 37.9203C42.5638 36.3863 42.8577 34.8849 44 33.5467C44.5876 32.8612 45.3382 32.4695 46.1869 32.4043C46.9375 32.3391 47.6883 32.6002 48.4063 32.8613C49.5487 33.2856 50.5605 34.0036 51.7029 34.4605C53.2369 35.0481 54.7384 35.3418 56.403 34.8196C57.3822 34.5259 57.8392 32.6328 57.0885 31.98C56.1093 31.0987 54.9669 30.6092 53.7919 30.1522C51.9314 29.4341 50.0384 28.7487 48.2431 27.8022C46.4806 26.8555 45.1098 25.5173 44.4243 23.5916C44 22.384 43.9674 21.1436 44.1305 19.8707C44.2937 18.4998 44.7507 17.2921 45.5341 16.215C46.6112 14.7463 48.0472 13.6692 49.7445 12.9837C51.1481 12.4289 52.5842 12.2004 54.1182 12.1677C56.3051 12.1025 58.394 12.3636 60.4177 13.2122C61.8212 13.7997 63.1594 14.4851 63.9755 15.8561C65.1504 17.8797 64.1713 20.5561 61.8865 21.1436C61.2011 21.3395 60.5156 21.013 59.8629 20.7845C58.3288 20.2298 56.8926 19.479 55.2933 19.0874C54.2162 18.8262 53.2043 18.8916 52.2578 19.5443C51.5724 20.0339 51.4092 21.2742 51.9967 21.8617C52.878 22.7757 54.0204 23.2326 55.1627 23.6896C57.1865 24.5056 59.2753 25.2236 61.1684 26.3007C63.0288 27.3778 64.465 28.8466 64.8893 31.0335C65.3789 33.4814 65.0199 35.8315 63.4531 37.8551C61.7886 40.042 59.5364 41.1843 56.8926 41.674C55.9135 41.9025 54.9669 41.9351 54.1182 41.9025Z" fill="#0047CC"/>
<path d="M134.312 27.0491C134.312 30.5415 134.312 34.0341 134.312 37.4939C134.312 38.6363 133.986 39.648 133.202 40.4966C132.647 41.0842 131.929 41.5085 131.081 41.5737C128.861 41.7696 127.262 40.9863 126.576 38.6689C126.479 38.3098 126.413 37.9181 126.413 37.5591C126.413 30.5415 126.413 23.5567 126.413 16.5392C126.413 14.7115 127.523 12.8836 129.416 12.5572C131.701 12.1329 133.692 13.1447 134.181 15.658C134.247 16.017 134.279 16.376 134.279 16.7351C134.312 20.1949 134.312 23.6221 134.312 27.0491Z" fill="#0047CC"/>
<path d="M40.7679 41.9004C37.2754 41.9004 33.783 41.9004 30.3232 41.9004C26.4065 41.9004 22.5223 41.9004 18.6056 41.9004C16.8431 41.9004 15.1132 41.5741 13.4159 41.1497C11.8492 40.758 10.3151 40.2033 8.84635 39.4525C7.31229 38.6691 5.90879 37.7226 4.63584 36.5802C3.23234 35.3399 2.08995 33.9038 1.27396 32.2718C0.457976 30.6399 0.0336605 28.8772 0.00102087 27.0168C-0.0316187 24.4383 0.719092 22.1208 2.15523 20.032C3.49346 18.0082 5.28863 16.4416 7.34493 15.1686C9.43386 13.8631 11.7186 13.0144 14.1013 12.4595C15.4069 12.1658 16.7125 11.97 18.0834 11.872C18.8993 11.8394 19.7153 11.7741 20.5313 11.8068C22.2286 11.8394 23.9258 12.0352 25.5904 12.4269C27.5814 12.8839 29.5072 13.5693 31.3351 14.5158C32.7711 15.2992 34.1093 16.2131 35.3497 17.3228C36.8511 18.6938 38.0261 20.2931 38.8421 22.1534C39.2991 23.1979 39.5929 24.3077 39.756 25.4828C40.0172 27.5716 39.7234 29.53 38.9401 31.4557C38.4504 32.6635 37.765 33.7406 36.949 34.7523C36.6879 35.0788 36.4268 35.3725 36.1657 35.6337C36.0351 35.7642 36.0025 35.8622 36.0677 36.0579C36.59 37.6899 37.4061 39.1588 38.6789 40.3337C39.1686 40.7907 39.7234 41.215 40.3435 41.5088C40.5068 41.5741 40.67 41.7045 40.8331 41.7699C40.8005 41.8352 40.8005 41.8678 40.7679 41.9004ZM25.8841 29.2689C26.7655 29.2689 27.6794 29.2363 28.5607 29.2689C28.9524 29.2689 29.0176 29.1384 29.0176 28.7793C28.985 27.4738 28.985 26.1682 29.0176 24.83C29.0176 24.4709 28.9196 24.373 28.5607 24.373C26.7656 24.4057 25.0029 24.373 23.2077 24.4057C22.7834 24.4057 22.7182 24.275 22.7182 23.8833C22.7508 22.1208 22.7182 20.3909 22.7182 18.6284C22.7182 18.3021 22.653 18.2041 22.2939 18.2041C20.923 18.2367 19.5195 18.2367 18.1487 18.2041C17.7896 18.2041 17.7243 18.3347 17.7243 18.6284C17.7243 20.3909 17.7243 22.1534 17.7243 23.9161C17.7243 24.275 17.6263 24.373 17.2674 24.373C15.5049 24.3404 13.7749 24.373 12.0124 24.3404C11.5881 24.3404 11.5228 24.4709 11.5228 24.8626C11.5554 26.1682 11.5554 27.4411 11.5228 28.7467C11.5228 29.1057 11.6207 29.2363 11.9798 29.2363C13.7096 29.2037 15.4395 29.2363 17.1694 29.2037C17.5937 29.2037 17.6917 29.3343 17.6917 29.7258C17.6591 31.4884 17.6917 33.2183 17.6591 34.9809C17.6591 35.2746 17.7243 35.3725 18.0507 35.3725C19.4216 35.3399 20.8251 35.3399 22.1959 35.3725C22.555 35.3725 22.6202 35.242 22.6202 34.9156C22.5876 33.153 22.6202 31.3905 22.6202 29.628C22.6202 29.3015 22.6856 29.2037 23.0445 29.2037C24.089 29.3015 25.0029 29.2689 25.8841 29.2689Z" fill="#0047CC"/>
<path d="M104.09 14.7426C105.265 13.8287 106.408 13.078 107.778 12.6863C108.79 12.3925 109.835 12.2293 110.912 12.1967C112.479 12.1314 113.98 12.2946 115.449 12.7842C117.472 13.4696 119.104 14.71 120.443 16.3419C122.173 18.4635 123.184 20.8788 123.707 23.5226C124.033 25.1546 124.131 26.8519 124 28.5165C123.805 31.3888 122.956 34.0326 121.291 36.4153C119.92 38.3737 118.256 39.973 116.069 40.9522C114.763 41.5397 113.393 41.8661 111.956 41.8987C110.585 41.9314 109.247 41.8661 107.909 41.4092C106.375 40.8542 105.069 40.0056 104.123 38.6022C103.894 38.798 103.927 39.0591 103.829 39.2876C103.144 40.9522 101.871 41.6377 100.076 41.605C98.4435 41.5723 96.9095 40.4952 96.4852 38.9939C96.3219 38.4389 96.2241 37.884 96.2241 37.3292C96.2241 26.3296 96.2241 15.2974 96.2241 4.29792C96.2241 2.86178 96.681 1.52355 97.954 0.674923C100.01 -0.69594 103.307 -0.0105091 103.992 3.02497C104.058 3.35137 104.09 3.67776 104.09 4.00416C104.09 7.39869 104.09 10.7606 104.09 14.1551C104.09 14.3509 104.09 14.5141 104.09 14.7426ZM116.134 27.1783C116.134 25.7422 115.906 24.4366 115.416 23.2289C114.47 20.9768 112.446 18.9857 109.443 19.3448C107.158 19.6385 105.787 20.9768 104.906 22.9678C104.221 24.5019 103.992 26.1338 104.156 27.8637C104.286 29.1692 104.58 30.4096 105.167 31.6173C106.179 33.6083 108.072 35.0444 110.683 34.7833C112.185 34.62 113.36 33.9346 114.241 32.8249C115.579 31.1276 116.167 29.1692 116.134 27.1783Z" fill="#0047CC"/>
<path d="M67.1072 23.916C67.1072 21.4354 67.0745 18.9547 67.1072 16.5068C67.1398 15.038 67.6947 13.7324 69.0329 13.0144C71.0891 11.8393 74.3205 12.5248 74.908 15.6255C75.0059 16.0499 75.0059 16.4742 75.0059 16.9311C75.0059 21.468 75.0059 26.0376 75.0059 30.5745C75.0059 31.9127 75.4628 33.0877 76.4421 34.0669C78.1068 35.6988 80.7832 35.9601 82.7415 34.6871C84.0797 33.8058 84.7651 32.5981 84.9284 30.9988C84.9936 30.2154 84.9936 29.432 84.9936 28.6487C84.9936 24.5688 84.9936 20.4562 84.9936 16.3762C84.9936 14.6137 86.1033 12.9491 87.9965 12.6227C90.5424 12.1657 92.5986 13.4713 92.7619 16.2131C93.0556 21.109 92.8597 26.0376 92.8597 30.9334C92.8597 33.1203 92.3702 35.2745 91.0972 37.135C89.6938 39.1586 87.768 40.5296 85.4179 41.2476C84.3734 41.574 83.2963 41.7698 82.2192 41.8678C80.8484 42.0309 79.5102 42.0309 78.1394 41.933C75.4302 41.7698 72.8843 41.0192 70.7628 39.2566C69.0003 37.7878 67.8904 35.8947 67.4009 33.6426C67.1072 32.3044 67.0745 30.9662 67.1072 29.6279C67.1398 27.7021 67.1072 25.8091 67.1072 23.916Z" fill="#0047CC"/>
<path d="M147.043 34.4226C150.373 34.4226 153.637 34.39 156.9 34.4226C158.239 34.4226 159.479 34.7817 160.229 36.0221C160.458 36.4136 160.621 36.838 160.621 37.295C160.621 37.7846 160.687 38.3394 160.589 38.7963C160.229 40.3305 158.957 41.277 157.423 41.277C151.189 41.277 144.923 41.277 138.688 41.277C137.741 41.277 136.827 41.0159 136.272 40.1347C135.685 39.2207 135.718 38.2415 136.109 37.295C136.534 36.1852 137.349 35.3039 138.002 34.3574C139.145 32.7254 140.352 31.1261 141.494 29.4942C143.126 27.242 144.727 24.9899 146.357 22.7378C147.043 21.7912 147.729 20.8447 148.414 19.898C148.48 19.8002 148.544 19.7023 148.512 19.5717C145.575 19.5717 142.604 19.5065 139.667 19.6043C138.002 19.6695 135.979 18.1355 136.109 16.0793C136.207 14.8715 136.631 13.925 137.643 13.3049C138.133 13.0111 138.688 12.8153 139.275 12.8153C145.445 12.8153 151.613 12.7827 157.749 12.8153C159.055 12.8153 159.871 13.6313 160.001 15.0348C160.099 16.2751 159.447 17.189 158.793 18.0703C157.619 19.7023 156.444 21.3342 155.236 22.9663C153.604 25.2183 152.005 27.4704 150.373 29.7226C149.296 31.2893 148.186 32.8234 147.043 34.4226Z" fill="#0047CC"/>
<path d="M54.1182 41.9025C51.3112 42.0003 48.7654 41.3149 46.3827 40.042C45.3708 39.5198 44.4243 38.8996 43.7062 37.9203C42.5638 36.3863 42.8577 34.8849 44 33.5467C44.5876 32.8612 45.3382 32.4695 46.1869 32.4043C46.9375 32.3391 47.6883 32.6002 48.4063 32.8613C49.5487 33.2856 50.5605 34.0036 51.7029 34.4605C53.2369 35.0481 54.7384 35.3418 56.403 34.8196C57.3822 34.5259 57.8392 32.6328 57.0885 31.98C56.1093 31.0987 54.9669 30.6092 53.7919 30.1522C51.9314 29.4341 50.0384 28.7487 48.2431 27.8022C46.4806 26.8555 45.1098 25.5173 44.4243 23.5916C44 22.384 43.9674 21.1436 44.1305 19.8707C44.2937 18.4998 44.7507 17.2921 45.5341 16.215C46.6112 14.7463 48.0472 13.6692 49.7445 12.9837C51.1481 12.4289 52.5842 12.2004 54.1182 12.1677C56.3051 12.1025 58.394 12.3636 60.4177 13.2122C61.8212 13.7997 63.1594 14.4851 63.9755 15.8561C65.1504 17.8797 64.1713 20.5561 61.8865 21.1436C61.2011 21.3395 60.5156 21.013 59.8629 20.7845C58.3288 20.2298 56.8926 19.479 55.2933 19.0874C54.2162 18.8262 53.2043 18.8916 52.2578 19.5443C51.5724 20.0339 51.4092 21.2742 51.9967 21.8617C52.878 22.7757 54.0204 23.2326 55.1627 23.6896C57.1865 24.5056 59.2753 25.2236 61.1684 26.3007C63.0288 27.3778 64.465 28.8466 64.8893 31.0335C65.3789 33.4814 65.0199 35.8315 63.4531 37.8551C61.7886 40.042 59.5364 41.1843 56.8926 41.674C55.9135 41.9025 54.9669 41.9351 54.1182 41.9025Z" fill="#0047CC"/>
<path d="M134.312 27.0491C134.312 30.5415 134.312 34.0341 134.312 37.4939C134.312 38.6363 133.986 39.648 133.202 40.4966C132.647 41.0842 131.929 41.5085 131.081 41.5737C128.861 41.7696 127.262 40.9863 126.576 38.6689C126.479 38.3098 126.413 37.9181 126.413 37.5591C126.413 30.5415 126.413 23.5567 126.413 16.5392C126.413 14.7115 127.523 12.8836 129.416 12.5572C131.701 12.1329 133.692 13.1447 134.181 15.658C134.247 16.017 134.279 16.376 134.279 16.7351C134.312 20.1949 134.312 23.6221 134.312 27.0491Z" fill="#0047CC"/>
</svg>
