<svg width="200" height="53" viewBox="0 0 200 53" fill="none" xmlns="http://www.w3.org/2000/svg">
<path d="M51.112 51.9237C46.7842 51.9237 42.4565 51.9237 38.1691 51.9237C33.3156 51.9237 28.5024 51.9237 23.6489 51.9237C21.4648 51.9237 19.3211 51.5193 17.2179 50.9935C15.2764 50.5081 13.3755 49.8206 11.5554 48.8902C9.65441 47.9194 7.91521 46.7466 6.33779 45.331C4.59861 43.794 3.18297 42.0144 2.17181 39.992C1.16066 37.9698 0.634851 35.7855 0.594405 33.4802C0.553958 30.2849 1.48423 27.4131 3.26387 24.8247C4.92218 22.3169 7.14672 20.3755 9.69485 18.7981C12.2834 17.1803 15.1147 16.1286 18.0672 15.441C19.6851 15.077 21.3029 14.8344 23.0018 14.713C24.0128 14.6726 25.024 14.5917 26.0352 14.6321C28.1385 14.6726 30.2416 14.9153 32.3044 15.4006C34.7716 15.9669 37.1579 16.8162 39.423 17.9891C41.2026 18.9599 42.8609 20.0924 44.3979 21.4675C46.2584 23.1664 47.7144 25.1482 48.7256 27.4536C49.2919 28.7479 49.656 30.123 49.8581 31.5792C50.1818 34.1677 49.8177 36.5945 48.8471 38.9808C48.2402 40.4774 47.3909 41.8122 46.3797 43.0659C46.0561 43.4704 45.7326 43.8344 45.4091 44.1581C45.2472 44.3198 45.2068 44.4412 45.2876 44.6837C45.9349 46.7061 46.9461 48.5263 48.5233 49.9823C49.1302 50.5485 49.8177 51.0743 50.5862 51.4384C50.7884 51.5193 50.9907 51.681 51.1928 51.762C51.1524 51.8428 51.1524 51.8832 51.112 51.9237ZM32.6683 36.2709C33.7606 36.2709 34.893 36.2305 35.9851 36.2709C36.4704 36.2709 36.5513 36.1092 36.5513 35.6643C36.5109 34.0464 36.5109 32.4286 36.5513 30.7703C36.5513 30.3253 36.4299 30.2041 35.9851 30.2041C33.7606 30.2445 31.5763 30.2041 29.3518 30.2445C28.826 30.2445 28.7451 30.0826 28.7451 29.5972C28.7856 27.4131 28.7451 25.2695 28.7451 23.0854C28.7451 22.681 28.6643 22.5596 28.2193 22.5596C26.5206 22.6 24.7813 22.6 23.0826 22.5596C22.6377 22.5596 22.5568 22.7214 22.5568 23.0854C22.5568 25.2695 22.5568 27.4536 22.5568 29.6378C22.5568 30.0826 22.4354 30.2041 21.9906 30.2041C19.8065 30.1636 17.6628 30.2041 15.4787 30.1636C14.9529 30.1636 14.872 30.3253 14.872 30.8107C14.9124 32.4286 14.9124 34.006 14.872 35.6239C14.872 36.0686 14.9933 36.2305 15.4383 36.2305C17.5819 36.1901 19.7255 36.2305 21.8692 36.1901C22.395 36.1901 22.5164 36.3519 22.5164 36.8372C22.476 39.0212 22.5164 41.1649 22.476 43.3492C22.476 43.7131 22.5568 43.8344 22.9612 43.8344C24.6601 43.794 26.3992 43.794 28.0979 43.8344C28.5429 43.8344 28.6237 43.6727 28.6237 43.2682C28.5833 41.0841 28.6237 38.9 28.6237 36.7159C28.6237 36.3113 28.7047 36.1901 29.1495 36.1901C30.4438 36.3113 31.5763 36.2709 32.6683 36.2709Z" fill="white"/>
<path d="M129.58 18.2688C131.036 17.1363 132.451 16.206 134.15 15.7206C135.404 15.3566 136.698 15.1544 138.033 15.1139C139.974 15.033 141.835 15.2353 143.655 15.842C146.163 16.6913 148.185 18.2284 149.843 20.2506C151.987 22.8797 153.241 25.8727 153.888 29.1488C154.292 31.1712 154.414 33.2745 154.252 35.3371C154.009 38.8965 152.958 42.1727 150.895 45.1252C149.196 47.552 147.133 49.5338 144.424 50.7473C142.806 51.4752 141.107 51.8798 139.327 51.9202C137.629 51.9606 135.97 51.8798 134.312 51.3135C132.411 50.6259 130.793 49.5743 129.62 47.8351C129.337 48.0778 129.377 48.4014 129.256 48.6845C128.407 50.7473 126.829 51.5967 124.605 51.5562C122.582 51.5157 120.682 50.1809 120.156 48.3205C119.953 47.6329 119.832 46.9452 119.832 46.2577C119.832 32.6272 119.832 18.9563 119.832 5.32591C119.832 3.54627 120.398 1.88796 121.976 0.836352C124.524 -0.862397 128.609 -0.0130227 129.458 3.74849C129.539 4.15296 129.58 4.55742 129.58 4.96188C129.58 9.16832 129.58 13.3343 129.58 17.5407C129.58 17.7834 129.58 17.9857 129.58 18.2688ZM144.505 33.6788C144.505 31.8993 144.221 30.2814 143.615 28.7848C142.442 25.9941 139.934 23.5267 136.213 23.9717C133.382 24.3357 131.683 25.9941 130.591 28.4613C129.742 30.3623 129.458 32.3845 129.661 34.5282C129.822 36.146 130.187 37.683 130.914 39.1796C132.168 41.6468 134.514 43.4264 137.75 43.1028C139.611 42.9006 141.067 42.0512 142.159 40.6761C143.817 38.5728 144.545 36.146 144.505 33.6788Z" fill="white"/>
<path d="M83.7523 29.6356C83.7523 26.5617 83.7119 23.4877 83.7523 20.4543C83.7928 18.6341 84.4804 17.0163 86.1387 16.1265C88.6867 14.6704 92.691 15.5198 93.419 19.3622C93.5403 19.888 93.5403 20.4138 93.5403 20.9801C93.5403 26.6022 93.5403 32.2646 93.5403 37.8867C93.5403 39.545 94.1065 41.001 95.32 42.2145C97.3828 44.2367 100.699 44.5604 103.126 42.983C104.784 41.8909 105.634 40.3943 105.836 38.4125C105.917 37.4417 105.917 36.471 105.917 35.5004C105.917 30.4445 105.917 25.3483 105.917 20.2924C105.917 18.1083 107.292 16.0456 109.638 15.6411C112.793 15.0749 115.341 16.6927 115.543 20.0903C115.907 26.1572 115.664 32.2646 115.664 38.3315C115.664 41.0414 115.058 43.7109 113.48 46.0164C111.741 48.524 109.355 50.2229 106.443 51.1127C105.148 51.5171 103.814 51.7597 102.479 51.8812C100.78 52.0833 99.122 52.0833 97.4233 51.962C94.0661 51.7597 90.9112 50.8296 88.2824 48.6455C86.0983 46.8253 84.7229 44.4794 84.1163 41.6887C83.7523 40.0304 83.7119 38.3721 83.7523 36.7137C83.7928 34.3273 83.7523 31.9815 83.7523 29.6356Z" fill="white"/>
<path d="M182.807 42.6548C186.933 42.6548 190.978 42.6144 195.022 42.6548C196.68 42.6548 198.217 43.0998 199.147 44.6368C199.43 45.122 199.633 45.6478 199.633 46.2142C199.633 46.8209 199.714 47.5083 199.593 48.0746C199.147 49.9757 197.57 51.1486 195.669 51.1486C187.944 51.1486 180.179 51.1486 172.453 51.1486C171.28 51.1486 170.147 50.8251 169.46 49.733C168.732 48.6004 168.772 47.3871 169.258 46.2142C169.784 44.8389 170.795 43.7468 171.603 42.5739C173.019 40.5515 174.515 38.5697 175.931 36.5475C177.953 33.7566 179.936 30.9658 181.957 28.1751C182.807 27.002 183.657 25.8292 184.506 24.6561C184.587 24.5348 184.667 24.4136 184.627 24.2517C180.987 24.2517 177.306 24.1709 173.666 24.2921C171.603 24.373 169.096 22.472 169.258 19.924C169.379 18.4274 169.905 17.2545 171.159 16.486C171.765 16.122 172.453 15.8793 173.181 15.8793C180.826 15.8793 188.47 15.8389 196.073 15.8793C197.692 15.8793 198.703 16.8905 198.864 18.6297C198.986 20.1667 198.177 21.2991 197.367 22.3912C195.912 24.4136 194.456 26.4358 192.959 28.4582C190.936 31.249 188.955 34.0397 186.932 36.8306C185.598 38.772 184.223 40.673 182.807 42.6548Z" fill="white"/>
<path d="M67.6565 51.923C64.1781 52.0443 61.0234 51.195 58.0708 49.6175C56.8169 48.9704 55.644 48.2019 54.754 46.9885C53.3385 45.0875 53.7026 43.2269 55.1182 41.5687C55.8463 40.7193 56.7765 40.2339 57.8281 40.1531C58.7583 40.0722 59.6886 40.3958 60.5784 40.7193C61.994 41.2451 63.2479 42.1349 64.6635 42.7011C66.5644 43.4292 68.425 43.7932 70.4878 43.1461C71.7011 42.7821 72.2675 40.4362 71.3371 39.6273C70.1238 38.5352 68.7081 37.9286 67.2521 37.3623C64.9466 36.4724 62.6008 35.6231 60.3761 34.4502C58.192 33.2771 56.4933 31.6188 55.644 29.2325C55.1182 27.7361 55.0778 26.199 55.2799 24.6216C55.4821 22.9229 56.0484 21.4263 57.0191 20.0916C58.3539 18.2716 60.1334 16.9368 62.2367 16.0874C63.976 15.3999 65.7555 15.1167 67.6565 15.0763C70.3664 14.9954 72.955 15.319 75.4626 16.3706C77.2019 17.0986 78.8602 17.9479 79.8714 19.6468C81.3274 22.1544 80.1141 25.471 77.2828 26.199C76.4334 26.4417 75.5841 26.0372 74.7751 25.7541C72.8742 25.0666 71.0945 24.1362 69.1126 23.651C67.7779 23.3273 66.524 23.4083 65.3511 24.2172C64.5018 24.8239 64.2995 26.3609 65.0276 27.0888C66.1196 28.2214 67.5352 28.7877 68.9508 29.3539C71.4586 30.3651 74.047 31.2549 76.393 32.5896C78.6983 33.9244 80.478 35.7445 81.0039 38.4544C81.6105 41.4878 81.1657 44.4 79.2241 46.9076C77.1615 49.6175 74.3706 51.0331 71.0945 51.6399C69.8811 51.923 68.7081 51.9635 67.6565 51.923Z" fill="white"/>
<path d="M167.03 33.5197C167.03 37.8475 167.03 42.1754 167.03 46.4627C167.03 47.8783 166.626 49.132 165.655 50.1836C164.967 50.9117 164.077 51.4375 163.026 51.5184C160.275 51.7611 158.294 50.7905 157.444 47.9187C157.323 47.4737 157.242 46.9884 157.242 46.5436C157.242 37.8475 157.242 29.192 157.242 20.496C157.242 18.2311 158.617 15.966 160.963 15.5616C163.794 15.0358 166.261 16.2896 166.868 19.404C166.949 19.849 166.99 20.2938 166.99 20.7387C167.03 25.0261 167.03 29.273 167.03 33.5197Z" fill="white"/>
</svg>
