<svg width="350" height="180" viewBox="0 0 350 180" fill="none" xmlns="http://www.w3.org/2000/svg">
<path d="M0.046875 0.132812H349.982V174.053C349.982 177.332 347.324 179.99 344.045 179.99H5.98391C2.70499 179.99 0.046875 177.332 0.046875 174.053V0.132812Z" fill="#F8BC53"/>
<path d="M108.915 157.957V160.541C108.915 161.358 109.75 162.021 110.566 162.021H260.886C261.7 162.021 262.538 161.358 262.538 160.541V157.957H108.915Z" fill="#CCCCCC"/>
<path d="M243.027 130.076H128.423C127.723 130.076 127.154 129.507 127.154 128.806V54.726C127.154 54.0256 127.723 53.4568 128.423 53.4568H243.027C243.728 53.4568 244.296 54.0256 244.296 54.726V128.806C244.296 129.507 243.728 130.076 243.027 130.076Z" fill="#4E4E4E"/>
<path d="M240.685 122.435H130.767V56.9912H240.685V122.435Z" fill="url(#paint0_linear_326_879)"/>
<path d="M262.366 157.504L244.532 129.045C244.385 128.81 244.129 128.669 243.853 128.669H127.597C127.322 128.669 127.065 128.81 126.919 129.045L109.085 157.504C108.62 158.247 109.152 159.213 110.03 159.213H261.421C262.298 159.213 262.831 158.247 262.366 157.504Z" fill="#F5F5F5"/>
<path d="M203.813 155.436L202.082 151.02C201.905 150.571 201.471 150.274 200.984 150.274H170.443C169.957 150.274 169.523 150.571 169.345 151.026L167.633 155.44C167.385 156.076 167.853 156.758 168.532 156.758H202.914C203.596 156.758 204.061 156.073 203.813 155.436Z" fill="#CCCCCC"/>
<path d="M169.095 156.264C168.911 156.264 168.749 156.178 168.645 156.025C168.541 155.875 168.52 155.692 168.587 155.52L170.244 151.251C170.358 150.957 170.633 150.771 170.945 150.771H200.486C200.798 150.771 201.07 150.957 201.183 151.245L202.859 155.517C202.927 155.689 202.905 155.875 202.804 156.025C202.7 156.178 202.535 156.264 202.352 156.264H169.095Z" fill="#F5F5F5"/>
<path d="M247.28 147.195L238.432 132.117C238.052 131.469 237.37 131.083 236.606 131.083H134.847C134.082 131.083 133.4 131.469 133.021 132.117L124.173 147.195C124.054 147.397 124.057 147.642 124.176 147.849C124.298 148.07 124.525 148.201 124.772 148.201H246.677C246.928 148.201 247.154 148.07 247.277 147.849C247.396 147.642 247.399 147.397 247.28 147.195Z" fill="#CCCCCC"/>
<path d="M186.281 55.2137C186.281 55.5198 186.033 55.7708 185.727 55.7708C185.421 55.7708 185.173 55.5198 185.173 55.2137C185.173 54.9075 185.421 54.6595 185.727 54.6595C186.033 54.6595 186.281 54.9075 186.281 55.2137Z" fill="#323232"/>
<path d="M141.859 129.627H134.742C134.216 129.627 133.782 129.196 133.782 128.667C133.782 128.138 134.216 127.707 134.742 127.707H141.859C142.388 127.707 142.82 128.138 142.82 128.667C142.82 129.196 142.388 129.627 141.859 129.627Z" fill="#4E4E4E"/>
<path d="M234.605 129.627H227.488C226.959 129.627 226.528 129.196 226.528 128.667C226.528 128.138 226.959 127.707 227.488 127.707H234.605C235.134 127.707 235.566 128.138 235.566 128.667C235.566 129.196 235.134 129.627 234.605 129.627Z" fill="#4E4E4E"/>
<path d="M131.495 57.4244V77.5034L151.544 57.4244H131.495Z" fill="#DADADA" fill-opacity="0.1"/>
<path d="M163.366 57.6049L131.987 89.0329V118.436L162.355 88.0206L192.723 57.6049H163.366Z" fill="#DADADA" fill-opacity="0.1"/>
<path d="M208.177 147.382L163.21 147.379C162.405 147.379 161.794 147.199 161.849 146.975L162.207 145.535C162.262 145.312 162.944 145.131 163.733 145.131L207.703 145.134C208.492 145.134 209.171 145.315 209.223 145.538L209.544 146.978C209.596 147.199 208.982 147.382 208.177 147.382Z" fill="#323232"/>
<path d="M217.628 147.381H211.364C210.85 147.381 210.355 147.054 210.263 146.65L210.08 145.861C209.985 145.457 210.318 145.133 210.823 145.133H216.946C217.451 145.133 217.961 145.457 218.087 145.861L218.331 146.65C218.46 147.054 218.142 147.381 217.628 147.381Z" fill="#323232"/>
<path d="M226.758 147.381H220.497C219.98 147.381 219.457 147.054 219.326 146.65L219.072 145.861C218.944 145.457 219.246 145.133 219.751 145.133H225.874C226.379 145.133 226.917 145.46 227.079 145.861L227.397 146.653C227.559 147.054 227.272 147.381 226.758 147.381Z" fill="#323232"/>
<path d="M235.829 147.381H229.568C229.051 147.381 228.501 147.054 228.332 146.65L228.008 145.861C227.843 145.457 228.115 145.133 228.62 145.133H234.743C235.248 145.133 235.816 145.46 236.015 145.861L236.404 146.653C236.602 147.054 236.346 147.381 235.829 147.381Z" fill="#323232"/>
<path d="M234.615 144.605H228.51C228.005 144.605 227.464 144.28 227.299 143.88L226.971 143.097C226.806 142.696 227.069 142.375 227.562 142.375H233.532C234.021 142.375 234.581 142.699 234.78 143.097L235.168 143.88C235.364 144.28 235.119 144.605 234.615 144.605Z" fill="#323232"/>
<path d="M243.463 144.605H237.355C236.851 144.605 236.282 144.28 236.08 143.88L235.682 143.097C235.483 142.696 235.716 142.375 236.208 142.375H242.175C242.668 142.375 243.258 142.699 243.491 143.097L243.949 143.88C244.182 144.28 243.965 144.605 243.463 144.605Z" fill="#323232"/>
<path d="M244.901 147.381H238.637C238.123 147.381 237.542 147.054 237.34 146.653L236.946 145.861C236.741 145.46 236.988 145.133 237.493 145.133H243.616C244.118 145.133 244.717 145.46 244.953 145.861L245.411 146.653C245.644 147.054 245.418 147.381 244.901 147.381Z" fill="#323232"/>
<path d="M242.058 141.895H236.104C235.614 141.895 235.051 141.55 234.85 141.124L234.455 140.286C234.253 139.858 234.476 139.513 234.957 139.513H240.774C241.254 139.513 241.832 139.861 242.065 140.286L242.523 141.124C242.759 141.55 242.551 141.895 242.058 141.895Z" fill="#323232"/>
<path d="M215.674 141.895H209.716C209.226 141.895 208.755 141.55 208.663 141.124L208.483 140.286C208.391 139.858 208.703 139.513 209.183 139.513H215.001C215.481 139.513 215.967 139.861 216.093 140.286L216.337 141.124C216.46 141.55 216.163 141.895 215.674 141.895Z" fill="#323232"/>
<path d="M207.037 141.895H201.082C200.593 141.895 200.15 141.55 200.095 141.124L199.984 140.286C199.929 139.858 200.272 139.513 200.749 139.513H206.569C207.047 139.513 207.508 139.861 207.594 140.286L207.765 141.124C207.854 141.55 207.53 141.895 207.037 141.895Z" fill="#323232"/>
<path d="M198.467 141.895H192.509C192.02 141.895 191.607 141.55 191.585 141.124L191.546 140.286C191.527 139.858 191.897 139.513 192.377 139.513H198.195C198.675 139.513 199.106 139.861 199.158 140.286L199.259 141.124C199.311 141.55 198.956 141.895 198.467 141.895Z" fill="#323232"/>
<path d="M189.938 141.895H183.98C183.491 141.895 183.105 141.55 183.121 141.124L183.151 140.286C183.169 139.858 183.567 139.513 184.047 139.513H189.865C190.345 139.513 190.745 139.861 190.761 140.286L190.794 141.124C190.813 141.55 190.427 141.895 189.938 141.895Z" fill="#323232"/>
<path d="M181.494 141.895H175.536C175.047 141.895 174.689 141.55 174.741 141.124L174.842 140.286C174.891 139.858 175.319 139.513 175.799 139.513H181.616C182.093 139.513 182.467 139.861 182.451 140.286L182.415 141.124C182.393 141.55 181.983 141.895 181.494 141.895Z" fill="#323232"/>
<path d="M173.003 141.895H167.048C166.559 141.895 166.229 141.55 166.317 141.124L166.486 140.286C166.571 139.858 167.03 139.513 167.507 139.513H173.324C173.805 139.513 174.15 139.861 174.095 140.286L173.988 141.124C173.936 141.55 173.493 141.895 173.003 141.895Z" fill="#323232"/>
<path d="M164.516 141.895H158.561C158.069 141.895 157.772 141.55 157.891 141.124L158.13 140.286C158.252 139.858 158.739 139.513 159.219 139.513H165.036C165.516 139.513 165.831 139.861 165.742 140.286L165.565 141.124C165.476 141.55 165.005 141.895 164.516 141.895Z" fill="#323232"/>
<path d="M156.008 141.895H150.053C149.56 141.895 149.291 141.55 149.447 141.124L149.756 140.286C149.912 139.858 150.429 139.513 150.909 139.513H156.723C157.204 139.513 157.491 139.861 157.366 140.286L157.121 141.124C156.996 141.55 156.497 141.895 156.008 141.895Z" fill="#323232"/>
<path d="M147.646 141.895H141.691C141.198 141.895 140.957 141.55 141.15 141.124L141.526 140.286C141.718 139.858 142.263 139.513 142.74 139.513H148.557C149.037 139.513 149.294 139.861 149.135 140.286L148.823 141.124C148.661 141.55 148.135 141.895 147.646 141.895Z" fill="#323232"/>
<path d="M139.144 141.895H129.491C129.002 141.895 128.8 141.55 129.045 141.124L129.519 140.286C129.763 139.858 130.348 139.513 130.825 139.513H140.254C140.734 139.513 140.964 139.861 140.768 140.286L140.386 141.124C140.19 141.55 139.636 141.895 139.144 141.895Z" fill="#323232"/>
<path d="M232.93 141.895H218.9C218.136 141.895 217.454 141.702 217.383 141.467L216.928 139.941C216.854 139.705 217.405 139.513 218.154 139.513H231.859C232.609 139.513 233.303 139.705 233.413 139.941L234.123 141.467C234.233 141.706 233.697 141.895 232.93 141.895Z" fill="#323232"/>
<path d="M239.172 136.312H233.526C233.061 136.312 232.52 135.975 232.318 135.563L231.923 134.752C231.721 134.342 231.926 134.006 232.379 134.006H237.884C238.337 134.006 238.897 134.342 239.129 134.755L239.588 135.566C239.82 135.978 239.634 136.312 239.172 136.312Z" fill="#323232"/>
<path d="M230.993 136.312H225.35C224.883 136.312 224.372 135.975 224.207 135.563L223.882 134.752C223.717 134.342 223.95 134.006 224.402 134.006H229.908C230.363 134.006 230.889 134.342 231.088 134.755L231.477 135.566C231.675 135.978 231.458 136.312 230.993 136.312Z" fill="#323232"/>
<path d="M222.748 136.312H217.102C216.637 136.312 216.157 135.975 216.029 135.563L215.772 134.752C215.643 134.342 215.907 134.006 216.359 134.006H221.864C222.32 134.006 222.816 134.342 222.978 134.755L223.296 135.566C223.458 135.978 223.213 136.312 222.748 136.312Z" fill="#323232"/>
<path d="M214.643 136.312H209C208.535 136.312 208.083 135.975 207.988 135.563L207.804 134.752C207.71 134.342 208 134.006 208.456 134.006H213.961C214.414 134.006 214.885 134.342 215.01 134.755L215.258 135.566C215.383 135.978 215.108 136.312 214.643 136.312Z" fill="#323232"/>
<path d="M206.606 136.312H200.963C200.499 136.312 200.073 135.975 200.015 135.563L199.902 134.752C199.841 134.342 200.162 134.006 200.615 134.006H206.12C206.576 134.006 207.016 134.342 207.105 134.755L207.285 135.566C207.374 135.978 207.071 136.312 206.606 136.312Z" fill="#323232"/>
<path d="M198.431 136.312H192.788C192.32 136.312 191.925 135.975 191.904 135.563L191.858 134.752C191.836 134.342 192.185 134.006 192.641 134.006H198.143C198.599 134.006 199.012 134.342 199.067 134.755L199.171 135.566C199.226 135.978 198.895 136.312 198.431 136.312Z" fill="#323232"/>
<path d="M190.28 136.312H184.634C184.173 136.312 183.806 135.975 183.818 135.563L183.845 134.752C183.858 134.342 184.237 134.006 184.689 134.006H190.195C190.647 134.006 191.033 134.342 191.051 134.755L191.088 135.566C191.106 135.978 190.745 136.312 190.28 136.312Z" fill="#323232"/>
<path d="M182.237 136.312H176.594C176.129 136.312 175.789 135.975 175.838 135.563L175.936 134.752C175.985 134.342 176.392 134.006 176.845 134.006H182.35C182.803 134.006 183.157 134.342 183.139 134.755L183.108 135.566C183.093 135.978 182.702 136.312 182.237 136.312Z" fill="#323232"/>
<path d="M174.034 136.312H168.388C167.927 136.312 167.618 135.975 167.703 135.563L167.869 134.752C167.954 134.342 168.388 134.006 168.841 134.006H174.349C174.802 134.006 175.126 134.342 175.074 134.755L174.97 135.566C174.918 135.978 174.499 136.312 174.034 136.312Z" fill="#323232"/>
<path d="M165.682 136.312H160.039C159.571 136.312 159.296 135.975 159.415 135.563L159.653 134.752C159.776 134.342 160.241 134.006 160.696 134.006H166.202C166.654 134.006 166.948 134.342 166.859 134.755L166.685 135.566C166.596 135.978 166.147 136.312 165.682 136.312Z" fill="#323232"/>
<path d="M157.439 136.312H151.793C151.332 136.312 151.081 135.975 151.24 135.563L151.549 134.752C151.708 134.342 152.203 134.006 152.653 134.006H158.161C158.614 134.006 158.88 134.342 158.755 134.755L158.507 135.566C158.381 135.978 157.904 136.312 157.439 136.312Z" fill="#323232"/>
<path d="M149.316 136.312H143.67C143.205 136.312 142.985 135.975 143.181 135.563L143.56 134.752C143.753 134.342 144.279 134.006 144.731 134.006H150.237C150.689 134.006 150.928 134.342 150.766 134.755L150.448 135.566C150.286 135.978 149.781 136.312 149.316 136.312Z" fill="#323232"/>
<path d="M141.193 136.312H132.489C132.024 136.312 131.843 135.975 132.088 135.563L132.562 134.752C132.807 134.342 133.369 134.006 133.822 134.006H142.312C142.765 134.006 142.973 134.342 142.777 134.755L142.389 135.566C142.193 135.978 141.658 136.312 141.193 136.312Z" fill="#323232"/>
<path d="M240.615 139.108L234.816 139.105C234.336 139.105 233.786 138.774 233.584 138.364L233.189 137.56C232.987 137.15 233.201 136.817 233.666 136.817H239.328C239.796 136.817 240.361 137.15 240.597 137.56L241.056 138.364C241.291 138.774 241.092 139.108 240.615 139.108Z" fill="#323232"/>
<path d="M220.139 139.108L214.337 139.105C213.86 139.105 213.38 138.774 213.267 138.364L213.043 137.56C212.927 137.15 213.215 136.817 213.68 136.817H219.341C219.809 136.817 220.304 137.15 220.451 137.56L220.739 138.364C220.882 138.774 220.616 139.108 220.139 139.108Z" fill="#323232"/>
<path d="M211.738 139.108L205.936 139.105C205.459 139.105 205.009 138.774 204.93 138.364L204.777 137.56C204.7 137.15 205.012 136.817 205.477 136.817H211.141C211.606 136.817 212.074 137.15 212.184 137.56L212.401 138.364C212.512 138.774 212.212 139.108 211.738 139.108Z" fill="#323232"/>
<path d="M203.388 139.108L197.589 139.105C197.109 139.105 196.69 138.774 196.647 138.364L196.565 137.56C196.522 137.15 196.865 136.817 197.33 136.817H202.994C203.459 136.817 203.896 137.15 203.973 137.56L204.119 138.364C204.193 138.774 203.866 139.108 203.388 139.108Z" fill="#323232"/>
<path d="M194.987 139.108L189.185 139.105C188.708 139.105 188.317 138.774 188.311 138.364L188.298 137.56C188.292 137.15 188.662 136.817 189.13 136.817H194.791C195.259 136.817 195.666 137.15 195.706 137.56L195.782 138.364C195.819 138.774 195.464 139.108 194.987 139.108Z" fill="#323232"/>
<path d="M186.613 139.108L180.811 139.105C180.334 139.105 179.97 138.774 180.001 138.364L180.059 137.56C180.089 137.15 180.49 136.817 180.955 136.817H186.616C187.084 136.817 187.463 137.15 187.466 137.56L187.473 138.364C187.473 138.774 187.09 139.108 186.613 139.108Z" fill="#323232"/>
<path d="M178.346 139.108L172.544 139.105C172.067 139.105 171.733 138.774 171.798 138.364L171.926 137.56C171.99 137.15 172.422 136.817 172.886 136.817H178.548C179.013 136.817 179.367 137.15 179.334 137.56L179.269 138.364C179.236 138.774 178.823 139.108 178.346 139.108Z" fill="#323232"/>
<path d="M170.107 139.108L164.308 139.105C163.831 139.105 163.525 138.774 163.623 138.364L163.821 137.56C163.922 137.15 164.378 136.817 164.846 136.817H170.507C170.972 136.817 171.296 137.15 171.229 137.56L171.094 138.364C171.027 138.774 170.584 139.108 170.107 139.108Z" fill="#323232"/>
<path d="M161.788 139.108L155.986 139.105C155.509 139.105 155.234 138.774 155.368 138.364L155.634 137.56C155.769 137.15 156.258 136.817 156.723 136.817H162.385C162.852 136.817 163.146 137.15 163.042 137.56L162.84 138.364C162.736 138.774 162.265 139.108 161.788 139.108Z" fill="#323232"/>
<path d="M153.399 139.108L147.6 139.105C147.123 139.105 146.872 138.774 147.046 138.364L147.383 137.56C147.554 137.15 148.071 136.817 148.536 136.817H154.197C154.665 136.817 154.928 137.15 154.79 137.56L154.515 138.364C154.377 138.774 153.876 139.108 153.399 139.108Z" fill="#323232"/>
<path d="M145.298 139.108L139.499 139.105C139.019 139.105 138.799 138.774 139.007 138.364L139.41 137.56C139.618 137.15 140.163 136.817 140.628 136.817H146.289C146.757 136.817 146.992 137.15 146.818 137.56L146.478 138.364C146.304 138.774 145.775 139.108 145.298 139.108Z" fill="#323232"/>
<path d="M137.101 139.137H130.972C130.494 139.137 130.305 138.804 130.546 138.394L131.024 137.59C131.265 137.18 131.84 136.847 132.305 136.847H138.291C138.755 136.85 138.963 137.18 138.755 137.59L138.343 138.394C138.135 138.804 137.578 139.137 137.101 139.137Z" fill="#323232"/>
<path d="M232.215 139.105H222.813C222.336 139.105 221.825 138.774 221.675 138.364L221.381 137.56C221.229 137.15 221.485 136.817 221.95 136.817H231.129C231.594 136.817 232.132 137.15 232.331 137.56L232.719 138.364C232.918 138.774 232.692 139.105 232.215 139.105Z" fill="#323232"/>
<path d="M237.726 133.521H232.236C231.786 133.521 231.254 133.16 231.052 132.714L231.049 132.705C230.847 132.261 231.043 131.9 231.489 131.9H236.888C237.331 131.9 237.882 132.264 238.114 132.708L238.12 132.717C238.356 133.16 238.178 133.521 237.726 133.521Z" fill="#323232"/>
<path d="M229.773 133.521H224.286C223.833 133.521 223.332 133.16 223.167 132.714L223.164 132.705C222.998 132.261 223.225 131.9 223.668 131.9H229.067C229.51 131.9 230.033 132.264 230.229 132.708L230.235 132.717C230.431 133.16 230.226 133.521 229.773 133.521Z" fill="#323232"/>
<path d="M221.754 133.521H216.267C215.815 133.521 215.344 133.16 215.215 132.714L215.212 132.705C215.084 132.261 215.338 131.9 215.781 131.9H221.179C221.626 131.9 222.118 132.264 222.277 132.708L222.28 132.717C222.443 133.16 222.207 133.521 221.754 133.521Z" fill="#323232"/>
<path d="M213.958 133.521H208.471C208.019 133.521 207.575 133.16 207.483 132.714L207.48 132.705C207.385 132.261 207.67 131.9 208.113 131.9H213.512C213.958 131.9 214.42 132.264 214.545 132.708L214.548 132.717C214.674 133.16 214.411 133.521 213.958 133.521Z" fill="#323232"/>
<path d="M206.156 133.521H200.669C200.217 133.521 199.801 133.16 199.742 132.714V132.705C199.684 132.261 199.996 131.9 200.44 131.9H205.838C206.281 131.9 206.719 132.264 206.808 132.708L206.811 132.717C206.902 133.16 206.609 133.521 206.156 133.521Z" fill="#323232"/>
<path d="M198.109 133.521H192.619C192.167 133.521 191.784 133.16 191.763 132.714L191.76 132.705C191.738 132.261 192.081 131.9 192.524 131.9H197.923C198.366 131.9 198.773 132.264 198.828 132.708V132.717C198.883 133.16 198.562 133.521 198.109 133.521Z" fill="#323232"/>
<path d="M190.185 133.521H184.695C184.242 133.521 183.888 133.16 183.903 132.714V132.705C183.915 132.261 184.285 131.9 184.732 131.9H190.13C190.573 131.9 190.95 132.264 190.968 132.708V132.717C190.986 133.16 190.635 133.521 190.185 133.521Z" fill="#323232"/>
<path d="M182.364 133.521H176.874C176.422 133.521 176.095 133.16 176.144 132.714V132.705C176.192 132.261 176.593 131.9 177.037 131.9H182.435C182.881 131.9 183.227 132.264 183.212 132.708V132.717C183.193 133.16 182.814 133.521 182.364 133.521Z" fill="#323232"/>
<path d="M174.566 133.521H169.079C168.627 133.521 168.33 133.16 168.413 132.714V132.705C168.498 132.261 168.927 131.9 169.37 131.9H174.768C175.215 131.9 175.533 132.264 175.481 132.708L175.478 132.717C175.426 133.16 175.019 133.521 174.566 133.521Z" fill="#323232"/>
<path d="M166.694 133.521H161.204C160.751 133.521 160.482 133.16 160.602 132.714L160.608 132.705C160.727 132.261 161.183 131.9 161.626 131.9H167.024C167.471 131.9 167.758 132.264 167.673 132.708L167.67 132.717C167.581 133.16 167.144 133.521 166.694 133.521Z" fill="#323232"/>
<path d="M158.249 133.521H152.759C152.306 133.521 152.068 133.16 152.227 132.714L152.23 132.705C152.389 132.261 152.875 131.9 153.322 131.9H158.72C159.164 131.9 159.42 132.264 159.295 132.708L159.292 132.717C159.167 133.16 158.699 133.521 158.249 133.521Z" fill="#323232"/>
<path d="M150.35 133.521H144.863C144.41 133.521 144.199 133.16 144.395 132.714L144.398 132.705C144.591 132.261 145.108 131.9 145.551 131.9H150.953C151.396 131.9 151.625 132.264 151.463 132.708L151.46 132.717C151.298 133.16 150.803 133.521 150.35 133.521Z" fill="#323232"/>
<path d="M142.451 133.521H133.988C133.535 133.521 133.367 133.16 133.608 132.714L133.615 132.708C133.856 132.261 134.413 131.9 134.856 131.9H143.182C143.625 131.9 143.827 132.264 143.628 132.708L143.625 132.717C143.429 133.16 142.903 133.521 142.451 133.521Z" fill="#323232"/>
<path d="M132.81 147.377L126.549 147.374C126.036 147.374 125.812 147.05 126.054 146.646L126.531 145.857C126.776 145.453 127.381 145.126 127.883 145.126H134.006C134.511 145.126 134.749 145.453 134.538 145.857L134.125 146.646C133.914 147.05 133.327 147.377 132.81 147.377Z" fill="#323232"/>
<path d="M143.539 142.375H129.876C129.106 142.375 128.375 142.552 128.24 142.776L127.371 144.204C127.237 144.424 127.763 144.605 128.552 144.605H142.532C143.321 144.605 144.037 144.424 144.132 144.204L144.756 142.776C144.854 142.552 144.309 142.375 143.539 142.375Z" fill="#323232"/>
<path d="M151.894 144.605H145.789C145.285 144.605 145.016 144.28 145.187 143.88L145.52 143.097C145.691 142.696 146.227 142.375 146.719 142.375H152.686C153.179 142.375 153.466 142.699 153.325 143.097L153.056 143.88C152.916 144.28 152.399 144.605 151.894 144.605Z" fill="#323232"/>
<path d="M160.742 144.605H154.634C154.129 144.605 153.833 144.28 153.967 143.88L154.23 143.097C154.365 142.696 154.873 142.375 155.365 142.375H161.335C161.825 142.375 162.14 142.699 162.039 143.097L161.837 143.88C161.733 144.28 161.243 144.605 160.742 144.605Z" fill="#323232"/>
<path d="M169.388 144.605H163.281C162.779 144.605 162.452 144.28 162.55 143.88L162.745 143.097C162.843 142.696 163.323 142.375 163.816 142.375H169.783C170.275 142.375 170.618 142.699 170.551 143.097L170.419 143.88C170.352 144.28 169.89 144.605 169.388 144.605Z" fill="#323232"/>
<path d="M178.176 144.605H172.071C171.566 144.605 171.211 144.28 171.276 143.88L171.398 143.097C171.462 142.696 171.915 142.375 172.404 142.375H178.374C178.864 142.375 179.237 142.699 179.206 143.097L179.145 143.88C179.112 144.28 178.68 144.605 178.176 144.605Z" fill="#323232"/>
<path d="M186.965 144.605H180.857C180.355 144.605 179.97 144.28 179.998 143.88L180.053 143.097C180.083 142.696 180.502 142.375 180.995 142.375H186.962C187.454 142.375 187.855 142.699 187.858 143.097L187.867 143.88C187.87 144.28 187.469 144.605 186.965 144.605Z" fill="#323232"/>
<path d="M195.754 144.605H189.647C189.145 144.605 188.729 144.28 188.723 143.88L188.708 143.097C188.698 142.696 189.09 142.375 189.582 142.375H195.549C196.042 142.375 196.473 142.699 196.513 143.097L196.592 143.88C196.632 144.28 196.256 144.605 195.754 144.605Z" fill="#323232"/>
<path d="M204.456 144.605H198.352C197.847 144.605 197.404 144.28 197.361 143.88L197.278 143.097C197.235 142.696 197.596 142.375 198.089 142.375H204.059C204.548 142.375 205.007 142.699 205.083 143.097L205.23 143.88C205.307 144.28 204.961 144.605 204.456 144.605Z" fill="#323232"/>
<path d="M213.245 144.605H207.138C206.636 144.605 206.162 144.28 206.085 143.88L205.929 143.097C205.85 142.696 206.186 142.375 206.676 142.375H212.646C213.138 142.375 213.625 142.699 213.735 143.097L213.955 143.88C214.065 144.28 213.747 144.605 213.245 144.605Z" fill="#323232"/>
<path d="M225.74 144.605H216.185C215.684 144.605 215.182 144.28 215.066 143.88L214.839 143.097C214.723 142.696 215.029 142.375 215.518 142.375H224.856C225.348 142.375 225.877 142.699 226.04 143.097L226.358 143.88C226.52 144.28 226.241 144.605 225.74 144.605Z" fill="#323232"/>
<path d="M141.939 147.377H135.678C135.164 147.377 134.913 147.05 135.118 146.646L135.525 145.857C135.73 145.453 136.308 145.126 136.81 145.126H142.933C143.437 145.126 143.704 145.453 143.532 145.857L143.19 146.649C143.015 147.05 142.456 147.377 141.939 147.377Z" fill="#323232"/>
<path d="M151.011 147.377H144.75C144.233 147.377 143.955 147.05 144.126 146.646L144.459 145.857C144.631 145.453 145.178 145.126 145.68 145.126H151.803C152.307 145.126 152.604 145.456 152.466 145.857L152.194 146.649C152.057 147.05 151.527 147.377 151.011 147.377Z" fill="#323232"/>
<path d="M160.081 147.377H153.817C153.304 147.377 152.995 147.05 153.129 146.646L153.392 145.857C153.527 145.453 154.047 145.126 154.548 145.126L160.672 145.129C161.176 145.129 161.503 145.456 161.399 145.857L161.201 146.649C161.097 147.05 160.595 147.377 160.081 147.377Z" fill="#323232"/>
<rect x="70.582" y="42.1211" width="126.496" height="76.4858" rx="2.79275" fill="white"/>
<path d="M70.582 44.9138C70.582 43.3715 71.8324 42.1211 73.3748 42.1211H194.285C195.827 42.1211 197.078 43.3715 197.078 44.9138V50.9464H70.582V44.9138Z" fill="#323232"/>
<rect x="93.1355" y="44.0822" width="100.02" height="3.92235" fill="#D9D9D9"/>
<ellipse cx="77.4467" cy="46.5345" rx="0.98108" ry="1.47162" fill="#FF3647"/>
<circle cx="81.8596" cy="46.5345" r="1.47162" fill="#FFC244"/>
<ellipse cx="86.272" cy="46.5345" rx="0.98108" ry="1.47162" fill="#19B600"/>
<path fill-rule="evenodd" clip-rule="evenodd" d="M87.9642 65.3531C87.9642 65.5625 87.9642 65.7767 87.9642 66.0029C87.6276 66.0029 87.3136 66.0029 86.9775 66.0029C86.9775 65.7857 86.9775 65.5716 86.9775 65.347C86.0422 65.0855 85.4046 64.5764 85.2909 63.5727C85.6556 63.5727 85.993 63.5727 86.3495 63.5727C86.4326 63.8881 86.5528 64.1928 86.9498 64.3148C86.9498 63.9407 86.9498 63.5845 86.9498 63.2123C86.1348 63.0572 85.3946 62.7945 85.3702 61.8166C85.3518 61.0811 85.8415 60.6251 86.9608 60.2895C86.9608 60.0866 86.9608 59.8788 86.9608 59.6511C87.2948 59.6511 87.6137 59.6511 87.9545 59.6511C87.9545 59.8615 87.9545 60.068 87.9545 60.2877C88.8762 60.4817 89.5173 60.922 89.5861 61.9187C89.2197 61.9187 88.8885 61.9187 88.5485 61.9187C88.462 61.6314 88.3423 61.3743 87.9773 61.3116C87.9773 61.6591 87.9773 61.9861 87.9773 62.3111C89.2666 62.5947 89.6913 62.9498 89.6862 63.7339C89.681 64.53 89.0411 65.138 87.9642 65.3531ZM87.9769 63.3581C87.9769 63.6957 87.9769 64.0143 87.9769 64.334C88.4165 64.2798 88.689 64.0672 88.6691 63.8007C88.65 63.5448 88.3981 63.3798 87.9769 63.3581ZM86.9739 61.3136C86.5998 61.3842 86.4234 61.5619 86.4507 61.8155C86.4745 62.0364 86.65 62.1557 86.9739 62.1593C86.9739 61.8839 86.9739 61.6086 86.9739 61.3136Z" fill="#F4BC33"/>
<path fill-rule="evenodd" clip-rule="evenodd" d="M95.051 102.258C95.051 102.426 95.051 102.598 95.051 102.779C94.7814 102.779 94.53 102.779 94.2608 102.779C94.2608 102.605 94.2608 102.433 94.2608 102.254C93.5119 102.044 93.0012 101.636 92.9102 100.833C93.2022 100.833 93.4724 100.833 93.7579 100.833C93.8244 101.085 93.9207 101.329 94.2387 101.427C94.2387 101.127 94.2387 100.842 94.2387 100.544C93.5859 100.42 92.9932 100.209 92.9737 99.4263C92.9589 98.8373 93.3511 98.4721 94.2475 98.2034C94.2475 98.0409 94.2475 97.8745 94.2475 97.6921C94.5149 97.6921 94.7703 97.6921 95.0433 97.6921C95.0433 97.8606 95.0433 98.026 95.0433 98.2019C95.7814 98.3573 96.2947 98.7099 96.3498 99.508C96.0564 99.508 95.7912 99.508 95.5189 99.508C95.4496 99.278 95.3538 99.0721 95.0615 99.0218C95.0615 99.3002 95.0615 99.5621 95.0615 99.8223C96.094 100.049 96.4341 100.334 96.43 100.962C96.4258 101.599 95.9134 102.086 95.051 102.258ZM95.0612 100.661C95.0612 100.931 95.0612 101.186 95.0612 101.442C95.4132 101.399 95.6314 101.229 95.6155 101.015C95.6002 100.81 95.3985 100.678 95.0612 100.661ZM94.258 99.0235C93.9583 99.08 93.8171 99.2224 93.839 99.4254C93.858 99.6023 93.9986 99.6979 94.258 99.7007C94.258 99.4802 94.258 99.2598 94.258 99.0235Z" fill="#F4BC33"/>
<path fill-rule="evenodd" clip-rule="evenodd" d="M147.267 61.1712C147.267 61.3667 147.267 61.5666 147.267 61.7777C146.953 61.7777 146.66 61.7777 146.346 61.7777C146.346 61.575 146.346 61.3752 146.346 61.1655C145.473 60.9214 144.878 60.4462 144.772 59.5095C145.112 59.5095 145.427 59.5095 145.76 59.5095C145.838 59.8039 145.95 60.0883 146.32 60.2021C146.32 59.853 146.32 59.5206 146.32 59.1731C145.56 59.0284 144.869 58.7832 144.846 57.8705C144.829 57.184 145.286 56.7584 146.331 56.4452C146.331 56.2558 146.331 56.0619 146.331 55.8494C146.642 55.8494 146.94 55.8494 147.258 55.8494C147.258 56.0457 147.258 56.2384 147.258 56.4435C148.118 56.6246 148.717 57.0355 148.781 57.9657C148.439 57.9657 148.13 57.9657 147.813 57.9657C147.732 57.6976 147.62 57.4576 147.279 57.3991C147.279 57.7235 147.279 58.0287 147.279 58.332C148.483 58.5967 148.879 58.9281 148.874 59.66C148.87 60.403 148.272 60.9704 147.267 61.1712ZM147.279 59.3092C147.279 59.6243 147.279 59.9217 147.279 60.2201C147.689 60.1695 147.944 59.971 147.925 59.7223C147.907 59.4835 147.672 59.3295 147.279 59.3092ZM146.343 57.401C145.994 57.4669 145.829 57.6328 145.855 57.8695C145.877 58.0757 146.041 58.187 146.343 58.1903C146.343 57.9333 146.343 57.6764 146.343 57.401Z" fill="#F4BC33"/>
<path fill-rule="evenodd" clip-rule="evenodd" d="M182.264 102.283C182.264 102.534 182.264 102.791 182.264 103.063C181.86 103.063 181.483 103.063 181.08 103.063C181.08 102.802 181.08 102.545 181.08 102.276C179.957 101.962 179.192 101.351 179.056 100.146C179.493 100.146 179.898 100.146 180.326 100.146C180.426 100.525 180.57 100.891 181.047 101.037C181.047 100.588 181.047 100.161 181.047 99.7138C180.069 99.5277 179.18 99.2125 179.151 98.0389C179.129 97.1562 179.717 96.609 181.06 96.2063C181.06 95.9628 181.06 95.7135 181.06 95.4402C181.461 95.4402 181.843 95.4402 182.252 95.4402C182.252 95.6926 182.252 95.9404 182.252 96.2042C183.358 96.4369 184.128 96.9653 184.21 98.1614C183.771 98.1614 183.373 98.1614 182.965 98.1614C182.861 97.8166 182.718 97.5081 182.28 97.4328C182.28 97.8499 182.28 98.2424 182.28 98.6324C183.827 98.9727 184.337 99.3988 184.33 100.34C184.324 101.295 183.556 102.025 182.264 102.283ZM182.279 99.8889C182.279 100.294 182.279 100.676 182.279 101.06C182.807 100.995 183.134 100.74 183.11 100.42C183.087 100.113 182.785 99.9149 182.279 99.8889ZM181.076 97.4353C180.627 97.52 180.415 97.7333 180.448 98.0376C180.476 98.3027 180.687 98.4459 181.076 98.4501C181.076 98.1197 181.076 97.7894 181.076 97.4353Z" fill="#F4BC33"/>
<path d="M180.673 61.0528L180.058 65.4265C180.054 65.454 180.049 65.4812 180.042 65.5081C180.035 65.5349 180.027 65.5616 180.017 65.5878C180.007 65.6139 179.996 65.6397 179.983 65.6649C179.97 65.6902 179.957 65.7147 179.941 65.7389C179.926 65.7629 179.909 65.7861 179.891 65.8087C179.873 65.8312 179.854 65.8529 179.834 65.8738C179.814 65.8947 179.792 65.9147 179.77 65.9336C179.747 65.9526 179.724 65.9706 179.699 65.9876C179.675 66.0045 179.649 66.0204 179.623 66.0352C179.597 66.0498 179.57 66.0635 179.542 66.0757C179.514 66.0882 179.486 66.0994 179.457 66.1093C179.428 66.119 179.398 66.1277 179.368 66.1351C179.338 66.1423 179.308 66.1484 179.278 66.1531C179.247 66.1578 179.216 66.161 179.185 66.163C179.154 66.165 179.123 66.1657 179.092 66.165C179.061 66.1643 179.03 66.1621 179 66.1587L169.862 65.1422C169.813 65.1369 169.766 65.1283 169.72 65.1162L169.719 65.116C169.681 65.107 169.644 65.0955 169.609 65.0814C169.47 65.0296 169.352 64.9523 169.255 64.8495C169.178 64.7682 169.12 64.6769 169.081 64.5757C169.043 64.4746 169.027 64.3709 169.033 64.2643C169.034 64.2429 169.036 64.2218 169.038 64.2007L169.653 59.8269C169.657 59.7995 169.663 59.7723 169.669 59.7454C169.676 59.7183 169.684 59.6918 169.694 59.6657C169.704 59.6394 169.715 59.6136 169.728 59.5885C169.741 59.5633 169.754 59.5385 169.77 59.5146C169.785 59.4906 169.802 59.4671 169.82 59.4446C169.838 59.4221 169.857 59.4004 169.877 59.3795C169.897 59.3586 169.919 59.3386 169.941 59.3196C169.964 59.3005 169.987 59.2827 170.012 59.2657C170.036 59.2488 170.062 59.2329 170.088 59.2181C170.114 59.2033 170.141 59.1898 170.169 59.1775C170.197 59.1651 170.225 59.1539 170.254 59.144C170.283 59.1341 170.313 59.1256 170.343 59.1182C170.373 59.111 170.403 59.1049 170.433 59.1002C170.464 59.0957 170.495 59.0922 170.526 59.0902C170.557 59.0883 170.588 59.0877 170.619 59.0884C170.65 59.0892 170.681 59.0913 170.712 59.0948L179.85 60.1113C179.88 60.1147 179.911 60.1194 179.941 60.1255C179.972 60.1317 180.001 60.1391 180.031 60.1477C180.06 60.1564 180.089 60.1665 180.118 60.1776C180.146 60.1888 180.174 60.2013 180.201 60.215C180.228 60.2285 180.254 60.2433 180.279 60.2593C180.305 60.2752 180.329 60.2923 180.353 60.3104C180.376 60.3284 180.398 60.3475 180.42 60.3675C180.441 60.3875 180.461 60.4085 180.48 60.4303C180.499 60.4521 180.517 60.4746 180.534 60.4981C180.551 60.5214 180.566 60.5453 180.58 60.57C180.594 60.5947 180.606 60.62 180.617 60.6458C180.628 60.6716 180.638 60.6979 180.646 60.7246C180.654 60.7511 180.661 60.7781 180.667 60.8054C180.672 60.8326 180.675 60.86 180.678 60.8874C180.68 60.915 180.68 60.9426 180.68 60.9702C180.679 60.9978 180.676 61.0254 180.673 61.0528Z" fill="#72B5AB"/>
<path d="M170.992 60.7023L170.624 60.6613L170.533 60.8049L170.344 60.784L170.797 60.1173L170.979 60.1375L171.234 60.883L171.041 60.8615L170.992 60.7023ZM170.952 60.5719L170.864 60.2875L170.701 60.5439L170.952 60.5719Z" fill="white"/>
<path d="M171.52 60.3332L171.266 60.305L171.284 60.1719L171.976 60.2488L171.957 60.3819L171.703 60.3536L171.623 60.9264L171.439 60.906L171.52 60.3332Z" fill="white"/>
<path d="M172.696 61.0468L172.755 60.6229L172.472 60.946L172.389 60.9368L172.204 60.5711L172.146 60.9855L171.974 60.9664L172.073 60.2605L172.225 60.2773L172.46 60.749L172.814 60.3429L172.965 60.3597L172.868 61.0659L172.696 61.0468Z" fill="white"/>
<path d="M178.277 59.9366L175.358 62.7823L175.094 63.0412L172.623 65.4495L171.127 65.2831C171.079 65.278 171.032 65.2694 170.985 65.2573L173.883 62.5612L174.11 62.3489L176.872 59.7803L178.277 59.9366Z" fill="white" fill-opacity="0.1098"/>
<path d="M170.162 64.3978L170.086 64.2737L169.976 64.377L169.844 64.3624L170.031 64.1933L169.902 63.9918L170.037 64.007L170.11 64.125L170.216 64.0269L170.345 64.0411L170.164 64.2052L170.299 64.413L170.162 64.3978Z" fill="white"/>
<path d="M170.622 64.4502L170.547 64.326L170.436 64.4294L170.305 64.4147L170.491 64.2456L170.362 64.0442L170.498 64.0594L170.571 64.1773L170.677 64.0792L170.806 64.0937L170.625 64.2577L170.76 64.4653L170.622 64.4502Z" fill="white"/>
<path d="M171.083 64.5004L171.008 64.3763L170.897 64.4796L170.765 64.465L170.952 64.2959L170.823 64.0946L170.958 64.1096L171.032 64.2276L171.138 64.1295L171.266 64.1439L171.086 64.308L171.22 64.5156L171.083 64.5004Z" fill="white"/>
<path d="M171.544 64.553L171.468 64.4289L171.358 64.5322L171.226 64.5176L171.413 64.3485L171.284 64.1472L171.419 64.1622L171.492 64.2804L171.598 64.1821L171.727 64.1965L171.546 64.3606L171.681 64.5682L171.544 64.553Z" fill="white"/>
<path d="M171.737 64.3329L171.957 64.3574L171.945 64.444L171.725 64.4195L171.737 64.3329Z" fill="white"/>
<path d="M172.262 64.6337L172.187 64.5098L172.076 64.6131L171.944 64.5985L172.131 64.4294L172.002 64.2279L172.138 64.2431L172.211 64.3611L172.317 64.263L172.445 64.2772L172.265 64.4413L172.4 64.6491L172.262 64.6337Z" fill="white"/>
<path d="M172.723 64.6843L172.648 64.5602L172.537 64.6635L172.405 64.6489L172.592 64.4798L172.463 64.2783L172.599 64.2935L172.672 64.4117L172.777 64.3134L172.906 64.3276L172.726 64.4917L172.86 64.6995L172.723 64.6843Z" fill="white"/>
<path d="M173.184 64.7347L173.108 64.6106L172.998 64.7139L172.866 64.6993L173.053 64.5302L172.924 64.3287L173.059 64.3439L173.132 64.4621L173.238 64.3638L173.367 64.3782L173.186 64.5423L173.321 64.7501L173.184 64.7347Z" fill="white"/>
<path d="M173.644 64.7849L173.569 64.6608L173.459 64.7642L173.326 64.7495L173.513 64.5806L173.384 64.3792L173.52 64.3941L173.593 64.5123L173.699 64.414L173.828 64.4285L173.647 64.5925L173.781 64.8001L173.644 64.7849Z" fill="white"/>
<path d="M173.838 64.5669L174.058 64.5914L174.046 64.678L173.826 64.6535L173.838 64.5669Z" fill="white"/>
<path d="M174.364 64.8658L174.289 64.7417L174.178 64.845L174.046 64.8304L174.233 64.6613L174.104 64.4598L174.239 64.475L174.313 64.593L174.419 64.4949L174.547 64.5093L174.367 64.6734L174.501 64.881L174.364 64.8658Z" fill="white"/>
<path d="M174.825 64.9165L174.749 64.7923L174.639 64.8957L174.507 64.8811L174.694 64.7119L174.564 64.5105L174.7 64.5257L174.773 64.6438L174.879 64.5455L175.008 64.56L174.827 64.7241L174.962 64.9316L174.825 64.9165Z" fill="white"/>
<path d="M175.284 64.9687L175.209 64.8448L175.098 64.9479L174.966 64.9333L175.153 64.7642L175.024 64.5627L175.16 64.5779L175.233 64.6961L175.339 64.598L175.467 64.6122L175.287 64.7763L175.421 64.9839L175.284 64.9687Z" fill="white"/>
<path d="M175.746 65.021L175.67 64.8971L175.56 65.0004L175.428 64.9856L175.615 64.8167L175.485 64.6152L175.621 64.6302L175.694 64.7484L175.8 64.6503L175.929 64.6646L175.748 64.8286L175.883 65.0364L175.746 65.021Z" fill="white"/>
<path d="M178.116 60.8278L179.783 61.0133C179.79 61.014 179.797 61.016 179.803 61.0193C179.81 61.0225 179.815 61.0267 179.82 61.0319C179.824 61.037 179.827 61.0427 179.829 61.049C179.831 61.0554 179.832 61.0617 179.831 61.0682L179.622 62.5514C179.621 62.5579 179.619 62.5638 179.615 62.5696C179.612 62.5752 179.607 62.5801 179.601 62.584C179.596 62.588 179.589 62.5909 179.582 62.5927C179.575 62.5943 179.568 62.5949 179.561 62.594L177.893 62.4085C177.886 62.4077 177.879 62.4058 177.873 62.4025C177.867 62.3993 177.861 62.3951 177.857 62.3899C177.852 62.3848 177.849 62.3791 177.847 62.3727C177.845 62.3664 177.844 62.3601 177.845 62.3536L178.054 60.8704C178.055 60.8639 178.057 60.858 178.061 60.8522C178.064 60.8466 178.069 60.8417 178.075 60.8378C178.081 60.8338 178.087 60.8309 178.094 60.8291C178.101 60.8275 178.108 60.8269 178.116 60.8278Z" fill="#F4A800"/>
<path d="M177.662 64.4902L178.36 64.5678C178.367 64.5686 178.373 64.5715 178.377 64.5765C178.382 64.5816 178.384 64.5872 178.383 64.5935L178.295 65.2142C178.294 65.2205 178.291 65.2256 178.285 65.2296C178.28 65.2334 178.273 65.235 178.266 65.2343L177.569 65.1565C177.562 65.1557 177.556 65.1529 177.551 65.1478C177.547 65.1427 177.545 65.1372 177.546 65.1308L177.634 64.5101C177.634 64.5038 177.638 64.4987 177.643 64.4949C177.649 64.491 177.655 64.4893 177.662 64.4902Z" fill="#F4A800"/>
<path d="M178.044 64.6553L178.059 64.5503C178.061 64.5319 178.066 64.5138 178.072 64.4961C178.079 64.4784 178.087 64.4616 178.098 64.4454C178.108 64.4293 178.12 64.4141 178.134 64.4C178.147 64.386 178.162 64.3733 178.179 64.3619C178.195 64.3505 178.213 64.3406 178.232 64.3323C178.25 64.324 178.27 64.3173 178.29 64.3124C178.31 64.3074 178.331 64.3043 178.351 64.303C178.372 64.3016 178.393 64.3021 178.414 64.3045L178.532 64.3175C178.553 64.3198 178.573 64.324 178.593 64.3298C178.612 64.3357 178.631 64.3431 178.65 64.3524C178.668 64.3616 178.685 64.3722 178.701 64.3845C178.716 64.3966 178.731 64.41 178.744 64.4246C178.756 64.4394 178.767 64.455 178.777 64.4716C178.786 64.4882 178.794 64.5055 178.799 64.5234C178.805 64.5415 178.808 64.5595 178.81 64.5781C178.811 64.5967 178.811 64.6152 178.808 64.6336L178.793 64.7385C178.791 64.757 178.786 64.775 178.779 64.7927C178.773 64.8104 178.764 64.8272 178.754 64.8435C178.744 64.8596 178.732 64.8747 178.718 64.8888C178.704 64.9027 178.689 64.9156 178.673 64.9269C178.656 64.9383 178.639 64.9483 178.62 64.9566C178.601 64.9649 178.582 64.9716 178.562 64.9764C178.542 64.9813 178.521 64.9846 178.5 64.9858C178.48 64.9873 178.459 64.9867 178.438 64.9844L178.32 64.9714C178.299 64.969 178.279 64.9649 178.259 64.9591C178.239 64.9531 178.22 64.9457 178.202 64.9365C178.184 64.9273 178.167 64.9166 178.151 64.9044C178.135 64.8923 178.121 64.8789 178.108 64.8641C178.095 64.8494 178.084 64.8339 178.075 64.8171C178.066 64.8005 178.058 64.7833 178.053 64.7655C178.047 64.7474 178.044 64.7291 178.042 64.7107C178.041 64.6921 178.041 64.6737 178.044 64.6553Z" fill="white"/>
<path d="M178.616 64.6454L179.087 64.6978C179.092 64.6983 179.096 64.7005 179.099 64.7041C179.102 64.7077 179.104 64.7117 179.103 64.7164L179.044 65.1349C179.044 65.1394 179.041 65.143 179.037 65.1459C179.033 65.1488 179.028 65.1498 179.023 65.1493L178.553 65.0969C178.548 65.0964 178.544 65.0942 178.54 65.0906C178.537 65.087 178.536 65.0829 178.537 65.0783L178.595 64.6598C178.596 64.6553 178.598 64.6515 178.603 64.6488C178.607 64.6459 178.611 64.6449 178.616 64.6454Z" fill="#F4A800"/>
<path d="M176.459 59.7343L170.609 65.2253L169.862 65.1422C169.813 65.137 169.766 65.1283 169.72 65.1162L169.719 65.1161C169.681 65.107 169.644 65.0955 169.609 65.0814L175.567 59.6349L176.459 59.7343Z" fill="white" fill-opacity="0.0667"/>
<path d="M181.224 60.6737L182.339 64.9685C182.346 64.9956 182.351 65.0226 182.355 65.05C182.359 65.0774 182.362 65.105 182.363 65.1326C182.364 65.1602 182.363 65.1878 182.361 65.2154C182.359 65.2428 182.355 65.2702 182.35 65.2974C182.345 65.3247 182.338 65.3517 182.33 65.3784C182.322 65.4051 182.313 65.4312 182.302 65.457C182.291 65.483 182.278 65.5082 182.264 65.5329C182.251 65.5576 182.236 65.5818 182.219 65.6053C182.203 65.6287 182.185 65.6512 182.166 65.6731C182.147 65.6951 182.127 65.716 182.106 65.7362C182.085 65.7562 182.062 65.7753 182.039 65.7935C182.015 65.8117 181.991 65.8289 181.966 65.8449C181.94 65.861 181.914 65.8757 181.888 65.8896C181.861 65.9033 181.833 65.916 181.805 65.9273C181.776 65.9385 181.747 65.9486 181.718 65.9574C181.689 65.9663 181.659 65.9739 181.629 65.9802L172.656 67.8237C172.608 67.8336 172.561 67.8401 172.512 67.8428L172.511 67.843C172.472 67.8461 172.434 67.8464 172.395 67.8441C172.244 67.8381 172.104 67.8015 171.973 67.7346C171.869 67.6819 171.779 67.614 171.704 67.5308C171.629 67.4477 171.574 67.3552 171.538 67.2533C171.53 67.2329 171.524 67.2125 171.518 67.1918L170.404 62.897C170.397 62.8702 170.391 62.8429 170.387 62.8155C170.383 62.7883 170.381 62.7607 170.38 62.7331C170.379 62.7055 170.379 62.6779 170.381 62.6503C170.383 62.6228 170.387 62.5953 170.392 62.5681C170.397 62.5409 170.404 62.5138 170.412 62.4873C170.42 62.4606 170.43 62.4343 170.44 62.4085C170.452 62.3827 170.464 62.3573 170.478 62.3326C170.491 62.3079 170.507 62.2837 170.523 62.2603C170.539 62.2368 170.557 62.2143 170.576 62.1923C170.595 62.1705 170.615 62.1496 170.636 62.1294C170.658 62.1092 170.68 62.0901 170.703 62.072C170.727 62.0538 170.751 62.0367 170.777 62.0206C170.802 62.0046 170.828 61.9896 170.855 61.9759C170.882 61.9622 170.909 61.9496 170.938 61.9384C170.966 61.927 170.995 61.9169 171.024 61.9081C171.054 61.8993 171.084 61.8917 171.114 61.8856L180.087 60.0418C180.117 60.0357 180.148 60.0307 180.178 60.0272C180.209 60.0236 180.24 60.0215 180.271 60.0206C180.302 60.0197 180.333 60.0202 180.364 60.022C180.395 60.0238 180.426 60.0271 180.457 60.0316C180.487 60.0363 180.518 60.042 180.548 60.0492C180.578 60.0565 180.607 60.0649 180.636 60.0747C180.665 60.0846 180.694 60.0956 180.721 60.1079C180.749 60.1201 180.776 60.1335 180.803 60.1482C180.829 60.1629 180.854 60.1785 180.879 60.1955C180.904 60.2123 180.927 60.2301 180.95 60.249C180.972 60.268 180.994 60.288 181.014 60.3087C181.035 60.3295 181.054 60.3511 181.072 60.3737C181.09 60.3962 181.107 60.4195 181.122 60.4434C181.138 60.4673 181.152 60.492 181.165 60.517C181.177 60.5423 181.189 60.5681 181.199 60.5942C181.209 60.6204 181.217 60.6469 181.224 60.6737Z" fill="#4576BD"/>
<path d="M172.011 63.3195L171.649 63.3938L171.618 63.5566L171.433 63.5945L171.601 62.8299L171.779 62.7932L172.307 63.4149L172.118 63.4537L172.011 63.3195ZM171.922 63.2093L171.73 62.9692L171.675 63.2601L171.922 63.2093Z" fill="white"/>
<path d="M172.363 62.8101L172.114 62.8613L172.08 62.7307L172.758 62.5913L172.792 62.7218L172.543 62.7731L172.689 63.335L172.509 63.372L172.363 62.8101Z" fill="white"/>
<path d="M173.742 63.1183L173.633 62.7031L173.493 63.0923L173.412 63.1091L173.097 62.8225L173.203 63.2291L173.034 63.264L172.854 62.5714L173.003 62.5407L173.406 62.9114L173.581 62.4219L173.729 62.3916L173.911 63.0836L173.742 63.1183Z" fill="white"/>
<path d="M178.543 60.3594L176.903 63.9249L176.755 64.2491L175.368 67.2668L173.899 67.5685C173.852 67.5786 173.804 67.5849 173.755 67.5876L175.433 64.1689L175.564 63.9002L177.164 60.6429L178.543 60.3594Z" fill="white" fill-opacity="0.1098"/>
<path d="M172.66 67.0416L172.541 66.9485L172.478 67.0792L172.348 67.1057L172.458 66.89L172.259 66.7405L172.392 66.7132L172.507 66.8017L172.568 66.6771L172.694 66.6511L172.588 66.8604L172.795 67.014L172.66 67.0416Z" fill="white"/>
<path d="M173.113 66.9489L172.994 66.8558L172.93 66.9865L172.801 67.0132L172.91 66.7975L172.711 66.648L172.845 66.6205L172.959 66.709L173.02 66.5844L173.147 66.5586L173.041 66.7678L173.247 66.9213L173.113 66.9489Z" fill="white"/>
<path d="M173.566 66.8558L173.447 66.7626L173.383 66.8933L173.254 66.9199L173.364 66.7041L173.165 66.5548L173.298 66.5274L173.412 66.6158L173.473 66.4913L173.6 66.4655L173.494 66.6745L173.7 66.8282L173.566 66.8558Z" fill="white"/>
<path d="M174.018 66.7634L173.899 66.6701L173.835 66.801L173.706 66.8275L173.816 66.6118L173.617 66.4623L173.75 66.435L173.864 66.5235L173.926 66.3989L174.052 66.3729L173.946 66.5822L174.153 66.7358L174.018 66.7634Z" fill="white"/>
<path d="M174.113 66.4978L174.329 66.4535L174.351 66.5382L174.135 66.5825L174.113 66.4978Z" fill="white"/>
<path d="M174.724 66.6182L174.605 66.525L174.542 66.6557L174.412 66.6823L174.522 66.4665L174.323 66.317L174.456 66.2898L174.571 66.3782L174.632 66.2537L174.758 66.2277L174.652 66.4369L174.859 66.5906L174.724 66.6182Z" fill="white"/>
<path d="M175.176 66.525L175.058 66.4317L174.994 66.5624L174.864 66.5891L174.974 66.3734L174.775 66.2239L174.908 66.1966L175.023 66.2849L175.084 66.1605L175.21 66.1345L175.104 66.3438L175.311 66.4972L175.176 66.525Z" fill="white"/>
<path d="M175.628 66.4326L175.51 66.3393L175.446 66.47L175.317 66.4965L175.427 66.2808L175.228 66.1315L175.361 66.104L175.475 66.1925L175.536 66.0679L175.663 66.0421L175.557 66.2512L175.763 66.4048L175.628 66.4326Z" fill="white"/>
<path d="M176.082 66.3394L175.963 66.246L175.899 66.3769L175.77 66.4035L175.88 66.1877L175.681 66.0382L175.814 66.011L175.928 66.0994L175.989 65.9749L176.116 65.9489L176.01 66.1581L176.216 66.3117L176.082 66.3394Z" fill="white"/>
<path d="M176.177 66.0738L176.392 66.0295L176.414 66.1143L176.199 66.1586L176.177 66.0738Z" fill="white"/>
<path d="M176.788 66.1939L176.669 66.1008L176.605 66.2315L176.476 66.2582L176.586 66.0423L176.387 65.893L176.52 65.8657L176.634 65.954L176.695 65.8294L176.822 65.8036L176.716 66.0128L176.922 66.1663L176.788 66.1939Z" fill="white"/>
<path d="M177.239 66.1015L177.12 66.0083L177.056 66.139L176.927 66.1655L177.037 65.9498L176.838 65.8005L176.971 65.773L177.085 65.8615L177.147 65.7369L177.273 65.7109L177.167 65.9202L177.373 66.0738L177.239 66.1015Z" fill="white"/>
<path d="M177.691 66.0065L177.572 65.9131L177.508 66.0439L177.379 66.0706L177.489 65.8546L177.29 65.7053L177.423 65.6781L177.537 65.7665L177.599 65.6418L177.725 65.616L177.619 65.8252L177.826 65.9787L177.691 66.0065Z" fill="white"/>
<path d="M178.143 65.9135L178.025 65.8204L177.961 65.9511L177.831 65.9776L177.941 65.7621L177.742 65.6126L177.875 65.5851L177.99 65.6736L178.051 65.549L178.178 65.5232L178.071 65.7323L178.278 65.8859L178.143 65.9135Z" fill="white"/>
<path d="M178.736 61.2459L180.373 60.9096C180.38 60.9081 180.387 60.9079 180.394 60.909C180.402 60.9101 180.408 60.9123 180.415 60.9157C180.421 60.9193 180.426 60.9236 180.43 60.9289C180.435 60.9343 180.438 60.9401 180.439 60.9464L180.817 62.403C180.819 62.4094 180.819 62.4159 180.818 62.4222C180.817 62.4287 180.814 62.4346 180.81 62.4402C180.807 62.4456 180.802 62.4503 180.796 62.4541C180.79 62.4579 180.783 62.4606 180.776 62.4621L179.139 62.7984C179.132 62.7999 179.124 62.8001 179.117 62.799C179.11 62.7979 179.103 62.7957 179.097 62.7923C179.091 62.7887 179.086 62.7844 179.081 62.7791C179.077 62.7737 179.074 62.7679 179.072 62.7616L178.694 61.3049C178.693 61.2986 178.692 61.2921 178.694 61.2858C178.695 61.2793 178.697 61.2734 178.701 61.2678C178.705 61.2624 178.71 61.2577 178.716 61.2539C178.722 61.2501 178.729 61.2474 178.736 61.2459Z" fill="#F4A800"/>
<path d="M179.727 64.8232L180.413 64.6823C180.42 64.6809 180.427 64.6818 180.433 64.6852C180.439 64.6884 180.443 64.6933 180.444 64.6995L180.603 65.3096C180.604 65.3157 180.603 65.3215 180.599 65.3269C180.596 65.3324 180.59 65.3358 180.583 65.3372L179.898 65.4782C179.89 65.4796 179.884 65.4785 179.878 65.4753C179.872 65.4718 179.868 65.467 179.867 65.4608L179.708 64.8507C179.707 64.8445 179.708 64.8388 179.711 64.8333C179.715 64.8279 179.721 64.8245 179.727 64.8232Z" fill="#F4A800"/>
<path d="M180.361 64.42L180.477 64.3964C180.497 64.392 180.518 64.3897 180.539 64.3892C180.559 64.3886 180.58 64.3899 180.601 64.393C180.621 64.396 180.641 64.4009 180.661 64.4074C180.68 64.4141 180.699 64.4222 180.717 64.4321C180.735 64.4419 180.751 64.4532 180.766 64.4659C180.781 64.4787 180.795 64.4926 180.807 64.5077C180.819 64.5227 180.83 64.5388 180.838 64.5558C180.847 64.5727 180.853 64.5902 180.858 64.6083L180.885 64.7114C180.89 64.7294 180.892 64.7478 180.893 64.7662C180.894 64.7848 180.892 64.8032 180.889 64.8216C180.885 64.8401 180.88 64.8577 180.872 64.8753C180.865 64.8926 180.856 64.9092 180.845 64.9249C180.834 64.9406 180.821 64.9552 180.807 64.9688C180.792 64.9823 180.777 64.9946 180.76 65.0054C180.743 65.016 180.725 65.0252 180.706 65.033C180.686 65.0406 180.667 65.0465 180.647 65.0507L180.531 65.0745C180.51 65.0787 180.49 65.081 180.469 65.0816C180.448 65.0821 180.427 65.0808 180.407 65.0778C180.386 65.0747 180.366 65.07 180.347 65.0633C180.327 65.0568 180.308 65.0485 180.291 65.0388C180.273 65.0289 180.256 65.0177 180.241 65.0049C180.226 64.992 180.213 64.9781 180.2 64.9632C180.188 64.948 180.178 64.9319 180.169 64.915C180.161 64.898 180.154 64.8805 180.149 64.8624L180.123 64.7595C180.118 64.7413 180.115 64.7231 180.115 64.7045C180.114 64.6859 180.115 64.6675 180.119 64.6491C180.122 64.6309 180.128 64.613 180.135 64.5957C180.142 64.5781 180.152 64.5615 180.163 64.5458C180.174 64.5301 180.187 64.5155 180.201 64.502C180.215 64.4884 180.231 64.4762 180.248 64.4655C180.265 64.4547 180.283 64.4455 180.302 64.4379C180.321 64.4301 180.341 64.4244 180.361 64.42Z" fill="white"/>
<path d="M180.683 64.6764L181.145 64.5813C181.151 64.5802 181.155 64.5809 181.16 64.5835C181.164 64.5858 181.167 64.5893 181.168 64.5938L181.275 65.0054C181.276 65.0097 181.275 65.0139 181.273 65.0178C181.27 65.0218 181.266 65.0242 181.261 65.0252L180.798 65.1203C180.793 65.1212 180.789 65.1207 180.784 65.1182C180.78 65.1158 180.777 65.1122 180.776 65.1078L180.669 64.6963C180.668 64.6919 180.669 64.6876 180.671 64.6838C180.674 64.6798 180.678 64.6775 180.683 64.6764Z" fill="#F4A800"/>
<path d="M176.757 60.7258L173.389 67.6729L172.655 67.8237C172.608 67.8336 172.56 67.8401 172.512 67.8428L172.511 67.843C172.472 67.846 172.433 67.8464 172.394 67.8441L175.881 60.906L176.757 60.7258Z" fill="white" fill-opacity="0.0667"/>
<path d="M179.557 62.3072L179.581 66.9258C179.581 66.9547 179.58 66.9835 179.576 67.0124C179.573 67.0412 179.569 67.0697 179.562 67.0982C179.556 67.1267 179.549 67.1547 179.539 67.1824C179.53 67.2102 179.519 67.2374 179.507 67.2641C179.494 67.291 179.481 67.3171 179.466 67.3427C179.45 67.3683 179.434 67.3932 179.416 67.4174C179.398 67.4416 179.379 67.4648 179.358 67.4872C179.338 67.5097 179.316 67.5312 179.293 67.5517C179.27 67.5723 179.246 67.5918 179.221 67.6103C179.196 67.6287 179.17 67.6461 179.143 67.6623C179.116 67.6785 179.088 67.6935 179.06 67.7072C179.031 67.7209 179.002 67.7333 178.972 67.7447C178.942 67.7559 178.911 67.7656 178.88 67.7743C178.849 67.7827 178.817 67.79 178.786 67.7957C178.754 67.8015 178.722 67.8058 178.689 67.8087C178.657 67.8118 178.624 67.8134 178.592 67.8134L168.942 67.8527C168.892 67.8533 168.841 67.8498 168.791 67.8428H168.79C168.749 67.8379 168.71 67.8304 168.671 67.8199C168.518 67.7827 168.384 67.7166 168.268 67.6213C168.175 67.546 168.101 67.4581 168.046 67.3577C167.991 67.2573 167.958 67.1512 167.948 67.0398C167.946 67.0176 167.945 66.9954 167.944 66.9731L167.921 62.3544C167.92 62.3256 167.922 62.2965 167.925 62.2679C167.928 62.239 167.933 62.2103 167.939 62.1818C167.945 62.1535 167.953 62.1254 167.962 62.0976C167.971 62.0698 167.982 62.0426 167.994 62.0159C168.007 61.9891 168.02 61.9629 168.036 61.9373C168.051 61.9117 168.067 61.8868 168.085 61.8626C168.103 61.8385 168.123 61.8152 168.143 61.7927C168.164 61.7703 168.185 61.7489 168.208 61.7283C168.231 61.7077 168.255 61.6881 168.28 61.6697C168.305 61.6513 168.331 61.634 168.358 61.6178C168.385 61.6015 168.413 61.5866 168.442 61.5729C168.47 61.559 168.499 61.5465 168.53 61.5353C168.56 61.5242 168.59 61.5142 168.621 61.5058C168.652 61.4973 168.684 61.4901 168.716 61.4843C168.748 61.4785 168.78 61.4742 168.812 61.4713C168.844 61.4683 168.877 61.4668 168.909 61.4666L178.559 61.4275C178.592 61.4273 178.624 61.4286 178.657 61.4313C178.689 61.434 178.721 61.438 178.753 61.4436C178.785 61.449 178.816 61.456 178.848 61.4641C178.879 61.4724 178.91 61.4821 178.94 61.493C178.97 61.504 178.999 61.5162 179.028 61.5298C179.057 61.5433 179.085 61.5581 179.112 61.5739C179.139 61.59 179.165 61.6071 179.19 61.6253C179.216 61.6435 179.24 61.6628 179.263 61.6832C179.286 61.7036 179.308 61.7249 179.329 61.7472C179.35 61.7696 179.369 61.7927 179.387 61.8167C179.405 61.8406 179.422 61.8654 179.438 61.891C179.453 61.9164 179.467 61.9424 179.48 61.9692C179.492 61.9959 179.503 62.023 179.513 62.0507C179.523 62.0783 179.531 62.1063 179.537 62.1348C179.544 62.1631 179.549 62.1918 179.552 62.2204C179.555 62.2493 179.557 62.2781 179.557 62.3072Z" fill="#DD7B05"/>
<path d="M169.449 63.1194L169.06 63.1211L168.987 63.2808L168.788 63.2817L169.157 62.5355L169.349 62.5348L169.727 63.2779L169.524 63.2786L169.449 63.1194ZM169.387 62.9888L169.253 62.7043L169.122 62.9899L169.387 62.9888Z" fill="white"/>
<path d="M169.941 62.671L169.673 62.6721L169.673 62.5316L170.402 62.5287L170.403 62.669L170.135 62.6703L170.138 63.2743L169.944 63.275L169.941 62.671Z" fill="white"/>
<path d="M171.272 63.2699L171.268 62.8231L171.024 63.1922L170.936 63.1926L170.689 62.8351L170.692 63.2723L170.51 63.273L170.506 62.5285L170.666 62.5277L170.982 62.9893L171.288 62.5252L171.447 62.5247L171.453 63.2692L171.272 63.2699Z" fill="white"/>
<path d="M176.898 61.4336L174.296 64.7405L174.06 65.0415L171.858 67.8402L170.279 67.8467C170.228 67.8471 170.177 67.8438 170.127 67.8368L172.73 64.6877L172.934 64.4399L175.415 61.4397L176.898 61.4336Z" fill="white" fill-opacity="0.1098"/>
<path d="M169.146 67.0572L169.049 66.9376L168.949 67.0579L168.81 67.0586L168.979 66.8608L168.814 66.6671L168.957 66.6665L169.051 66.7804L169.146 66.6658L169.282 66.6653L169.119 66.8573L169.29 67.0566L169.146 67.0572Z" fill="white"/>
<path d="M169.633 67.0552L169.535 66.9356L169.436 67.0559L169.297 67.0567L169.466 66.8588L169.301 66.6651L169.444 66.6646L169.538 66.7784L169.633 66.6639L169.769 66.6633L169.606 66.8554L169.777 67.0547L169.633 67.0552Z" fill="white"/>
<path d="M170.118 67.0531L170.021 66.9335L169.922 67.054L169.783 67.0546L169.951 66.8567L169.787 66.6631L169.93 66.6625L170.024 66.7763L170.119 66.6618L170.254 66.6613L170.092 66.8533L170.263 67.0526L170.118 67.0531Z" fill="white"/>
<path d="M170.605 67.0511L170.508 66.9315L170.409 67.052L170.27 67.0525L170.438 66.8547L170.274 66.6612L170.417 66.6604L170.511 66.7743L170.606 66.6597L170.741 66.6592L170.579 66.8512L170.75 67.0505L170.605 67.0511Z" fill="white"/>
<path d="M170.772 66.8013L171.005 66.8004L171.005 66.8919L170.773 66.8928L170.772 66.8013Z" fill="white"/>
<path d="M171.365 67.047L171.268 66.9274L171.169 67.0479L171.029 67.0485L171.198 66.8506L171.033 66.6571L171.176 66.6564L171.27 66.7702L171.365 66.6557L171.501 66.6552L171.338 66.8472L171.509 67.0465L171.365 67.047Z" fill="white"/>
<path d="M171.851 67.047L171.753 66.9274L171.654 67.0479L171.515 67.0485L171.684 66.8506L171.519 66.6571L171.662 66.6566L171.756 66.7702L171.851 66.6557L171.987 66.6552L171.824 66.847L171.995 67.0465L171.851 67.047Z" fill="white"/>
<path d="M172.337 67.045L172.24 66.9253L172.141 67.0459L172.002 67.0464L172.171 66.8486L172.006 66.6551L172.149 66.6543L172.243 66.7682L172.338 66.6536L172.474 66.6531L172.311 66.8451L172.482 67.0444L172.337 67.045Z" fill="white"/>
<path d="M172.824 67.043L172.727 66.9234L172.628 67.0437L172.489 67.0444L172.657 66.8466L172.493 66.6531L172.636 66.6524L172.73 66.7662L172.825 66.6517L172.96 66.6511L172.798 66.8432L172.969 67.0425L172.824 67.043Z" fill="white"/>
<path d="M172.991 66.7912L173.224 66.7903L173.225 66.8817L172.992 66.8827L172.991 66.7912Z" fill="white"/>
<path d="M173.583 67.039L173.486 66.9194L173.386 67.0399L173.247 67.0404L173.416 66.8426L173.251 66.6489L173.394 66.6484L173.488 66.7622L173.583 66.6476L173.719 66.6471L173.556 66.8391L173.727 67.0384L173.583 67.039Z" fill="white"/>
<path d="M174.07 67.0369L173.973 66.9173L173.873 67.0378L173.734 67.0383L173.903 66.8405L173.738 66.647L173.881 66.6463L173.975 66.7601L174.07 66.6456L174.206 66.645L174.043 66.8371L174.214 67.0364L174.07 67.0369Z" fill="white"/>
<path d="M174.556 67.0349L174.459 66.9153L174.36 67.0358L174.221 67.0364L174.389 66.8386L174.225 66.6451L174.368 66.6443L174.462 66.7582L174.557 66.6436L174.693 66.6431L174.53 66.8351L174.701 67.0344L174.556 67.0349Z" fill="white"/>
<path d="M175.042 67.0349L174.945 66.9153L174.846 67.0358L174.707 67.0364L174.875 66.8386L174.711 66.6451L174.854 66.6445L174.948 66.7582L175.043 66.6436L175.178 66.6431L175.016 66.8351L175.187 67.0344L175.042 67.0349Z" fill="white"/>
<path d="M176.864 62.3784L178.63 62.3712C178.637 62.3712 178.644 62.3725 178.651 62.3748C178.657 62.3774 178.663 62.3808 178.669 62.3855C178.674 62.39 178.678 62.3954 178.681 62.4013C178.683 62.4073 178.685 62.4136 178.685 62.4201L178.693 63.9912C178.693 63.9977 178.692 64.004 178.689 64.01C178.686 64.0161 178.682 64.0213 178.677 64.026C178.672 64.0307 178.666 64.0341 178.659 64.0367C178.652 64.0392 178.645 64.0404 178.638 64.0406L176.872 64.0477C176.865 64.0478 176.858 64.0466 176.851 64.0441C176.844 64.0415 176.838 64.0381 176.833 64.0336C176.828 64.0289 176.824 64.0237 176.821 64.0175C176.818 64.0116 176.817 64.0053 176.817 63.9988L176.808 62.4279C176.808 62.4212 176.81 62.4151 176.813 62.4089C176.815 62.403 176.819 62.3976 176.824 62.3929C176.83 62.3884 176.836 62.3847 176.843 62.3822C176.849 62.3797 176.856 62.3784 176.864 62.3784Z" fill="#F4A800"/>
<path d="M176.948 66.2385L177.688 66.2355C177.695 66.2355 177.701 66.2376 177.706 66.2422C177.711 66.2467 177.714 66.2519 177.714 66.2584L177.717 66.9161C177.717 66.9225 177.715 66.9279 177.71 66.9324C177.705 66.9369 177.699 66.9391 177.691 66.9393L176.952 66.9421C176.945 66.9421 176.939 66.94 176.934 66.9355C176.929 66.9311 176.926 66.9257 176.926 66.9192L176.923 66.2615C176.923 66.2551 176.925 66.2497 176.93 66.2452C176.935 66.2407 176.941 66.2385 176.948 66.2385Z" fill="#F4A800"/>
<path d="M177.686 65.9534L177.841 65.9529C177.862 65.9527 177.883 65.9545 177.903 65.9579C177.924 65.9616 177.944 65.9668 177.963 65.9738C177.983 65.9809 178.001 65.9895 178.018 65.9998C178.036 66.0101 178.052 66.0217 178.067 66.0348C178.081 66.0478 178.095 66.0621 178.106 66.0774C178.118 66.093 178.128 66.1092 178.136 66.1264C178.144 66.1435 178.15 66.1612 178.154 66.1792C178.159 66.1975 178.161 66.2159 178.161 66.2345L178.161 66.3724C178.162 66.391 178.16 66.4094 178.156 66.4276C178.152 66.4458 178.146 66.4635 178.138 66.4807C178.13 66.4978 178.12 66.5143 178.109 66.5298C178.097 66.5453 178.084 66.5596 178.069 66.5727C178.055 66.5859 178.039 66.5978 178.021 66.6081C178.004 66.6186 177.986 66.6272 177.967 66.6345C177.947 66.6417 177.927 66.6471 177.907 66.6509C177.886 66.6545 177.866 66.6565 177.845 66.6565L177.69 66.6572C177.669 66.6572 177.648 66.6556 177.628 66.652C177.607 66.6484 177.588 66.6431 177.568 66.6361C177.549 66.6291 177.53 66.6204 177.513 66.6103C177.496 66.6 177.48 66.5883 177.465 66.5753C177.45 66.5621 177.437 66.5478 177.425 66.5325C177.413 66.5171 177.403 66.5009 177.395 66.4837C177.387 66.4666 177.381 66.4489 177.377 66.4307C177.373 66.4125 177.371 66.394 177.371 66.3754L177.37 66.2377C177.37 66.2191 177.372 66.2007 177.376 66.1825C177.38 66.1643 177.386 66.1466 177.393 66.1292C177.401 66.1121 177.411 66.0959 177.423 66.0803C177.434 66.0648 177.447 66.0504 177.462 66.0372C177.477 66.024 177.493 66.0123 177.51 66.0018C177.527 65.9915 177.545 65.9827 177.565 65.9755C177.584 65.9682 177.604 65.9628 177.624 65.9592C177.645 65.9554 177.666 65.9536 177.686 65.9534Z" fill="white"/>
<path d="M177.963 66.2838L178.462 66.2819C178.467 66.2819 178.471 66.2835 178.475 66.2867C178.479 66.29 178.481 66.2938 178.481 66.2985L178.483 66.7421C178.483 66.7466 178.481 66.7506 178.478 66.7538C178.474 66.7571 178.47 66.7587 178.464 66.7587L177.966 66.7607C177.961 66.7607 177.956 66.7592 177.953 66.756C177.949 66.7527 177.947 66.7487 177.947 66.7442L177.945 66.3006C177.945 66.2959 177.947 66.2922 177.95 66.2887C177.954 66.2855 177.958 66.2838 177.963 66.2838Z" fill="#F4A800"/>
<path d="M174.98 61.4404L169.733 67.848L168.943 67.8512C168.893 67.8518 168.842 67.8483 168.792 67.8413H168.791C168.75 67.8364 168.711 67.8288 168.672 67.8184L174.038 61.4444L174.98 61.4404Z" fill="white" fill-opacity="0.0667"/>
<path d="M275.231 138.218H233.206C230.042 138.218 227.476 135.541 227.476 132.24V82.4195C227.476 79.1197 230.042 76.4414 233.206 76.4414H275.231C278.396 76.4414 280.962 79.1197 280.962 82.4195V132.24C280.962 135.541 278.396 138.218 275.231 138.218Z" fill="#DCEDFA"/>
<path d="M238.938 94.3783C238.445 94.3783 237.96 94.1832 237.587 93.7944L235.676 91.8016C234.931 91.0226 234.931 89.7614 235.676 88.9838C236.423 88.2048 237.631 88.2048 238.378 88.9838L238.938 89.5663L243.317 84.9969C244.064 84.2193 245.273 84.2193 246.019 84.9969C246.765 85.7759 246.765 87.037 246.019 87.816L240.288 93.7944C239.914 94.1832 239.429 94.3783 238.938 94.3783Z" fill="#51C28E"/>
<path d="M271.412 92.3841H252.309C251.257 92.3841 250.399 91.4881 250.399 90.3913C250.399 89.2932 251.257 88.3986 252.309 88.3986H271.412C272.463 88.3986 273.322 89.2932 273.322 90.3913C273.322 91.4881 272.463 92.3841 271.412 92.3841Z" fill="#93B6C8"/>
<path d="M238.938 106.334C238.445 106.334 237.96 106.14 237.587 105.75L235.676 103.757C234.931 102.98 234.931 101.719 235.676 100.94C236.423 100.161 237.631 100.161 238.378 100.94L238.938 101.524L243.317 96.9541C244.064 96.1751 245.273 96.1751 246.019 96.9541C246.765 97.7317 246.765 98.9929 246.019 99.7719L240.288 105.75C239.914 106.14 239.429 106.334 238.938 106.334Z" fill="#51C28E"/>
<path d="M271.412 104.342H252.309C251.257 104.342 250.399 103.447 250.399 102.349C250.399 101.251 251.257 100.356 252.309 100.356H271.412C272.463 100.356 273.322 101.251 273.322 102.349C273.322 103.447 272.463 104.342 271.412 104.342Z" fill="#93B6C8"/>
<path d="M238.938 118.291C238.445 118.291 237.96 118.096 237.587 117.707L235.676 115.714C234.931 114.935 234.931 113.674 235.676 112.895C236.423 112.117 237.631 112.117 238.378 112.895L238.938 113.479L243.317 108.909C244.064 108.132 245.273 108.132 246.019 108.909C246.765 109.688 246.765 110.95 246.019 111.727L240.288 117.707C239.914 118.096 239.429 118.291 238.938 118.291Z" fill="#51C28E"/>
<path d="M271.412 116.298H252.309C251.257 116.298 250.399 115.402 250.399 114.304C250.399 113.207 251.257 112.311 252.309 112.311H271.412C272.463 112.311 273.322 113.207 273.322 114.304C273.322 115.402 272.463 116.298 271.412 116.298Z" fill="#93B6C8"/>
<path d="M238.938 130.248C238.445 130.248 237.96 130.053 237.587 129.664L235.676 127.672C234.931 126.893 234.931 125.631 235.676 124.854C236.423 124.075 237.631 124.075 238.378 124.854L238.938 125.438L243.317 120.868C244.064 120.089 245.273 120.089 246.019 120.868C246.765 121.646 246.765 122.907 246.019 123.686L240.288 129.664C239.914 130.053 239.429 130.248 238.938 130.248Z" fill="#51C28E"/>
<path d="M271.412 128.254H252.309C251.257 128.254 250.399 127.36 250.399 126.262C250.399 125.164 251.257 124.269 252.309 124.269H271.412C272.463 124.269 273.322 125.164 273.322 126.262C273.322 127.36 272.463 128.254 271.412 128.254Z" fill="#93B6C8"/>
<path d="M116.363 65.4089C116.581 65.1981 116.812 65.0476 117.057 64.9529C115.259 67.2269 114.765 71.3636 114.656 73.8246C114.652 73.887 114.602 73.9328 114.542 73.9308L114.056 73.9131C113.989 73.9105 113.937 73.8532 113.941 73.7834C114.097 70.868 114.711 66.9963 116.363 65.4089ZM118.327 65.3142C118.419 65.2293 118.514 65.1585 118.611 65.0934C118.822 65.2231 119.064 65.4199 119.309 65.7203C120.189 66.8021 121.031 68.645 120.599 73.8896C120.592 73.974 120.524 74.0401 120.442 74.0391L115.999 73.9641C115.906 73.963 115.831 73.8834 115.836 73.786C115.975 70.9227 116.607 66.889 118.327 65.3142ZM121.208 65.6109C122.124 66.6849 122.99 68.5216 122.491 73.9204C122.485 73.988 122.431 74.0427 122.365 74.0453L121.901 74.0625C121.827 74.0651 121.769 73.999 121.775 73.923C122.147 69.313 121.653 66.6188 120.161 64.8545C120.417 64.9414 120.808 65.1434 121.208 65.6109ZM122.997 76.5812C123.178 76.5812 123.343 76.4989 123.454 76.3667C123.959 76.5859 124.287 77.1554 124.157 77.7833C124.063 78.2367 123.712 78.6069 123.276 78.7105C122.498 78.8948 121.807 78.2857 121.807 77.5079C121.807 76.9935 122.109 76.5536 122.539 76.3677C122.632 76.4786 122.767 76.5572 122.923 76.577C122.948 76.5796 122.972 76.5812 122.997 76.5812ZM114.986 78.7105C114.55 78.6069 114.199 78.2367 114.106 77.7833C113.975 77.1565 114.303 76.5859 114.808 76.3677C114.917 76.4974 115.082 76.5812 115.265 76.5812H115.273C115.455 76.5786 115.617 76.4963 115.723 76.3677C116.153 76.5536 116.455 76.9945 116.455 77.5079C116.455 78.2857 115.764 78.8948 114.986 78.7105ZM131.108 95.8177C131.108 95.8177 129.285 76.3365 129.052 74.2796C129.041 74.1786 128.961 74.1052 128.864 74.1036C128.063 74.0911 124.612 74.039 123.863 74.0276C123.785 74.0266 123.726 73.9558 123.733 73.8745C124.114 69.4098 123.603 66.5189 122.054 64.7785C121.109 63.717 120.128 63.618 119.909 63.6107C119.469 63.5722 119.05 63.6222 118.656 63.7581C118.323 63.6357 118.072 63.6144 117.975 63.6107C117.067 63.5311 116.252 63.8315 115.554 64.5031C113.476 66.5006 112.858 70.955 112.713 73.7361C112.709 73.8199 112.645 73.8834 112.564 73.8855L109.216 73.9568C109.119 73.9578 109.037 74.0328 109.022 74.1322L105.824 95.7052C105.649 96.9328 106.564 98.0354 107.758 98.0354H129.161C130.312 98.0354 131.213 97.0072 131.108 95.8177Z" fill="#0D2584"/>
<line x1="85.7812" y1="41.7917" x2="85.7812" y2="31.9856" stroke="black" stroke-width="0.980587" stroke-dasharray="1.12 1.12"/>
<line x1="86.2715" y1="31.4955" x2="120.592" y2="31.4955" stroke="black" stroke-width="0.980587" stroke-dasharray="1.12 1.12"/>
<line x1="120.102" y1="31.9858" x2="120.102" y2="23.1603" stroke="black" stroke-width="0.980587" stroke-dasharray="1.12 1.12"/>
<line x1="120.592" y1="22.6702" x2="154.021" y2="22.6702" stroke="black" stroke-width="0.980587" stroke-dasharray="1.07 1.07"/>
<line x1="158.345" y1="23.1605" x2="158.345" y2="41.7923" stroke="black" stroke-width="0.980587" stroke-dasharray="1.12 1.12"/>
<path d="M117.237 25.6418C116.761 25.6418 116.3 25.7008 115.862 25.8092C114.883 23.2032 112.183 21.3296 109.003 21.3296C105.986 21.3296 103.399 23.0159 102.306 25.4144C101.916 25.3012 101.502 25.2397 101.071 25.2397C98.8167 25.2397 96.9893 26.9124 96.9893 28.9752C96.9893 28.9779 96.9893 28.9803 96.9893 28.9827C95.2017 29.089 93.7875 30.4488 93.7875 32.1116C93.7875 33.8436 95.3219 35.248 97.2148 35.248C97.2675 35.248 97.3196 35.2465 97.3713 35.2444L97.3719 35.248L97.3983 35.2435C97.422 35.2423 97.445 35.2402 97.4684 35.2384H116.834C116.967 35.2477 117.101 35.2537 117.237 35.2537C120.138 35.2537 122.489 33.1021 122.489 30.4479C122.489 27.7937 120.138 25.6418 117.237 25.6418Z" fill="#4AAFC9"/>
<path d="M159.825 21.1937C159.501 21.1937 159.188 21.2338 158.889 21.3077C158.223 19.5333 156.384 18.2577 154.219 18.2577C152.165 18.2577 150.404 19.4058 149.66 21.0388C149.394 20.9617 149.112 20.9199 148.819 20.9199C147.284 20.9199 146.04 22.0588 146.04 23.4632C146.04 23.465 146.04 23.4667 146.04 23.4683C144.822 23.5407 143.86 24.4665 143.86 25.5986C143.86 26.7779 144.904 27.7341 146.193 27.7341C146.229 27.7341 146.264 27.733 146.3 27.7316L146.3 27.7341L146.318 27.731C146.334 27.7302 146.35 27.7287 146.366 27.7275H159.551C159.641 27.7339 159.733 27.738 159.825 27.738C161.8 27.738 163.401 26.273 163.401 24.4659C163.401 22.6588 161.8 21.1937 159.825 21.1937Z" fill="#4AAFC9"/>
<path d="M148.94 88.1537V101.964C148.94 102.557 148.555 103.088 148 103.247L133.545 107.454C133.088 107.587 132.61 107.587 132.153 107.454L117.699 103.247C117.146 103.088 116.758 102.557 116.758 101.964V88.1537L132.849 84.8119L148.94 88.1537Z" fill="#AD7C4D"/>
<path d="M148.939 82.1343L151.169 86.012C151.986 87.4284 151.285 89.2601 149.756 89.7069L138.473 92.9915C137.432 93.2946 136.323 92.8371 135.765 91.8707L132.848 86.817L129.932 91.8707C129.374 92.8371 128.266 93.2946 127.224 92.9915L115.941 89.7069C114.413 89.2601 113.711 87.4284 114.528 86.012L116.758 82.1343H148.939Z" fill="#CA9060"/>
<path d="M116.757 82.1362L132.848 86.8191L148.939 82.1362L133.369 77.5268C133.029 77.4276 132.667 77.4276 132.327 77.5268L116.757 82.1362Z" fill="#976640"/>
<path d="M133.492 87.9318V95.5121H132.205V87.9318L132.848 86.8157L133.492 87.9318Z" fill="#976640"/>
<path d="M145.407 100.6C144.576 95.9058 143.612 91.2373 142.772 86.5459C142.52 85.1311 143.28 83.3215 144.75 83.0969C145.398 82.9076 146.158 83.6346 145.891 84.3293C145.808 84.9129 145.175 84.9779 144.75 85.1281C144.62 85.5063 144.381 85.8972 144.533 86.3179C144.627 86.8211 144.724 87.3243 144.819 87.828H166.461C166.889 87.828 167.236 88.1925 167.236 88.643C167.236 89.0934 166.889 89.458 166.461 89.458H145.127C145.706 92.5118 146.291 95.5647 146.862 98.6214C146.989 99.2573 147.078 99.9124 147.333 100.513C147.789 100.699 148.297 100.604 148.772 100.63C154.4 100.613 160.028 100.627 165.653 100.623C167.082 94.2137 168.493 87.8012 169.926 81.3916C170.109 80.1818 171.092 79.0674 172.313 79.1125C173.774 79.1197 175.238 79.0474 176.695 79.155C177.498 79.4451 177.498 80.694 176.711 81.0101C175.173 81.1636 173.619 80.9679 172.081 81.1045C171.712 81.2934 171.78 81.8319 171.638 82.1837C169.957 89.803 168.261 97.4184 166.549 105.034C166.329 106.276 165.204 107.268 163.982 107.143C157.972 107.134 151.962 107.166 145.957 107.127C144.809 107.166 144.803 105.174 145.95 105.204C151.339 105.165 156.732 105.194 162.121 105.187C162.931 105.167 163.752 105.266 164.552 105.096C164.909 104.304 165.005 103.417 165.219 102.58C159.426 102.58 153.634 102.582 147.841 102.58C146.716 102.68 145.575 101.784 145.407 100.6Z" fill="#010101"/>
<path d="M163.317 107.865C164.378 108.083 165.258 109.012 165.463 110.127C165.81 111.663 164.769 113.338 163.286 113.603C161.751 113.974 160.104 112.729 159.974 111.076C159.683 109.162 161.531 107.385 163.317 107.865ZM161.971 111.265C162.269 111.78 163.026 111.881 163.401 111.402C163.916 110.923 163.634 109.965 162.992 109.795C162.229 109.488 161.432 110.59 161.971 111.265Z" fill="#010101"/>
<path d="M149.646 107.857C151.677 108.183 152.605 111.075 151.209 112.643C149.95 114.319 147.1 113.8 146.48 111.753C145.662 109.715 147.603 107.315 149.646 107.857ZM148.589 111.537C149.541 112.317 150.651 110.54 149.603 109.92C148.651 109.138 147.535 110.918 148.589 111.537Z" fill="#010101"/>
<path d="M119.304 110.536L104.928 110.624L104.83 101.559L119.206 101.472L119.304 110.536Z" fill="#F57231"/>
<path d="M113.222 101.827L113.133 102.035L113.058 101.932L112.945 102.036L112.834 101.725L112.644 102.038L112.528 101.883L112.376 102.039L112.305 101.777L112.159 102.041L112.022 101.92L111.943 102.042L111.804 101.823L111.743 102.043L111.581 101.77L111.436 102.045L111.258 101.89L111.186 102.047L111.064 101.834L110.93 102.048L110.831 101.928L110.787 102.049L110.703 101.815L110.639 102.05L110.731 110.597L113.5 110.58L113.408 102.033L113.222 101.827Z" fill="#DB352C"/>
<path d="M110.923 100.275C110.923 100.275 104.222 97.6975 106.859 95.9462L108.936 94.7041C107.649 97.9273 112.337 99.5136 112.337 99.5136L110.923 100.275Z" fill="#B32B24"/>
<path d="M113.681 98.7893C113.681 98.7893 112.683 94.1859 109.797 94.2439C109.733 94.2453 109.671 94.263 109.621 94.2931L107.306 95.6788C109.65 94.9246 110.922 100.274 110.922 100.274L113.681 98.7893Z" fill="#DB352C"/>
<path d="M112.227 99.5327C112.227 99.5327 111.531 93.9108 114.381 94.5088L116.76 95.128C113.209 95.9698 113.743 100.005 113.743 100.005L112.227 99.5327Z" fill="#B32B24"/>
<path d="M114.885 100.36C114.885 100.36 118.711 97.059 117.323 95.3198C117.293 95.2815 117.248 95.2535 117.196 95.2406L114.376 94.5072C116.162 95.5076 112.227 99.5317 112.227 99.5317L114.885 100.36Z" fill="#DB352C"/>
<path d="M119.943 102.232L104.019 102.31L103.994 99.0736L119.917 98.9955L119.943 102.232Z" fill="#F57231"/>
<path d="M110.595 99.0856L110.621 102.352L110.836 102.526L110.928 102.351L110.98 102.488L111.204 102.35L111.348 102.561L111.559 102.348L111.692 102.454L111.883 102.346L111.951 102.527L112.164 102.345L112.28 102.631L112.449 102.344L112.572 102.487L112.726 102.342L112.768 102.573L113.002 102.341L113.17 102.534L113.249 102.34L113.36 102.528L113.416 102.339L113.39 99.0719L110.595 99.0856Z" fill="#DB352C"/>
<line x1="142.245" y1="75.6794" x2="145.254" y2="75.6794" stroke="black" stroke-width="0.802297" stroke-linecap="round"/>
<line x1="143.711" y1="74.2257" x2="143.711" y2="77.0883" stroke="black" stroke-width="0.802297" stroke-linecap="round"/>
<line y1="-0.133716" x2="1.03055" y2="-0.133716" transform="matrix(0.569745 0.821821 -0.841857 0.5397 142.43 72.9813)" stroke="black" stroke-width="0.267432"/>
<line y1="-0.133716" x2="1.01788" y2="-0.133716" transform="matrix(-0.00421499 0.999991 -0.999992 -0.0038977 143.603 72.6139)" stroke="black" stroke-width="0.267432"/>
<line y1="-0.133716" x2="1.02188" y2="-0.133716" transform="matrix(-0.322101 0.946705 -0.953902 -0.300118 144.809 72.6986)" stroke="black" stroke-width="0.267432"/>
<path d="M156.536 82.4948C156.702 82.6386 156.96 82.6224 157.111 82.4585L159.572 79.7879C159.723 79.6241 159.71 79.3746 159.544 79.2308C159.377 79.087 159.119 79.1033 158.968 79.2671L156.781 81.6409L154.364 79.5577C154.198 79.4139 153.94 79.4301 153.789 79.594C153.638 79.7579 153.651 80.0073 153.818 80.1512L156.536 82.4948ZM163.416 71.4012C160.288 72.4938 158.417 73.7327 157.397 75.4884C156.385 77.228 156.257 79.3985 156.402 82.2238L157.216 82.1724C157.071 79.351 157.221 77.3891 158.105 75.8678C158.98 74.3624 160.624 73.2117 163.681 72.1435L163.416 71.4012Z" fill="black"/>
<defs>
<linearGradient id="paint0_linear_326_879" x1="185.726" y1="56.9912" x2="185.726" y2="122.435" gradientUnits="userSpaceOnUse">
<stop stop-color="#3F69FF"/>
<stop offset="1" stop-color="#112261"/>
</linearGradient>
</defs>
</svg>
