<svg width="585" height="397" viewBox="0 0 585 397" fill="none" xmlns="http://www.w3.org/2000/svg">
<path d="M569.797 299.381C553.474 317.832 525.99 318.455 421.195 349.322C381.122 361.126 337.971 358.034 300.476 339.612C261.98 320.699 218.02 299.442 214.512 299.247C214.391 298.905 166.861 181.746 260.294 134.865C293.961 117.971 258.454 91.3109 281.825 62.1038C308.684 28.5415 337.994 65.6689 367.86 50.4512C373.137 47.7646 378.432 43.4408 383.732 36.8058C386.715 33.0736 389.986 29.8111 393.487 26.9928C394.024 26.5585 394.566 26.1359 395.114 25.7252C397.211 24.1509 399.383 22.726 401.622 21.4446C403.125 20.5858 404.658 19.7898 406.217 19.0607H406.219C408.695 17.9011 411.239 16.9007 413.836 16.0556C417.525 14.8528 421.325 13.9606 425.199 13.3552C426.889 13.0899 428.592 12.8816 430.307 12.7244C463.677 9.68396 488.023 20.2693 508.176 44.3272C519.712 58.0964 529.481 83.3138 522.61 123.83C518.249 149.546 556.433 162.802 569.579 188.604C603.001 254.201 570.1 298.526 569.797 299.381Z" fill="url(#paint0_linear_301_602)"/>
<rect x="70.2383" y="85.5076" width="419.904" height="275.61" rx="11" fill="#33395E"/>
<rect x="70.2383" y="103.831" width="419.904" height="16.7962" fill="#DDE5F2"/>
<rect x="78.6367" y="103.831" width="411.506" height="16.7962" fill="#DDE5F2"/>
<path d="M106.121 120.627H490.142V350.117C490.142 356.192 485.217 361.117 479.142 361.117H106.121V120.627Z" fill="#E6E8E7"/>
<circle cx="88.5615" cy="142.767" r="11.4519" fill="#D9D9D9"/>
<circle cx="88.5615" cy="241.254" r="11.4519" fill="#D9D9D9" fill-opacity="0.25"/>
<circle cx="88.5615" cy="274.846" r="11.4519" fill="#D9D9D9" fill-opacity="0.25"/>
<circle cx="88.5615" cy="308.439" r="11.4519" fill="#D9D9D9" fill-opacity="0.25"/>
<g clip-path="url(#clip0_301_602)">
<path d="M96.4347 131.315H80.6883C78.7119 131.315 77.1096 132.918 77.1096 134.894V150.641C77.1096 152.617 78.7119 154.219 80.6883 154.219H96.4347C98.4112 154.219 100.013 152.617 100.013 150.641V134.894C100.013 132.918 98.4112 131.315 96.4347 131.315Z" fill="#0265FF"/>
<path d="M79.9727 142.499C79.9727 142.389 79.9727 142.283 79.9727 142.173C80.0336 142.149 80.0133 142.092 80.0133 142.052C80.0174 141.682 80.1027 141.328 80.2124 140.979C80.566 139.845 81.269 138.951 82.1793 138.215C82.8051 137.707 83.5081 137.317 84.2599 137.025C85.3531 136.598 86.4868 136.375 87.6572 136.33C88.0107 136.318 88.3683 136.334 88.7259 136.358C89.3355 136.395 89.9328 136.484 90.518 136.626C91.3836 136.838 92.2045 137.167 92.9766 137.626C93.6714 138.037 94.2973 138.536 94.8053 139.158C95.4473 139.947 95.8862 140.832 95.9959 141.869C96.0487 142.389 96.0244 142.897 95.9187 143.405C95.7155 144.372 95.2238 145.189 94.5533 145.908C94.4964 145.969 94.4802 146.01 94.5086 146.099C94.8459 147.123 95.4229 147.94 96.4348 148.395C96.3901 148.48 96.3129 148.432 96.2519 148.432C93.1838 148.436 90.1157 148.436 87.0476 148.436C86.8607 148.375 86.6615 148.383 86.4665 148.35C85.6212 148.216 84.8004 147.997 84.012 147.651C82.866 147.152 81.8582 146.457 81.0902 145.457C80.4481 144.624 80.0377 143.693 80.0174 142.62C80.0133 142.58 80.0336 142.523 79.9727 142.499ZM90.4083 143.352C90.774 143.352 91.1398 143.348 91.5055 143.356C91.6315 143.36 91.6802 143.328 91.6802 143.189C91.6721 142.649 91.6721 142.104 91.6802 141.564C91.6843 141.426 91.6355 141.397 91.5055 141.397C90.7821 141.401 90.0548 141.397 89.3314 141.401C89.1892 141.401 89.1485 141.365 89.1526 141.223C89.1607 140.511 89.1526 139.8 89.1567 139.089C89.1567 138.963 89.1283 138.914 88.99 138.914C88.4333 138.922 87.8806 138.922 87.3239 138.914C87.1858 138.914 87.1573 138.959 87.1573 139.089C87.1614 139.8 87.1573 140.511 87.1614 141.223C87.1614 141.365 87.1248 141.405 86.9826 141.401C86.2714 141.393 85.5603 141.401 84.8491 141.397C84.7231 141.397 84.6744 141.426 84.6744 141.564C84.6825 142.104 84.6825 142.649 84.6744 143.189C84.6703 143.328 84.719 143.356 84.8491 143.356C85.5603 143.352 86.2714 143.356 86.9826 143.352C87.1248 143.352 87.1655 143.389 87.1614 143.531C87.1532 144.234 87.1614 144.941 87.1532 145.644C87.1532 145.79 87.1817 145.843 87.3402 145.839C87.8806 145.827 88.4252 145.827 88.9657 145.839C89.1242 145.843 89.1526 145.79 89.1526 145.644C89.1445 144.933 89.1526 144.222 89.1445 143.51C89.1445 143.384 89.177 143.348 89.303 143.352C89.6768 143.356 90.0425 143.352 90.4083 143.352Z" fill="white"/>
</g>
<rect x="75.5828" y="107.648" width="9.925" height="9.16154" rx="2" fill="white"/>
<rect x="453.496" y="107.648" width="9.925" height="9.16154" rx="2" fill="white"/>
<rect x="470.292" y="107.648" width="9.925" height="9.16154" rx="2" fill="white"/>
<path d="M88.2079 111.875C88.0127 112.071 88.0127 112.387 88.2079 112.583L91.3899 115.765C91.5852 115.96 91.9018 115.96 92.097 115.765C92.2923 115.569 92.2923 115.253 92.097 115.057L89.2686 112.229L92.097 109.401C92.2923 109.205 92.2923 108.889 92.097 108.693C91.9018 108.498 91.5852 108.498 91.3899 108.693L88.2079 111.875ZM94.6692 111.729H88.5615V112.729H94.6692V111.729Z" fill="white"/>
<path d="M104.184 112.582C104.379 112.387 104.379 112.07 104.184 111.875L101.002 108.693C100.806 108.498 100.49 108.498 100.295 108.693C100.099 108.889 100.099 109.205 100.295 109.4L103.123 112.229L100.295 115.057C100.1 115.253 100.1 115.569 100.295 115.764C100.49 115.96 100.807 115.96 101.002 115.764L104.184 112.582ZM97.7232 112.729L103.83 112.729L103.83 111.729L97.7231 111.729L97.7232 112.729Z" fill="white"/>
<circle cx="82.8357" cy="96.5779" r="2.67212" fill="#E34545"/>
<circle cx="91.2336" cy="96.5779" r="2.67212" fill="#FFA412"/>
<circle cx="99.6318" cy="96.5779" r="2.67212" fill="#19B600"/>
<path d="M485.562 120.627H490.142V356.537C490.142 359.066 488.091 361.117 485.562 361.117V361.117V120.627Z" fill="#D3D3D3"/>
<path d="M485.562 141.24C485.562 139.975 486.587 138.95 487.852 138.95V138.95C489.117 138.95 490.142 139.975 490.142 141.24V190.102C490.142 191.367 489.117 192.392 487.852 192.392V192.392C486.587 192.392 485.562 191.367 485.562 190.102V141.24Z" fill="#797979"/>
<rect x="127.498" y="131.315" width="335.923" height="51.9154" rx="6" fill="#FDC04D"/>
<path d="M213.388 153.456C212.755 153.456 212.242 152.943 212.242 152.311V152.311C212.242 151.678 212.755 151.165 213.388 151.165H348.52C349.153 151.165 349.666 151.678 349.666 152.311V152.311C349.666 152.943 349.153 153.456 348.52 153.456H213.388Z" fill="#3E2D2D"/>
<rect x="212.242" y="145.821" width="7.63461" height="39.7" rx="2" transform="rotate(-90 212.242 145.821)" fill="#D7D7D7"/>
<path d="M213.388 161.09C212.755 161.09 212.242 160.578 212.242 159.945V159.945C212.242 159.313 212.755 158.8 213.388 158.8H283.626C284.259 158.8 284.771 159.313 284.771 159.945V159.945C284.771 160.578 284.259 161.09 283.626 161.09H213.388Z" fill="#ABABAB"/>
<path d="M386.693 154.219C386.061 154.219 385.548 153.707 385.548 153.074V153.074C385.548 152.442 386.061 151.929 386.693 151.929H436.318C436.951 151.929 437.463 152.442 437.463 153.074V153.074C437.463 153.707 436.951 154.219 436.318 154.219H386.693Z" fill="#ABABAB"/>
<path d="M386.693 162.617C386.061 162.617 385.548 162.105 385.548 161.472V161.472C385.548 160.84 386.061 160.327 386.693 160.327H450.06C450.693 160.327 451.206 160.84 451.206 161.472V161.472C451.206 162.105 450.693 162.617 450.06 162.617H386.693Z" fill="#ABABAB"/>
<path d="M386.693 169.488C386.061 169.488 385.548 168.976 385.548 168.343V168.343C385.548 167.711 386.061 167.198 386.693 167.198H450.06C450.693 167.198 451.206 167.711 451.206 168.343V168.343C451.206 168.976 450.693 169.488 450.06 169.488H386.693Z" fill="#ABABAB"/>
<path d="M213.388 168.725C212.755 168.725 212.242 168.212 212.242 167.58V167.58C212.242 166.947 212.755 166.434 213.388 166.434H330.961C331.593 166.434 332.106 166.947 332.106 167.58V167.58C332.106 168.212 331.593 168.725 330.961 168.725H213.388Z" fill="#ABABAB"/>
<path d="M213.388 176.36C212.755 176.36 212.242 175.847 212.242 175.214V175.214C212.242 174.582 212.755 174.069 213.388 174.069H319.509C320.141 174.069 320.654 174.582 320.654 175.214V175.214C320.654 175.847 320.141 176.36 319.509 176.36H213.388Z" fill="#ABABAB"/>
<rect x="134.869" y="153.956" width="10.4519" height="10.4519" rx="2.5" fill="#19B600" stroke="#A7A7A7"/>
<rect x="129.789" y="209.188" width="335.923" height="51.9154" rx="6" fill="#FDC04D"/>
<path d="M213.388 231.329C212.755 231.329 212.242 230.816 212.242 230.184V230.184C212.242 229.551 212.755 229.038 213.388 229.038H348.52C349.153 229.038 349.666 229.551 349.666 230.184V230.184C349.666 230.816 349.153 231.329 348.52 231.329H213.388Z" fill="#3E2D2D"/>
<rect x="212.242" y="223.694" width="7.63461" height="39.7" rx="2" transform="rotate(-90 212.242 223.694)" fill="#D7D7D7"/>
<path d="M213.388 238.963C212.755 238.963 212.242 238.451 212.242 237.818V237.818C212.242 237.186 212.755 236.673 213.388 236.673H283.626C284.259 236.673 284.771 237.186 284.771 237.818V237.818C284.771 238.451 284.259 238.963 283.626 238.963H213.388Z" fill="#ABABAB"/>
<path d="M388.984 232.092C388.351 232.092 387.838 231.58 387.838 230.947V230.947C387.838 230.315 388.351 229.802 388.984 229.802H438.609C439.241 229.802 439.754 230.315 439.754 230.947V230.947C439.754 231.58 439.241 232.092 438.609 232.092H388.984Z" fill="#ABABAB"/>
<path d="M388.984 240.49C388.351 240.49 387.838 239.978 387.838 239.345V239.345C387.838 238.713 388.351 238.2 388.984 238.2H452.351C452.983 238.2 453.496 238.713 453.496 239.345V239.345C453.496 239.978 452.983 240.49 452.351 240.49H388.984Z" fill="#ABABAB"/>
<path d="M388.984 247.362C388.351 247.362 387.838 246.849 387.838 246.216V246.216C387.838 245.584 388.351 245.071 388.984 245.071H452.351C452.983 245.071 453.496 245.584 453.496 246.216V246.216C453.496 246.849 452.983 247.362 452.351 247.362H388.984Z" fill="#ABABAB"/>
<path d="M213.388 246.598C212.755 246.598 212.242 246.085 212.242 245.453V245.453C212.242 244.82 212.755 244.308 213.388 244.308H330.961C331.593 244.308 332.106 244.82 332.106 245.453V245.453C332.106 246.085 331.593 246.598 330.961 246.598H213.388Z" fill="#ABABAB"/>
<path d="M213.388 254.233C212.755 254.233 212.242 253.72 212.242 253.087V253.087C212.242 252.455 212.755 251.942 213.388 251.942H319.509C320.141 251.942 320.654 252.455 320.654 253.087V253.087C320.654 253.72 320.141 254.233 319.509 254.233H213.388Z" fill="#ABABAB"/>
<rect x="137.16" y="231.829" width="10.4519" height="10.4519" rx="2.5" fill="#FDC04D" stroke="#A7A7A7"/>
<rect x="129.789" y="291.642" width="335.923" height="51.9154" rx="6" fill="#FDC04D"/>
<path d="M213.388 313.783C212.755 313.783 212.242 313.27 212.242 312.638V312.638C212.242 312.005 212.755 311.492 213.388 311.492H348.52C349.153 311.492 349.666 312.005 349.666 312.638V312.638C349.666 313.27 349.153 313.783 348.52 313.783H213.388Z" fill="#3E2D2D"/>
<rect x="212.242" y="306.148" width="7.63461" height="39.7" rx="2" transform="rotate(-90 212.242 306.148)" fill="#D7D7D7"/>
<path d="M213.388 321.417C212.755 321.417 212.242 320.905 212.242 320.272V320.272C212.242 319.64 212.755 319.127 213.388 319.127H283.626C284.259 319.127 284.771 319.64 284.771 320.272V320.272C284.771 320.905 284.259 321.417 283.626 321.417H213.388Z" fill="#ABABAB"/>
<path d="M388.984 314.546C388.351 314.546 387.838 314.033 387.838 313.401V313.401C387.838 312.768 388.351 312.256 388.984 312.256H438.609C439.241 312.256 439.754 312.768 439.754 313.401V313.401C439.754 314.033 439.241 314.546 438.609 314.546H388.984Z" fill="#ABABAB"/>
<path d="M388.984 322.944C388.351 322.944 387.838 322.432 387.838 321.799V321.799C387.838 321.167 388.351 320.654 388.984 320.654H452.351C452.983 320.654 453.496 321.167 453.496 321.799V321.799C453.496 322.432 452.983 322.944 452.351 322.944H388.984Z" fill="#ABABAB"/>
<path d="M388.984 329.815C388.351 329.815 387.838 329.303 387.838 328.67V328.67C387.838 328.038 388.351 327.525 388.984 327.525H452.351C452.983 327.525 453.496 328.038 453.496 328.67V328.67C453.496 329.303 452.983 329.815 452.351 329.815H388.984Z" fill="#ABABAB"/>
<path d="M213.388 329.052C212.755 329.052 212.242 328.539 212.242 327.907V327.907C212.242 327.274 212.755 326.762 213.388 326.762H330.961C331.593 326.762 332.106 327.274 332.106 327.907V327.907C332.106 328.539 331.593 329.052 330.961 329.052H213.388Z" fill="#ABABAB"/>
<path d="M213.388 336.687C212.755 336.687 212.242 336.174 212.242 335.541V335.541C212.242 334.909 212.755 334.396 213.388 334.396H319.509C320.141 334.396 320.654 334.909 320.654 335.541V335.541C320.654 336.174 320.141 336.687 319.509 336.687H213.388Z" fill="#ABABAB"/>
<rect x="137.16" y="314.283" width="10.4519" height="10.4519" rx="2.5" fill="#19B600" stroke="#A7A7A7"/>
<rect x="178.18" y="93.9058" width="35.8827" height="1.52692" rx="0.763462" fill="#7F7373"/>
<rect x="361.146" y="94.699" width="37.4096" height="1.52692" rx="0.763462" fill="#7F7373"/>
<circle cx="197.894" cy="69.1103" r="20.2488" transform="rotate(-24.8248 197.894 69.1103)" fill="#F4A727"/>
<path d="M209.422 71.5208L207.888 66.2044L203.125 68.4079L201.635 65.1867C201.007 63.8289 201.059 62.1969 203.193 61.2099L205.358 60.2083L203.403 55.9825C203.403 55.9825 201.283 56.5561 199.404 57.4253C195.482 59.2398 194.018 62.8036 196.009 67.1074L197.759 70.891L193.399 72.9081L195.695 77.8719L200.056 75.8548L205.607 87.8552L210.973 85.373L205.422 73.3726L209.422 71.5208Z" fill="white"/>
<circle cx="219.877" cy="35.8827" r="13.7423" fill="#F4A727"/>
<path d="M215.117 43.4716V40.7462C214.246 40.1077 213.537 39.2745 213.046 38.3131C212.554 37.3517 212.295 36.2887 212.288 35.2091C212.287 31.283 215.705 28.0884 219.902 28.0884C224.098 28.0884 227.516 31.283 227.516 35.2091C227.517 39.1352 224.098 42.3281 219.902 42.3281C219.162 42.3291 218.427 42.2287 217.715 42.0298L215.118 43.4716H215.117ZM219.099 33.2751L214.941 37.6875L218.733 35.5902L220.699 37.6362L224.858 33.2247L221.069 35.3219L219.099 33.2751Z" fill="white"/>
<circle cx="383.626" cy="69.0814" r="20.2497" transform="rotate(18.0803 383.626 69.0814)" fill="#0047CC"/>
<path d="M398.19 63.2382C398.085 63.1915 397.975 63.1557 397.863 63.1314L375.516 55.836C375.372 55.7914 375.223 55.7664 375.073 55.7617L382.856 71.0111L398.19 63.2382Z" fill="white"/>
<path d="M399.009 64.7324L383.611 72.511C383.215 72.7107 382.756 72.7455 382.334 72.6078C381.912 72.4701 381.562 72.1712 381.36 71.7763L373.593 56.5321C373.515 56.6506 373.453 56.7786 373.407 56.9129L368.196 72.8746C368.058 73.2979 368.093 73.7588 368.295 74.1559C368.497 74.5529 368.848 74.8536 369.271 74.9918L391.617 82.2873C392.041 82.4255 392.502 82.3899 392.899 82.1882C393.296 81.9866 393.596 81.6355 393.735 81.2122L398.946 65.2505C398.994 65.0822 399.015 64.9073 399.009 64.7324V64.7324ZM370.885 73.7526L369.776 73.3905L370.149 72.2492L377.829 68.3892L378.587 69.8819L370.885 73.7526ZM392.123 80.6859L391.005 80.3211L387.071 72.6515L388.564 71.8936L392.487 79.542L392.123 80.6859Z" fill="white"/>
<circle cx="371.835" cy="32.0948" r="13.7423" transform="rotate(19.8277 371.835 32.0948)" fill="#0047CC"/>
<path d="M365.331 25.3739C365.51 24.8769 365.89 24.4754 366.387 24.2576C366.885 24.0398 367.458 24.0235 367.982 24.2124L379.832 28.4852C380.356 28.6741 380.787 29.0526 381.031 29.5376C381.275 30.0225 381.311 30.5741 381.132 31.071L378.429 38.5654C378.25 39.0623 377.87 39.4639 377.373 39.6817C376.876 39.8995 376.303 39.9158 375.779 39.7269L373.31 38.8367C373.157 38.7814 372.993 38.7608 372.833 38.7764C372.672 38.792 372.519 38.8434 372.385 38.9266L369.653 40.623C369.519 40.7061 369.366 40.7576 369.205 40.7732C369.045 40.7888 368.881 40.7681 368.728 40.7128C368.575 40.6576 368.436 40.5692 368.322 40.4547C368.208 40.3402 368.123 40.2028 368.073 40.0533L367.052 37.0038C367.002 36.8543 366.917 36.7168 366.803 36.6024C366.69 36.4879 366.551 36.3995 366.397 36.3442L363.929 35.454C363.405 35.2652 362.974 34.8866 362.73 34.4017C362.486 33.9168 362.45 33.3652 362.629 32.8683L365.331 25.3739ZM368.45 27.5569C368.319 27.5097 368.175 27.5138 368.051 27.5682C367.927 27.6227 367.832 27.723 367.787 27.8473C367.742 27.9715 367.751 28.1094 367.812 28.2306C367.873 28.3519 367.981 28.4465 368.112 28.4937L377 31.6983C377.131 31.7456 377.274 31.7415 377.398 31.687C377.523 31.6326 377.618 31.5322 377.662 31.408C377.707 31.2837 377.698 31.1459 377.637 31.0246C377.576 30.9034 377.469 30.8088 377.338 30.7615L368.45 27.5569ZM367.605 29.8989C367.474 29.8517 367.331 29.8558 367.207 29.9102C367.082 29.9647 366.988 30.0651 366.943 30.1893C366.898 30.3135 366.907 30.4514 366.968 30.5726C367.029 30.6939 367.137 30.7885 367.268 30.8357L376.155 34.0404C376.286 34.0876 376.43 34.0835 376.554 34.0291C376.678 33.9746 376.773 33.8742 376.818 33.75C376.863 33.6258 376.854 33.4879 376.793 33.3666C376.732 33.2454 376.624 33.1508 376.493 33.1036L367.605 29.8989ZM366.761 32.2409C366.63 32.1937 366.487 32.1978 366.362 32.2522C366.238 32.3067 366.143 32.4071 366.098 32.5313C366.053 32.6555 366.063 32.7934 366.123 32.9147C366.184 33.0359 366.292 33.1305 366.423 33.1777L371.361 34.9581C371.492 35.0053 371.635 35.0012 371.759 34.9468C371.884 34.8923 371.979 34.7919 372.023 34.6677C372.068 34.5435 372.059 34.4056 371.998 34.2844C371.937 34.1631 371.83 34.0685 371.699 34.0213L366.761 32.2409Z" fill="white"/>
<rect x="172.542" y="19.2087" width="19.7259" height="19.7259" rx="9.86293" transform="rotate(-18.4113 172.542 19.2087)" fill="#F4A727"/>
<path fill-rule="evenodd" clip-rule="evenodd" d="M192.394 22.9628C191.025 18.9011 186.627 16.7082 182.557 18.0632C178.477 19.4214 176.27 23.8302 177.628 27.9105C178.983 31.981 183.374 34.1869 187.446 32.8488L187.505 32.8294C191.557 31.4633 193.749 27.0834 192.414 23.0211L192.394 22.9628Z" fill="white"/>
<path d="M190.13 25.1027C189.331 25.3701 188.473 24.9521 188.214 24.1705C187.959 23.3986 188.396 22.5475 189.183 22.2821C189.974 22.0153 190.841 22.4395 191.099 23.219C191.355 23.9961 190.922 24.837 190.13 25.1027ZM188.815 23.9803C188.971 24.442 189.473 24.6817 189.945 24.5201C190.406 24.3624 190.653 23.8673 190.499 23.4099C190.346 22.9526 189.853 22.7121 189.384 22.8658C188.911 23.0211 188.658 23.5164 188.815 23.9803Z" fill="#0068FE"/>
<path d="M186.427 22.2881L187.062 22.0766L188.266 25.6945L187.848 25.8339C187.728 25.8737 187.599 25.8091 187.559 25.6896L186.427 22.2881Z" fill="#0068FE"/>
<path d="M186.241 23.3428L185.633 23.5452L185.699 23.7436C185.277 23.6468 184.89 23.6758 184.525 23.8811C184.153 24.0906 183.908 24.4002 183.8 24.8124C183.627 25.4667 183.925 26.1378 184.527 26.4588C185.096 26.7627 185.902 26.6982 186.455 26.0257C186.457 26.0299 186.46 26.0337 186.462 26.0376L186.468 26.0531C186.507 26.1726 186.636 26.2373 186.756 26.1975L187.148 26.0671L186.241 23.3428ZM185.513 25.9856C185.058 26.1315 184.552 25.88 184.407 25.4356C184.262 24.9871 184.517 24.495 184.976 24.3424C185.439 24.188 185.925 24.4257 186.077 24.8809C186.23 25.3391 185.976 25.8376 185.513 25.9856Z" fill="#0068FE"/>
<path d="M181.796 27.2036C182.189 26.1655 182.565 25.1665 182.947 24.1697C183.02 23.9802 183.025 23.7982 182.965 23.6068C182.939 23.5239 182.906 23.508 182.824 23.5355C182.552 23.6271 179.993 24.4779 179.993 24.4779L180.208 25.1211L182.22 24.4512C182.205 24.4958 181.442 26.4888 181.072 27.4427C181.011 27.6008 181.003 27.7524 181.052 27.9163C181.086 28.0311 181.121 28.0684 181.238 28.0336L181.238 28.0339L183.904 27.1465C184.023 27.1067 184.088 26.9775 184.048 26.858L183.928 26.4966L183.927 26.4942L181.796 27.2036L181.796 27.2036Z" fill="#0068FE"/>
<path fill-rule="evenodd" clip-rule="evenodd" d="M181.891 32.5846C182.588 32.8903 183.33 33.0948 184.095 33.1864L183.694 31.9841L181.891 32.5846ZM177.576 27.7515C176.969 25.7883 177.178 23.7594 178.017 22.0392C177.978 22.3146 177.955 22.5941 177.947 22.8771C177.899 24.4714 178.251 25.9813 178.936 27.4175C179.42 28.4326 180.049 29.3422 180.89 30.0962C181.041 30.2311 181.193 30.3678 181.362 30.4771C181.712 30.7037 181.846 31.0337 181.862 31.4294C181.877 31.7951 181.796 32.1412 181.649 32.4737C179.86 31.6158 178.4 30.0798 177.684 28.0742C177.648 27.9664 177.612 27.8588 177.576 27.7515Z" fill="#0068FE"/>
<path fill-rule="evenodd" clip-rule="evenodd" d="M187.439 32.8524C185.552 33.4706 183.596 33.3277 181.906 32.5909C182.579 32.3872 183.169 32.033 183.691 31.5545C183.738 31.511 183.783 31.5043 183.842 31.5139C185.612 31.8002 187.321 31.531 188.983 30.9143C189.972 30.5472 190.892 30.0647 191.713 29.4259C190.797 30.971 189.346 32.2079 187.513 32.828L187.439 32.8524Z" fill="#015BDF"/>
<circle cx="208.425" cy="7.63455" r="6.10769" fill="#F4A727"/>
<circle cx="395.473" cy="7.63455" r="6.10769" fill="white"/>
<path d="M195.446 158.418C195.446 168.748 186.388 177.122 175.214 177.122C164.041 177.122 154.983 168.748 154.983 158.418C154.983 148.088 164.041 139.713 175.214 139.713C186.388 139.713 195.446 148.088 195.446 158.418Z" fill="#C8C4E3"/>
<path d="M183.505 157.509H166.778C166.778 157.509 168.64 166.636 166.778 170.105H183.505C181.643 166.636 183.505 157.509 183.505 157.509Z" fill="#1F1F1F"/>
<path d="M175.215 177.124C179.243 177.124 182.991 176.03 186.146 174.157C185.907 172.178 185.567 169.889 185.228 169.456C184.61 168.667 181.283 165.449 175.148 165.449C169.012 165.449 165.686 168.667 165.067 169.456C164.732 169.882 164.396 172.122 164.156 174.081C167.336 176.004 171.131 177.124 175.215 177.124Z" fill="#B89050"/>
<path d="M175.148 177.12C171.092 177.107 167.319 175.99 164.156 174.077C164.396 172.118 164.732 169.879 165.067 169.452C165.528 168.864 167.501 166.919 171.024 165.974C170.752 166.578 170.599 167.269 170.599 168.002V171.421C170.599 173.833 172.264 175.789 174.315 175.789H175.148V177.12Z" fill="#B89050"/>
<path d="M179.831 171.425C179.831 173.837 178.166 175.793 176.115 175.793H174.314C172.263 175.793 170.598 173.837 170.598 171.425V168.006C170.598 165.591 172.263 163.639 174.314 163.639H176.115C178.166 163.639 179.831 165.591 179.831 168.006V171.425Z" fill="#B89050"/>
<path d="M175.214 164.058L172.516 162.726V165.69C172.516 165.69 173.374 167.051 175.214 167.051C177.054 167.051 177.912 165.69 177.912 165.69V162.726L175.214 164.058Z" fill="#F4AF76"/>
<path d="M175.214 164.057L172.516 165.689V162.729L175.214 164.057Z" fill="#F4AF76"/>
<path d="M182.075 153.656C182.075 144.829 175.215 145.592 175.215 145.592C175.215 145.592 168.351 144.829 168.351 153.656C168.351 153.656 166.778 153.249 166.778 155.037C166.778 156.827 168.558 157.755 168.558 157.755C168.558 157.755 172.274 164.055 175.215 164.055C178.156 164.055 181.872 157.755 181.872 157.755C181.872 157.755 183.651 156.827 183.651 155.037C183.651 153.249 182.075 153.656 182.075 153.656Z" fill="#F4AF76"/>
<path d="M175.215 145.592C175.215 145.592 168.351 144.829 168.351 153.656C168.351 153.656 166.778 153.249 166.778 155.037C166.778 156.827 168.558 157.755 168.558 157.755C168.558 157.755 172.274 164.055 175.215 164.055V145.592Z" fill="#F4AF76"/>
<path d="M168.1 169.253C168.1 169.93 169.136 170.29 169.265 170.849C169.394 171.407 169.436 171.807 169.436 171.807C169.436 171.807 170.948 170.809 170.644 169.93C170.344 169.055 169.654 168.057 169.004 168.057C168.357 168.057 168.1 168.536 168.1 169.253Z" fill="black"/>
<path d="M169.973 168.057C169.973 168.285 169.773 168.474 169.523 168.474H168.372C168.126 168.474 167.922 168.285 167.922 168.057C167.922 167.829 168.126 167.641 168.372 167.641H169.523C169.773 167.641 169.973 167.829 169.973 168.057Z" fill="#3E99B2"/>
<path d="M175.216 144.867C163.574 144.867 166.779 157.509 166.779 157.509L166.854 157.519C166.994 158.296 167.283 159.924 167.412 160.727C167.583 161.804 167.987 167.123 168.244 167.641H169.541C169.913 167.027 168.92 158.335 168.92 158.335L168.559 157.757C168.559 157.757 168.737 152.574 170.517 151.355C170.517 151.355 176.877 157.328 181.744 157.751L181.726 157.757L181.333 158.586C181.333 158.586 180.368 167.027 180.743 167.641H182.037C182.298 167.123 182.702 161.804 182.873 160.727C182.991 160 183.238 158.593 183.384 157.757H183.441C183.441 157.757 186.854 144.867 175.216 144.867Z" fill="black"/>
<path d="M182.183 169.253C182.183 169.93 181.146 170.29 181.018 170.849C180.886 171.407 180.843 171.807 180.843 171.807C180.843 171.807 179.335 170.809 179.635 169.93C179.939 169.055 180.628 168.057 181.275 168.057C181.922 168.057 182.183 168.536 182.183 169.253Z" fill="black"/>
<path d="M180.307 168.057C180.307 168.285 180.51 168.474 180.757 168.474H181.911C182.158 168.474 182.358 168.285 182.358 168.057C182.358 167.829 182.158 167.641 181.911 167.641H180.757C180.51 167.641 180.307 167.829 180.307 168.057Z" fill="#3E99B2"/>
<path d="M176.115 175.79H174.314C172.263 175.79 170.598 173.834 170.598 171.423V170.851C170.598 173.263 172.263 175.219 174.314 175.219H176.115C178.166 175.219 179.831 173.263 179.831 170.851V171.423C179.831 173.834 178.166 175.79 176.115 175.79Z" fill="#B89050"/>
<g clip-path="url(#clip1_301_602)">
<path d="M175.978 216.06C186.308 216.06 194.683 224.434 194.683 234.764C194.683 245.095 186.308 253.469 175.978 253.469C165.647 253.469 157.273 245.095 157.273 234.764C157.273 224.434 165.647 216.06 175.978 216.06Z" fill="#C8C4E3"/>
<path d="M179.334 240.025V237.451H172.621V240.025C172.621 241.445 171.275 242.839 169.612 243.132L165.238 244.422C163.528 244.773 162.284 246.255 162.232 248.003H189.71C189.658 246.255 188.414 244.773 186.705 244.422L182.34 243.122C180.68 242.849 179.334 241.445 179.334 240.025Z" fill="#F4AF76"/>
<path d="M186.795 244.334L181.651 242.693C179.662 244.213 175.981 246.244 170.307 242.693L165.166 244.334C163.44 244.688 162.186 246.183 162.134 247.944L166.485 259.103L166.407 270.987L166.06 275L175.847 275.507L185.898 275L185.252 270.987L185.476 259.103L189.824 247.944C189.772 246.183 188.521 244.691 186.795 244.334Z" fill="#86CBED"/>
<path d="M186.988 276.681H190.741L191.371 268.404C191.443 267.254 191.436 266.1 191.349 264.95L189.821 247.945L185.473 259.104L186.77 266.198L186.988 276.681Z" fill="#86CBED"/>
<path d="M161.218 276.681H164.968L165.186 266.198L166.482 259.104L162.134 247.945L160.61 264.95C160.522 266.1 160.516 267.254 160.587 268.404L161.218 276.681Z" fill="#86CBED"/>
</g>
<path d="M181.281 242.781C180.27 242.28 179.519 241.367 179.363 240.396C179.519 241.364 180.27 242.274 181.281 242.781ZM179.363 240.396V240.392V240.396ZM172.594 240.35C172.611 240.243 172.62 240.136 172.62 240.025C172.62 240.136 172.611 240.243 172.594 240.35ZM179.334 240.035V240.032V240.035Z" fill="#B02833"/>
<path d="M179.503 243.122C178.47 243.122 177.3 242.934 176.111 242.518C174.794 242.059 173.595 241.318 172.594 240.35C172.611 240.243 172.62 240.136 172.62 240.025V237.451H179.334V240.025V240.028C179.334 240.032 179.334 240.032 179.334 240.032V240.035C179.334 240.035 179.334 240.035 179.334 240.038C179.334 240.041 179.334 240.041 179.334 240.045C179.334 240.048 179.334 240.048 179.334 240.051C179.334 240.051 179.334 240.051 179.334 240.054C179.334 240.165 179.344 240.279 179.363 240.389C179.363 240.392 179.363 240.392 179.363 240.392V240.396C179.519 241.367 180.27 242.28 181.281 242.781C181.333 242.807 181.385 242.83 181.44 242.856C180.891 243.028 180.231 243.122 179.503 243.122Z" fill="#DB9D6A"/>
<path d="M182.997 229.306C181.645 234.632 179.039 239.022 176.052 239.022C173.268 239.022 170.463 233.667 169.111 229.306C167.756 224.941 166.141 220.499 172.595 218.809C173.508 220.356 175.435 221.422 178.064 221.542C181.603 221.692 184.336 223.986 182.997 229.306Z" fill="black"/>
<path d="M168.542 232.082C168.77 233.116 169.637 234.337 170.037 234.256C170.434 234.175 170.554 233.265 170.326 232.228C170.099 231.192 169.605 230.422 169.215 230.506C168.828 230.591 168.315 231.049 168.542 232.082Z" fill="#F4AF76"/>
<path d="M183.573 232.082C183.345 233.116 182.481 234.337 182.081 234.256C181.682 234.175 181.565 233.265 181.792 232.228C182.019 231.192 182.513 230.422 182.9 230.506C183.29 230.591 183.791 231.049 183.573 232.082Z" fill="#F4AF76"/>
<path d="M182.107 233.3C181.356 233.083 181.493 231.867 181.785 228.813C182.584 224.741 175.975 226.577 175.975 226.577C175.975 226.577 169.462 224.829 170.288 228.397C170.691 230.613 170.746 232.982 170.015 233.203C170.288 234.607 171.269 238.123 171.269 238.123C171.269 238.123 174.603 240.83 176.069 240.83C177.658 240.83 180.781 238.123 180.781 238.123C180.781 238.123 181.831 234.617 182.094 233.3H182.107Z" fill="#F4AF76"/>
<path d="M194.987 317.473C194.987 322.183 193.276 326.495 190.448 329.81C190.19 330.111 189.925 330.402 189.651 330.687C188.951 331.413 188.191 332.083 187.381 332.686C184.24 335.039 180.35 336.429 176.132 336.429C176.075 336.429 176.018 336.429 175.961 336.429C173.33 336.405 170.829 335.839 168.559 334.838C167.246 334.259 166.014 333.536 164.879 332.686C164.056 332.07 163.286 331.387 162.576 330.647C162.312 330.379 162.06 330.098 161.816 329.813C158.987 326.495 157.273 322.183 157.273 317.473C157.273 307 165.716 298.513 176.132 298.513C183.28 298.513 189.497 302.511 192.694 308.403C193.755 310.358 194.485 312.521 194.806 314.814C194.927 315.685 194.987 316.572 194.987 317.473Z" fill="#C8C4E3"/>
<path d="M176.504 303.792C174.669 303.782 172.664 304.207 171.529 305.707C170.119 307.565 169.219 309.678 169.185 312.045C169.182 312.386 169.189 312.751 169.068 313.063C169.038 313.14 169.001 313.217 168.954 313.287C168.767 313.565 168.459 313.725 168.168 313.879C167.692 314.124 167.2 314.382 166.879 314.81C166.253 315.654 166.463 316.886 165.934 317.793C165.208 319.045 163.353 319.276 162.667 320.549C162.319 321.198 162.372 322.045 162.801 322.644C163.105 323.073 163.594 323.411 163.678 323.93C163.768 324.499 163.33 325.001 162.935 325.42C162.446 325.945 161.964 326.511 161.743 327.197C161.525 327.88 161.626 328.717 162.161 329.193C162.556 329.544 163.142 329.672 163.437 330.11C163.641 330.418 163.668 330.83 163.919 331.105C164.18 331.386 164.599 331.433 164.98 331.459C167.923 331.687 170.866 331.911 173.809 332.139C174.599 332.199 175.402 332.26 176.186 332.116C176.293 332.095 176.397 332.072 176.504 332.049V303.792Z" fill="black"/>
<path d="M176.131 303.792C177.966 303.782 179.968 304.207 181.106 305.707C182.512 307.565 183.416 309.678 183.447 312.045C183.453 312.386 183.447 312.751 183.564 313.063C183.594 313.14 183.631 313.217 183.681 313.287C183.865 313.565 184.173 313.725 184.468 313.879C184.94 314.124 185.432 314.382 185.753 314.81C186.383 315.654 186.168 316.886 186.697 317.793C187.424 319.045 189.279 319.276 189.965 320.549C190.316 321.198 190.263 322.045 189.834 322.644C189.53 323.073 189.038 323.411 188.957 323.93C188.867 324.499 189.302 325.001 189.697 325.42C190.189 325.945 190.668 326.511 190.889 327.197C191.11 327.88 191.01 328.717 190.47 329.193C190.075 329.544 189.493 329.672 189.198 330.11C188.991 330.418 188.964 330.83 188.713 331.105C188.455 331.386 188.037 331.433 187.655 331.459C184.712 331.687 181.766 331.911 178.826 332.139C178.033 332.199 177.229 332.26 176.446 332.116C176.339 332.095 176.235 332.072 176.131 332.049V303.792Z" fill="black"/>
<path d="M184.803 325.812L180.27 324.325C179.433 324.054 178.867 323.267 178.867 322.383V318.888H173.376V322.427C173.376 323.317 172.801 324.108 171.954 324.375L167.414 325.818C165.06 326.538 163.279 328.376 162.573 330.649C163.286 331.389 164.056 332.069 164.876 332.685C166.011 333.535 167.246 334.262 168.559 334.838C170.876 335.862 173.437 336.431 176.132 336.431C180.347 336.431 184.241 335.039 187.381 332.685C188.188 332.082 188.948 331.413 189.647 330.686C188.954 328.396 187.167 326.538 184.803 325.812Z" fill="#F4AF76"/>
<path d="M184.803 325.813L181.248 324.648C178.456 326.71 174.277 326.556 171.425 324.544L167.414 325.816C165.064 326.536 163.283 328.378 162.576 330.647C163.286 331.387 164.056 332.07 164.88 332.686C166.015 333.537 167.247 334.26 168.559 334.839C170.876 335.864 173.437 336.429 176.132 336.429C180.351 336.429 184.241 335.04 187.381 332.686C188.191 332.084 188.951 331.414 189.651 330.688C188.955 328.398 187.167 326.54 184.803 325.813Z" fill="#ED6E4A"/>
<path d="M182.044 311.057C182.031 306.829 179.457 303.792 176.129 303.792C176.125 303.792 176.125 303.792 176.122 303.792C176.122 303.792 176.119 303.792 176.115 303.792C172.787 303.792 170.213 306.829 170.2 311.057C170.193 312.982 170.243 313.464 170.441 314.86C171.047 319.209 175.041 321.221 176.115 321.221C177.434 321.221 181.167 319.209 181.773 314.86C181.967 313.464 182.055 312.982 182.044 311.057Z" fill="#F4AF76"/>
<path d="M175.937 308.321C177.187 310.594 179.484 312.626 181.74 313.794C181.848 312.964 181.895 312.335 181.891 310.872C181.875 306.644 179.296 303.607 175.954 303.607H175.951C175.948 303.607 175.944 303.607 175.944 303.607C172.606 303.607 170.024 306.644 170.007 310.872C170.004 311.987 170.02 312.619 170.071 313.225C172.153 312.027 175.716 307.916 175.937 308.321Z" fill="black"/>
<path d="M172.458 312.661H172.446C171.845 312.661 171.36 313.133 171.36 313.708V313.727L173.783 316.057H174.784C175.108 316.057 175.404 315.913 175.604 315.692C174.553 314.682 173.505 313.672 172.458 312.661Z" fill="white" fill-opacity="0.4196"/>
<path d="M174.498 316.057H172.466C171.856 316.057 171.36 315.562 171.36 314.951V313.771C171.36 313.159 171.856 312.661 172.466 312.661H174.498C175.108 312.661 175.604 313.159 175.604 313.771V314.951C175.604 315.562 175.108 316.057 174.498 316.057ZM172.466 312.982C172.034 312.982 171.678 313.333 171.678 313.771V314.951C171.678 315.385 172.034 315.74 172.466 315.74H174.498C174.934 315.74 175.286 315.389 175.286 314.951V313.771C175.286 313.337 174.934 312.982 174.498 312.982H172.466Z" fill="black"/>
<path d="M177.551 312.661H177.54C176.943 312.661 176.454 313.133 176.454 313.708V313.727L178.876 316.057H179.878C180.205 316.057 180.498 315.913 180.698 315.692C179.651 314.682 178.599 313.672 177.551 312.661Z" fill="white" fill-opacity="0.4196"/>
<path d="M179.592 316.057H177.56C176.95 316.057 176.454 315.562 176.454 314.951V313.771C176.454 313.159 176.95 312.661 177.56 312.661H179.592C180.202 312.661 180.698 313.159 180.698 313.771V314.951C180.698 315.562 180.202 316.057 179.592 316.057ZM177.56 312.982C177.124 312.982 176.772 313.333 176.772 313.771V314.951C176.772 315.385 177.124 315.74 177.56 315.74H179.592C180.024 315.74 180.38 315.389 180.38 314.951V313.771C180.38 313.337 180.024 312.982 179.592 312.982H177.56Z" fill="black"/>
<path d="M180.849 313.511C180.798 313.511 180.747 313.469 180.719 313.403C180.677 313.296 180.7 313.16 180.772 313.095L182.168 311.846C182.237 311.781 182.329 311.814 182.374 311.921C182.418 312.029 182.393 312.164 182.323 312.23L180.928 313.478C180.902 313.497 180.877 313.511 180.849 313.511Z" fill="black"/>
<path d="M181.759 311.993C181.904 311.805 182.123 311.713 182.246 311.974C182.424 312.35 182.405 312.851 182.38 313.267C182.361 313.6 182.326 313.937 182.252 314.264C182.189 314.547 182.104 314.933 181.895 315.108C181.849 315.148 181.783 315.187 181.726 315.204C181.693 315.214 181.493 315.217 181.561 315.111" fill="#C38863"/>
<circle cx="367.989" cy="377.913" r="7.66154" fill="#319BCD" stroke="#33395E" stroke-width="3"/>
<rect x="567.778" y="323.669" width="17.5596" height="4.58077" transform="rotate(-39.0971 567.778 323.669)" fill="#F4A727" fill-opacity="0.85"/>
<rect x="277.721" y="375.522" width="17.5596" height="4.58077" transform="rotate(-23.5329 277.721 375.522)" fill="#F4A727" fill-opacity="0.85"/>
<rect x="548.173" y="199.263" width="17.5596" height="4.58077" transform="rotate(30.1056 548.173 199.263)" fill="#33395E"/>
<path d="M203.006 376.009C204.61 373.899 207.786 373.904 209.383 376.02L210.485 377.479C211.942 379.41 209.303 381.756 207.556 380.083V380.083C206.798 379.357 205.602 379.355 204.842 380.079V380.079C203.081 381.753 200.434 379.393 201.904 377.459L203.006 376.009Z" fill="#33395E"/>
<path d="M306.21 39.4701C306.124 42.0504 303.653 43.8752 301.162 43.1977L299.749 42.8132C297.504 42.2028 298.129 38.8652 300.442 39.1078V39.1078C301.416 39.2099 302.306 38.5519 302.495 37.5915V37.5915C302.946 35.2995 306.335 35.6793 306.258 38.014L306.21 39.4701Z" fill="#F4A727" fill-opacity="0.8"/>
<path d="M33.1157 151.428C35.3548 150.143 38.2069 151.284 38.9416 153.759L39.3584 155.163C40.0204 157.393 36.8535 158.618 35.8425 156.523V156.523C35.4171 155.642 34.389 155.231 33.4729 155.575V155.575C31.2867 156.398 29.8262 153.316 31.8522 152.153L33.1157 151.428Z" fill="#F4A727" fill-opacity="0.8"/>
<rect width="18.052" height="18.0927" rx="6" transform="matrix(-0.973329 -0.229415 -0.229415 0.973329 424.065 18.6465)" fill="#0047CC"/>
<g filter="url(#filter0_dd_301_602)">
<path d="M408.674 24.3337C408.085 26.8317 409.643 29.3365 412.154 29.9283C414.869 30.5683 417.131 29.1725 417.766 26.4769C418.355 23.9789 416.797 21.4741 414.286 20.8823C411.775 20.2905 409.263 21.8357 408.674 24.3337ZM416.3 26.1313C415.821 28.1651 414.53 28.9489 412.498 28.4698C410.797 28.0688 409.741 26.3718 410.14 24.6793C410.539 22.9868 412.241 21.9398 413.942 22.3408C415.644 22.7418 416.699 24.4388 416.3 26.1313Z" fill="white"/>
</g>
<g filter="url(#filter1_dd_301_602)">
<ellipse rx="0.875656" ry="0.877633" transform="matrix(-0.973329 -0.229415 -0.229415 0.973329 409.111 18.3816)" fill="white"/>
</g>
<ellipse cx="541.676" cy="359.59" rx="39.3183" ry="6.10769" fill="#B9B9B9" fill-opacity="0.59"/>
<path d="M550.433 267.042C550.433 267.042 551.293 269.492 551.496 270.973C551.618 271.858 551.349 274.068 552.495 274.318C553.722 274.586 554.296 270.373 554.157 269.676C554.006 268.91 553.566 266.262 552.77 266.072C551.974 265.879 550.433 267.042 550.433 267.042Z" fill="#FFB27D"/>
<path d="M550.804 267.335C550.804 267.335 550.325 269.105 550.325 269.76C550.325 270.416 549.963 272.351 550.325 272.47C550.804 272.626 551.627 270.258 551.627 270.258L550.804 267.335Z" fill="#FFB27D"/>
<path d="M475.363 248.003C476.657 248.867 476.281 248.351 478.08 249.607C479.88 250.866 482.082 251.189 483.399 250.304L484.202 250.162L485.164 249.988L485.384 246.868C485.384 246.868 484.793 246.792 484.057 246.675C483.833 246.641 483.594 246.599 483.354 246.556C482.896 246.205 482.089 245.371 481.495 245.006L481.303 245.886C480.247 245.462 478.857 245.189 476.322 245.712C475.814 245.815 475.355 246.127 475.075 246.593C474.811 247.033 474.714 247.572 475.363 248.003Z" fill="#FFB27D"/>
<path d="M529.618 220.395C529.618 220.395 525.456 225.7 520.156 223.48C520.156 223.48 519.017 220.518 519 218.334C518.997 218.065 518.995 217.804 518.991 217.556C518.963 215.097 518.886 213.719 518.886 213.719C518.886 213.719 518.889 213.719 518.893 213.719C519.134 213.611 526.995 210.145 526.989 210.431C526.852 217.08 529.618 220.395 529.618 220.395Z" fill="#FFB27D"/>
<path d="M526.196 212.015C525.438 213.523 522.837 216.476 518.99 217.556C518.963 215.096 518.886 213.718 518.886 213.718C518.886 213.718 518.888 213.718 518.892 213.718C519.108 213.654 526.422 211.57 526.196 212.015Z" fill="#ED975D"/>
<path d="M517.24 213.464C517.24 213.464 526.08 215.697 527.291 209.761C528.501 203.826 530.456 200.116 524.862 198.44C519.267 196.764 517.705 198.77 516.853 200.646C516.002 202.521 514.971 212.73 517.24 213.464Z" fill="#FFB27D"/>
<path d="M526.986 211.378C527.108 211.46 529.01 212.088 532.612 204.378C533.178 203.168 533.562 200.55 532.245 198.237C530.926 195.923 526.252 194.105 522.369 193.312C518.485 192.521 517.554 194.869 516.639 197.228C515.678 199.704 512.906 201.744 512.906 201.744C516.254 203.755 520.288 200.88 521.686 201.352C523.084 201.825 523.578 204.19 523.682 204.949C523.787 205.708 523.949 206.339 525.705 205.66C527.462 204.984 526.499 208.335 526.218 208.975C526.218 208.975 525.979 210.683 526.986 211.378Z" fill="#A9453D"/>
<path d="M549.927 358.994H555.28C556.403 358.994 557.649 357.789 557.961 355.578C558.273 353.366 560.58 352.163 561.079 350.354C561.579 348.545 559.02 345.998 559.02 345.998L558.593 345.409L558.147 344.794L553.906 345.865C553.906 345.865 553.801 346.949 553.735 348.332C553.69 349.329 553.665 350.482 553.718 351.493C553.842 353.905 553.088 356.502 551.095 356.972C549.101 357.438 549.927 358.994 549.927 358.994Z" fill="#A9453D"/>
<path d="M515.318 359.155H527.032C527.168 359.127 527.271 359.095 527.333 359.061C528.28 358.552 527.984 354.654 527.871 353.451C527.849 353.228 527.832 353.098 527.832 353.098C527.832 353.098 522.842 348.811 522.155 352.094C522.133 352.197 522.108 352.295 522.082 352.396V352.398C521.216 355.471 517.293 355.523 515.056 355.913C515.002 355.922 514.951 355.934 514.9 355.947C513.182 356.394 513.551 359.155 515.318 359.155Z" fill="#A9453D"/>
<path d="M515.354 271.495C515.354 271.495 516.112 281.651 517.002 293.859C518.212 310.444 519.668 330.813 519.813 334.672C520.063 341.373 521.062 352.091 521.062 352.091C521.062 352.091 523.431 354.638 528.171 353.565C528.171 353.565 532.395 338.264 533.603 322.074C533.622 321.808 533.64 321.542 533.659 321.274C534.781 304.792 536.527 270.09 536.527 270.09L515.354 271.495Z" fill="#F99746"/>
<path d="M515.354 271.495C515.354 271.495 516.112 281.651 517.002 293.859L533.603 322.074C533.622 321.808 533.64 321.542 533.659 321.274C534.781 304.792 536.527 270.09 536.527 270.09L515.354 271.495Z" fill="#ED7D2B"/>
<path d="M518.815 272.701C518.815 272.701 532.475 309.48 541.456 326.766C550.438 344.05 553.244 348.876 553.244 348.876C553.244 348.876 558.39 346.666 558.858 345.157C558.858 345.157 555.424 311.789 549.409 303.653C546.011 299.056 542.018 285.262 541.832 280.438C541.644 275.614 540.615 266.068 540.615 266.068L518.815 272.701Z" fill="#F99746"/>
<path d="M551.556 267.739C550.044 268.26 549.801 268.143 549.801 268.143C549.801 268.143 542.442 253.752 541.697 252.434C540.952 251.116 526.073 236.297 526.073 236.297L529.896 220.982C529.896 220.982 546.819 244.52 548.646 247.897C551.667 253.479 553.436 266.442 553.436 266.442C553.436 266.442 552.742 267.329 551.556 267.739Z" fill="#4662BC"/>
<path d="M512.471 242.309C512.524 245.454 512.693 248.99 512.923 252.58C512.938 252.793 512.951 253.006 512.966 253.219C513.113 255.443 513.271 257.674 513.455 259.85C513.527 260.721 513.606 261.583 513.687 262.429L513.7 262.543C513.707 262.86 513.743 263.204 513.775 263.518C514.522 271.661 515.303 278.096 515.448 278.195C515.621 278.319 515.817 278.38 516.031 278.353C518.02 278.085 523.952 278.568 528.809 277.434C532.907 276.505 536.438 274.744 540.177 272.372C540.675 272.055 541.806 271.221 541.714 270.597C541.624 269.912 541.456 268.921 541.244 267.674C540.508 263.341 539.236 255.89 538.803 247.169C538.719 245.544 538.596 243.939 538.436 242.362C538.019 238.253 537.351 234.349 536.455 230.883C534.79 224.443 532.342 219.509 529.273 217.579C528.871 217.338 526.714 218.812 524.731 220.179C522.899 221.44 520.972 221.788 519.098 221.612L517.448 223.572C515.45 226.066 513.322 229.388 512.742 234.108C512.697 234.457 512.661 234.828 512.629 235.223C512.464 237.148 512.424 239.583 512.471 242.309Z" fill="#6980E2"/>
<path d="M512.47 242.309C512.524 245.454 512.692 248.99 512.923 252.58C512.938 252.793 512.951 253.006 512.965 253.219C524.323 245.583 526.073 231.61 526.073 231.61C520.485 231.873 516.045 233.253 512.624 235.225C512.464 237.148 512.423 239.583 512.47 242.309Z" fill="#4662BC"/>
<path d="M483.772 248.326C483.654 246.518 484.527 246.215 484.527 246.215C484.527 246.215 501.653 242.882 503.109 242.389C504.565 241.896 517.012 227.987 517.012 227.987C517.012 227.987 521.785 222.207 525.691 223.484C529.087 224.594 530.412 227.439 530.865 230.149C531.403 233.377 530.017 236.627 527.413 238.342C521.569 242.191 509.869 249.778 507.113 250.647C500.981 252.577 484.504 250.802 484.504 250.802C484.504 250.802 483.863 249.748 483.772 248.326Z" fill="#6980E2"/>
<ellipse cx="39.3183" cy="365.698" rx="39.3183" ry="6.10769" fill="#B9B9B9" fill-opacity="0.59"/>
<path d="M49.4063 221.822C46.9886 217.983 44.9591 215.764 40.4825 215.323C38.8549 215.165 36.9039 215.709 35.0764 216.625C33.7979 217.265 32.6135 218.092 31.5311 219.045L29.7369 220.626C27.4349 222.654 26.4133 226.37 26.0211 230.698V230.7C25.9858 231.078 25.9564 231.459 25.9309 231.847C25.7152 233.594 24.9779 236.76 22.4563 237.108C18.9561 237.592 19.0483 239.926 19.1444 243.123C19.2385 246.32 20.715 249.744 16.8619 253.131C13.0088 256.521 15.3324 257.872 15.7031 261.348C16.0717 264.822 13.6226 264.213 12.6951 268.693C11.7696 273.174 15.3324 276.916 11.4519 278.989C11.4519 278.989 17.4972 281.495 20.6287 273.723C23.7583 265.952 30.2899 272.764 33.5391 265.507C33.8391 264.836 34.1057 264.018 34.343 263.087C35.5744 258.268 37.5294 253.687 40.1334 249.506L43.3571 250.218L46.3121 246.221C46.6337 245.692 49.1436 241.056 49.5024 240.555C52.7477 236.024 50.877 224.159 49.4063 221.822Z" fill="#562E20"/>
<path d="M43.9476 238.314C43.9476 238.314 44.5006 229.591 45.081 226.976L39.1357 231.928L38.1023 238.289C38.1023 238.289 44.2653 241.217 43.9476 238.314Z" fill="#FBC79C"/>
<path d="M44.3043 233.532C44.3043 233.532 40.9473 234.315 39.0081 232.705L39.2257 231.321L44.0416 231.469L44.3043 233.532Z" fill="#F9AA7A"/>
<path d="M34.0586 226.552C33.3547 224.705 33.1547 222.42 34.8175 220.267C37.8529 216.338 41.6511 217.374 44.1629 219.217L45.1512 220.323C47.569 223.77 49.2396 226.029 49.0572 230.99C48.9161 234.896 42.1295 233.938 37.847 231.195C36.1489 230.106 34.7881 228.465 34.0586 226.552Z" fill="#FBC79C"/>
<path d="M40.6765 216.371C37.9882 216.006 35.2842 216.964 33.3704 218.974C29.3369 223.21 29.4663 227.469 29.8879 231.322L32.2076 235.891L39.1353 231.929C39.1353 231.929 38.0823 227.063 39.9785 225.956C41.8766 224.848 41.3805 221.147 41.3805 221.147C43.1178 221.881 45.7277 221.145 45.7277 221.145C45.1591 218.611 43.1472 216.71 40.6765 216.371Z" fill="#562E20"/>
<path d="M39.0625 229.432C39.0625 229.432 36.9428 226.889 36.5232 229.417C36.1016 231.948 40.2567 232.083 40.2567 232.083L39.0625 229.432Z" fill="#FBC79C"/>
<path d="M35.4349 261.1L32.7446 246.754L38.6566 244.488L35.4349 261.1Z" fill="#F5D7C3"/>
<path d="M45.265 238.417L38.1019 238.29L36.6431 238.605V243.115L39.7099 248.505L46.5905 247.068L48.7318 241.648L45.265 238.417Z" fill="#FBC79C"/>
<path d="M36.9706 256.178L35.4353 261.1L34.947 271.523L49.528 268.299L50.8594 257.837L36.9706 256.178Z" fill="#E58B63"/>
<path d="M34.4885 350.883L41.1358 344.338L44.3124 345.81L38.1965 354.357L34.4885 350.883Z" fill="#F9AA7A"/>
<path d="M35.3452 349.41C35.3452 349.41 37.5453 351.928 39.3807 351.932C41.1592 351.934 39.2454 356.546 42.32 360.407C42.6141 360.78 42.7573 361.274 42.6965 361.789C42.622 362.427 42.2533 363.044 40.9631 362.529C39.0512 361.764 33.6942 355.33 31.9745 353.22C31.6588 352.834 31.7019 352.229 32.0725 351.815C32.9961 350.788 34.6648 349.09 35.3452 349.41Z" fill="#226664"/>
<path d="M48.1294 266.454C48.1294 266.454 60.1475 292.814 61.6809 303.233C63.2143 313.652 43.2998 349.368 43.2998 349.368L40.1134 342.735C40.1134 342.735 51.1511 311.696 48.851 305.283C46.549 298.871 35.9348 277.174 35.9348 277.174L48.1294 266.454Z" fill="#287C7C"/>
<path d="M42.7531 306.735C43.9727 308.435 44.4963 310.573 44.2806 312.688C43.4453 320.882 41.0922 347.689 44.9708 357.072C46.763 361.405 53.8084 360.459 53.177 361.991C52.5456 363.525 45.5395 363.193 43.1256 363.035C41.1432 362.904 39.9138 362.709 39.5628 361.124C38.8627 357.966 40.8942 358.602 39.5608 353.822C38.2255 349.04 33.9763 322.43 38.0686 309.072C39.6235 303.991 41.4413 304.904 42.7531 306.735Z" fill="#FBC79C"/>
<path d="M46.9165 314.581L44.3066 346.929H37.6338C37.6338 346.929 34.0866 296.598 30.506 288.065C26.9275 279.533 34.9474 268.792 34.9474 268.792L36.6298 268.862L44.789 269.192L46.989 307.09C47.142 309.586 47.1185 312.09 46.9165 314.581Z" fill="#287C7C"/>
<path d="M54.2991 252.911C54.2913 252.973 54.2854 253.035 54.2756 253.098C54.1089 254.263 53.6756 255.45 53.1461 256.541C52.8697 257.115 52.5657 257.665 52.2618 258.167C51.2225 259.892 50.1852 261.099 50.1852 261.099C49.6323 261.934 47.7989 262.211 45.6007 262.211C45.0321 262.211 44.4438 262.192 43.8458 262.162C43.5614 262.145 43.2752 262.127 42.9889 262.106C39.1966 261.829 35.3572 261.099 35.3572 261.099L35.2435 251.747L35.216 249.606C36.1376 244.83 34.4434 241.289 33.7297 240.065C33.5512 239.759 33.4336 239.597 33.4336 239.597L34.9415 238.789L34.9474 238.785L35.0003 238.779C35.0042 238.779 35.0062 238.779 35.0101 238.777L35.218 238.742L35.2768 238.732L35.4043 238.711C35.418 238.709 35.4298 238.705 35.4435 238.705L35.6533 238.67L35.9141 238.623L36.267 238.566L37.92 238.291C38.1593 238.517 38.3867 238.724 38.6063 238.914C43.8968 243.53 43.5399 238.314 43.5399 238.314L45.6027 238.299C46.5008 238.293 47.3381 238.802 47.8047 239.636C47.8067 239.644 47.8126 239.653 47.8185 239.661C47.8224 239.673 47.8302 239.681 47.8361 239.694C48.0342 240.052 48.2675 240.465 48.5244 240.922L48.7636 241.346C50.1186 243.735 52.0402 247.057 53.6305 249.528C54.2815 250.539 54.4403 251.712 54.2991 252.911Z" fill="#F3B616"/>
<path d="M52.6831 362.934C50.8281 363.84 42.6768 363.385 40.0297 363.209C39.5453 363.176 39.159 362.723 39.1316 362.157C39.1198 361.858 39.1081 361.513 39.1061 361.15C39.0983 359.811 39.2081 358.253 39.7551 358.027C39.7551 358.027 39.7767 358.027 39.8159 358.027C39.9708 358.029 40.4159 358.027 40.9807 357.974C42.0435 357.871 43.5259 357.576 44.2945 356.75C44.4377 356.596 44.5926 356.522 44.7553 356.514C45.2612 356.483 45.8828 357.072 46.726 357.804C46.8084 357.875 46.8927 357.949 46.979 358.023C47.2064 358.216 47.4496 358.417 47.7104 358.616C47.7966 358.683 47.8868 358.749 47.979 358.815C48.3025 359.05 48.6535 359.278 49.032 359.487C49.1477 359.551 49.2692 359.614 49.3908 359.672C50.1889 360.065 51.1046 360.359 52.1674 360.443C52.6282 360.478 53.0694 360.715 53.3792 361.119C53.7655 361.618 53.9322 362.323 52.6831 362.934Z" fill="#287C7C"/>
<path d="M38.873 346.929H37.4043C37.4043 346.929 34.0866 296.598 30.506 288.065C26.9275 279.533 34.9474 268.792 34.9474 268.792L36.6298 268.862L36.2906 269.582C36.2906 269.582 31.4708 277.113 31.1159 281.99C30.7629 286.862 32.5865 289.46 33.5493 295.657C34.514 301.855 35.9729 314.518 36.3337 317.06C36.6926 319.603 38.873 346.929 38.873 346.929Z" fill="#226664"/>
<path d="M51.7048 259.714L49.4753 269.463C45.0595 270.295 39.1788 269.875 36.2905 269.582C35.2003 269.471 34.5355 269.381 34.5355 269.381L34.3963 262.378L34.3179 258.556L51.7048 259.714Z" fill="#F3B616"/>
<path d="M36.2902 269.581C35.1999 269.471 34.5352 269.38 34.5352 269.38L34.396 262.378L35.9353 262.212L36.2902 269.581Z" fill="#E29E05"/>
<path d="M56.3912 247.335C56.3912 247.335 61.1757 253.696 59.8855 257.042C57.358 263.596 37.3062 261.016 37.2375 261.078V257.159C37.2375 257.159 52.7538 257.294 53.6911 255.035C54.6284 252.779 51.895 250.392 51.895 250.392L56.3912 247.335Z" fill="#FBC79C"/>
<path d="M38.1394 261.179L41.2376 257.111L42.3572 257.076C42.3572 257.076 42.1101 260.482 40.5297 261.347L38.1394 261.179Z" fill="#F9AA7A"/>
<path d="M43.9475 238.314C43.9475 238.314 48.2104 236.815 50.3419 238.29C52.4714 239.766 58.2677 249.41 58.2677 249.41L51.4635 251.789L43.9475 238.314Z" fill="#F3B616"/>
<path d="M30.4177 251.103C30.4177 251.103 31.2707 262.857 35.7885 265.441C40.3044 268.023 44.481 242.643 44.481 242.643C44.481 242.643 45.8438 242.733 46.0144 240.773C46.185 238.814 45.8438 238.724 46.9537 238.724C48.0596 238.724 45.5026 234.717 43.1182 235.251C40.7319 235.786 40.9868 231.957 40.2201 231.867C39.4534 231.779 41.2436 235.786 41.1574 237.568C41.073 239.348 41.4142 241.039 41.4142 241.039L36.8121 255.555L35.9591 249.857L30.4177 251.103Z" fill="#FBC79C"/>
<path d="M36.2278 251.646L36.4336 253.037L30.7099 253.605L30.4177 251.37L36.2278 251.646Z" fill="#F9AA7A"/>
<path d="M37.2373 251.545L35.2431 251.748L30.4174 252.24L28.7095 252.416C28.7095 252.416 28.9703 247.667 29.5468 243.398C29.984 240.138 33.3685 239.1 34.9411 238.791C34.9607 238.786 34.9803 238.784 34.9999 238.78C35.0038 238.78 35.0058 238.78 35.0097 238.778C35.1607 238.75 35.294 238.727 35.4039 238.713C35.4176 238.711 35.4293 238.706 35.4431 238.706C35.6313 238.68 35.7411 238.672 35.7411 238.672C36.2862 238.536 36.7 238.733 37.0118 239.166C38.7707 241.61 37.2373 251.545 37.2373 251.545Z" fill="#F3B616"/>
<path d="M50.8597 244.713C50.8597 244.713 54.3305 247.939 54.5599 251.788C54.7736 255.37 52.8382 255.723 52.8382 255.723L46.3125 253.502L50.8597 244.713Z" fill="#F3B616"/>
<path d="M54.5106 253.291C54.8185 248.117 51.1183 246.278 51.0811 246.259L51.1262 246.134C51.1634 246.153 55.14 247.896 54.5106 253.291Z" fill="#FBDF5C"/>
<path d="M41.4138 241.106C41.3804 241.106 41.355 241.084 41.3491 241.051C41.3471 241.028 41 238.793 41.0589 236.917C41.0883 236.031 40.7392 235.043 40.4314 234.171C40.0745 233.162 39.7667 232.293 40.0706 231.756L40.0863 231.725L40.1196 231.723C40.1726 231.717 40.453 231.756 40.8589 232.935L40.8883 233.029C41.2765 234.155 41.6393 235.219 42.6119 235.233C42.8531 235.238 43.0531 235.211 43.2433 235.186C43.8786 235.104 44.3806 235.041 45.7669 236.111C45.81 236.148 46.7807 236.978 47.1238 237.852C47.2826 238.252 47.3062 238.498 47.2042 238.654C47.0689 238.859 46.7336 238.867 46.3081 238.855C46.2748 238.853 46.2453 238.824 46.2473 238.785C46.2493 238.75 46.2767 238.719 46.312 238.721C46.7532 238.732 47.0101 238.713 47.0983 238.578C47.1728 238.465 47.1434 238.252 47.0062 237.901C46.6748 237.06 45.6983 236.224 45.6885 236.216C44.3453 235.18 43.8668 235.242 43.259 235.32C43.0629 235.344 42.8609 235.371 42.6119 235.367C41.5491 235.35 41.1706 234.245 40.7706 233.074L40.7373 232.98C40.4451 232.127 40.2333 231.92 40.1549 231.871C39.9255 232.359 40.2157 233.181 40.551 234.124C40.8628 235.008 41.2177 236.009 41.1883 236.921C41.1275 238.785 41.4726 241.006 41.4765 241.028C41.4805 241.065 41.4589 241.098 41.4236 241.106C41.4197 241.106 41.4157 241.106 41.4138 241.106Z" fill="#CC7C5C"/>
<path d="M43.9882 283.499C43.9666 283.441 43.9038 283.415 43.8489 283.437C43.796 283.46 43.7685 283.525 43.7901 283.583C45.7902 288.765 46.451 299.661 46.4569 299.77C46.4608 299.829 46.5079 299.874 46.5628 299.874H46.5706C46.6294 299.87 46.6745 299.817 46.6706 299.756C46.6628 299.647 46.0039 288.717 43.9882 283.499Z" fill="#FBDF5C"/>
<path d="M33.4057 276.001C33.19 276.001 32.9664 275.989 32.7331 275.964C32.6743 275.958 32.6311 275.903 32.637 275.841C32.6449 275.78 32.6958 275.735 32.7547 275.741C34.1724 275.888 35.2685 275.569 36.0175 274.789C37.3372 273.415 37.1333 271.051 37.1293 271.029C37.1254 270.967 37.1666 270.912 37.2254 270.906C37.2862 270.899 37.3372 270.945 37.3431 271.006C37.3529 271.107 37.5588 273.5 36.1685 274.947C35.4979 275.646 34.5685 276.001 33.4057 276.001Z" fill="#FBDF5C"/>
<path d="M46.9785 358.023C46.7471 358.241 46.5197 358.429 46.1942 358.569C46.1393 358.591 46.0843 358.614 46.0314 358.634C45.551 358.819 45.0451 358.905 44.5372 358.946C44.3313 358.963 44.3333 358.626 44.5372 358.61C44.9588 358.575 45.3784 358.505 45.7804 358.372C45.8392 358.351 45.8981 358.329 45.9549 358.306C46.2706 358.185 46.5001 358.009 46.7255 357.804C46.8079 357.876 46.8922 357.95 46.9785 358.023Z" fill="#FBDF5C"/>
<path d="M47.9787 358.816C47.7198 359.078 47.3747 359.267 47.008 359.4C46.6414 359.533 46.2609 359.611 45.9315 359.646C45.7237 359.669 45.7276 359.332 45.9315 359.31C46.1531 359.285 46.406 359.24 46.661 359.166C47.0453 359.056 47.4335 358.879 47.71 358.617C47.7963 358.684 47.8865 358.75 47.9787 358.816Z" fill="#FBDF5C"/>
<path d="M38.6059 238.914C38.1726 238.97 37.6177 239.052 37.0118 239.165C35.9568 239.361 34.743 239.651 33.7293 240.065C32.8959 240.405 32.1959 240.828 31.8253 241.352C30.4076 243.366 30.4174 252.239 30.4174 252.239L28.7095 252.415C28.7095 252.415 28.9703 247.666 29.5468 243.397C29.984 240.137 33.3685 239.099 34.9411 238.789L34.947 238.785L34.9999 238.779C35.0038 238.779 35.0058 238.779 35.0097 238.777C35.1607 238.748 35.294 238.726 35.4039 238.711C35.4176 238.709 35.4293 238.705 35.4431 238.705L35.6529 238.67L35.9137 238.623L36.2666 238.566L37.9196 238.291C38.1589 238.517 38.3863 238.724 38.6059 238.914Z" fill="#E29E05"/>
<path fill-rule="evenodd" clip-rule="evenodd" d="M395.091 14.5058C399.097 14.5058 402.344 11.2585 402.344 7.25288C402.344 3.24723 399.097 0 395.091 0C391.086 0 387.838 3.24723 387.838 7.25288C387.838 11.2585 391.086 14.5058 395.091 14.5058ZM397.936 8.27841L397.196 8.97869C394.338 8.64105 393.912 5.91184 393.912 5.91184L394.651 5.21156C394.75 5.11756 394.818 4.99804 394.845 4.86793C394.873 4.73783 394.859 4.60291 394.807 4.48002L394.447 3.62656C394.394 3.5014 394.303 3.39403 394.185 3.31826C394.068 3.24249 393.929 3.20179 393.787 3.20139H392.192C392.091 3.2008 391.991 3.2205 391.899 3.25918C391.806 3.29787 391.723 3.35466 391.656 3.42583C391.588 3.497 391.537 3.58094 391.506 3.67211C391.475 3.76328 391.465 3.85963 391.476 3.95481C391.717 5.89309 392.991 10.9576 399.306 11.3296C399.402 11.3343 399.499 11.3204 399.589 11.2887C399.68 11.2571 399.763 11.2085 399.833 11.1457C399.904 11.0829 399.96 11.0072 399.998 10.9233C400.037 10.8394 400.057 10.749 400.058 10.6575V9.09436C400.057 8.95981 400.014 8.82863 399.934 8.71737C399.854 8.6061 399.741 8.51972 399.609 8.46911L398.708 8.12835C398.578 8.07986 398.436 8.06822 398.298 8.09486C398.161 8.1215 398.035 8.18526 397.936 8.27841Z" fill="#0348CB"/>
<defs>
<filter id="filter0_dd_301_602" x="394.549" y="12.7561" width="37.3413" height="37.3262" filterUnits="userSpaceOnUse" color-interpolation-filters="sRGB">
<feFlood flood-opacity="0" result="BackgroundImageFix"/>
<feColorMatrix in="SourceAlpha" type="matrix" values="0 0 0 0 0 0 0 0 0 0 0 0 0 0 0 0 0 0 127 0" result="hardAlpha"/>
<feOffset dy="6"/>
<feGaussianBlur stdDeviation="6"/>
<feComposite in2="hardAlpha" operator="out"/>
<feColorMatrix type="matrix" values="0 0 0 0 1 0 0 0 0 1 0 0 0 0 1 0 0 0 0.5 0"/>
<feBlend mode="normal" in2="BackgroundImageFix" result="effect1_dropShadow_301_602"/>
<feColorMatrix in="SourceAlpha" type="matrix" values="0 0 0 0 0 0 0 0 0 0 0 0 0 0 0 0 0 0 127 0" result="hardAlpha"/>
<feOffset dy="6"/>
<feGaussianBlur stdDeviation="7"/>
<feComposite in2="hardAlpha" operator="out"/>
<feColorMatrix type="matrix" values="0 0 0 0 0 0 0 0 0 0 0 0 0 0 0 0 0 0 0.29 0"/>
<feBlend mode="normal" in2="effect1_dropShadow_301_602" result="effect2_dropShadow_301_602"/>
<feBlend mode="normal" in="SourceGraphic" in2="effect2_dropShadow_301_602" result="shape"/>
</filter>
<filter id="filter1_dd_301_602" x="398.235" y="11.5039" width="21.752" height="21.7554" filterUnits="userSpaceOnUse" color-interpolation-filters="sRGB">
<feFlood flood-opacity="0" result="BackgroundImageFix"/>
<feColorMatrix in="SourceAlpha" type="matrix" values="0 0 0 0 0 0 0 0 0 0 0 0 0 0 0 0 0 0 127 0" result="hardAlpha"/>
<feOffset dy="4"/>
<feGaussianBlur stdDeviation="5"/>
<feComposite in2="hardAlpha" operator="out"/>
<feColorMatrix type="matrix" values="0 0 0 0 1 0 0 0 0 1 0 0 0 0 1 0 0 0 0.5 0"/>
<feBlend mode="normal" in2="BackgroundImageFix" result="effect1_dropShadow_301_602"/>
<feColorMatrix in="SourceAlpha" type="matrix" values="0 0 0 0 0 0 0 0 0 0 0 0 0 0 0 0 0 0 127 0" result="hardAlpha"/>
<feOffset dy="4"/>
<feGaussianBlur stdDeviation="5"/>
<feComposite in2="hardAlpha" operator="out"/>
<feColorMatrix type="matrix" values="0 0 0 0 0 0 0 0 0 0 0 0 0 0 0 0 0 0 0.35 0"/>
<feBlend mode="normal" in2="effect1_dropShadow_301_602" result="effect2_dropShadow_301_602"/>
<feBlend mode="normal" in="SourceGraphic" in2="effect2_dropShadow_301_602" result="shape"/>
</filter>
<linearGradient id="paint0_linear_301_602" x1="274.668" y1="105.842" x2="596.725" y2="295.24" gradientUnits="userSpaceOnUse">
<stop stop-color="#FFC362"/>
<stop offset="1" stop-color="#F77979"/>
</linearGradient>
<clipPath id="clip0_301_602">
<rect x="77.1096" y="131.315" width="22.9038" height="22.9038" rx="11.4519" fill="white"/>
</clipPath>
<clipPath id="clip1_301_602">
<rect x="157.273" y="216.06" width="37.4096" height="37.4096" rx="18.7048" fill="white"/>
</clipPath>
</defs>
</svg>
