<svg width="583" height="399" viewBox="0 0 583 399" fill="none" xmlns="http://www.w3.org/2000/svg">
<rect x="70.481" y="85.8027" width="421.353" height="276.561" rx="11" fill="#33395E"/>
<rect x="70.481" y="104.189" width="421.353" height="16.8541" fill="#DDE5F2"/>
<rect x="78.908" y="104.189" width="412.926" height="16.8541" fill="#DDE5F2"/>
<path d="M106.487 121.043H491.834V351.364C491.834 357.439 486.909 362.364 480.834 362.364H106.487V121.043Z" fill="#E6E8E7"/>
<circle cx="88.8672" cy="143.26" r="11.4915" fill="#D9D9D9"/>
<circle cx="88.8672" cy="242.087" r="11.4915" fill="#D9D9D9" fill-opacity="0.25"/>
<circle cx="88.8672" cy="275.795" r="11.4915" fill="#D9D9D9" fill-opacity="0.25"/>
<circle cx="88.8672" cy="309.503" r="11.4915" fill="#D9D9D9" fill-opacity="0.25"/>
<g clip-path="url(#clip0_142_881)">
<path d="M96.7676 131.769H80.9668C78.9835 131.769 77.3757 133.376 77.3757 135.36V151.16C77.3757 153.144 78.9835 154.751 80.9668 154.751H96.7676C98.7509 154.751 100.359 153.144 100.359 151.16V135.36C100.359 133.376 98.7509 131.769 96.7676 131.769Z" fill="#0265FF"/>
<path d="M80.2485 142.99C80.2485 142.88 80.2485 142.774 80.2485 142.664C80.3097 142.639 80.2893 142.582 80.2893 142.542C80.2934 142.17 80.379 141.816 80.4891 141.465C80.8439 140.327 81.5493 139.43 82.4628 138.692C83.0907 138.182 83.7962 137.791 84.5506 137.497C85.6475 137.069 86.7852 136.845 87.9596 136.8C88.3143 136.788 88.6731 136.804 89.032 136.829C89.6437 136.865 90.2431 136.955 90.8303 137.098C91.6988 137.31 92.5226 137.64 93.2974 138.101C93.9946 138.513 94.6226 139.014 95.1323 139.638C95.7766 140.429 96.217 141.318 96.3271 142.358C96.3801 142.88 96.3557 143.39 96.2496 143.899C96.0458 144.87 95.5524 145.69 94.8795 146.411C94.8224 146.472 94.8061 146.513 94.8346 146.603C95.1731 147.631 95.7522 148.45 96.7675 148.907C96.7226 148.993 96.6452 148.944 96.584 148.944C93.5053 148.948 90.4266 148.948 87.3479 148.948C87.1604 148.886 86.9605 148.895 86.7648 148.862C85.9166 148.727 85.0929 148.507 84.3018 148.161C83.1519 147.659 82.1406 146.962 81.3699 145.959C80.7256 145.123 80.3138 144.189 80.2934 143.112C80.2893 143.072 80.3097 143.015 80.2485 142.99ZM90.7202 143.846C91.0872 143.846 91.4542 143.842 91.8212 143.851C91.9476 143.855 91.9965 143.822 91.9965 143.683C91.9884 143.141 91.9884 142.595 91.9965 142.052C92.0006 141.914 91.9517 141.885 91.8212 141.885C91.0953 141.889 90.3655 141.885 89.6396 141.889C89.4969 141.889 89.4561 141.852 89.4602 141.71C89.4683 140.996 89.4602 140.282 89.4643 139.569C89.4643 139.442 89.4357 139.394 89.2971 139.394C88.7384 139.402 88.1838 139.402 87.6252 139.394C87.4866 139.394 87.458 139.438 87.458 139.569C87.4621 140.282 87.458 140.996 87.4621 141.71C87.4621 141.852 87.4254 141.893 87.2827 141.889C86.5691 141.881 85.8554 141.889 85.1418 141.885C85.0154 141.885 84.9665 141.914 84.9665 142.052C84.9747 142.595 84.9747 143.141 84.9665 143.683C84.9624 143.822 85.0113 143.851 85.1418 143.851C85.8554 143.846 86.5691 143.851 87.2827 143.846C87.4254 143.846 87.4662 143.883 87.4621 144.026C87.4539 144.731 87.4621 145.441 87.4539 146.146C87.4539 146.293 87.4825 146.346 87.6415 146.342C88.1838 146.33 88.7302 146.33 89.2726 146.342C89.4316 146.346 89.4602 146.293 89.4602 146.146C89.452 145.433 89.4602 144.719 89.452 144.005C89.452 143.879 89.4847 143.842 89.6111 143.846C89.9862 143.851 90.3532 143.846 90.7202 143.846Z" fill="white"/>
</g>
<rect x="75.8438" y="108.02" width="9.95926" height="9.19317" rx="2" fill="white"/>
<rect x="455.062" y="108.02" width="9.95926" height="9.19317" rx="2" fill="white"/>
<rect x="471.916" y="108.02" width="9.95926" height="9.19317" rx="2" fill="white"/>
<path d="M88.5138 112.263C88.3185 112.458 88.3185 112.775 88.5138 112.97L91.6957 116.152C91.891 116.347 92.2076 116.347 92.4028 116.152C92.5981 115.956 92.5981 115.64 92.4028 115.445L89.5744 112.616L92.4028 109.788C92.5981 109.593 92.5981 109.276 92.4028 109.081C92.2076 108.885 91.891 108.885 91.6957 109.081L88.5138 112.263ZM94.9961 112.116H88.8673V113.116H94.9961V112.116Z" fill="white"/>
<path d="M104.543 112.969C104.738 112.774 104.738 112.457 104.542 112.262L101.36 109.08C101.165 108.885 100.848 108.885 100.653 109.08C100.458 109.276 100.458 109.592 100.653 109.788L103.482 112.616L100.654 115.444C100.458 115.64 100.458 115.956 100.654 116.152C100.849 116.347 101.166 116.347 101.361 116.152L104.543 112.969ZM98.0606 113.116L104.189 113.116L104.189 112.116L98.0605 112.116L98.0606 113.116Z" fill="white"/>
<circle cx="83.1215" cy="96.9113" r="2.68134" fill="#E34545"/>
<circle cx="91.5485" cy="96.9113" r="2.68134" fill="#FFA412"/>
<circle cx="99.9758" cy="96.9113" r="2.68134" fill="#19B600"/>
<path d="M487.238 121.043H491.834V357.768C491.834 360.306 489.776 362.364 487.238 362.364V121.043Z" fill="#D3D3D3"/>
<path d="M487.238 141.728C487.238 140.459 488.267 139.43 489.536 139.43C490.805 139.43 491.834 140.459 491.834 141.728V190.758C491.834 192.028 490.805 193.056 489.536 193.056C488.267 193.056 487.238 192.028 487.238 190.758V141.728Z" fill="#797979"/>
<rect x="127.938" y="131.769" width="337.083" height="52.0946" rx="6" fill="#FDC04D"/>
<path d="M214.124 153.985C213.49 153.985 212.975 153.471 212.975 152.836C212.975 152.202 213.49 151.687 214.124 151.687H349.723C350.358 151.687 350.873 152.202 350.873 152.836C350.873 153.471 350.358 153.985 349.723 153.985H214.124Z" fill="#3E2D2D"/>
<rect x="212.975" y="146.324" width="7.66097" height="39.8371" rx="2" transform="rotate(-90 212.975 146.324)" fill="#D7D7D7"/>
<path d="M214.124 161.646C213.49 161.646 212.975 161.132 212.975 160.497C212.975 159.863 213.49 159.348 214.124 159.348H284.605C285.24 159.348 285.754 159.863 285.754 160.497C285.754 161.132 285.24 161.646 284.605 161.646H214.124Z" fill="#ABABAB"/>
<path d="M388.029 154.751C387.394 154.751 386.879 154.237 386.879 153.602C386.879 152.968 387.394 152.453 388.029 152.453H437.825C438.46 152.453 438.974 152.968 438.974 153.602C438.974 154.237 438.46 154.751 437.825 154.751H388.029Z" fill="#ABABAB"/>
<path d="M388.029 163.179C387.394 163.179 386.879 162.664 386.879 162.03C386.879 161.395 387.394 160.88 388.029 160.88H451.615C452.249 160.88 452.764 161.395 452.764 162.03C452.764 162.664 452.249 163.179 451.615 163.179H388.029Z" fill="#ABABAB"/>
<path d="M388.029 170.073C387.394 170.073 386.879 169.559 386.879 168.924C386.879 168.289 387.394 167.775 388.029 167.775H451.615C452.249 167.775 452.764 168.289 452.764 168.924C452.764 169.559 452.249 170.073 451.615 170.073H388.029Z" fill="#ABABAB"/>
<path d="M214.124 169.307C213.49 169.307 212.975 168.793 212.975 168.158C212.975 167.523 213.49 167.009 214.124 167.009H332.103C332.738 167.009 333.252 167.523 333.252 168.158C333.252 168.793 332.738 169.307 332.103 169.307H214.124Z" fill="#ABABAB"/>
<path d="M214.124 176.968C213.49 176.968 212.975 176.454 212.975 175.819C212.975 175.184 213.49 174.67 214.124 174.67H320.612C321.246 174.67 321.761 175.184 321.761 175.819C321.761 176.454 321.246 176.968 320.612 176.968H214.124Z" fill="#ABABAB"/>
<rect x="135.333" y="154.485" width="10.4915" height="10.4915" rx="2.5" fill="#19B600" stroke="#A7A7A7"/>
<rect x="130.236" y="209.911" width="337.083" height="52.0946" rx="6" fill="#FDC04D"/>
<path d="M214.124 232.127C213.489 232.127 212.975 231.613 212.975 230.978C212.975 230.344 213.489 229.829 214.124 229.829H349.723C350.358 229.829 350.872 230.344 350.872 230.978C350.872 231.613 350.358 232.127 349.723 232.127H214.124Z" fill="#3E2D2D"/>
<rect x="212.975" y="224.466" width="7.66097" height="39.8371" rx="2" transform="rotate(-90 212.975 224.466)" fill="#D7D7D7"/>
<path d="M214.124 239.789C213.489 239.789 212.975 239.274 212.975 238.639C212.975 238.005 213.489 237.49 214.124 237.49H284.605C285.239 237.49 285.754 238.005 285.754 238.639C285.754 239.274 285.239 239.789 284.605 239.789H214.124Z" fill="#ABABAB"/>
<path d="M390.326 232.894C389.692 232.894 389.177 232.379 389.177 231.744C389.177 231.11 389.692 230.595 390.326 230.595H440.123C440.757 230.595 441.272 231.11 441.272 231.744C441.272 232.379 440.757 232.894 440.123 232.894H390.326Z" fill="#ABABAB"/>
<path d="M390.326 241.321C389.692 241.321 389.177 240.806 389.177 240.172C389.177 239.537 389.692 239.023 390.326 239.023H453.912C454.547 239.023 455.062 239.537 455.062 240.172C455.062 240.806 454.547 241.321 453.912 241.321H390.326Z" fill="#ABABAB"/>
<path d="M390.326 248.215C389.692 248.215 389.177 247.701 389.177 247.066C389.177 246.432 389.692 245.917 390.326 245.917H453.912C454.547 245.917 455.062 246.432 455.062 247.066C455.062 247.701 454.547 248.215 453.912 248.215H390.326Z" fill="#ABABAB"/>
<path d="M214.124 247.449C213.489 247.449 212.975 246.935 212.975 246.3C212.975 245.665 213.489 245.151 214.124 245.151H332.103C332.737 245.151 333.252 245.665 333.252 246.3C333.252 246.935 332.737 247.449 332.103 247.449H214.124Z" fill="#ABABAB"/>
<path d="M214.124 255.11C213.489 255.11 212.975 254.596 212.975 253.961C212.975 253.327 213.489 252.812 214.124 252.812H320.611C321.246 252.812 321.76 253.327 321.76 253.961C321.76 254.596 321.246 255.11 320.611 255.11H214.124Z" fill="#ABABAB"/>
<rect x="137.631" y="232.627" width="10.4915" height="10.4915" rx="2.5" fill="#FDC04D" stroke="#A7A7A7"/>
<rect x="130.236" y="292.649" width="337.083" height="52.0946" rx="6" fill="#FDC04D"/>
<path d="M214.124 314.866C213.489 314.866 212.975 314.352 212.975 313.717C212.975 313.082 213.489 312.568 214.124 312.568H349.723C350.358 312.568 350.872 313.082 350.872 313.717C350.872 314.352 350.358 314.866 349.723 314.866H214.124Z" fill="#3E2D2D"/>
<rect x="212.975" y="307.205" width="7.66097" height="39.8371" rx="2" transform="rotate(-90 212.975 307.205)" fill="#D7D7D7"/>
<path d="M214.124 322.527C213.489 322.527 212.975 322.013 212.975 321.378C212.975 320.744 213.489 320.229 214.124 320.229H284.605C285.239 320.229 285.754 320.744 285.754 321.378C285.754 322.013 285.239 322.527 284.605 322.527H214.124Z" fill="#ABABAB"/>
<path d="M390.326 315.632C389.692 315.632 389.177 315.118 389.177 314.483C389.177 313.849 389.692 313.334 390.326 313.334H440.123C440.757 313.334 441.272 313.849 441.272 314.483C441.272 315.118 440.757 315.632 440.123 315.632H390.326Z" fill="#ABABAB"/>
<path d="M390.326 324.06C389.692 324.06 389.177 323.545 389.177 322.91C389.177 322.276 389.692 321.761 390.326 321.761H453.912C454.547 321.761 455.062 322.276 455.062 322.91C455.062 323.545 454.547 324.06 453.912 324.06H390.326Z" fill="#ABABAB"/>
<path d="M390.326 330.954C389.692 330.954 389.177 330.44 389.177 329.805C389.177 329.17 389.692 328.656 390.326 328.656H453.912C454.547 328.656 455.062 329.17 455.062 329.805C455.062 330.44 454.547 330.954 453.912 330.954H390.326Z" fill="#ABABAB"/>
<path d="M214.124 330.188C213.489 330.188 212.975 329.673 212.975 329.039C212.975 328.404 213.489 327.89 214.124 327.89H332.103C332.737 327.89 333.252 328.404 333.252 329.039C333.252 329.673 332.737 330.188 332.103 330.188H214.124Z" fill="#ABABAB"/>
<path d="M214.124 337.849C213.489 337.849 212.975 337.335 212.975 336.7C212.975 336.065 213.489 335.551 214.124 335.551H320.611C321.246 335.551 321.76 336.065 321.76 336.7C321.76 337.335 321.246 337.849 320.611 337.849H214.124Z" fill="#ABABAB"/>
<rect x="137.631" y="315.366" width="10.4915" height="10.4915" rx="2.5" fill="#19B600" stroke="#A7A7A7"/>
<rect x="178.795" y="94.23" width="36.0066" height="1.53219" rx="0.766097" fill="#7F7373"/>
<rect x="362.393" y="95.0259" width="37.5388" height="1.53219" rx="0.766097" fill="#7F7373"/>
<circle cx="198.578" cy="69.3489" r="20.3187" transform="rotate(-24.8248 198.578 69.3489)" fill="#F4A727"/>
<path d="M210.146 71.7675L208.606 66.4328L203.826 68.6438L202.331 65.4115C201.701 64.049 201.753 62.4114 203.894 61.421L206.067 60.4159L204.105 56.1755C204.105 56.1755 201.978 56.7512 200.093 57.6233C196.157 59.4441 194.688 63.0201 196.686 67.3389L198.442 71.1355L194.067 73.1595L196.371 78.1405L200.746 76.1165L206.317 88.1583L211.701 85.6675L206.131 73.6257L210.146 71.7675Z" fill="white"/>
<circle cx="220.636" cy="36.0065" r="13.7898" fill="#F4A727"/>
<path d="M215.859 43.6218V40.887C214.985 40.2464 214.274 39.4103 213.781 38.4456C213.288 37.4808 213.028 36.4142 213.021 35.3308C213.02 31.3911 216.45 28.1855 220.661 28.1855C224.871 28.1855 228.302 31.3911 228.302 35.3308C228.302 39.2705 224.871 42.4744 220.661 42.4744C219.919 42.4754 219.18 42.3747 218.466 42.1751L215.861 43.6218H215.859ZM219.855 33.3901L215.682 37.8178L219.488 35.7133L221.461 37.7663L225.635 33.3396L221.832 35.444L219.855 33.3901Z" fill="white"/>
<circle cx="384.951" cy="69.3197" r="20.3196" transform="rotate(18.0803 384.951 69.3197)" fill="#0047CC"/>
<path d="M399.564 63.4562C399.459 63.4093 399.349 63.3734 399.236 63.349L376.812 56.0284C376.668 55.9836 376.518 55.9586 376.367 55.9539L384.177 71.2559L399.564 63.4562Z" fill="white"/>
<path d="M400.386 64.9557L384.935 72.7611C384.537 72.9615 384.077 72.9964 383.654 72.8582C383.231 72.7201 382.879 72.4201 382.677 72.0238L374.883 56.727C374.805 56.846 374.742 56.9744 374.696 57.1091L369.467 73.1259C369.328 73.5507 369.364 74.0132 369.566 74.4116C369.769 74.8101 370.121 75.1118 370.546 75.2505L392.969 82.5711C393.394 82.7098 393.857 82.6741 394.255 82.4718C394.653 82.2695 394.955 81.9172 395.094 81.4924L400.323 65.4756C400.371 65.3066 400.392 65.1312 400.386 64.9557ZM372.166 74.007L371.053 73.6436L371.427 72.4984L379.134 68.6251L379.894 70.1229L372.166 74.007ZM393.476 80.9642L392.355 80.5982L388.407 72.9021L389.905 72.1416L393.842 79.8164L393.476 80.9642Z" fill="white"/>
<circle cx="373.119" cy="32.2053" r="13.7898" transform="rotate(19.8277 373.119 32.2053)" fill="#0047CC"/>
<path d="M366.592 25.4616C366.772 24.963 367.153 24.5601 367.652 24.3415C368.151 24.1229 368.726 24.1066 369.252 24.2961L381.143 28.5837C381.669 28.7733 382.101 29.1531 382.346 29.6397C382.591 30.1263 382.627 30.6798 382.447 31.1784L379.736 38.6987C379.556 39.1974 379.174 39.6003 378.676 39.8188C378.177 40.0374 377.601 40.0537 377.076 39.8642L374.598 38.971C374.445 38.9155 374.281 38.8948 374.119 38.9104C373.958 38.9261 373.804 38.9777 373.67 39.0611L370.929 40.7634C370.794 40.8468 370.64 40.8985 370.479 40.9141C370.318 40.9298 370.154 40.909 370 40.8536C369.847 40.7981 369.707 40.7094 369.593 40.5945C369.479 40.4796 369.393 40.3417 369.343 40.1917L368.319 37.1317C368.269 36.9817 368.183 36.8438 368.069 36.7289C367.955 36.614 367.816 36.5253 367.662 36.4699L365.185 35.5766C364.659 35.3871 364.226 35.0072 363.982 34.5206C363.737 34.0341 363.701 33.4806 363.881 32.9819L366.592 25.4616ZM369.721 27.6522C369.59 27.6048 369.446 27.6089 369.321 27.6635C369.197 27.7182 369.101 27.8189 369.057 27.9436C369.012 28.0682 369.021 28.2066 369.082 28.3283C369.143 28.4499 369.251 28.5449 369.383 28.5922L378.301 31.8079C378.432 31.8553 378.576 31.8512 378.701 31.7966C378.826 31.742 378.921 31.6412 378.966 31.5166C379.011 31.3919 379.002 31.2535 378.941 31.1319C378.879 31.0102 378.771 30.9153 378.64 30.8679L369.721 27.6522ZM368.874 30.0023C368.743 29.9549 368.599 29.959 368.474 30.0136C368.349 30.0683 368.254 30.169 368.209 30.2937C368.164 30.4183 368.173 30.5567 368.234 30.6784C368.296 30.8 368.404 30.895 368.535 30.9423L377.454 34.158C377.585 34.2054 377.729 34.2013 377.854 34.1467C377.978 34.0921 378.074 33.9913 378.118 33.8667C378.163 33.742 378.154 33.6036 378.093 33.482C378.032 33.3603 377.924 33.2654 377.793 33.218L368.874 30.0023ZM368.027 32.3524C367.895 32.305 367.751 32.3091 367.627 32.3637C367.502 32.4184 367.407 32.5191 367.362 32.6438C367.317 32.7684 367.326 32.9068 367.387 33.0285C367.448 33.1501 367.556 33.2451 367.688 33.2924L372.642 35.0789C372.774 35.1263 372.918 35.1222 373.042 35.0676C373.167 35.013 373.262 34.9122 373.307 34.7876C373.352 34.6629 373.343 34.5245 373.282 34.4029C373.221 34.2812 373.113 34.1863 372.981 34.1389L368.027 32.3524Z" fill="white"/>
<rect x="173.138" y="19.2749" width="19.794" height="19.794" rx="9.89698" transform="rotate(-18.4113 173.138 19.2749)" fill="#F4A727"/>
<path fill-rule="evenodd" clip-rule="evenodd" d="M193.059 23.0415C191.685 18.9658 187.272 16.7654 183.187 18.125C179.093 19.4879 176.879 23.9119 178.242 28.0063C179.601 32.0908 184.008 34.3043 188.094 32.9617L188.152 32.9422C192.218 31.5713 194.418 27.1764 193.078 23.1001L193.059 23.0415Z" fill="white"/>
<path d="M190.786 25.1889C189.985 25.4572 189.123 25.0378 188.864 24.2535C188.609 23.4789 189.047 22.6249 189.836 22.3586C190.63 22.0909 191.5 22.5165 191.759 23.2987C192.016 24.0784 191.582 24.9223 190.786 25.1889ZM189.467 24.0626C189.624 24.526 190.127 24.7664 190.601 24.6043C191.063 24.446 191.312 23.9492 191.157 23.4902C191.003 23.0313 190.509 22.7901 190.038 22.9443C189.564 23.1001 189.31 23.5971 189.467 24.0626Z" fill="#0068FE"/>
<path d="M187.071 22.3647L187.708 22.1526L188.917 25.783L188.496 25.9228C188.376 25.9628 188.247 25.8979 188.207 25.778L187.071 22.3647Z" fill="#0068FE"/>
<path d="M186.884 23.4232L186.274 23.6263L186.34 23.8254C185.917 23.7283 185.528 23.7574 185.163 23.9634C184.789 24.1736 184.544 24.4842 184.435 24.8979C184.262 25.5544 184.56 26.2279 185.164 26.5499C185.736 26.8549 186.544 26.7902 187.099 26.1154C187.101 26.1196 187.104 26.1233 187.106 26.1273L187.112 26.1429C187.151 26.2628 187.281 26.3277 187.401 26.2878L187.794 26.1569L186.884 23.4232ZM186.154 26.0752C185.697 26.2215 185.189 25.9691 185.044 25.5232C184.898 25.0732 185.155 24.5794 185.614 24.4262C186.079 24.2713 186.567 24.5099 186.72 24.9666C186.874 25.4264 186.618 25.9266 186.154 26.0752Z" fill="#0068FE"/>
<path d="M182.424 27.2969C182.818 26.2552 183.196 25.2528 183.579 24.2525C183.652 24.0624 183.657 23.8798 183.597 23.6877C183.571 23.6045 183.538 23.5885 183.456 23.6162C183.182 23.7081 180.615 24.5618 180.615 24.5618L180.83 25.2072L182.849 24.535C182.834 24.5797 182.068 26.5797 181.697 27.5368C181.636 27.6955 181.628 27.8476 181.677 28.0121C181.711 28.1273 181.747 28.1647 181.864 28.1298L181.864 28.1301L184.539 27.2396C184.659 27.1996 184.724 27.07 184.684 26.9501L184.563 26.5875L184.562 26.5851L182.424 27.2969L182.424 27.2969Z" fill="#0068FE"/>
<path fill-rule="evenodd" clip-rule="evenodd" d="M182.519 32.6967C183.218 33.0035 183.963 33.2087 184.731 33.3006L184.329 32.0941L182.519 32.6967ZM178.19 27.847C177.58 25.8769 177.79 23.8411 178.632 22.1149C178.593 22.3913 178.57 22.6718 178.562 22.9557C178.513 24.5555 178.866 26.0706 179.554 27.5117C180.04 28.5304 180.671 29.4431 181.515 30.1997C181.666 30.3351 181.819 30.4723 181.989 30.5819C182.34 30.8094 182.474 31.1404 182.49 31.5375C182.505 31.9045 182.424 32.2518 182.276 32.5854C180.482 31.7245 179.016 30.1833 178.298 28.1707C178.261 28.0626 178.226 27.9546 178.19 27.847Z" fill="#0068FE"/>
<path fill-rule="evenodd" clip-rule="evenodd" d="M188.086 32.9656C186.192 33.5859 184.23 33.4425 182.535 32.7031C183.209 32.4987 183.801 32.1433 184.325 31.6632C184.373 31.6196 184.417 31.6129 184.477 31.6224C186.253 31.9097 187.968 31.6396 189.635 31.0207C190.628 30.6524 191.551 30.1683 192.375 29.5272C191.456 31.0776 189.999 32.3188 188.16 32.941L188.086 32.9656Z" fill="#015BDF"/>
<circle cx="209.144" cy="7.661" r="6.12878" fill="#F4A727"/>
<circle cx="396.838" cy="7.661" r="6.12878" fill="white"/>
<path d="M196.121 158.965C196.121 169.331 187.031 177.734 175.819 177.734C164.607 177.734 155.518 169.331 155.518 158.965C155.518 148.599 164.607 140.196 175.819 140.196C187.031 140.196 196.121 148.599 196.121 158.965Z" fill="#C8C4E3"/>
<path d="M184.138 158.052H167.354C167.354 158.052 169.222 167.211 167.354 170.692H184.138C182.27 167.211 184.138 158.052 184.138 158.052Z" fill="#1F1F1F"/>
<path d="M175.82 177.735C179.861 177.735 183.622 176.638 186.788 174.758C186.548 172.773 186.207 170.475 185.867 170.041C185.247 169.249 181.908 166.02 175.752 166.02C169.595 166.02 166.257 169.249 165.637 170.041C165.3 170.469 164.963 172.716 164.723 174.682C167.914 176.611 171.722 177.735 175.82 177.735Z" fill="#B89050"/>
<path d="M175.752 177.731C171.682 177.718 167.896 176.598 164.723 174.678C164.963 172.713 165.3 170.465 165.637 170.037C166.1 169.447 168.079 167.495 171.614 166.547C171.342 167.154 171.187 167.846 171.187 168.582V172.013C171.187 174.433 172.858 176.395 174.916 176.395H175.752V177.731Z" fill="#B89050"/>
<path d="M180.452 172.017C180.452 174.437 178.781 176.399 176.723 176.399H174.916C172.857 176.399 171.187 174.437 171.187 172.017V168.586C171.187 166.163 172.857 164.204 174.916 164.204H176.723C178.781 164.204 180.452 166.163 180.452 168.586V172.017Z" fill="#B89050"/>
<path d="M175.819 164.624L173.112 163.288V166.262C173.112 166.262 173.972 167.627 175.819 167.627C177.666 167.627 178.526 166.262 178.526 166.262V163.288L175.819 164.624Z" fill="#F4AF76"/>
<path d="M175.819 164.624L173.112 166.261V163.291L175.819 164.624Z" fill="#F4AF76"/>
<path d="M182.704 154.186C182.704 145.329 175.82 146.094 175.82 146.094C175.82 146.094 168.932 145.329 168.932 154.186C168.932 154.186 167.354 153.778 167.354 155.572C167.354 157.368 169.14 158.3 169.14 158.3C169.14 158.3 172.869 164.621 175.82 164.621C178.771 164.621 182.5 158.3 182.5 158.3C182.5 158.3 184.285 157.368 184.285 155.572C184.285 153.778 182.704 154.186 182.704 154.186Z" fill="#F4AF76"/>
<path d="M175.82 146.094C175.82 146.094 168.932 145.329 168.932 154.186C168.932 154.186 167.354 153.778 167.354 155.572C167.354 157.368 169.14 158.3 169.14 158.3C169.14 158.3 172.869 164.621 175.82 164.621V146.094Z" fill="#F4AF76"/>
<path d="M168.681 169.837C168.681 170.517 169.72 170.878 169.85 171.438C169.979 171.999 170.022 172.4 170.022 172.4C170.022 172.4 171.538 171.399 171.234 170.517C170.932 169.638 170.24 168.637 169.588 168.637C168.939 168.637 168.681 169.118 168.681 169.837Z" fill="black"/>
<path d="M170.56 168.637C170.56 168.866 170.359 169.055 170.108 169.055H168.953C168.706 169.055 168.501 168.866 168.501 168.637C168.501 168.409 168.706 168.22 168.953 168.22H170.108C170.359 168.22 170.56 168.409 170.56 168.637Z" fill="#3E99B2"/>
<path d="M175.82 145.367C164.139 145.367 167.355 158.053 167.355 158.053L167.43 158.063C167.57 158.842 167.86 160.477 167.989 161.282C168.162 162.363 168.567 167.7 168.825 168.22H170.126C170.499 167.604 169.503 158.882 169.503 158.882L169.14 158.302C169.14 158.302 169.32 153.101 171.105 151.878C171.105 151.878 177.488 157.871 182.371 158.295L182.353 158.302L181.959 159.134C181.959 159.134 180.991 167.604 181.367 168.22H182.665C182.927 167.7 183.332 162.363 183.504 161.282C183.623 160.553 183.87 159.141 184.017 158.302H184.074C184.074 158.302 187.499 145.367 175.82 145.367Z" fill="black"/>
<path d="M182.812 169.837C182.812 170.517 181.772 170.878 181.643 171.438C181.51 171.999 181.467 172.4 181.467 172.4C181.467 172.4 179.954 171.399 180.255 170.517C180.56 169.638 181.252 168.637 181.901 168.637C182.55 168.637 182.812 169.118 182.812 169.837Z" fill="black"/>
<path d="M180.929 168.637C180.929 168.866 181.134 169.055 181.381 169.055H182.539C182.787 169.055 182.987 168.866 182.987 168.637C182.987 168.409 182.787 168.22 182.539 168.22H181.381C181.134 168.22 180.929 168.409 180.929 168.637Z" fill="#3E99B2"/>
<path d="M176.723 176.397H174.916C172.857 176.397 171.187 174.435 171.187 172.015V171.441C171.187 173.861 172.857 175.824 174.916 175.824H176.723C178.781 175.824 180.452 173.861 180.452 171.441V172.015C180.452 174.435 178.781 176.397 176.723 176.397Z" fill="#B89050"/>
<g clip-path="url(#clip1_142_881)">
<path d="M176.585 216.806C186.952 216.806 195.355 225.209 195.355 235.575C195.355 245.941 186.952 254.344 176.585 254.344C166.219 254.344 157.816 245.941 157.816 235.575C157.816 225.209 166.219 216.806 176.585 216.806Z" fill="#C8C4E3"/>
<path d="M179.954 240.854V238.271H173.217V240.854C173.217 242.279 171.867 243.678 170.197 243.971L165.808 245.266C164.093 245.618 162.844 247.105 162.792 248.859H190.366C190.313 247.105 189.065 245.618 187.349 245.266L182.97 243.962C181.304 243.688 179.954 242.279 179.954 240.854Z" fill="#F4AF76"/>
<path d="M187.44 245.177L182.278 243.531C180.283 245.057 176.588 247.095 170.895 243.531L165.736 245.177C164.005 245.533 162.746 247.033 162.694 248.8L167.06 259.998L166.982 271.923L166.633 275.95L176.455 276.459L186.54 275.95L185.891 271.923L186.116 259.998L190.479 248.8C190.427 247.033 189.172 245.536 187.44 245.177Z" fill="#86CBED"/>
<path d="M187.633 277.636H191.4L192.032 269.331C192.104 268.177 192.097 267.019 192.009 265.865L190.477 248.801L186.114 259.998L187.415 267.117L187.633 277.636Z" fill="#86CBED"/>
<path d="M161.774 277.636H165.537L165.756 267.117L167.057 259.998L162.694 248.801L161.165 265.865C161.077 267.019 161.07 268.177 161.142 269.331L161.774 277.636Z" fill="#86CBED"/>
</g>
<path d="M181.907 243.619C180.893 243.117 180.139 242.201 179.983 241.226C180.139 242.197 180.893 243.111 181.907 243.619ZM179.983 241.226V241.222V241.226ZM173.19 241.18C173.207 241.072 173.217 240.965 173.217 240.854C173.217 240.965 173.207 241.072 173.19 241.18ZM179.953 240.864V240.861V240.864Z" fill="#B02833"/>
<path d="M180.123 243.962C179.086 243.962 177.912 243.773 176.719 243.355C175.398 242.895 174.195 242.152 173.19 241.18C173.207 241.073 173.217 240.965 173.217 240.854V238.271H179.953V240.854V240.857C179.953 240.861 179.953 240.861 179.953 240.861V240.864C179.953 240.864 179.953 240.864 179.953 240.867C179.953 240.87 179.953 240.87 179.953 240.874C179.953 240.877 179.953 240.877 179.953 240.88C179.953 240.88 179.953 240.88 179.953 240.883C179.953 240.994 179.963 241.108 179.983 241.219C179.983 241.223 179.983 241.223 179.983 241.223V241.226C180.139 242.201 180.893 243.117 181.907 243.619C181.959 243.645 182.011 243.668 182.066 243.694C181.515 243.867 180.853 243.962 180.123 243.962Z" fill="#DB9D6A"/>
<path d="M183.629 230.097C182.272 235.442 179.657 239.847 176.66 239.847C173.866 239.847 171.052 234.473 169.695 230.097C168.335 225.718 166.715 221.261 173.191 219.565C174.107 221.117 176.041 222.187 178.679 222.307C182.23 222.457 184.972 224.759 183.629 230.097Z" fill="black"/>
<path d="M169.124 232.883C169.352 233.92 170.223 235.146 170.624 235.065C171.022 234.983 171.143 234.07 170.914 233.03C170.686 231.99 170.19 231.217 169.799 231.302C169.411 231.387 168.896 231.846 169.124 232.883Z" fill="#F4AF76"/>
<path d="M184.207 232.883C183.978 233.92 183.111 235.146 182.71 235.065C182.309 234.983 182.191 234.07 182.42 233.03C182.648 231.99 183.143 231.217 183.532 231.302C183.923 231.387 184.425 231.846 184.207 232.883Z" fill="#F4AF76"/>
<path d="M182.735 234.106C181.982 233.887 182.119 232.668 182.412 229.602C183.214 225.517 176.582 227.359 176.582 227.359C176.582 227.359 170.047 225.605 170.875 229.185C171.28 231.409 171.335 233.786 170.602 234.008C170.875 235.416 171.86 238.945 171.86 238.945C171.86 238.945 175.206 241.661 176.677 241.661C178.271 241.661 181.405 238.945 181.405 238.945C181.405 238.945 182.458 235.426 182.722 234.106H182.735Z" fill="#F4AF76"/>
<path d="M195.66 318.569C195.66 323.295 193.944 327.622 191.105 330.948C190.846 331.251 190.581 331.543 190.305 331.829C189.603 332.558 188.841 333.229 188.028 333.834C184.877 336.196 180.973 337.59 176.74 337.59C176.683 337.59 176.626 337.59 176.569 337.59C173.928 337.567 171.418 336.999 169.141 335.994C167.824 335.413 166.588 334.687 165.449 333.834C164.622 333.216 163.85 332.531 163.137 331.788C162.872 331.519 162.62 331.237 162.375 330.952C159.536 327.622 157.816 323.295 157.816 318.569C157.816 308.06 166.289 299.544 176.74 299.544C183.912 299.544 190.151 303.555 193.359 309.468C194.424 311.43 195.157 313.6 195.479 315.901C195.6 316.775 195.66 317.665 195.66 318.569Z" fill="#C8C4E3"/>
<path d="M177.113 304.841C175.272 304.831 173.26 305.258 172.121 306.763C170.707 308.627 169.803 310.747 169.769 313.122C169.766 313.465 169.773 313.831 169.652 314.143C169.621 314.221 169.584 314.298 169.537 314.368C169.349 314.647 169.04 314.809 168.748 314.963C168.271 315.208 167.777 315.467 167.455 315.897C166.826 316.744 167.038 317.98 166.507 318.89C165.778 320.147 163.917 320.379 163.228 321.655C162.879 322.307 162.933 323.157 163.363 323.758C163.668 324.188 164.159 324.528 164.243 325.048C164.334 325.619 163.893 326.123 163.497 326.543C163.007 327.071 162.523 327.638 162.301 328.327C162.083 329.012 162.184 329.852 162.721 330.329C163.117 330.682 163.705 330.81 164.001 331.25C164.206 331.559 164.233 331.972 164.485 332.248C164.747 332.53 165.167 332.577 165.55 332.604C168.503 332.832 171.456 333.057 174.409 333.286C175.202 333.346 176.008 333.407 176.794 333.262C176.901 333.242 177.006 333.219 177.113 333.195V304.841Z" fill="black"/>
<path d="M176.739 304.841C178.58 304.831 180.589 305.258 181.731 306.763C183.142 308.627 184.049 310.747 184.08 313.122C184.086 313.465 184.08 313.831 184.197 314.143C184.228 314.221 184.264 314.298 184.315 314.368C184.5 314.647 184.809 314.809 185.104 314.963C185.578 315.208 186.072 315.467 186.394 315.897C187.026 316.744 186.811 317.98 187.342 318.89C188.071 320.147 189.932 320.379 190.621 321.655C190.973 322.307 190.92 323.157 190.49 323.758C190.184 324.188 189.69 324.528 189.609 325.048C189.519 325.619 189.955 326.123 190.352 326.543C190.846 327.071 191.326 327.638 191.548 328.327C191.77 329.012 191.669 329.852 191.128 330.329C190.731 330.682 190.147 330.81 189.851 331.25C189.643 331.559 189.616 331.972 189.364 332.248C189.106 332.53 188.686 332.577 188.303 332.604C185.35 332.832 182.393 333.057 179.444 333.286C178.647 333.346 177.841 333.407 177.055 333.262C176.948 333.242 176.843 333.219 176.739 333.195V304.841Z" fill="black"/>
<path d="M185.441 326.937L180.892 325.445C180.052 325.173 179.484 324.383 179.484 323.497V319.989H173.975V323.54C173.975 324.434 173.397 325.227 172.547 325.495L167.992 326.943C165.63 327.666 163.843 329.51 163.134 331.791C163.849 332.534 164.622 333.216 165.445 333.834C166.584 334.687 167.824 335.416 169.141 335.994C171.465 337.022 174.035 337.593 176.74 337.593C180.969 337.593 184.876 336.195 188.028 333.834C188.837 333.229 189.6 332.557 190.302 331.828C189.606 329.53 187.813 327.666 185.441 326.937Z" fill="#F4AF76"/>
<path d="M185.441 326.938L181.873 325.769C179.071 327.838 174.879 327.684 172.016 325.665L167.992 326.941C165.633 327.663 163.846 329.511 163.137 331.789C163.849 332.531 164.622 333.217 165.449 333.835C166.587 334.688 167.824 335.414 169.141 335.995C171.465 337.023 174.035 337.591 176.74 337.591C180.973 337.591 184.876 336.197 188.028 333.835C188.841 333.23 189.603 332.558 190.305 331.829C189.607 329.531 187.813 327.667 185.441 326.938Z" fill="#ED6E4A"/>
<path d="M182.673 312.131C182.66 307.888 180.076 304.841 176.737 304.841C176.733 304.841 176.733 304.841 176.73 304.841C176.73 304.841 176.727 304.841 176.723 304.841C173.384 304.841 170.801 307.888 170.787 312.131C170.78 314.063 170.831 314.546 171.029 315.947C171.637 320.311 175.645 322.33 176.723 322.33C178.047 322.33 181.793 320.311 182.401 315.947C182.596 314.546 182.683 314.063 182.673 312.131Z" fill="#F4AF76"/>
<path d="M176.545 309.385C177.798 311.666 180.103 313.705 182.367 314.878C182.475 314.044 182.522 313.413 182.519 311.945C182.502 307.702 179.914 304.655 176.561 304.655H176.558C176.555 304.655 176.551 304.655 176.551 304.655C173.202 304.655 170.611 307.702 170.594 311.945C170.59 313.064 170.607 313.698 170.658 314.306C172.747 313.104 176.322 308.979 176.545 309.385Z" fill="black"/>
<path d="M173.053 313.741H173.041C172.438 313.741 171.951 314.214 171.951 314.791V314.81L174.382 317.148H175.387C175.712 317.148 176.009 317.004 176.21 316.782C175.155 315.768 174.104 314.754 173.053 313.741Z" fill="white" fill-opacity="0.4196"/>
<path d="M175.1 317.148H173.061C172.449 317.148 171.951 316.652 171.951 316.038V314.854C171.951 314.24 172.449 313.741 173.061 313.741H175.1C175.713 313.741 176.21 314.24 176.21 314.854V316.038C176.21 316.652 175.713 317.148 175.1 317.148ZM173.061 314.063C172.627 314.063 172.271 314.415 172.271 314.854V316.038C172.271 316.474 172.627 316.83 173.061 316.83H175.1C175.538 316.83 175.891 316.477 175.891 316.038V314.854C175.891 314.418 175.538 314.063 175.1 314.063H173.061Z" fill="black"/>
<path d="M178.164 313.741H178.152C177.553 313.741 177.062 314.214 177.062 314.791V314.81L179.494 317.148H180.499C180.827 317.148 181.121 317.004 181.322 316.782C180.27 315.768 179.215 314.754 178.164 313.741Z" fill="white" fill-opacity="0.4196"/>
<path d="M180.212 317.148H178.173C177.56 317.148 177.062 316.652 177.062 316.038V314.854C177.062 314.24 177.56 313.741 178.173 313.741H180.212C180.824 313.741 181.322 314.24 181.322 314.854V316.038C181.322 316.652 180.824 317.148 180.212 317.148ZM178.173 314.063C177.735 314.063 177.382 314.415 177.382 314.854V316.038C177.382 316.474 177.735 316.83 178.173 316.83H180.212C180.646 316.83 181.002 316.477 181.002 316.038V314.854C181.002 314.418 180.646 314.063 180.212 314.063H178.173Z" fill="black"/>
<path d="M181.473 314.593C181.422 314.593 181.371 314.551 181.342 314.485C181.301 314.378 181.323 314.242 181.396 314.176L182.797 312.923C182.867 312.858 182.959 312.891 183.003 312.998C183.048 313.106 183.022 313.242 182.952 313.308L181.552 314.561C181.527 314.579 181.501 314.593 181.473 314.593Z" fill="black"/>
<path d="M182.386 313.071C182.532 312.882 182.752 312.79 182.875 313.051C183.054 313.429 183.035 313.932 183.01 314.349C182.991 314.683 182.955 315.021 182.881 315.349C182.817 315.634 182.732 316.021 182.523 316.196C182.477 316.236 182.411 316.276 182.353 316.292C182.32 316.302 182.119 316.306 182.188 316.2" fill="#C38863"/>
<circle cx="73.5452" cy="45.1995" r="7.69317" fill="#319BCD" stroke="#33395E" stroke-width="3"/>
<circle cx="369.259" cy="379.218" r="7.69317" fill="#319BCD" stroke="#33395E" stroke-width="3"/>
<rect x="478.806" y="56.7104" width="17.6202" height="4.59658" transform="rotate(-0.124817 478.806 56.7104)" fill="#F4A727" fill-opacity="0.85"/>
<rect x="278.679" y="376.818" width="17.6202" height="4.59658" transform="rotate(-23.5329 278.679 376.818)" fill="#F4A727" fill-opacity="0.85"/>
<rect x="550.065" y="199.951" width="17.6202" height="4.59658" transform="rotate(30.1056 550.065 199.951)" fill="#33395E"/>
<path d="M203.718 377.293C205.322 375.183 208.498 375.188 210.095 377.303L211.211 378.783C212.674 380.72 210.026 383.074 208.273 381.396C207.512 380.667 206.312 380.665 205.549 381.391C203.782 383.071 201.126 380.702 202.601 378.762L203.718 377.293Z" fill="#33395E"/>
<path d="M307.266 39.6242C307.181 42.2045 304.71 44.0293 302.219 43.3518L300.784 42.9614C298.531 42.3489 299.158 38.9997 301.479 39.2432C302.456 39.3457 303.35 38.6854 303.539 37.7217C303.992 35.4217 307.393 35.8029 307.315 38.1456L307.266 39.6242Z" fill="#F4A727" fill-opacity="0.8"/>
<path d="M505.401 311.79C507.822 310.895 510.445 312.494 510.758 315.057L510.939 316.533C511.222 318.85 507.884 319.534 507.233 317.293C506.959 316.349 506.01 315.771 505.046 315.96C502.746 316.409 501.815 313.116 504.013 312.303L505.401 311.79Z" fill="#F4A727" fill-opacity="0.8"/>
<path d="M33.2452 151.942C35.4843 150.657 38.3363 151.798 39.071 154.273L39.4943 155.699C40.1586 157.936 36.9807 159.166 35.9663 157.064C35.5394 156.179 34.5077 155.767 33.5885 156.112C31.3947 156.938 29.9292 153.845 31.9622 152.679L33.2452 151.942Z" fill="#F4A727" fill-opacity="0.8"/>
<rect width="18.1143" height="18.1552" rx="6" transform="matrix(-0.973329 -0.229415 -0.229415 0.973329 425.53 18.7104)" fill="#0047CC"/>
<g filter="url(#filter0_dd_142_881)">
<path d="M410.085 24.4174C409.494 26.924 411.058 29.4374 413.577 30.0313C416.302 30.6735 418.571 29.2729 419.209 26.5679C419.8 24.0613 418.236 21.5479 415.717 20.954C413.197 20.3602 410.676 21.9108 410.085 24.4174ZM417.738 26.2212C417.257 28.262 415.962 29.0485 413.922 28.5678C412.215 28.1654 411.156 26.4624 411.556 24.7641C411.956 23.0658 413.665 22.0152 415.372 22.4176C417.079 22.8199 418.138 24.5229 417.738 26.2212Z" fill="white"/>
</g>
<g filter="url(#filter1_dd_142_881)">
<ellipse rx="0.878679" ry="0.880663" transform="matrix(-0.973329 -0.229415 -0.229415 0.973329 410.523 18.4442)" fill="white"/>
</g>
<ellipse cx="543.546" cy="360.832" rx="39.454" ry="6.12878" fill="#B9B9B9" fill-opacity="0.59"/>
<path d="M552.333 267.963C552.333 267.963 553.196 270.423 553.4 271.909C553.522 272.797 553.252 275.014 554.402 275.265C555.634 275.534 556.21 271.306 556.07 270.607C555.918 269.838 555.477 267.181 554.678 266.99C553.879 266.797 552.333 267.963 552.333 267.963Z" fill="#FFB27D"/>
<path d="M552.705 268.257C552.705 268.257 552.225 270.033 552.225 270.691C552.225 271.349 551.861 273.291 552.225 273.41C552.705 273.567 553.532 271.19 553.532 271.19L552.705 268.257Z" fill="#FFB27D"/>
<path d="M477.005 248.859C478.302 249.726 477.925 249.208 479.731 250.469C481.536 251.732 483.747 252.056 485.068 251.168L485.874 251.026L486.839 250.851L487.06 247.72C487.06 247.72 486.467 247.644 485.728 247.527C485.503 247.492 485.263 247.451 485.023 247.407C484.563 247.055 483.753 246.218 483.158 245.852L482.965 246.735C481.905 246.31 480.511 246.036 477.966 246.561C477.456 246.664 476.996 246.977 476.715 247.444C476.45 247.886 476.353 248.426 477.005 248.859Z" fill="#FFB27D"/>
<path d="M531.446 221.155C531.446 221.155 527.27 226.479 521.952 224.252C521.952 224.252 520.808 221.28 520.791 219.087C520.789 218.818 520.787 218.556 520.782 218.307C520.755 215.839 520.678 214.456 520.678 214.456C520.678 214.456 520.68 214.456 520.684 214.456C520.926 214.348 528.814 210.87 528.808 211.158C528.671 217.829 531.446 221.155 531.446 221.155Z" fill="#FFB27D"/>
<path d="M528.013 212.746C527.253 214.26 524.642 217.223 520.782 218.307C520.754 215.838 520.677 214.456 520.677 214.456C520.677 214.456 520.68 214.456 520.684 214.456C520.9 214.391 528.24 212.3 528.013 212.746Z" fill="#ED975D"/>
<path d="M519.025 214.201C519.025 214.201 527.896 216.441 529.111 210.485C530.325 204.529 532.287 200.807 526.673 199.125C521.06 197.444 519.492 199.457 518.637 201.338C517.783 203.22 516.748 213.464 519.025 214.201Z" fill="#FFB27D"/>
<path d="M528.806 212.108C528.928 212.19 530.836 212.821 534.451 205.084C535.019 203.87 535.404 201.242 534.083 198.921C532.759 196.6 528.069 194.776 524.173 193.98C520.275 193.186 519.341 195.542 518.422 197.909C517.459 200.393 514.677 202.441 514.677 202.441C518.037 204.458 522.085 201.574 523.488 202.048C524.891 202.521 525.385 204.896 525.49 205.657C525.595 206.418 525.758 207.051 527.521 206.37C529.283 205.692 528.317 209.055 528.035 209.697C528.035 209.697 527.795 211.411 528.806 212.108Z" fill="#A9453D"/>
<path d="M551.826 360.234H557.198C558.324 360.234 559.575 359.024 559.888 356.806C560.2 354.586 562.516 353.379 563.017 351.564C563.518 349.748 560.95 347.193 560.95 347.193L560.522 346.601L560.074 345.985L555.818 347.059C555.818 347.059 555.713 348.147 555.647 349.535C555.602 350.535 555.576 351.692 555.63 352.707C555.754 355.127 554.998 357.733 552.998 358.205C550.997 358.672 551.826 360.234 551.826 360.234Z" fill="#A9453D"/>
<path d="M517.097 360.395H528.851C528.988 360.367 529.091 360.335 529.153 360.3C530.104 359.79 529.806 355.879 529.693 354.671C529.671 354.448 529.654 354.317 529.654 354.317C529.654 354.317 524.647 350.015 523.957 353.309C523.936 353.413 523.91 353.512 523.884 353.613V353.615C523.015 356.698 519.078 356.751 516.834 357.142C516.78 357.151 516.729 357.163 516.677 357.176C514.953 357.625 515.324 360.395 517.097 360.395Z" fill="#A9453D"/>
<path d="M517.133 272.432C517.133 272.432 517.894 282.623 518.787 294.873C520.001 311.515 521.462 331.955 521.607 335.827C521.858 342.551 522.86 353.306 522.86 353.306C522.86 353.306 525.238 355.862 529.994 354.785C529.994 354.785 534.233 339.432 535.445 323.186C535.464 322.919 535.482 322.652 535.501 322.383C536.627 305.845 538.379 271.022 538.379 271.022L517.133 272.432Z" fill="#F99746"/>
<path d="M517.133 272.432C517.133 272.432 517.894 282.623 518.787 294.873L535.445 323.186C535.464 322.919 535.482 322.652 535.501 322.383C536.627 305.845 538.379 271.022 538.379 271.022L517.133 272.432Z" fill="#ED7D2B"/>
<path d="M520.606 273.642C520.606 273.642 534.313 310.549 543.326 327.895C552.338 345.238 555.155 350.081 555.155 350.081C555.155 350.081 560.319 347.863 560.788 346.349C560.788 346.349 557.342 312.866 551.306 304.701C547.896 300.089 543.889 286.247 543.703 281.406C543.514 276.566 542.482 266.987 542.482 266.987L520.606 273.642Z" fill="#F99746"/>
<path d="M553.459 268.664C551.943 269.186 551.699 269.069 551.699 269.069C551.699 269.069 544.314 254.628 543.567 253.306C542.819 251.983 527.889 237.112 527.889 237.112L531.725 221.745C531.725 221.745 548.707 245.364 550.54 248.753C553.571 254.355 555.346 267.362 555.346 267.362C555.346 267.362 554.65 268.252 553.459 268.664Z" fill="#4662BC"/>
<path d="M514.24 243.146C514.294 246.302 514.463 249.849 514.694 253.452C514.709 253.666 514.722 253.88 514.737 254.094C514.885 256.325 515.044 258.564 515.228 260.747C515.301 261.621 515.38 262.486 515.461 263.335L515.474 263.45C515.48 263.767 515.517 264.112 515.549 264.428C516.299 272.599 517.082 279.056 517.228 279.155C517.402 279.28 517.599 279.342 517.813 279.314C519.809 279.045 525.761 279.53 530.636 278.392C534.748 277.46 538.29 275.693 542.042 273.312C542.542 272.995 543.677 272.157 543.585 271.532C543.495 270.844 543.325 269.85 543.113 268.598C542.374 264.25 541.098 256.774 540.663 248.023C540.58 246.392 540.455 244.781 540.295 243.199C539.877 239.076 539.207 235.158 538.307 231.68C536.637 225.218 534.18 220.267 531.1 218.33C530.698 218.089 528.532 219.568 526.543 220.939C524.705 222.204 522.771 222.554 520.891 222.377L519.235 224.344C517.23 226.847 515.095 230.18 514.512 234.917C514.467 235.267 514.431 235.639 514.399 236.035C514.234 237.967 514.193 240.41 514.24 243.146Z" fill="#6980E2"/>
<path d="M514.24 243.146C514.293 246.302 514.462 249.849 514.694 253.452C514.709 253.666 514.722 253.88 514.737 254.094C526.133 246.431 527.889 232.409 527.889 232.409C522.282 232.674 517.827 234.059 514.394 236.037C514.233 237.967 514.193 240.41 514.24 243.146Z" fill="#4662BC"/>
<path d="M485.442 249.184C485.324 247.369 486.2 247.065 486.2 247.065C486.2 247.065 503.386 243.72 504.846 243.226C506.307 242.731 518.798 228.774 518.798 228.774C518.798 228.774 523.587 222.974 527.506 224.256C530.914 225.369 532.244 228.224 532.698 230.943C533.237 234.182 531.847 237.444 529.235 239.165C523.37 243.028 511.629 250.64 508.864 251.512C502.711 253.449 486.177 251.668 486.177 251.668C486.177 251.668 485.534 250.61 485.442 249.184Z" fill="#6980E2"/>
<ellipse cx="39.454" cy="366.961" rx="39.454" ry="6.12878" fill="#B9B9B9" fill-opacity="0.59"/>
<path d="M49.5769 222.587C47.1508 218.736 45.1143 216.509 40.6222 216.067C38.9891 215.908 37.0313 216.454 35.1975 217.373C33.9146 218.015 32.7261 218.845 31.64 219.801L29.8396 221.388C27.5296 223.423 26.5045 227.151 26.111 231.495V231.497C26.0755 231.876 26.046 232.258 26.0204 232.647C25.804 234.4 25.0642 237.577 22.5338 237.927C19.0216 238.413 19.1141 240.754 19.2105 243.962C19.3049 247.17 20.7865 250.606 16.9201 254.005C13.0538 257.407 15.3854 258.763 15.7573 262.25C16.1272 265.736 13.6696 265.125 12.7389 269.621C11.8102 274.117 15.3854 277.872 11.4915 279.952C11.4915 279.952 17.5577 282.467 20.7 274.668C23.8403 266.87 30.3945 273.705 33.6549 266.423C33.9559 265.75 34.2235 264.929 34.4616 263.995C35.6973 259.16 37.659 254.563 40.272 250.368L43.5068 251.082L46.472 247.071C46.7947 246.54 49.3133 241.888 49.6733 241.386C52.9298 236.839 51.0527 224.933 49.5769 222.587Z" fill="#562E20"/>
<path d="M44.0994 239.136C44.0994 239.136 44.6543 230.383 45.2367 227.76L39.2708 232.729L38.2339 239.112C38.2339 239.112 44.4182 242.05 44.0994 239.136Z" fill="#FBC79C"/>
<path d="M44.4574 234.338C44.4574 234.338 41.0888 235.124 39.1428 233.509L39.3612 232.12L44.1937 232.268L44.4574 234.338Z" fill="#F9AA7A"/>
<path d="M34.1761 227.334C33.4698 225.48 33.2691 223.188 34.9376 221.027C37.9835 217.085 41.7948 218.124 44.3153 219.974L45.307 221.083C47.7331 224.542 49.4095 226.809 49.2265 231.787C49.0849 235.707 42.2749 234.746 37.9776 231.993C36.2736 230.9 34.9081 229.254 34.1761 227.334Z" fill="#FBC79C"/>
<path d="M40.817 217.119C38.1194 216.752 35.406 217.713 33.4856 219.73C29.4382 223.981 29.5681 228.254 29.9911 232.121L32.3188 236.705L39.2705 232.73C39.2705 232.73 38.2138 227.847 40.1165 226.736C42.0212 225.625 41.5234 221.911 41.5234 221.911C43.2667 222.647 45.8856 221.909 45.8856 221.909C45.315 219.365 43.2962 217.458 40.817 217.119Z" fill="#562E20"/>
<path d="M39.1976 230.224C39.1976 230.224 37.0706 227.672 36.6495 230.209C36.2265 232.748 40.3959 232.884 40.3959 232.884L39.1976 230.224Z" fill="#FBC79C"/>
<path d="M35.5573 262.001L32.8577 247.606L38.7901 245.332L35.5573 262.001Z" fill="#F5D7C3"/>
<path d="M45.4214 239.24L38.2337 239.112L36.7698 239.429V243.954L39.8472 249.363L46.7516 247.921L48.9002 242.483L45.4214 239.24Z" fill="#FBC79C"/>
<path d="M37.0982 257.063L35.5576 262.001L35.0676 272.46L49.6989 269.226L51.035 258.728L37.0982 257.063Z" fill="#E58B63"/>
<path d="M34.6077 352.094L41.2779 345.526L44.4655 347.004L38.3285 355.58L34.6077 352.094Z" fill="#F9AA7A"/>
<path d="M35.4672 350.616C35.4672 350.616 37.6749 353.143 39.5166 353.147C41.3012 353.149 39.3808 357.776 42.4661 361.651C42.7612 362.025 42.9048 362.521 42.8438 363.038C42.7691 363.678 42.3992 364.297 41.1045 363.781C39.186 363.013 33.8104 356.556 32.0848 354.439C31.768 354.052 31.8113 353.445 32.1832 353.029C33.11 351.999 34.7844 350.295 35.4672 350.616Z" fill="#226664"/>
<path d="M48.2955 267.374C48.2955 267.374 60.3551 293.825 61.8938 304.28C63.4325 314.735 43.4493 350.575 43.4493 350.575L40.2519 343.918C40.2519 343.918 51.3277 312.772 49.0196 306.337C46.7096 299.903 36.0588 278.131 36.0588 278.131L48.2955 267.374Z" fill="#287C7C"/>
<path d="M42.9007 307.794C44.1246 309.5 44.65 311.646 44.4335 313.767C43.5953 321.99 41.2342 348.889 45.1261 358.305C46.9245 362.653 53.9942 361.704 53.3607 363.241C52.7271 364.78 45.6967 364.447 43.2746 364.289C41.2853 364.157 40.0516 363.961 39.6994 362.371C38.997 359.202 41.0354 359.84 39.6974 355.044C38.3575 350.245 34.0936 323.543 38.2001 310.14C39.7604 305.041 41.5844 305.957 42.9007 307.794Z" fill="#FBC79C"/>
<path d="M47.0784 315.667L44.4595 348.126H37.7636C37.7636 348.126 34.2042 297.622 30.6113 289.06C27.0203 280.498 35.0679 269.72 35.0679 269.72L36.7562 269.79L44.9435 270.121L47.1512 308.151C47.3046 310.655 47.281 313.167 47.0784 315.667Z" fill="#287C7C"/>
<path d="M54.4864 253.785C54.4785 253.846 54.4726 253.908 54.4628 253.972C54.2955 255.141 53.8607 256.332 53.3294 257.427C53.052 258.003 52.747 258.554 52.442 259.058C51.3992 260.789 50.3583 262.001 50.3583 262.001C49.8034 262.838 47.9637 263.116 45.758 263.116C45.1874 263.116 44.5971 263.098 43.997 263.067C43.7116 263.05 43.4244 263.032 43.1371 263.011C39.3317 262.733 35.4791 262.001 35.4791 262.001L35.365 252.616L35.3374 250.468C36.2622 245.676 34.5622 242.122 33.8459 240.894C33.6669 240.587 33.5488 240.424 33.5488 240.424L35.0619 239.614L35.0678 239.61L35.121 239.603C35.1249 239.603 35.1269 239.603 35.1308 239.601L35.3394 239.566L35.3984 239.556L35.5263 239.536C35.5401 239.534 35.5519 239.529 35.5657 239.529L35.7762 239.494L36.0379 239.447L36.3921 239.389L38.0508 239.114C38.2908 239.34 38.5191 239.548 38.7394 239.739C44.0481 244.371 43.69 239.136 43.69 239.136L45.7599 239.122C46.6611 239.116 47.5013 239.626 47.9696 240.464C47.9716 240.472 47.9775 240.48 47.9834 240.488C47.9873 240.501 47.9952 240.509 48.0011 240.521C48.1998 240.881 48.434 241.295 48.6917 241.754L48.9318 242.18C50.2914 244.577 52.2197 247.91 53.8154 250.39C54.4687 251.404 54.6281 252.581 54.4864 253.785Z" fill="#F3B616"/>
<path d="M52.865 364.187C51.0036 365.097 42.8242 364.64 40.1679 364.463C39.6819 364.43 39.2942 363.975 39.2667 363.407C39.2549 363.107 39.2431 362.761 39.2411 362.397C39.2332 361.053 39.3434 359.49 39.8924 359.263C39.8924 359.263 39.914 359.263 39.9534 359.263C40.1088 359.265 40.5555 359.263 41.1222 359.21C42.1886 359.107 43.6761 358.811 44.4475 357.981C44.5911 357.827 44.7465 357.753 44.9099 357.745C45.4175 357.714 46.0412 358.304 46.8873 359.039C46.97 359.111 47.0546 359.185 47.1411 359.259C47.3694 359.453 47.6134 359.654 47.8751 359.854C47.9616 359.922 48.0522 359.988 48.1446 360.053C48.4693 360.29 48.8215 360.519 49.2013 360.728C49.3173 360.792 49.4393 360.856 49.5613 360.914C50.3622 361.309 51.281 361.603 52.3475 361.687C52.8099 361.722 53.2526 361.961 53.5635 362.366C53.9511 362.866 54.1184 363.574 52.865 364.187Z" fill="#287C7C"/>
<path d="M39.0071 348.126H37.5334C37.5334 348.126 34.2042 297.622 30.6113 289.06C27.0203 280.498 35.0679 269.72 35.0679 269.72L36.7562 269.79L36.4158 270.512C36.4158 270.512 31.5793 278.07 31.2232 282.963C30.869 287.852 32.6989 290.459 33.665 296.677C34.6331 302.898 36.097 315.603 36.4591 318.155C36.8191 320.706 39.0071 348.126 39.0071 348.126Z" fill="#226664"/>
<path d="M51.8833 260.611L49.6461 270.393C45.215 271.228 39.314 270.806 36.4157 270.512C35.3217 270.401 34.6547 270.311 34.6547 270.311L34.515 263.284L34.4363 259.448L51.8833 260.611Z" fill="#F3B616"/>
<path d="M36.4156 270.512C35.3216 270.401 34.6546 270.311 34.6546 270.311L34.5149 263.284L36.0595 263.117L36.4156 270.512Z" fill="#E29E05"/>
<path d="M56.5858 248.188C56.5858 248.188 61.3868 254.571 60.0921 257.929C57.5558 264.506 37.4348 261.917 37.366 261.979V258.047C37.366 258.047 52.9358 258.182 53.8764 255.915C54.8169 253.652 52.074 251.256 52.074 251.256L56.5858 248.188Z" fill="#FBC79C"/>
<path d="M38.2712 262.081L41.3801 257.999L42.5036 257.964C42.5036 257.964 42.2557 261.382 40.6698 262.25L38.2712 262.081Z" fill="#F9AA7A"/>
<path d="M44.0991 239.137C44.0991 239.137 48.3768 237.633 50.5156 239.113C52.6524 240.594 58.4687 250.271 58.4687 250.271L51.6411 252.658L44.0991 239.137Z" fill="#F3B616"/>
<path d="M30.5227 251.97C30.5227 251.97 31.3786 263.765 35.912 266.357C40.4435 268.948 44.6346 243.48 44.6346 243.48C44.6346 243.48 46.0021 243.571 46.1732 241.604C46.3444 239.639 46.0021 239.548 47.1157 239.548C48.2255 239.548 45.6597 235.528 43.2671 236.063C40.8724 236.6 41.1282 232.758 40.3589 232.667C39.5895 232.579 41.386 236.6 41.2994 238.388C41.2148 240.174 41.5572 241.871 41.5572 241.871L36.9391 256.437L36.0832 250.719L30.5227 251.97Z" fill="#FBC79C"/>
<path d="M36.3528 252.516L36.5594 253.911L30.8159 254.481L30.5227 252.238L36.3528 252.516Z" fill="#F9AA7A"/>
<path d="M37.3658 252.413L35.3647 252.617L30.5224 253.111L28.8086 253.288C28.8086 253.288 29.0703 248.522 29.6488 244.238C30.0876 240.967 33.4837 239.926 35.0617 239.615C35.0814 239.611 35.1011 239.609 35.1208 239.605C35.1247 239.605 35.1267 239.605 35.1306 239.602C35.2821 239.574 35.4159 239.551 35.5261 239.537C35.5399 239.535 35.5517 239.53 35.5654 239.53C35.7543 239.504 35.8645 239.495 35.8645 239.495C36.4115 239.36 36.8267 239.557 37.1395 239.991C38.9045 242.444 37.3658 252.413 37.3658 252.413Z" fill="#F3B616"/>
<path d="M51.0353 245.558C51.0353 245.558 54.5181 248.795 54.7483 252.657C54.9627 256.252 53.0207 256.606 53.0207 256.606L46.4724 254.377L51.0353 245.558Z" fill="#F3B616"/>
<path d="M54.6987 254.165C55.0076 248.974 51.2947 247.128 51.2573 247.109L51.3026 246.984C51.34 247.002 55.3303 248.751 54.6987 254.165Z" fill="#FBDF5C"/>
<path d="M41.5568 241.939C41.5233 241.939 41.4978 241.916 41.4919 241.883C41.4899 241.86 41.1416 239.618 41.2006 237.735C41.2302 236.846 40.8799 235.854 40.571 234.98C40.2129 233.967 39.904 233.095 40.209 232.556L40.2247 232.525L40.2581 232.523C40.3113 232.517 40.5926 232.556 40.9999 233.739L41.0295 233.834C41.4191 234.963 41.7831 236.031 42.759 236.046C43.001 236.05 43.2017 236.023 43.3926 235.998C44.0301 235.916 44.5338 235.852 45.9249 236.926C45.9682 236.963 46.9422 237.797 47.2865 238.673C47.4459 239.074 47.4695 239.321 47.3672 239.478C47.2314 239.683 46.895 239.692 46.468 239.679C46.4345 239.677 46.405 239.649 46.407 239.609C46.409 239.574 46.4365 239.544 46.4719 239.546C46.9146 239.556 47.1724 239.537 47.2609 239.402C47.3357 239.288 47.3062 239.074 47.1685 238.723C46.8359 237.879 45.8561 237.039 45.8462 237.031C44.4984 235.992 44.0183 236.054 43.4083 236.132C43.2116 236.157 43.0089 236.183 42.759 236.179C41.6926 236.163 41.3128 235.054 40.9114 233.879L40.878 233.784C40.5848 232.928 40.3723 232.72 40.2936 232.671C40.0634 233.161 40.3546 233.986 40.691 234.932C41.0039 235.819 41.36 236.823 41.3305 237.739C41.2695 239.609 41.6158 241.838 41.6198 241.86C41.6237 241.898 41.602 241.93 41.5666 241.939C41.5627 241.939 41.5588 241.939 41.5568 241.939Z" fill="#CC7C5C"/>
<path d="M44.14 284.477C44.1183 284.42 44.0554 284.393 44.0003 284.416C43.9472 284.438 43.9196 284.504 43.9413 284.562C45.9482 289.761 46.6113 300.696 46.6172 300.805C46.6212 300.864 46.6684 300.91 46.7235 300.91H46.7314C46.7904 300.906 46.8356 300.852 46.8317 300.79C46.8238 300.681 46.1627 289.714 44.14 284.477Z" fill="#FBDF5C"/>
<path d="M33.5211 276.954C33.3047 276.954 33.0804 276.942 32.8462 276.917C32.7872 276.911 32.7439 276.855 32.7498 276.794C32.7577 276.732 32.8088 276.687 32.8679 276.693C34.2905 276.841 35.3904 276.52 36.142 275.738C37.4662 274.359 37.2616 271.987 37.2576 271.964C37.2537 271.903 37.295 271.847 37.3541 271.841C37.4151 271.835 37.4662 271.88 37.4721 271.942C37.482 272.043 37.6886 274.444 36.2935 275.896C35.6206 276.598 34.6879 276.954 33.5211 276.954Z" fill="#FBDF5C"/>
<path d="M47.1408 359.259C46.9086 359.477 46.6804 359.667 46.3537 359.807C46.2986 359.829 46.2435 359.852 46.1904 359.872C45.7083 360.058 45.2007 360.144 44.6911 360.185C44.4845 360.202 44.4864 359.864 44.6911 359.848C45.1141 359.813 45.5352 359.743 45.9386 359.609C45.9976 359.588 46.0566 359.566 46.1137 359.543C46.4305 359.422 46.6607 359.245 46.887 359.039C46.9696 359.111 47.0542 359.185 47.1408 359.259Z" fill="#FBDF5C"/>
<path d="M48.1442 360.055C47.8845 360.318 47.5382 360.507 47.1702 360.641C46.8023 360.775 46.4206 360.853 46.09 360.888C45.8814 360.911 45.8854 360.573 46.09 360.55C46.3124 360.526 46.5662 360.481 46.822 360.406C47.2076 360.295 47.5972 360.118 47.8747 359.855C47.9612 359.923 48.0517 359.989 48.1442 360.055Z" fill="#FBDF5C"/>
<path d="M38.7392 239.739C38.3044 239.795 37.7475 239.877 37.1395 239.99C36.081 240.188 34.863 240.478 33.8457 240.894C33.0095 241.235 32.307 241.659 31.9352 242.186C30.5126 244.206 30.5224 253.11 30.5224 253.11L28.8086 253.287C28.8086 253.287 29.0703 248.521 29.6488 244.237C30.0876 240.966 33.4837 239.924 35.0617 239.614L35.0676 239.61L35.1208 239.603C35.1247 239.603 35.1267 239.603 35.1306 239.601C35.2821 239.573 35.4159 239.55 35.5261 239.536C35.5399 239.534 35.5517 239.529 35.5654 239.529L35.776 239.494L36.0377 239.447L36.3918 239.389L38.0506 239.114C38.2906 239.34 38.5189 239.548 38.7392 239.739Z" fill="#E29E05"/>
<path fill-rule="evenodd" clip-rule="evenodd" d="M396.455 14.5558C400.475 14.5558 403.733 11.2974 403.733 7.27792C403.733 3.25844 400.475 0 396.455 0C392.436 0 389.177 3.25844 389.177 7.27792C389.177 11.2974 392.436 14.5558 396.455 14.5558ZM399.309 8.30712L398.567 9.00982C395.699 8.67102 395.272 5.93238 395.272 5.93238L396.014 5.22969C396.113 5.13536 396.181 5.01542 396.208 4.88487C396.236 4.75432 396.222 4.61893 396.169 4.49562L395.808 3.63921C395.756 3.51362 395.664 3.40588 395.546 3.32985C395.428 3.25382 395.289 3.21297 395.146 3.21257H393.546C393.445 3.21198 393.344 3.23175 393.251 3.27057C393.159 3.30938 393.075 3.36638 393.008 3.43779C392.94 3.50921 392.889 3.59343 392.857 3.68492C392.826 3.77641 392.816 3.87309 392.827 3.9686C393.069 5.91356 394.348 10.9956 400.684 11.3689C400.781 11.3735 400.878 11.3596 400.969 11.3279C401.06 11.2961 401.143 11.2473 401.214 11.1843C401.284 11.1213 401.34 11.0454 401.379 10.9612C401.418 10.877 401.438 10.7863 401.439 10.6944V9.12589C401.438 8.99087 401.394 8.85924 401.314 8.74759C401.234 8.63594 401.121 8.54926 400.989 8.49848L400.084 8.15654C399.954 8.10788 399.811 8.09621 399.673 8.12294C399.536 8.14967 399.409 8.21365 399.309 8.30712Z" fill="#0348CB"/>
<defs>
<filter id="filter0_dd_142_881" x="395.96" y="12.8271" width="37.374" height="37.3584" filterUnits="userSpaceOnUse" color-interpolation-filters="sRGB">
<feFlood flood-opacity="0" result="BackgroundImageFix"/>
<feColorMatrix in="SourceAlpha" type="matrix" values="0 0 0 0 0 0 0 0 0 0 0 0 0 0 0 0 0 0 127 0" result="hardAlpha"/>
<feOffset dy="6"/>
<feGaussianBlur stdDeviation="6"/>
<feComposite in2="hardAlpha" operator="out"/>
<feColorMatrix type="matrix" values="0 0 0 0 1 0 0 0 0 1 0 0 0 0 1 0 0 0 0.5 0"/>
<feBlend mode="normal" in2="BackgroundImageFix" result="effect1_dropShadow_142_881"/>
<feColorMatrix in="SourceAlpha" type="matrix" values="0 0 0 0 0 0 0 0 0 0 0 0 0 0 0 0 0 0 127 0" result="hardAlpha"/>
<feOffset dy="6"/>
<feGaussianBlur stdDeviation="7"/>
<feComposite in2="hardAlpha" operator="out"/>
<feColorMatrix type="matrix" values="0 0 0 0 0 0 0 0 0 0 0 0 0 0 0 0 0 0 0.29 0"/>
<feBlend mode="normal" in2="effect1_dropShadow_142_881" result="effect2_dropShadow_142_881"/>
<feBlend mode="normal" in="SourceGraphic" in2="effect2_dropShadow_142_881" result="shape"/>
</filter>
<filter id="filter1_dd_142_881" x="399.645" y="11.5635" width="21.7578" height="21.7612" filterUnits="userSpaceOnUse" color-interpolation-filters="sRGB">
<feFlood flood-opacity="0" result="BackgroundImageFix"/>
<feColorMatrix in="SourceAlpha" type="matrix" values="0 0 0 0 0 0 0 0 0 0 0 0 0 0 0 0 0 0 127 0" result="hardAlpha"/>
<feOffset dy="4"/>
<feGaussianBlur stdDeviation="5"/>
<feComposite in2="hardAlpha" operator="out"/>
<feColorMatrix type="matrix" values="0 0 0 0 1 0 0 0 0 1 0 0 0 0 1 0 0 0 0.5 0"/>
<feBlend mode="normal" in2="BackgroundImageFix" result="effect1_dropShadow_142_881"/>
<feColorMatrix in="SourceAlpha" type="matrix" values="0 0 0 0 0 0 0 0 0 0 0 0 0 0 0 0 0 0 127 0" result="hardAlpha"/>
<feOffset dy="4"/>
<feGaussianBlur stdDeviation="5"/>
<feComposite in2="hardAlpha" operator="out"/>
<feColorMatrix type="matrix" values="0 0 0 0 0 0 0 0 0 0 0 0 0 0 0 0 0 0 0.35 0"/>
<feBlend mode="normal" in2="effect1_dropShadow_142_881" result="effect2_dropShadow_142_881"/>
<feBlend mode="normal" in="SourceGraphic" in2="effect2_dropShadow_142_881" result="shape"/>
</filter>
<clipPath id="clip0_142_881">
<rect x="77.3757" y="131.769" width="22.9829" height="22.9829" rx="11.4915" fill="white"/>
</clipPath>
<clipPath id="clip1_142_881">
<rect x="157.816" y="216.806" width="37.5388" height="37.5388" rx="18.7694" fill="white"/>
</clipPath>
</defs>
</svg>
