<svg width="582" height="487" viewBox="0 0 582 487" fill="none" xmlns="http://www.w3.org/2000/svg">
<path d="M152.464 361.429C153.091 361.727 153.642 362.1 154.18 362.501C154.715 362.902 155.208 363.347 155.667 363.82C156.592 364.759 157.377 365.817 158.014 366.945C159.292 369.199 159.973 371.71 160.203 374.221C160.244 374.536 160.254 374.852 160.272 375.167C160.285 375.482 160.306 375.797 160.299 376.112L160.292 377.058L160.241 378L160.213 378.473L160.162 378.942L160.056 379.881C159.949 380.501 159.878 381.125 159.744 381.741C159.617 382.358 159.49 382.975 159.326 383.581L159.09 384.496L158.846 385.38L157.863 388.905C156.561 393.605 155.311 398.299 154.324 403.023C153.365 407.741 152.704 412.513 152.854 417.224C152.889 418.402 152.978 419.574 153.146 420.729C153.31 421.886 153.536 423.034 153.865 424.151C154.194 425.268 154.595 426.364 155.109 427.413C155.681 428.598 156.126 429.828 156.472 431.047C157.13 433.497 157.517 435.943 157.815 438.382C158.103 440.822 158.326 443.251 158.504 445.68C158.877 450.527 159.196 455.361 159.98 460.13C160.08 460.726 160.182 461.319 160.309 461.912C160.419 462.505 160.563 463.09 160.7 463.68C160.827 464.272 161.008 464.848 161.159 465.434C161.244 465.725 161.34 466.009 161.433 466.297C161.525 466.585 161.611 466.876 161.728 467.157L162.05 468.007C162.159 468.291 162.293 468.562 162.416 468.843C162.649 469.404 162.957 469.935 163.235 470.48C163.858 471.535 164.592 472.546 165.486 473.444L165.267 473.635C164.276 472.779 163.43 471.792 162.694 470.747C161.991 469.685 161.378 468.572 160.881 467.424C159.857 465.132 159.182 462.741 158.63 460.339C157.527 455.533 157 450.664 156.407 445.841C156.106 443.429 155.835 441.02 155.465 438.639C155.098 436.258 154.636 433.898 153.951 431.637C153.587 430.513 153.183 429.43 152.656 428.392C152.056 427.224 151.583 426.011 151.196 424.785C150.806 423.558 150.535 422.311 150.333 421.064C150.124 419.817 150.007 418.563 149.946 417.313C149.713 412.304 150.408 407.374 151.343 402.537C152.299 397.696 153.594 392.941 155.037 388.24C155.403 387.065 155.77 385.893 156.147 384.725L156.434 383.848L156.695 382.995C156.88 382.426 157.02 381.854 157.174 381.279C157.335 380.707 157.438 380.128 157.572 379.552L157.723 378.682C157.777 378.391 157.822 378.103 157.856 377.812C158.038 376.647 158.082 375.479 158.093 374.31C158.096 373.142 157.99 371.974 157.767 370.826C157.538 369.678 157.226 368.541 156.76 367.445C156.52 366.9 156.26 366.362 155.955 365.841C155.664 365.314 155.324 364.807 154.958 364.313C154.221 363.337 153.348 362.405 152.31 361.669L152.464 361.429Z" fill="#DCE5FE"/>
<path d="M111.527 434.519C112.099 438.339 112.915 442.125 113.912 445.859C114.412 447.726 114.963 449.58 115.577 451.419C115.72 451.882 115.892 452.334 116.049 452.793C116.203 453.252 116.375 453.704 116.546 454.16C116.872 455.071 117.238 455.972 117.594 456.873C117.978 457.764 118.352 458.662 118.773 459.539C119.164 460.429 119.609 461.296 120.041 462.17C120.945 463.9 121.901 465.606 122.963 467.264C124.022 468.922 125.19 470.519 126.433 472.074C127.704 473.613 129.085 475.075 130.548 476.497L130.342 476.699C128.647 475.48 127.088 474.102 125.652 472.629C124.241 471.136 122.949 469.553 121.771 467.905C120.633 466.236 119.557 464.53 118.629 462.759C118.177 461.872 117.711 460.988 117.303 460.08C116.878 459.179 116.508 458.264 116.125 457.35C115.768 456.428 115.402 455.51 115.083 454.578C114.915 454.115 114.761 453.65 114.614 453.18C114.467 452.711 114.306 452.245 114.172 451.776C113.593 449.898 113.113 448 112.702 446.092C111.894 442.275 111.325 438.418 111.229 434.533L111.527 434.519Z" fill="#DCE5FE"/>
<path d="M211.216 370.846L203.171 470.478H296.511L284.354 370.846H211.216Z" fill="url(#paint0_linear_142_655)"/>
<path d="M0 143.381V354.775C0 372.166 13.858 386.387 31.2412 386.836C108.452 388.826 379.275 392.904 452.776 391.821C467.983 382.907 465.361 382.907 469.556 372.419C467.595 325.321 475.962 204.252 470.434 147.619C468.639 136.073 458.896 127.44 447.217 127.066C382.524 124.997 96.2521 118.426 22.786 120.074C10.1168 120.358 0 130.708 0 143.381Z" fill="url(#paint1_linear_142_655)"/>
<path d="M10.1987 142.827V357.15C10.1987 367.987 18.3795 376.812 28.5684 376.977L439.959 382.38C450.062 382.541 458.342 373.898 458.38 363.157L459.068 150.75C459.096 143.069 453.339 136.777 446.118 136.59L24.9336 127.538C16.8561 127.33 10.1987 134.236 10.1987 142.827Z" fill="url(#paint2_linear_142_655)"/>
<path d="M462.866 375.126C462.862 375.126 462.859 375.126 462.856 375.126L13.251 367.466C12.905 367.459 12.6275 367.175 12.6309 366.825C12.6377 366.483 12.9187 366.205 13.2613 366.205C13.2647 366.205 13.2681 366.205 13.2715 366.205L462.876 373.865C463.222 373.872 463.5 374.157 463.496 374.506C463.489 374.852 463.208 375.126 462.866 375.126Z" fill="#BDD0FB"/>
<path d="M335.115 482.015H160.368C155.62 482.015 152.057 479.548 152.975 476.901L155.219 470.429C155.894 468.485 158.826 467.055 162.31 466.975L330.774 463.141C334.416 463.058 337.64 464.468 338.431 466.49L342.473 476.796C343.518 479.475 339.938 482.015 335.115 482.015Z" fill="url(#paint3_linear_142_655)"/>
<path d="M48.3475 311.306H71.7017V355.894H48.3475V311.306Z" fill="#91B3FA"/>
<path d="M107.597 278.53H130.947V355.894H107.597V278.53Z" fill="#91B3FA"/>
<path d="M166.844 297.926H190.194V355.892H166.844V297.926Z" fill="#91B3FA"/>
<path d="M226.088 250.447H249.442V355.898H226.088V250.447Z" fill="#91B3FA"/>
<path d="M285.338 273.181H308.692V355.894H285.338V273.181Z" fill="#91B3FA"/>
<path d="M344.587 222.354H367.941V355.894H344.587V222.354Z" fill="#91B3FA"/>
<path d="M403.833 184.897H427.183V355.892H403.833V184.897Z" fill="#91B3FA"/>
<path d="M69.2975 277.092C69.9081 277.573 70.451 278.098 70.9302 278.666C71.4094 279.231 71.8123 279.833 72.1431 280.462C72.4696 281.091 72.7198 281.744 72.8894 282.413C73.0548 283.083 73.1396 283.759 73.1396 284.442C73.1396 285.121 73.0548 285.797 72.8894 286.467C72.7198 287.136 72.4696 287.788 72.1431 288.417C71.8123 289.046 71.4094 289.649 70.9302 290.214C70.451 290.782 69.9081 291.307 69.2975 291.791C68.691 292.272 68.0252 292.703 67.3128 293.083C66.5961 293.463 65.837 293.782 65.0439 294.041C64.2467 294.304 63.4282 294.502 62.5843 294.633C61.7361 294.768 60.8837 294.835 60.0228 294.835C59.1619 294.835 58.3095 294.768 57.4656 294.633C56.6217 294.502 55.799 294.304 55.0059 294.041C54.2087 293.782 53.4538 293.463 52.7371 293.083C52.0204 292.703 51.3588 292.272 50.7481 291.791C50.1375 291.307 49.5946 290.782 49.1154 290.214C48.6405 289.649 48.2333 289.05 47.9068 288.417C47.576 287.788 47.3258 287.136 47.1604 286.467C46.9908 285.797 46.906 285.124 46.906 284.442C46.906 283.759 46.9908 283.083 47.1604 282.413C47.3258 281.744 47.576 281.095 47.9068 280.462C48.2333 279.833 48.6405 279.235 49.1154 278.666C49.5946 278.098 50.1375 277.573 50.7481 277.092C51.3588 276.608 52.0204 276.177 52.7371 275.797C53.4538 275.42 54.2087 275.097 55.0017 274.838C55.799 274.576 56.6174 274.377 57.4656 274.246C58.3095 274.112 59.1619 274.048 60.0228 274.048C60.8837 274.048 61.7361 274.112 62.5843 274.246C63.4282 274.377 64.2467 274.576 65.0439 274.838C65.837 275.097 66.5961 275.42 67.3128 275.797C68.0252 276.177 68.691 276.608 69.2975 277.092Z" fill="#91B3FA"/>
<path d="M128.546 244.126C129.156 244.607 129.699 245.131 130.178 245.7C130.657 246.268 131.06 246.867 131.391 247.496C131.718 248.128 131.968 248.778 132.137 249.447C132.303 250.116 132.388 250.792 132.388 251.475C132.388 252.158 132.303 252.834 132.137 253.504C131.968 254.173 131.718 254.822 131.391 255.451C131.06 256.083 130.657 256.682 130.178 257.251C129.699 257.816 129.156 258.341 128.546 258.825C127.939 259.306 127.273 259.736 126.557 260.117C125.844 260.497 125.085 260.816 124.292 261.079C123.495 261.338 122.676 261.536 121.828 261.667C120.984 261.802 120.132 261.869 119.271 261.869C118.41 261.869 117.558 261.802 116.714 261.667C115.865 261.536 115.047 261.338 114.25 261.079C113.457 260.816 112.702 260.497 111.985 260.117C111.268 259.736 110.607 259.306 109.996 258.825C109.386 258.341 108.843 257.816 108.363 257.251C107.884 256.682 107.481 256.083 107.151 255.451C106.824 254.822 106.574 254.173 106.404 253.504C106.239 252.834 106.154 252.158 106.154 251.475C106.154 250.792 106.239 250.116 106.404 249.447C106.574 248.778 106.824 248.128 107.151 247.496C107.481 246.867 107.884 246.268 108.363 245.7C108.843 245.131 109.386 244.607 109.996 244.126C110.603 243.641 111.268 243.211 111.985 242.834C112.698 242.454 113.457 242.134 114.25 241.872C115.047 241.61 115.865 241.415 116.714 241.28C117.558 241.149 118.41 241.082 119.271 241.082C120.132 241.082 120.984 241.149 121.828 241.28C122.676 241.415 123.495 241.61 124.292 241.872C125.085 242.134 125.84 242.454 126.557 242.834C127.273 243.211 127.935 243.641 128.546 244.126Z" fill="#91B3FA"/>
<path d="M187.794 262.85C188.4 263.334 188.943 263.859 189.423 264.424C189.902 264.992 190.305 265.591 190.635 266.224C190.966 266.853 191.216 267.502 191.382 268.171C191.551 268.84 191.636 269.517 191.636 270.199C191.636 270.882 191.551 271.558 191.382 272.228C191.216 272.897 190.966 273.546 190.635 274.179C190.305 274.808 189.902 275.406 189.423 275.975C188.948 276.543 188.4 277.068 187.794 277.549C187.183 278.033 186.522 278.464 185.805 278.841C185.088 279.221 184.334 279.54 183.536 279.803C182.743 280.065 181.921 280.26 181.077 280.395C180.233 280.526 179.38 280.593 178.519 280.593C177.659 280.593 176.802 280.526 175.958 280.395C175.114 280.26 174.296 280.065 173.498 279.803C172.701 279.54 171.946 279.221 171.229 278.841C170.513 278.464 169.851 278.033 169.24 277.549C168.634 277.068 168.091 276.543 167.612 275.975C167.133 275.406 166.73 274.808 166.399 274.179C166.068 273.546 165.822 272.897 165.653 272.228C165.483 271.558 165.403 270.882 165.403 270.199C165.403 269.517 165.483 268.84 165.653 268.171C165.822 267.502 166.068 266.853 166.399 266.224C166.73 265.591 167.133 264.992 167.612 264.424C168.091 263.859 168.634 263.334 169.24 262.85C169.851 262.369 170.513 261.938 171.229 261.558C171.946 261.178 172.701 260.858 173.498 260.596C174.291 260.337 175.114 260.139 175.958 260.004C176.802 259.873 177.654 259.806 178.519 259.806C179.38 259.806 180.233 259.873 181.077 260.004C181.921 260.139 182.743 260.337 183.536 260.596C184.334 260.858 185.088 261.178 185.805 261.558C186.522 261.938 187.183 262.369 187.794 262.85Z" fill="#91B3FA"/>
<path d="M247.042 216.034C247.649 216.515 248.191 217.04 248.671 217.609C249.15 218.177 249.553 218.776 249.883 219.405C250.214 220.037 250.464 220.686 250.63 221.356C250.799 222.025 250.884 222.701 250.884 223.384C250.884 224.067 250.799 224.743 250.63 225.412C250.464 226.082 250.214 226.731 249.883 227.36C249.553 227.992 249.15 228.591 248.671 229.159C248.196 229.724 247.649 230.249 247.042 230.734C246.431 231.215 245.77 231.645 245.053 232.025C244.336 232.405 243.582 232.725 242.784 232.987C241.991 233.246 241.169 233.445 240.325 233.579C239.481 233.71 238.628 233.778 237.767 233.778C236.907 233.778 236.05 233.71 235.206 233.579C234.362 233.445 233.544 233.246 232.746 232.987C231.949 232.725 231.194 232.405 230.477 232.025C229.761 231.645 229.099 231.215 228.489 230.734C227.882 230.249 227.339 229.724 226.86 229.159C226.381 228.591 225.978 227.992 225.647 227.36C225.316 226.731 225.07 226.082 224.901 225.412C224.731 224.743 224.651 224.067 224.651 223.384C224.651 222.701 224.731 222.025 224.901 221.356C225.07 220.686 225.316 220.037 225.647 219.405C225.978 218.776 226.381 218.177 226.86 217.609C227.339 217.043 227.882 216.515 228.489 216.034C229.099 215.55 229.761 215.119 230.477 214.743C231.194 214.363 231.949 214.043 232.746 213.781C233.539 213.518 234.362 213.323 235.206 213.189C236.05 213.058 236.902 212.99 237.767 212.99C238.628 212.99 239.481 213.058 240.325 213.189C241.169 213.323 241.991 213.518 242.784 213.781C243.582 214.043 244.336 214.363 245.053 214.743C245.77 215.119 246.431 215.55 247.042 216.034Z" fill="#91B3FA"/>
<path d="M300.045 236.025C300.88 236.179 301.694 236.401 302.475 236.684C303.259 236.966 304.001 237.309 304.701 237.706C305.397 238.107 306.041 238.557 306.626 239.055C307.216 239.556 307.733 240.095 308.187 240.676C308.641 241.255 309.018 241.867 309.319 242.506C309.62 243.145 309.837 243.801 309.977 244.474C310.117 245.15 310.168 245.826 310.138 246.509C310.108 247.192 309.994 247.865 309.794 248.527C309.595 249.193 309.319 249.836 308.963 250.455C308.603 251.077 308.174 251.662 307.67 252.217C307.165 252.772 306.597 253.28 305.969 253.744C305.337 254.212 304.659 254.622 303.925 254.982C303.191 255.339 302.424 255.638 301.614 255.877C300.808 256.116 299.981 256.291 299.129 256.398C298.281 256.509 297.424 256.55 296.563 256.526C295.702 256.503 294.854 256.412 294.014 256.254C293.175 256.099 292.365 255.877 291.58 255.594C290.8 255.312 290.058 254.969 289.358 254.572C288.658 254.171 288.018 253.724 287.428 253.223C286.843 252.725 286.321 252.184 285.872 251.605C285.418 251.023 285.041 250.414 284.74 249.772C284.439 249.133 284.218 248.477 284.082 247.804C283.942 247.131 283.891 246.452 283.921 245.769C283.951 245.09 284.065 244.414 284.265 243.751C284.46 243.088 284.74 242.446 285.096 241.823C285.452 241.201 285.885 240.616 286.389 240.061C286.894 239.509 287.458 238.998 288.09 238.534C288.717 238.07 289.4 237.656 290.134 237.299C290.868 236.939 291.635 236.64 292.441 236.401C293.251 236.162 294.078 235.988 294.93 235.88C295.778 235.769 296.635 235.729 297.496 235.752C298.357 235.776 299.205 235.866 300.045 236.025Z" fill="#91B3FA"/>
<path d="M358.369 185.029C359.217 185.14 360.049 185.312 360.854 185.55C361.66 185.789 362.432 186.089 363.161 186.449C363.895 186.808 364.578 187.219 365.205 187.683C365.837 188.151 366.406 188.658 366.906 189.213C367.411 189.765 367.843 190.354 368.199 190.973C368.556 191.595 368.836 192.237 369.035 192.903C369.23 193.566 369.344 194.239 369.374 194.922C369.404 195.604 369.353 196.28 369.213 196.953C369.077 197.629 368.857 198.285 368.556 198.924C368.255 199.563 367.877 200.172 367.423 200.754C366.97 201.336 366.452 201.874 365.863 202.375C365.278 202.873 364.633 203.324 363.937 203.721C363.238 204.121 362.496 204.461 361.711 204.747C360.931 205.029 360.116 205.248 359.281 205.406C358.441 205.561 357.593 205.652 356.732 205.675C355.871 205.702 355.015 205.658 354.167 205.551C353.314 205.44 352.487 205.265 351.681 205.026C350.871 204.787 350.104 204.491 349.37 204.131C348.637 203.771 347.958 203.361 347.326 202.893C346.694 202.429 346.13 201.921 345.626 201.366C345.121 200.811 344.693 200.226 344.332 199.604C343.976 198.985 343.7 198.342 343.501 197.676C343.302 197.014 343.187 196.341 343.157 195.658C343.128 194.975 343.183 194.299 343.319 193.623C343.459 192.95 343.675 192.295 343.976 191.655C344.277 191.016 344.654 190.404 345.108 189.826C345.562 189.244 346.084 188.706 346.669 188.204C347.254 187.707 347.899 187.256 348.598 186.859C349.294 186.459 350.036 186.116 350.821 185.833C351.605 185.55 352.415 185.332 353.255 185.174C354.09 185.016 354.943 184.925 355.804 184.901C356.664 184.878 357.517 184.921 358.369 185.029Z" fill="#91B3FA"/>
<path d="M58.1823 282.009L117.401 248.376L121.663 253.085L62.4443 286.722L58.1823 282.009Z" fill="#91B3FA"/>
<path d="M120.878 247.808L184.953 269.578L182.069 274.906L117.994 253.133L120.878 247.808Z" fill="#91B3FA"/>
<path d="M176.39 269.38L230.286 223.984L235.617 227.953L181.721 273.352L176.39 269.38Z" fill="#91B3FA"/>
<path d="M243.675 221.68L299.866 244.627L296.516 249.78L240.325 226.833L243.675 221.68Z" fill="#91B3FA"/>
<path d="M294.85 243.843L352.957 193.832L358.339 197.757L300.231 247.772L294.85 243.843Z" fill="#91B3FA"/>
<path d="M351.765 194.988L415.513 149.501L420.407 153.807L356.659 199.297L351.765 194.988Z" fill="#91B3FA"/>
<path d="M265.551 413.045C282.88 413.045 296.929 398.997 296.929 381.667C296.929 364.337 282.88 350.289 265.551 350.289C248.221 350.289 234.172 364.337 234.172 381.667C234.172 398.997 248.221 413.045 265.551 413.045Z" fill="url(#paint4_linear_142_655)"/>
<path d="M265.552 412.005C282.306 412.005 295.888 398.423 295.888 381.668C295.888 364.914 282.306 351.332 265.552 351.332C248.797 351.332 235.215 364.914 235.215 381.668C235.215 398.423 248.797 412.005 265.552 412.005Z" fill="url(#paint5_linear_142_655)"/>
<path opacity="0.65" d="M240.534 369.4C240.483 369.4 240.431 369.389 240.384 369.365C240.219 369.283 240.154 369.081 240.236 368.917C245.087 359.303 254.786 353.332 265.547 353.332C267.264 353.332 268.983 353.486 270.659 353.791C270.84 353.825 270.96 353.997 270.926 354.178C270.892 354.36 270.717 354.483 270.539 354.445C268.905 354.147 267.222 353.997 265.547 353.997C255.04 353.997 245.57 359.828 240.829 369.215C240.774 369.335 240.658 369.4 240.534 369.4Z" fill="white"/>
<path opacity="0.65" d="M276.054 406.051C289.154 400.624 295.375 385.605 289.949 372.505C284.522 359.405 269.503 353.184 256.403 358.61C243.303 364.037 237.082 379.055 242.508 392.156C247.935 405.256 262.954 411.477 276.054 406.051Z" fill="white"/>
<path d="M263.69 401.418V398.626C260.778 398.51 257.897 397.821 255.852 396.927C255.122 396.608 254.749 395.786 254.958 395.019L255.667 392.418C255.927 391.463 256.965 390.969 257.876 391.353C259.905 392.203 262.412 392.877 265.112 392.877C267.918 392.877 270.008 391.925 270.008 389.979C270.008 388.222 268.391 387.173 264.492 386.128C258.932 384.607 254.937 382.182 254.937 377.286C254.937 372.863 258.171 369.488 263.779 368.587V365.795C263.779 364.898 264.509 364.168 265.407 364.168H267.048C267.945 364.168 268.675 364.898 268.675 365.795V368.303C271.368 368.409 273.331 368.872 274.886 369.42C275.684 369.701 276.12 370.561 275.897 371.376L275.243 373.781C274.992 374.71 273.999 375.217 273.101 374.877C271.669 374.336 269.641 373.771 267.007 373.771C263.68 373.771 262.728 375.148 262.728 376.385C262.728 377.906 264.725 378.951 269.048 380.284C275.229 382.137 277.795 384.703 277.795 389.314C277.795 393.546 274.657 397.348 268.572 398.301V401.425C268.572 402.323 267.843 403.053 266.945 403.053H265.304C264.42 403.046 263.69 402.316 263.69 401.418Z" fill="url(#paint6_linear_142_655)"/>
<path d="M340.003 362.702C354.694 362.702 366.602 350.793 366.602 336.103C366.602 321.412 354.694 309.503 340.003 309.503C325.313 309.503 313.404 321.412 313.404 336.103C313.404 350.793 325.313 362.702 340.003 362.702Z" fill="url(#paint7_linear_142_655)"/>
<path d="M340.004 361.815C354.204 361.815 365.715 350.304 365.715 336.103C365.715 321.903 354.204 310.392 340.004 310.392C325.804 310.392 314.292 321.903 314.292 336.103C314.292 350.304 325.804 361.815 340.004 361.815Z" fill="url(#paint8_linear_142_655)"/>
<path opacity="0.65" d="M318.8 325.701C318.759 325.701 318.715 325.691 318.674 325.67C318.533 325.598 318.478 325.43 318.55 325.29C322.665 317.143 330.884 312.08 340.007 312.08C341.463 312.08 342.919 312.21 344.341 312.47C344.495 312.498 344.598 312.645 344.567 312.799C344.539 312.953 344.392 313.056 344.238 313.025C342.85 312.772 341.429 312.645 340.007 312.645C331.099 312.645 323.072 317.588 319.057 325.544C319.002 325.646 318.903 325.701 318.8 325.701Z" fill="white"/>
<path opacity="0.65" d="M344.697 358.05C356.499 355.777 364.224 344.367 361.952 332.565C359.679 320.763 348.269 313.037 336.467 315.31C324.664 317.583 316.939 328.993 319.212 340.795C321.485 352.598 332.895 360.323 344.697 358.05Z" fill="white"/>
<path d="M338.427 352.844V350.476C335.96 350.377 333.518 349.795 331.784 349.037C331.164 348.767 330.849 348.071 331.027 347.42L331.63 345.214C331.849 344.405 332.73 343.988 333.504 344.31C335.224 345.029 337.348 345.601 339.636 345.601C342.014 345.601 343.785 344.796 343.785 343.145C343.785 341.654 342.415 340.767 339.112 339.88C334.398 338.592 331.013 336.536 331.013 332.384C331.013 328.636 333.754 325.775 338.509 325.011V322.644C338.509 321.883 339.126 321.263 339.89 321.263H341.281C342.041 321.263 342.662 321.88 342.662 322.644V324.771C344.947 324.864 346.608 325.254 347.927 325.717C348.602 325.953 348.972 326.683 348.784 327.375L348.232 329.414C348.02 330.202 347.177 330.63 346.416 330.342C345.2 329.883 343.484 329.403 341.25 329.403C338.43 329.403 337.622 330.571 337.622 331.62C337.622 332.908 339.314 333.795 342.98 334.922C348.218 336.495 350.394 338.67 350.394 342.579C350.394 346.166 347.735 349.39 342.576 350.195V352.844C342.576 353.604 341.959 354.224 341.195 354.224H339.804C339.044 354.221 338.427 353.604 338.427 352.844Z" fill="url(#paint9_linear_142_655)"/>
<path d="M216.048 370.184C226.461 370.184 234.901 361.743 234.901 351.331C234.901 340.918 226.461 332.478 216.048 332.478C205.636 332.478 197.195 340.918 197.195 351.331C197.195 361.743 205.636 370.184 216.048 370.184Z" fill="url(#paint10_linear_142_655)"/>
<path d="M216.048 369.558C226.114 369.558 234.274 361.397 234.274 351.332C234.274 341.266 226.114 333.105 216.048 333.105C205.982 333.105 197.822 341.266 197.822 351.332C197.822 361.397 205.982 369.558 216.048 369.558Z" fill="url(#paint11_linear_142_655)"/>
<path opacity="0.65" d="M201.019 343.958C200.988 343.958 200.958 343.951 200.93 343.937C200.831 343.886 200.793 343.766 200.841 343.666C203.757 337.89 209.584 334.303 216.049 334.303C217.08 334.303 218.115 334.396 219.122 334.581C219.232 334.601 219.303 334.704 219.283 334.814C219.262 334.923 219.16 334.995 219.05 334.975C218.067 334.797 217.059 334.704 216.049 334.704C209.735 334.704 204.044 338.209 201.197 343.848C201.163 343.916 201.095 343.958 201.019 343.958Z" fill="white"/>
<path opacity="0.65" d="M216.446 367.155C224.966 367.155 231.873 360.248 231.873 351.728C231.873 343.208 224.966 336.301 216.446 336.301C207.925 336.301 201.019 343.208 201.019 351.728C201.019 360.248 207.925 367.155 216.446 367.155Z" fill="white"/>
<path d="M214.935 363.193V361.514C213.184 361.446 211.454 361.031 210.224 360.493C209.785 360.301 209.563 359.808 209.686 359.345L210.111 357.783C210.269 357.211 210.892 356.913 211.44 357.143C212.66 357.653 214.164 358.057 215.788 358.057C217.473 358.057 218.731 357.485 218.731 356.313C218.731 355.258 217.761 354.628 215.418 354.001C212.077 353.086 209.676 351.63 209.676 348.687C209.676 346.032 211.618 344.004 214.989 343.459V341.781C214.989 341.239 215.428 340.804 215.966 340.804H216.953C217.494 340.804 217.929 341.243 217.929 341.781V343.288C219.549 343.353 220.728 343.631 221.663 343.959C222.143 344.127 222.403 344.645 222.273 345.135L221.882 346.58C221.732 347.139 221.136 347.444 220.594 347.238C219.734 346.913 218.515 346.573 216.932 346.573C214.931 346.573 214.363 347.403 214.363 348.146C214.363 349.061 215.562 349.688 218.162 350.489C221.876 351.603 223.417 353.144 223.417 355.916C223.417 358.458 221.533 360.743 217.878 361.315V363.193C217.878 363.734 217.439 364.169 216.901 364.169H215.914C215.37 364.173 214.935 363.734 214.935 363.193Z" fill="url(#paint12_linear_142_655)"/>
<path d="M330.531 416.404C339.989 416.404 347.657 408.736 347.657 399.277C347.657 389.819 339.989 382.151 330.531 382.151C321.072 382.151 313.404 389.819 313.404 399.277C313.404 408.736 321.072 416.404 330.531 416.404Z" fill="url(#paint13_linear_142_655)"/>
<path d="M330.531 415.832C339.673 415.832 347.085 408.42 347.085 399.277C347.085 390.135 339.673 382.723 330.531 382.723C321.388 382.723 313.977 390.135 313.977 399.277C313.977 408.42 321.388 415.832 330.531 415.832Z" fill="url(#paint14_linear_142_655)"/>
<path opacity="0.65" d="M316.878 392.583C316.85 392.583 316.823 392.577 316.796 392.563C316.706 392.518 316.669 392.409 316.717 392.32C319.365 387.074 324.658 383.813 330.53 383.813C331.469 383.813 332.408 383.899 333.319 384.063C333.418 384.08 333.483 384.176 333.466 384.275C333.449 384.375 333.353 384.44 333.254 384.423C332.363 384.262 331.445 384.176 330.53 384.176C324.795 384.176 319.629 387.359 317.042 392.481C317.008 392.546 316.946 392.583 316.878 392.583Z" fill="white"/>
<path opacity="0.65" d="M344.53 402.903C346.308 395.372 341.645 387.825 334.113 386.047C326.582 384.269 319.035 388.932 317.257 396.463C315.478 403.995 320.142 411.542 327.673 413.32C335.205 415.098 342.751 410.435 344.53 402.903Z" fill="white"/>
<path d="M329.516 410.055V408.531C327.926 408.466 326.354 408.092 325.237 407.602C324.839 407.427 324.634 406.979 324.75 406.561L325.137 405.142C325.278 404.622 325.846 404.351 326.343 404.56C327.45 405.026 328.817 405.392 330.293 405.392C331.825 405.392 332.966 404.875 332.966 403.81C332.966 402.85 332.085 402.278 329.958 401.71C326.922 400.88 324.743 399.555 324.743 396.882C324.743 394.471 326.508 392.627 329.57 392.134V390.609C329.57 390.12 329.968 389.722 330.458 389.722H331.352C331.842 389.722 332.239 390.12 332.239 390.609V391.98C333.709 392.038 334.781 392.292 335.631 392.59C336.066 392.744 336.302 393.21 336.183 393.655L335.826 394.967C335.689 395.474 335.148 395.752 334.658 395.567C333.877 395.272 332.77 394.964 331.331 394.964C329.516 394.964 328.995 395.718 328.995 396.389C328.995 397.218 330.084 397.79 332.445 398.517C335.816 399.527 337.217 400.928 337.217 403.447C337.217 405.756 335.504 407.832 332.184 408.349V410.055C332.184 410.545 331.787 410.942 331.297 410.942H330.403C329.913 410.942 329.516 410.545 329.516 410.055Z" fill="url(#paint15_linear_142_655)"/>
<path d="M578.042 482.675L483.236 299.818C482.705 298.79 483.105 297.523 484.133 296.992C485.161 296.461 486.429 296.862 486.96 297.889L581.766 480.743C582.297 481.771 581.896 483.038 580.868 483.569C580.57 483.723 580.238 483.806 579.906 483.806C579.118 483.806 578.405 483.374 578.042 482.675Z" fill="#7D97F4"/>
<path d="M533.004 484.072L451.97 297.882C451.507 296.82 451.994 295.583 453.056 295.121C454.114 294.658 455.355 295.148 455.817 296.207L536.851 482.397C537.074 482.911 537.084 483.479 536.879 484.004C536.673 484.524 536.279 484.935 535.765 485.158C535.498 485.275 535.217 485.333 534.929 485.333C534.09 485.333 533.336 484.836 533.004 484.072Z" fill="#7D97F4"/>
<path d="M469.202 333.324H502.071C502.794 333.324 503.383 332.738 503.383 332.012C503.383 331.289 502.797 330.7 502.071 330.7H469.202C468.479 330.7 467.89 331.286 467.89 332.012C467.894 332.735 468.479 333.324 469.202 333.324Z" fill="#7D97F4"/>
<path d="M477.986 353.685H510.855C511.578 353.685 512.167 353.099 512.167 352.373C512.167 351.65 511.581 351.061 510.855 351.061H477.986C477.264 351.061 476.674 351.646 476.674 352.373C476.674 353.099 477.264 353.685 477.986 353.685Z" fill="#7D97F4"/>
<path d="M489.569 378.065H524.531C525.254 378.065 525.843 377.479 525.843 376.753C525.843 376.03 525.257 375.441 524.531 375.441H489.569C488.846 375.441 488.257 376.027 488.257 376.753C488.26 377.479 488.846 378.065 489.569 378.065Z" fill="#7D97F4"/>
<path d="M460.469 313.573H491.827C492.55 313.573 493.139 312.988 493.139 312.261C493.139 311.538 492.553 310.949 491.827 310.949H460.469C459.746 310.949 459.157 311.535 459.157 312.261C459.157 312.984 459.746 313.573 460.469 313.573Z" fill="#7D97F4"/>
<path d="M501.105 406.119H539.092C539.814 406.119 540.404 405.534 540.404 404.807C540.404 404.081 539.818 403.495 539.092 403.495H501.105C500.382 403.495 499.792 404.081 499.792 404.807C499.792 405.534 500.382 406.119 501.105 406.119Z" fill="#7D97F4"/>
<path d="M510.032 427.88H550.777C551.5 427.88 552.089 427.294 552.089 426.567C552.089 425.845 551.503 425.255 550.777 425.255H510.032C509.309 425.255 508.72 425.841 508.72 426.567C508.72 427.294 509.306 427.88 510.032 427.88Z" fill="#7D97F4"/>
<path d="M518.043 401.425C522.24 397.772 531.254 394.847 531.254 394.847L536.677 394.967C538.054 396.515 538.675 399.516 538.942 401.397C537.921 402.01 536.006 402.545 532.498 402.713C526.002 403.021 520.757 402.072 518.043 401.425Z" fill="url(#paint16_linear_142_655)"/>
<path d="M518.043 401.425C520.757 402.073 526.002 403.022 532.497 402.714C536.006 402.546 537.921 402.011 538.942 401.398C538.962 401.549 538.983 401.696 539 401.83C539.096 402.6 538.62 403.327 537.876 403.553C532.922 405.071 522.024 404.584 517.773 404.32C516.865 404.265 516.389 403.197 516.971 402.498C517.279 402.135 517.639 401.778 518.043 401.425Z" fill="url(#paint17_linear_142_655)"/>
<path d="M536.239 390.281V394.594C536.239 395.423 535.66 396.139 534.848 396.317C534.008 396.499 532.891 396.615 531.809 396.348C531.131 396.18 530.637 395.598 530.555 394.906L530.01 390.284H536.239V390.281Z" fill="url(#paint18_linear_142_655)"/>
<path d="M508.81 368.179C510.492 364.434 510.013 362.749 513.343 363.122C513.744 363.167 514.076 363.245 514.357 363.345C514.566 363.965 514.579 364.647 514.353 365.298C513.511 367.72 511.75 371.862 508.522 375.939C507.844 376.795 506.806 377.292 505.713 377.309L502.041 377.371C505.521 374.585 507.412 371.29 508.81 368.179Z" fill="url(#paint19_linear_142_655)"/>
<path d="M501.804 371.813C504.623 369.83 505.675 361.724 505.675 361.724L510.019 359.511L513.295 361.885C513.802 362.262 514.158 362.776 514.353 363.344C514.072 363.245 513.74 363.166 513.339 363.122C510.009 362.748 510.489 364.434 508.807 368.178C507.409 371.286 505.521 374.585 502.037 377.367L499.512 377.408C498.378 377.428 497.724 376.13 498.409 375.229C499.276 374.098 500.454 372.766 501.804 371.813Z" fill="url(#paint20_linear_142_655)"/>
<path d="M507.4 355.43L510.024 359.51C510.357 360.027 510.244 360.709 509.761 361.086C508.921 361.747 507.462 362.487 505.68 361.72L501.466 358.832L507.4 355.43Z" fill="url(#paint21_linear_142_655)"/>
<path d="M527.088 312.362C527.088 312.362 528.469 316.251 530.47 329.913C532.47 343.576 533.789 353.508 534.879 358.928C535.876 363.882 537.452 381.724 537.359 389.528C537.345 390.577 536.482 391.413 535.434 391.378L530.271 391.217C529.473 391.193 528.805 390.611 528.671 389.826C527.304 381.793 517.862 340.339 512.168 328.413C512.168 328.413 497.019 332.695 493.243 334.419C493.243 334.419 498.125 336.375 508.132 355.132C508.132 355.132 503.812 358.565 500.749 359.281C500.749 359.281 478.851 341.12 476.538 339.218C474.226 337.317 472.119 334.042 478.022 328.077C483.925 322.113 502.044 312.705 502.044 312.705L527.088 312.362Z" fill="url(#paint22_linear_142_655)"/>
<path d="M513.004 328.837C513.042 328.837 513.079 328.83 513.117 328.813L518.52 326.73C520.842 325.624 522.35 323.246 522.364 320.673C522.364 320.529 522.247 320.409 522.103 320.409C521.935 320.409 521.839 320.526 521.839 320.67C521.826 323.044 520.435 325.236 518.294 326.257L512.891 328.34C512.761 328.402 512.706 328.56 512.767 328.69C512.812 328.782 512.908 328.837 513.004 328.837Z" fill="url(#paint23_linear_142_655)"/>
<path d="M478.101 311.212C478.101 311.212 472.41 306.905 469.82 307.714C467.23 308.522 465.322 310.948 465.322 310.948H471.043C471.043 310.948 472.407 313.569 471.043 313.569H469.022C469.025 313.572 474.366 319.167 478.101 311.212Z" fill="url(#paint24_linear_142_655)"/>
<path d="M487.735 270.598C487.735 270.598 481.058 296.998 472.013 307.615C472.013 307.615 474.463 310.407 478.101 311.216C478.101 311.216 491.983 299.047 496.214 290.591C500.442 282.133 487.735 270.598 487.735 270.598Z" fill="url(#paint25_linear_142_655)"/>
<path d="M496.659 245.464L503.292 257.599H492.825C492.825 257.599 491.982 252.052 489.231 248.712L496.659 245.464Z" fill="url(#paint26_linear_142_655)"/>
<path d="M486.606 231.015C486.606 231.015 483.283 238.648 483.061 242.656C482.838 246.664 481.975 249.265 486.606 250.07C491.238 250.878 495.144 248.569 497.258 244.578C497.258 244.578 500.571 238.428 499.827 235.91C499.084 233.392 486.606 231.015 486.606 231.015Z" fill="url(#paint27_linear_142_655)"/>
<path d="M495.675 241.711H495.089C495.089 241.711 497.501 236.76 495.381 235.89C493.26 235.02 484.86 233.307 483.047 230.326C481.3 227.452 482.859 223.741 485.188 222.703C485.336 222.638 485.51 222.707 485.586 222.851L485.778 223.217C485.911 223.467 486.278 223.43 486.357 223.159C486.432 222.902 486.778 222.844 486.922 223.073C487.477 223.964 488.977 225.413 493.006 226.157C498.724 227.212 502.503 229.524 502.596 233.478C502.602 233.728 502.87 233.865 503.082 233.735C503.504 233.478 504.178 233.358 505.083 234.115C506.652 235.434 506.011 238.86 502.568 241.676C502.404 241.81 502.407 242.067 502.582 242.18C503.205 242.588 504.134 243.554 501.725 244.842C499.259 246.161 497.803 246.017 497.251 245.877C497.104 245.839 497.005 245.705 497.011 245.551L497.227 242.05C497.237 241.868 497.094 241.717 496.912 241.717H495.675V241.711Z" fill="url(#paint28_linear_142_655)"/>
<path d="M495.532 242.441C495.532 242.441 496.799 237.566 498.985 238.933C501.171 240.3 497.851 244.397 496.094 244.579L495.532 242.441Z" fill="url(#paint29_linear_142_655)"/>
<path d="M504.765 256.647C504.765 256.647 501.805 251.786 482.462 252.978C472.407 253.598 449.792 244.834 444.756 240.425C444.756 240.425 441.474 240.405 438.449 243.57C438.449 243.57 459.337 265.613 483.692 268.432C483.692 268.432 502.175 306.522 502.045 312.703C502.045 312.703 513.015 320.065 527.9 314.796C527.9 314.796 528.356 304.21 522.549 289.584C515.002 270.598 504.765 256.647 504.765 256.647Z" fill="url(#paint30_linear_142_655)"/>
<path d="M495.994 269.79C496.127 269.79 496.244 269.688 496.254 269.55C496.264 269.407 496.158 269.28 496.014 269.266C495.922 269.259 486.634 268.502 485.188 268.341C485.044 268.327 484.914 268.427 484.897 268.571C484.88 268.715 484.983 268.845 485.126 268.862C486.582 269.026 495.877 269.78 495.97 269.79C495.98 269.79 495.987 269.79 495.994 269.79Z" fill="url(#paint31_linear_142_655)"/>
<path d="M438.829 242.5C438.657 243.117 440.915 243.967 442.131 241.421C442.135 240.222 442.672 235.073 441.922 234.127C437.928 229.078 430.312 222.842 430.312 222.842C429.109 224.117 430.181 225.288 430.181 225.288L433.895 228.886C433.196 230.266 432.326 231.441 431.956 233.093C431.679 234.343 431.925 235.662 432.59 236.765C433.258 237.875 434.169 239.314 435.022 240.438C436.643 242.565 438.829 242.5 438.829 242.5Z" fill="url(#paint32_linear_142_655)"/>
<path d="M238.306 101.66C260.368 101.66 278.253 83.7751 278.253 61.7132C278.253 39.6513 260.368 21.7666 238.306 21.7666C216.245 21.7666 198.36 39.6513 198.36 61.7132C198.36 83.7751 216.245 101.66 238.306 101.66Z" fill="url(#paint33_linear_142_655)"/>
<path d="M238.306 100.333C259.634 100.333 276.924 83.0432 276.924 61.7155C276.924 40.3877 259.634 23.0981 238.306 23.0981C216.979 23.0981 199.689 40.3877 199.689 61.7155C199.689 83.0432 216.979 100.333 238.306 100.333Z" fill="url(#paint34_linear_142_655)"/>
<path d="M202.707 60.2311C202.7 60.2311 202.693 60.2311 202.686 60.2311C202.46 60.2208 202.289 60.0256 202.299 59.8029C202.378 58.2852 202.556 56.7606 202.823 55.2738C202.865 55.0511 203.074 54.9038 203.296 54.9449C203.519 54.986 203.666 55.1984 203.625 55.4177C203.361 56.8703 203.19 58.3605 203.115 59.844C203.104 60.0598 202.923 60.2311 202.707 60.2311Z" fill="#BDD0FB"/>
<path d="M206.461 46.0793C206.399 46.0793 206.338 46.0656 206.276 46.0348C206.074 45.932 205.995 45.6888 206.095 45.4866C212.268 33.256 224.612 25.6572 238.302 25.6572C240.484 25.6572 242.673 25.8525 244.808 26.2431C245.031 26.2842 245.178 26.4966 245.137 26.7158C245.096 26.9385 244.883 27.0858 244.66 27.0447C242.578 26.6645 240.436 26.4726 238.302 26.4726C224.92 26.4726 212.857 33.9001 206.821 45.8566C206.756 45.9971 206.612 46.0793 206.461 46.0793Z" fill="#BDD0FB"/>
<path d="M262.257 85.6686C275.022 72.9037 275.022 52.2076 262.257 39.4427C249.492 26.6777 228.796 26.6777 216.031 39.4427C203.266 52.2076 203.266 72.9037 216.031 85.6686C228.796 98.4336 249.492 98.4336 262.257 85.6686Z" fill="#91B3FA"/>
<path d="M248.733 49.6263C248.733 55.3511 244.091 61.5349 238.366 61.5349C232.642 61.5349 228 55.3545 228 49.6263C228 43.8981 232.642 39.8384 238.366 39.8384C244.091 39.8384 248.733 43.9016 248.733 49.6263Z" fill="url(#paint35_linear_142_655)"/>
<path d="M225.498 83.5778H250.805C253.471 83.5778 255.828 81.8546 256.64 79.3194L258.003 75.0644C259 71.9467 257.38 68.5722 254.307 67.4485C244.008 63.6833 233.357 64.1664 222.449 67.7945C219.393 68.812 217.697 72.0803 218.54 75.1877L219.588 79.0522C220.311 81.7244 222.733 83.5778 225.498 83.5778Z" fill="url(#paint36_linear_142_655)"/>
<path d="M335.294 116.079C349.37 116.079 360.78 104.668 360.78 90.5931C360.78 76.5177 349.37 65.1074 335.294 65.1074C321.219 65.1074 309.809 76.5177 309.809 90.5931C309.809 104.668 321.219 116.079 335.294 116.079Z" fill="url(#paint37_linear_142_655)"/>
<path d="M335.294 115.233C348.902 115.233 359.933 104.202 359.933 90.594C359.933 76.986 348.902 65.9546 335.294 65.9546C321.686 65.9546 310.654 76.986 310.654 90.594C310.654 104.202 321.686 115.233 335.294 115.233Z" fill="url(#paint38_linear_142_655)"/>
<path d="M312.58 89.6449C312.577 89.6449 312.57 89.6449 312.566 89.6449C312.422 89.638 312.313 89.5147 312.32 89.3708C312.371 88.4012 312.484 87.4317 312.655 86.4827C312.679 86.3422 312.816 86.2463 312.957 86.2737C313.097 86.3011 313.193 86.4347 313.166 86.5752C312.998 87.5036 312.888 88.4526 312.84 89.3982C312.834 89.5387 312.717 89.6449 312.58 89.6449Z" fill="#BDD0FB"/>
<path d="M314.975 80.6192C314.937 80.6192 314.896 80.6089 314.858 80.5918C314.732 80.5267 314.68 80.3691 314.742 80.2424C318.682 72.438 326.555 67.5903 335.291 67.5903C336.685 67.5903 338.079 67.7171 339.44 67.9638C339.58 67.9877 339.676 68.1248 339.649 68.2652C339.625 68.4057 339.487 68.5016 339.347 68.4742C338.018 68.231 336.654 68.1077 335.291 68.1077C326.753 68.1077 319.055 72.8457 315.204 80.4753C315.163 80.5678 315.071 80.6192 314.975 80.6192Z" fill="#BDD0FB"/>
<path d="M350.572 105.88C358.715 97.7366 358.715 84.5329 350.572 76.3891C342.428 68.2453 329.224 68.2453 321.08 76.3891C312.936 84.5329 312.936 97.7366 321.08 105.88C329.224 114.024 342.428 114.024 350.572 105.88Z" fill="#91B3FA"/>
<path d="M341.942 82.8876C341.942 86.5397 338.982 90.4829 335.327 90.4829C331.671 90.4829 328.711 86.5397 328.711 82.8876C328.711 79.2355 331.671 76.6421 335.327 76.6421C338.982 76.6421 341.942 79.2321 341.942 82.8876Z" fill="url(#paint39_linear_142_655)"/>
<path d="M327.119 104.55H343.266C344.965 104.55 346.469 103.45 346.99 101.833L347.86 99.1165C348.497 97.1295 347.462 94.9746 345.499 94.2585C338.928 91.8569 332.131 92.1653 325.173 94.4812C323.224 95.1287 322.141 97.2151 322.679 99.1988L323.347 101.665C323.81 103.368 325.355 104.55 327.119 104.55Z" fill="url(#paint40_linear_142_655)"/>
<path d="M141.326 112.854C155.402 112.854 166.812 101.443 166.812 87.368C166.812 73.2926 155.402 61.8823 141.326 61.8823C127.251 61.8823 115.841 73.2926 115.841 87.368C115.841 101.443 127.251 112.854 141.326 112.854Z" fill="url(#paint41_linear_142_655)"/>
<path d="M141.325 112.008C154.933 112.008 165.965 100.977 165.965 87.3689C165.965 73.7609 154.933 62.7295 141.325 62.7295C127.717 62.7295 116.686 73.7609 116.686 87.3689C116.686 100.977 127.717 112.008 141.325 112.008Z" fill="url(#paint42_linear_142_655)"/>
<path d="M118.612 86.4222C118.608 86.4222 118.601 86.4222 118.598 86.4222C118.454 86.4154 118.345 86.292 118.351 86.1481C118.403 85.1786 118.516 84.209 118.687 83.26C118.711 83.1196 118.848 83.0237 118.989 83.0511C119.129 83.0785 119.225 83.2121 119.198 83.3526C119.03 84.281 118.92 85.23 118.872 86.1755C118.865 86.3126 118.749 86.4222 118.612 86.4222Z" fill="#BDD0FB"/>
<path d="M121.007 77.3936C120.965 77.3936 120.928 77.3834 120.89 77.3662C120.763 77.3011 120.712 77.1435 120.774 77.0168C124.713 69.2125 132.586 64.3647 141.322 64.3647C142.717 64.3647 144.111 64.4915 145.471 64.7382C145.612 64.7622 145.708 64.8992 145.68 65.0397C145.653 65.1801 145.519 65.2761 145.379 65.2486C144.05 65.0054 142.686 64.8821 141.322 64.8821C132.785 64.8821 125.087 69.6202 121.236 77.2498C121.195 77.3388 121.102 77.3936 121.007 77.3936Z" fill="#BDD0FB"/>
<path d="M141.864 108.76C153.381 108.76 162.718 99.4232 162.718 87.906C162.718 76.3888 153.381 67.0522 141.864 67.0522C130.347 67.0522 121.01 76.3888 121.01 87.906C121.01 99.4232 130.347 108.76 141.864 108.76Z" fill="#91B3FA"/>
<path d="M147.977 79.6566C147.977 83.3087 145.017 87.252 141.361 87.252C137.709 87.252 134.746 83.3087 134.746 79.6566C134.746 76.0046 137.706 73.4111 141.361 73.4111C145.013 73.4111 147.977 76.0046 147.977 79.6566Z" fill="url(#paint43_linear_142_655)"/>
<path d="M133.153 101.32H149.299C150.999 101.32 152.503 100.22 153.023 98.6028L153.893 95.8861C154.531 93.899 153.496 91.7441 151.533 91.0281C144.962 88.6265 138.168 88.9348 131.207 91.2508C129.257 91.8983 128.175 93.9847 128.713 95.9683L129.381 98.435C129.843 100.138 131.388 101.32 133.153 101.32Z" fill="url(#paint44_linear_142_655)"/>
<path d="M160.024 51.795C174.099 51.795 185.509 40.3847 185.509 26.3094C185.509 12.234 174.099 0.82373 160.024 0.82373C145.948 0.82373 134.538 12.234 134.538 26.3094C134.538 40.3847 145.948 51.795 160.024 51.795Z" fill="url(#paint45_linear_142_655)"/>
<path d="M160.023 50.9498C173.631 50.9498 184.663 39.9183 184.663 26.3103C184.663 12.7023 173.631 1.6709 160.023 1.6709C146.415 1.6709 135.384 12.7023 135.384 26.3103C135.384 39.9183 146.415 50.9498 160.023 50.9498Z" fill="url(#paint46_linear_142_655)"/>
<path d="M137.309 25.3636C137.306 25.3636 137.299 25.3636 137.295 25.3636C137.151 25.3568 137.042 25.2334 137.049 25.0895C137.1 24.12 137.213 23.1504 137.384 22.2015C137.408 22.061 137.545 21.9651 137.686 21.9925C137.826 22.0165 137.922 22.1535 137.895 22.294C137.727 23.2224 137.617 24.1714 137.569 25.1169C137.563 25.2574 137.446 25.3636 137.309 25.3636Z" fill="#BDD0FB"/>
<path d="M139.708 16.335C139.667 16.335 139.629 16.3248 139.592 16.3076C139.465 16.2425 139.414 16.0849 139.475 15.9582C143.415 8.15387 151.288 3.30615 160.024 3.30615C161.418 3.30615 162.813 3.43291 164.173 3.67958C164.313 3.70356 164.409 3.8406 164.382 3.98106C164.358 4.12153 164.221 4.21745 164.08 4.19005C162.751 3.9468 161.388 3.82347 160.024 3.82347C151.487 3.82347 143.789 8.56156 139.938 16.1911C139.893 16.2802 139.801 16.335 139.708 16.335Z" fill="#BDD0FB"/>
<path d="M181.158 30.1126C182.968 18.7382 175.215 8.04974 163.841 6.23924C152.466 4.42873 141.778 12.1818 139.967 23.5562C138.157 34.9306 145.91 45.6191 157.284 47.4296C168.659 49.2401 179.347 41.487 181.158 30.1126Z" fill="#91B3FA"/>
<path d="M166.671 18.5995C166.671 22.2516 163.711 26.1948 160.055 26.1948C156.4 26.1948 153.44 22.2516 153.44 18.5995C153.44 14.9474 156.4 12.354 160.055 12.354C163.711 12.354 166.671 14.9474 166.671 18.5995Z" fill="url(#paint47_linear_142_655)"/>
<path d="M151.848 40.262H167.994C169.693 40.262 171.197 39.1623 171.718 37.5452L172.588 34.8284C173.226 32.8414 172.191 30.6865 170.228 29.9704C163.657 27.5689 156.863 27.8772 149.902 30.1931C147.952 30.8406 146.87 32.927 147.408 34.9107L148.076 37.3774C148.538 39.0801 150.083 40.262 151.848 40.262Z" fill="url(#paint48_linear_142_655)"/>
<path d="M316.595 54.4381C330.67 54.4381 342.081 43.0278 342.081 28.9524C342.081 14.8771 330.67 3.4668 316.595 3.4668C302.52 3.4668 291.109 14.8771 291.109 28.9524C291.109 43.0278 302.52 54.4381 316.595 54.4381Z" fill="url(#paint49_linear_142_655)"/>
<path d="M316.594 53.5928C330.202 53.5928 341.234 42.5614 341.234 28.9534C341.234 15.3454 330.202 4.31396 316.594 4.31396C302.987 4.31396 291.955 15.3454 291.955 28.9534C291.955 42.5614 302.987 53.5928 316.594 53.5928Z" fill="url(#paint50_linear_142_655)"/>
<path d="M293.88 28.0042C293.877 28.0042 293.87 28.0042 293.867 28.0042C293.723 27.9974 293.613 27.874 293.62 27.7302C293.671 26.7606 293.784 25.7911 293.956 24.8421C293.98 24.7016 294.117 24.6057 294.257 24.6331C294.398 24.6571 294.494 24.7941 294.466 24.9346C294.298 25.863 294.189 26.812 294.141 27.7576C294.134 27.898 294.017 28.0042 293.88 28.0042Z" fill="#BDD0FB"/>
<path d="M296.276 18.9757C296.238 18.9757 296.197 18.9654 296.159 18.9483C296.032 18.8832 295.981 18.7256 296.043 18.5988C299.982 10.7945 307.855 5.94678 316.591 5.94678C317.986 5.94678 319.38 6.07354 320.74 6.3202C320.881 6.34419 320.977 6.48123 320.949 6.62169C320.925 6.76215 320.788 6.85808 320.648 6.83067C319.319 6.58743 317.955 6.4641 316.591 6.4641C308.054 6.4641 300.356 11.2022 296.505 18.8318C296.464 18.9243 296.372 18.9757 296.276 18.9757Z" fill="#BDD0FB"/>
<path d="M331.871 44.2369C340.015 36.0931 340.015 22.8893 331.871 14.7455C323.727 6.6017 310.523 6.6017 302.379 14.7455C294.236 22.8893 294.236 36.0931 302.379 44.2369C310.523 52.3807 323.727 52.3807 331.871 44.2369Z" fill="#91B3FA"/>
<path d="M323.247 21.2392C323.247 24.8912 320.287 28.8345 316.632 28.8345C312.976 28.8345 310.016 24.8912 310.016 21.2392C310.016 17.5871 312.976 14.9937 316.632 14.9937C320.287 14.9937 323.247 17.5837 323.247 21.2392Z" fill="url(#paint51_linear_142_655)"/>
<path d="M308.423 42.8992H324.57C326.269 42.8992 327.773 41.7995 328.294 40.1824L329.164 37.4657C329.801 35.4786 328.767 33.3237 326.804 32.6077C320.233 30.2061 313.439 30.5144 306.477 32.8303C304.528 33.4778 303.445 35.5643 303.983 37.5479L304.651 40.0146C305.114 41.7173 306.659 42.8992 308.423 42.8992Z" fill="url(#paint52_linear_142_655)"/>
<path d="M303.21 278.843C262.196 278.843 221.185 278.843 180.171 278.843C156.083 224.559 131.995 169.542 107.911 115.257C197.097 115.257 286.284 115.257 375.471 115.257C351.383 169.542 327.295 224.559 303.21 278.843Z" fill="url(#paint53_linear_142_655)"/>
<path d="M383.93 117.693C383.93 119.587 382.537 121.126 380.822 121.126H102.452C100.736 121.126 99.3438 119.587 99.3438 117.693V112.088C99.3438 110.194 100.736 108.655 102.452 108.655H380.822C382.537 108.655 383.93 110.194 383.93 112.088V117.693Z" fill="url(#paint54_linear_142_655)"/>
<path d="M294.374 343.03C259.25 343.03 224.126 343.03 189.005 343.03C185.95 322.125 182.898 300.483 179.843 278.841C221.074 278.841 262.305 278.841 303.536 278.841C300.484 300.483 297.429 322.121 294.374 343.03Z" fill="url(#paint55_linear_142_655)"/>
<path d="M297.59 343.488C297.59 345.845 296.204 347.798 294.65 347.798H187.919C186.369 347.798 185.348 345.848 185.348 343.488V340.86C185.348 338.503 186.366 336.427 187.919 336.427H294.65C296.2 336.427 297.59 338.503 297.59 340.86V343.488Z" fill="url(#paint56_linear_142_655)"/>
<path d="M401.156 74.8972C417.852 74.8972 431.387 61.3625 431.387 44.6666C431.387 27.9707 417.852 14.436 401.156 14.436C384.46 14.436 370.926 27.9707 370.926 44.6666C370.926 61.3625 384.46 74.8972 401.156 74.8972Z" fill="url(#paint57_linear_142_655)"/>
<path d="M401.156 73.8916C417.298 73.8916 430.383 60.8063 430.383 44.6648C430.383 28.5233 417.298 15.438 401.156 15.438C385.014 15.438 371.929 28.5233 371.929 44.6648C371.929 60.8063 385.014 73.8916 401.156 73.8916Z" fill="url(#paint58_linear_142_655)"/>
<path d="M374.214 43.5437C374.207 43.5437 374.204 43.5437 374.197 43.5437C374.026 43.5334 373.896 43.3895 373.906 43.2182C373.968 42.0705 374.098 40.916 374.303 39.7923C374.334 39.6244 374.492 39.5113 374.663 39.5422C374.831 39.573 374.941 39.734 374.913 39.9019C374.714 41.0016 374.584 42.1288 374.526 43.2525C374.512 43.4135 374.375 43.5437 374.214 43.5437Z" fill="#BDD0FB"/>
<path d="M377.054 32.8319C377.006 32.8319 376.958 32.8216 376.913 32.7977C376.763 32.7223 376.701 32.5339 376.776 32.3831C381.449 23.1262 390.788 17.374 401.152 17.374C402.803 17.374 404.461 17.5213 406.075 17.816C406.243 17.8468 406.353 18.0078 406.325 18.1757C406.294 18.3436 406.133 18.4566 405.965 18.4224C404.389 18.1346 402.769 17.9907 401.152 17.9907C391.025 17.9907 381.895 23.6127 377.328 32.6606C377.276 32.7702 377.167 32.8319 377.054 32.8319Z" fill="#BDD0FB"/>
<path d="M419.28 62.7955C428.941 53.1345 428.941 37.471 419.28 27.81C409.619 18.1489 393.956 18.1489 384.295 27.8099C374.634 37.471 374.634 53.1345 384.295 62.7955C393.956 72.4565 409.619 72.4565 419.28 62.7955Z" fill="#91B3FA"/>
<path d="M409.041 35.5168C409.041 39.8506 405.53 44.527 401.196 44.527C396.862 44.527 393.351 39.8506 393.351 35.5168C393.351 31.1829 396.862 28.1099 401.196 28.1099C405.53 28.1064 409.041 31.1829 409.041 35.5168Z" fill="url(#paint59_linear_142_655)"/>
<path d="M391.46 61.2114H410.615C412.633 61.2114 414.418 59.9096 415.031 57.9876L416.062 54.7672C416.816 52.4101 415.589 49.8544 413.263 49.0048C405.469 46.1544 397.408 46.5209 389.151 49.2685C386.839 50.0394 385.554 52.5129 386.191 54.8665L386.986 57.7923C387.534 59.8068 389.367 61.2114 391.46 61.2114Z" fill="url(#paint60_linear_142_655)"/>
<path d="M75.4659 78.5779C92.1618 78.5779 105.697 65.0432 105.697 48.3473C105.697 31.6514 92.1618 18.1167 75.4659 18.1167C58.77 18.1167 45.2354 31.6514 45.2354 48.3473C45.2354 65.0432 58.77 78.5779 75.4659 78.5779Z" fill="url(#paint61_linear_142_655)"/>
<path d="M75.467 77.5722C91.6085 77.5722 104.694 64.4869 104.694 48.3454C104.694 32.2039 91.6085 19.1187 75.467 19.1187C59.3255 19.1187 46.2402 32.2039 46.2402 48.3454C46.2402 64.4869 59.3255 77.5722 75.467 77.5722Z" fill="url(#paint62_linear_142_655)"/>
<path d="M48.5252 47.2248C48.5183 47.2248 48.5149 47.2248 48.5081 47.2248C48.3368 47.2146 48.2066 47.0707 48.2169 46.8994C48.2785 45.7517 48.4087 44.5971 48.6143 43.4734C48.6451 43.3056 48.8027 43.1925 48.974 43.2233C49.1419 43.2542 49.2515 43.4152 49.2241 43.5831C49.0254 44.6828 48.8952 45.8099 48.837 46.9336C48.8233 47.0947 48.6862 47.2248 48.5252 47.2248Z" fill="#BDD0FB"/>
<path d="M51.3648 36.516C51.3169 36.516 51.2689 36.5057 51.2244 36.4817C51.0736 36.4064 51.012 36.2179 51.0873 36.0672C55.7603 26.8103 65.0995 21.0581 75.463 21.0581C77.1143 21.0581 78.7724 21.2054 80.3861 21.5001C80.5539 21.5309 80.6636 21.6919 80.6362 21.8598C80.6053 22.0276 80.4443 22.1407 80.2764 22.1064C78.7005 21.8187 77.08 21.6748 75.463 21.6748C65.3359 21.6748 56.2057 27.2968 51.6389 36.3447C51.5875 36.4543 51.4779 36.516 51.3648 36.516Z" fill="#BDD0FB"/>
<path d="M93.5931 66.4762C103.253 56.8165 103.252 41.154 93.5907 31.493C83.9297 21.832 68.2672 21.8309 58.6075 31.4906C48.9479 41.1503 48.949 56.8127 58.61 66.4737C68.271 76.1348 83.9335 76.1359 93.5931 66.4762Z" fill="#91B3FA"/>
<path d="M83.3525 39.2004C83.3525 43.5342 79.8409 48.2106 75.507 48.2106C71.1732 48.2106 67.6616 43.5342 67.6616 39.2004C67.6616 34.8665 71.1732 31.7935 75.507 31.7935C79.8409 31.7935 83.3525 34.87 83.3525 39.2004Z" fill="url(#paint63_linear_142_655)"/>
<path d="M65.7708 64.8979H84.9252C86.9431 64.8979 88.7281 63.5961 89.3413 61.6741L90.3725 58.4537C91.1262 56.0967 89.8997 53.5409 87.5735 52.6913C79.7795 49.8409 71.7182 50.2075 63.4617 52.9551C61.1492 53.7259 59.8644 56.1994 60.5017 58.5531L61.2965 61.4788C61.8446 63.4933 63.6775 64.8979 65.7708 64.8979Z" fill="url(#paint64_linear_142_655)"/>
<path d="M412.174 323.157C412.174 323.157 403.945 351.12 431.575 365.31L438.468 361.812C438.468 361.812 417.046 345.964 415.203 326.573C415.12 325.716 415.638 324.918 416.457 324.661L422.61 321.324C423.61 321.009 424.172 319.053 424.692 318.142L425.94 311.18L412.174 323.157Z" fill="url(#paint65_linear_142_655)"/>
<path d="M400.982 325.504C422.18 325.504 439.363 308.321 439.363 287.124C439.363 265.926 422.18 248.743 400.982 248.743C379.785 248.743 362.602 265.926 362.602 287.124C362.602 308.321 379.785 325.504 400.982 325.504Z" fill="url(#paint66_linear_142_655)"/>
<path d="M400.982 324.229C421.474 324.229 438.086 307.617 438.086 287.125C438.086 266.634 421.474 250.022 400.982 250.022C380.491 250.022 363.879 266.634 363.879 287.125C363.879 307.617 380.491 324.229 400.982 324.229Z" fill="url(#paint67_linear_142_655)"/>
<path opacity="0.65" d="M370.386 272.119C370.325 272.119 370.263 272.105 370.201 272.074C369.999 271.971 369.921 271.728 370.02 271.526C375.954 259.768 387.818 252.464 400.98 252.464C403.08 252.464 405.184 252.652 407.233 253.026C407.455 253.067 407.603 253.279 407.561 253.502C407.52 253.725 407.308 253.872 407.085 253.831C405.084 253.468 403.032 253.283 400.98 253.283C388.129 253.283 376.546 260.416 370.75 271.896C370.681 272.036 370.537 272.119 370.386 272.119Z" fill="white"/>
<path opacity="0.65" d="M423.99 310.136C436.253 297.873 436.253 277.99 423.99 265.727C411.727 253.464 391.844 253.464 379.581 265.727C367.318 277.99 367.318 297.873 379.581 310.136C391.844 322.399 411.727 322.399 423.99 310.136Z" fill="white"/>
<path d="M398.707 311.28V307.864C395.144 307.72 391.622 306.881 389.121 305.785C388.227 305.394 387.771 304.39 388.028 303.452L388.895 300.269C389.214 299.101 390.485 298.498 391.598 298.964C394.078 300.005 397.145 300.827 400.451 300.827C403.88 300.827 406.439 299.663 406.439 297.282C406.439 295.13 404.463 293.852 399.694 292.571C392.89 290.711 388.008 287.744 388.008 281.755C388.008 276.349 391.961 272.221 398.823 271.114V267.698C398.823 266.599 399.714 265.708 400.814 265.708H402.821C403.921 265.708 404.812 266.599 404.812 267.698V270.765C408.108 270.898 410.506 271.46 412.411 272.128C413.387 272.471 413.918 273.523 413.647 274.52L412.849 277.462C412.541 278.596 411.328 279.22 410.228 278.802C408.474 278.141 405.997 277.449 402.777 277.449C398.707 277.449 397.546 279.134 397.546 280.645C397.546 282.505 399.988 283.783 405.278 285.414C412.836 287.682 415.977 290.82 415.977 296.463C415.977 301.639 412.14 306.288 404.699 307.453V311.277C404.699 312.376 403.808 313.267 402.708 313.267H400.701C399.598 313.27 398.707 312.38 398.707 311.28Z" fill="url(#paint68_linear_142_655)"/>
<path d="M435.965 427.063C435.965 427.063 450.502 458.746 458.128 471.868C458.128 471.868 459.642 480.124 458.128 482.721L456.836 483.293L462.862 483.115C462.862 483.115 463.397 472.008 462.979 471.388C462.561 470.768 461.725 470.809 461.725 470.809C461.725 470.809 459.142 450.342 451.66 445.974L444.41 421.002L435.965 427.063Z" fill="url(#paint69_linear_142_655)"/>
<path d="M454.263 484.851C454.252 484.995 458.967 484.93 461.529 484.882C462.475 484.865 463.28 484.2 463.482 483.275L465.414 473.117C465.599 472.151 464.986 471.212 464.027 470.997L462.947 470.75C462.947 470.75 461.409 472.864 461.892 474.851C462.375 476.838 462.807 481.991 461.584 482.59C460.357 483.19 456.836 483.296 456.836 483.296C456.836 483.296 454.345 483.542 454.263 484.851Z" fill="url(#paint70_linear_142_655)"/>
<path d="M422.186 485.037C421.71 485.307 421.905 486.037 422.453 486.03C426.739 485.986 436.339 485.852 437.192 485.496C438.292 485.037 436.791 481.08 435.208 479.74L426.475 482.591L422.186 485.037Z" fill="url(#paint71_linear_142_655)"/>
<path d="M419.476 425.039C419.476 425.039 428.87 470.484 431.529 479.347L425.242 483.291C425.242 483.291 428.394 482.756 430.727 482.585C433.063 482.417 435.211 479.734 435.211 479.734L434.458 478.532C434.458 478.532 432.101 433.337 432.676 428.205L419.476 425.039Z" fill="url(#paint72_linear_142_655)"/>
<path d="M396.159 319.045C396.159 319.045 394.864 342.684 416.386 354.764L411.206 366.58C411.206 366.58 391.747 354.808 392.439 322.714C392.459 321.768 392.141 320.847 391.524 320.131L387.382 315.327C385.803 313.498 385.213 311.014 385.803 308.671L386.347 306.492C386.529 305.762 387.361 305.413 388.012 305.79L388.444 306.04C389.821 306.841 390.914 308.054 391.565 309.51L393.645 312.792C394.217 314.073 397.218 315.146 398.653 315.591C398.996 315.697 399.102 316.129 398.845 316.383L396.159 319.045Z" fill="url(#paint73_linear_142_655)"/>
<path d="M415.635 352.992C419.236 353.989 431.435 357.199 439.048 357.069L434.371 383.456L434.745 387.759L419.499 387.69C419.499 387.69 415.207 377.724 411.822 372.756C410.845 371.321 411.572 369.608 412.127 367.963L411.366 367.456C410.592 366.939 410.256 365.973 410.544 365.086L414.258 353.729C414.449 353.153 415.052 352.831 415.635 352.992Z" fill="url(#paint74_linear_142_655)"/>
<path d="M418.28 385.437L418.582 388.044C418.582 388.044 414.275 400.947 420.737 431.081C420.737 431.081 434.732 435.045 446.236 425.559C446.236 425.559 442.992 397.116 442.104 395.794C437.688 389.196 434.749 387.76 434.749 387.76L434.615 384.913C434.612 384.91 422.309 387.133 418.28 385.437Z" fill="url(#paint75_linear_142_655)"/>
<path d="M424.248 355.116C424.193 355.044 427.43 345.345 427.43 345.345L432.066 345.766L433.878 356.77C433.875 356.77 426.612 358.237 424.248 355.116Z" fill="url(#paint76_linear_142_655)"/>
<path d="M430.955 330.052C430.647 330.244 421.051 334.211 423.113 344.174C423.237 344.763 423.627 345.26 424.175 345.506C425.584 346.133 428.616 347.209 432.24 346.842C437.266 346.332 440.562 337.558 440.421 335.006C440.281 332.45 434.018 328.143 430.955 330.052Z" fill="url(#paint77_linear_142_655)"/>
<path d="M433.902 325.011C433.584 325.052 426.906 327.379 430.219 332.22C433.532 337.06 434.772 339.907 433.207 342.031C431.778 343.967 428.619 342.864 428.893 346.893C428.948 347.698 428.599 348.483 427.931 348.935C424.954 350.953 417.684 357.157 424.885 366.01C425.471 366.729 425.591 367.723 425.139 368.531C423.028 372.313 418.598 383.396 434.639 389.543C450.487 395.617 456.209 385.257 457.808 381.118C458.154 380.224 459.035 379.676 459.994 379.72C461.735 379.803 464.205 379.511 464.092 377.185C464.023 375.77 463.139 374.506 462.098 373.489C461.067 372.485 461.269 370.724 462.523 370.011C463.468 369.473 464.304 368.634 464.66 367.325C465.62 363.766 463.705 353.125 453.502 351.323C452.652 351.172 451.762 350.374 451.635 349.521C451.631 349.507 451.631 349.497 451.628 349.483C451.491 348.657 451.772 347.811 452.447 347.314C454.074 346.119 456.164 343.714 454.468 339.856C452.964 336.433 450.076 335.282 447.935 334.912C446.678 334.697 445.848 333.508 446.116 332.257C446.839 328.852 446.208 323.401 433.902 325.011Z" fill="#0D0369"/>
<path d="M67.3374 194.092C68.3066 194.625 69.399 194.881 70.4936 194.881C72.9187 194.881 75.1447 193.57 76.3028 191.42C77.1468 189.852 77.3378 188.057 76.8388 186.345C76.3398 184.631 75.2124 183.225 73.6621 182.369C72.6928 181.835 71.6004 181.555 70.5059 181.555C68.0807 181.555 65.8547 182.893 64.6966 185.045C63.8526 186.613 63.6616 188.408 64.1606 190.122C64.6596 191.836 65.789 193.238 67.3374 194.092Z" fill="#91B3FA"/>
<path d="M105.388 192.591L99.811 188.864C99.8808 185.613 99.4146 182.425 98.4823 179.41L102.817 174.256C102.969 174.076 102.992 173.818 102.873 173.612L98.7924 166.624C98.6733 166.421 98.4392 166.315 98.2092 166.362L91.6566 167.717C89.4963 165.434 86.9603 163.483 84.1121 161.977L83.5761 155.236C83.5576 154.999 83.3913 154.802 83.1654 154.742L75.395 152.72C75.1671 152.662 74.9289 152.754 74.7995 152.953L71.1156 158.595C67.9019 158.525 64.7498 158.996 61.7702 159.939L56.6755 155.554C56.4968 155.4 56.2422 155.377 56.0389 155.498L49.131 159.626C48.9297 159.746 48.825 159.983 48.8722 160.216L50.2111 166.844C47.9543 169.03 46.0261 171.595 44.5373 174.477L37.8738 175.019C37.6397 175.038 37.4446 175.206 37.3851 175.434L35.387 183.295C35.3275 183.526 35.4199 183.767 35.617 183.897L41.1943 187.624C41.1245 190.875 41.5906 194.064 42.5229 197.078L38.188 202.232C38.036 202.413 38.0134 202.671 38.1325 202.876L42.2128 209.865C42.3319 210.068 42.566 210.174 42.796 210.126L49.3487 208.772C51.5089 211.055 54.045 213.005 56.8932 214.512L57.4291 221.253C57.4476 221.489 57.6119 221.687 57.8398 221.747L65.6102 223.768C65.8381 223.826 66.0763 223.735 66.2057 223.536L69.8896 217.894C73.1033 217.964 76.2554 217.493 79.235 216.549L84.3298 220.935C84.5084 221.089 84.763 221.111 84.9663 220.991L91.8742 216.863C92.0755 216.743 92.1802 216.506 92.133 216.273L90.7941 209.644C93.0509 207.459 94.9791 204.893 96.4679 202.012L103.131 201.47C103.366 201.451 103.561 201.283 103.62 201.054L105.618 193.194C105.678 192.965 105.585 192.722 105.388 192.591ZM63.7949 184.55C65.1338 182.063 67.7068 180.52 70.5077 180.52C71.7747 180.52 73.0376 180.846 74.1568 181.463C75.9474 182.45 77.2534 184.084 77.8284 186.064C78.4054 188.044 78.1837 189.92 77.2083 191.731C75.8694 194.218 73.2964 195.549 70.4954 195.549C69.2284 195.549 67.9655 195.437 66.8464 194.818C65.0558 193.831 63.7518 192.302 63.1748 190.323C62.5977 188.343 62.8175 186.361 63.7949 184.55ZM89.8228 193.102C89.8208 193.102 89.9748 193.268 89.9727 193.273C89.9727 193.275 90.1247 193.414 90.1247 193.414V193.422C90.1247 193.424 90.1247 193.43 90.1247 193.43V193.433C90.1247 193.437 89.9686 193.441 89.9686 193.443C89.9686 193.445 89.8906 193.447 89.8906 193.449C89.8906 193.451 89.8495 193.275 89.8495 193.277L89.8187 193.098H89.8146C89.8146 193.098 89.8105 193.287 89.8105 193.289C89.8105 193.291 89.8084 193.383 89.8084 193.383C89.8043 193.395 89.8002 193.453 89.7982 193.468C89.7961 193.476 89.7941 193.507 89.792 193.516C89.792 193.518 89.792 193.528 89.792 193.53C89.7859 193.555 89.7797 193.584 89.7735 193.609C89.7735 193.611 89.7735 193.615 89.7715 193.615C89.7674 193.632 89.7304 193.647 89.7263 193.663C89.7243 193.669 89.6893 193.676 89.6893 193.682L89.7222 193.684C89.7222 193.686 89.9275 193.688 89.9275 193.69C89.9275 193.694 90.1308 193.698 90.1308 193.701C87.9316 202.432 79.5492 208.221 70.5961 208.221C70.5961 208.221 70.5961 208.221 70.594 208.221C68.9286 208.221 67.2612 208.221 65.6328 207.554C65.6328 207.554 65.6328 207.554 65.6307 207.554C56.8418 205.552 50.704 197.423 50.7019 188.256C50.7019 186.571 50.9134 184.959 51.3323 183.312C52.2297 179.782 54.0532 176.608 56.6036 174.061C56.8049 173.86 57.1314 173.88 57.3306 174.086C57.4291 174.188 57.4784 174.329 57.4784 174.462C57.4784 174.597 57.4271 174.736 57.3244 174.838C54.9074 177.252 53.1784 180.302 52.3283 183.648C51.9319 185.21 51.7286 186.716 51.7286 188.316C51.7286 197.01 57.5503 204.667 65.8854 206.667C65.8874 206.667 66.0969 206.767 66.0989 206.769C67.6411 207.17 69.2428 207.5 71.0026 207.5V207.486V207.478C79.7957 207.478 86.835 201.626 89.0117 193.25C89.0137 193.244 88.9131 193.235 88.9131 193.229C88.9152 193.225 88.8638 193.219 88.8659 193.214L88.8412 193.16C88.8412 193.156 88.8187 193.1 88.8207 193.1H88.8228H88.8207C88.8207 193.1 88.8207 193.1 88.8228 193.1C88.8228 193.1 88.9254 193.142 88.9275 193.14C88.9275 193.138 89.0322 193.156 89.0322 193.154V193.165C89.0322 193.163 88.9296 193.167 88.9296 193.165C88.9296 193.163 88.9788 193.163 88.9788 193.16C88.9809 193.154 89.0302 193.15 89.0302 193.146C89.4696 191.584 89.5292 189.98 89.5292 188.383C89.5292 179.689 83.6583 172.102 75.3232 169.933C74.0213 169.595 72.7563 169.395 71.4236 169.343C71.1464 169.333 71.0006 169.1 71.0006 168.822C71.0006 168.816 71.0006 168.81 71.0006 168.801C71.2203 168.515 71.1525 168.292 71.438 168.303C72.8426 168.359 74.202 168.569 75.5758 168.926C84.3647 171.213 90.4799 179.059 90.4799 188.229C90.4799 189.92 90.2417 191.546 89.8228 193.102Z" fill="#91B3FA"/>
<path d="M430.251 140.256L417.481 168.981L399.535 146.943L430.251 140.256Z" fill="#95B5F9"/>
<path d="M125.562 156.373L357.339 156.373" stroke="#CEDCF9" stroke-dasharray="2 2"/>
<path d="M148.635 205.665L335.315 205.665" stroke="#CEDCF9" stroke-dasharray="2 2"/>
<path d="M169.61 250.762L315.388 250.762" stroke="#CEDCF9" stroke-dasharray="2 2"/>
<defs>
<linearGradient id="paint0_linear_142_655" x1="262.013" y1="376.26" x2="208.268" y2="529.847" gradientUnits="userSpaceOnUse">
<stop stop-color="#09005D"/>
<stop offset="1" stop-color="#1A0F91"/>
</linearGradient>
<linearGradient id="paint1_linear_142_655" x1="247.998" y1="99.2913" x2="230.524" y2="363.459" gradientUnits="userSpaceOnUse">
<stop stop-color="#09005D"/>
<stop offset="1" stop-color="#1A0F91"/>
</linearGradient>
<linearGradient id="paint2_linear_142_655" x1="48.4456" y1="76.9645" x2="581.351" y2="528.266" gradientUnits="userSpaceOnUse">
<stop stop-color="#4042E2"/>
<stop offset="1" stop-color="#4F52FF"/>
</linearGradient>
<linearGradient id="paint3_linear_142_655" x1="247.74" y1="361.093" x2="247.74" y2="468.335" gradientUnits="userSpaceOnUse">
<stop stop-color="#09005D"/>
<stop offset="1" stop-color="#1A0F91"/>
</linearGradient>
<linearGradient id="paint4_linear_142_655" x1="222.611" y1="431.508" x2="264.7" y2="382.655" gradientUnits="userSpaceOnUse">
<stop stop-color="#E1473D"/>
<stop offset="1" stop-color="#E9605A"/>
</linearGradient>
<linearGradient id="paint5_linear_142_655" x1="288.484" y1="347.024" x2="164.025" y2="535.047" gradientUnits="userSpaceOnUse">
<stop stop-color="#FE7062"/>
<stop offset="1" stop-color="#FF928E"/>
</linearGradient>
<linearGradient id="paint6_linear_142_655" x1="284.771" y1="352.411" x2="218.498" y2="463.671" gradientUnits="userSpaceOnUse">
<stop stop-color="#FE7062"/>
<stop offset="1" stop-color="#FF928E"/>
</linearGradient>
<linearGradient id="paint7_linear_142_655" x1="303.607" y1="378.347" x2="339.282" y2="336.937" gradientUnits="userSpaceOnUse">
<stop stop-color="#E1473D"/>
<stop offset="1" stop-color="#E9605A"/>
</linearGradient>
<linearGradient id="paint8_linear_142_655" x1="359.442" y1="306.736" x2="253.948" y2="466.107" gradientUnits="userSpaceOnUse">
<stop stop-color="#FE7062"/>
<stop offset="1" stop-color="#FF928E"/>
</linearGradient>
<linearGradient id="paint9_linear_142_655" x1="356.294" y1="311.303" x2="300.121" y2="405.609" gradientUnits="userSpaceOnUse">
<stop stop-color="#FE7062"/>
<stop offset="1" stop-color="#FF928E"/>
</linearGradient>
<linearGradient id="paint10_linear_142_655" x1="190.25" y1="381.277" x2="215.539" y2="351.923" gradientUnits="userSpaceOnUse">
<stop stop-color="#E1473D"/>
<stop offset="1" stop-color="#E9605A"/>
</linearGradient>
<linearGradient id="paint11_linear_142_655" x1="229.829" y1="330.514" x2="155.047" y2="443.488" gradientUnits="userSpaceOnUse">
<stop stop-color="#FE7062"/>
<stop offset="1" stop-color="#FF928E"/>
</linearGradient>
<linearGradient id="paint12_linear_142_655" x1="227.598" y1="333.749" x2="187.779" y2="400.599" gradientUnits="userSpaceOnUse">
<stop stop-color="#FE7062"/>
<stop offset="1" stop-color="#FF928E"/>
</linearGradient>
<linearGradient id="paint13_linear_142_655" x1="307.097" y1="426.477" x2="330.066" y2="399.816" gradientUnits="userSpaceOnUse">
<stop stop-color="#E1473D"/>
<stop offset="1" stop-color="#E9605A"/>
</linearGradient>
<linearGradient id="paint14_linear_142_655" x1="343.046" y1="380.37" x2="275.124" y2="482.98" gradientUnits="userSpaceOnUse">
<stop stop-color="#FE7062"/>
<stop offset="1" stop-color="#FF928E"/>
</linearGradient>
<linearGradient id="paint15_linear_142_655" x1="341.018" y1="383.31" x2="304.852" y2="444.028" gradientUnits="userSpaceOnUse">
<stop stop-color="#FE7062"/>
<stop offset="1" stop-color="#FF928E"/>
</linearGradient>
<linearGradient id="paint16_linear_142_655" x1="527.013" y1="390.481" x2="529.111" y2="405.949" gradientUnits="userSpaceOnUse">
<stop stop-color="#09005D"/>
<stop offset="1" stop-color="#1A0F91"/>
</linearGradient>
<linearGradient id="paint17_linear_142_655" x1="527.804" y1="402.156" x2="532.655" y2="432.962" gradientUnits="userSpaceOnUse">
<stop stop-color="#020039"/>
<stop offset="1" stop-color="#090056"/>
</linearGradient>
<linearGradient id="paint18_linear_142_655" x1="536.238" y1="393.394" x2="530.01" y2="393.394" gradientUnits="userSpaceOnUse">
<stop stop-color="#FF928E"/>
<stop offset="1" stop-color="#FEB3B1"/>
</linearGradient>
<linearGradient id="paint19_linear_142_655" x1="509.557" y1="371.495" x2="523.952" y2="383.534" gradientUnits="userSpaceOnUse">
<stop stop-color="#020039"/>
<stop offset="1" stop-color="#090056"/>
</linearGradient>
<linearGradient id="paint20_linear_142_655" x1="514.355" y1="368.462" x2="498.131" y2="368.462" gradientUnits="userSpaceOnUse">
<stop stop-color="#09005D"/>
<stop offset="1" stop-color="#1A0F91"/>
</linearGradient>
<linearGradient id="paint21_linear_142_655" x1="510.213" y1="358.74" x2="501.464" y2="358.74" gradientUnits="userSpaceOnUse">
<stop stop-color="#FF928E"/>
<stop offset="1" stop-color="#FEB3B1"/>
</linearGradient>
<linearGradient id="paint22_linear_142_655" x1="491.342" y1="318.93" x2="555.181" y2="375.559" gradientUnits="userSpaceOnUse">
<stop stop-color="#4042E2"/>
<stop offset="1" stop-color="#4F52FF"/>
</linearGradient>
<linearGradient id="paint23_linear_142_655" x1="529.135" y1="349.341" x2="517.424" y2="324.348" gradientUnits="userSpaceOnUse">
<stop stop-color="#09005D"/>
<stop offset="1" stop-color="#1A0F91"/>
</linearGradient>
<linearGradient id="paint24_linear_142_655" x1="478.102" y1="311.548" x2="465.323" y2="311.548" gradientUnits="userSpaceOnUse">
<stop stop-color="#FF928E"/>
<stop offset="1" stop-color="#FEB3B1"/>
</linearGradient>
<linearGradient id="paint25_linear_142_655" x1="451.689" y1="338.379" x2="510.415" y2="254.484" gradientUnits="userSpaceOnUse">
<stop stop-color="#FE7062"/>
<stop offset="1" stop-color="#FF928E"/>
</linearGradient>
<linearGradient id="paint26_linear_142_655" x1="491.386" y1="234.485" x2="499.38" y2="265.09" gradientUnits="userSpaceOnUse">
<stop stop-color="#FF928E"/>
<stop offset="1" stop-color="#FEB3B1"/>
</linearGradient>
<linearGradient id="paint27_linear_142_655" x1="497.411" y1="230.513" x2="484.392" y2="248.1" gradientUnits="userSpaceOnUse">
<stop stop-color="#FF928E"/>
<stop offset="1" stop-color="#FEB3B1"/>
</linearGradient>
<linearGradient id="paint28_linear_142_655" x1="499.257" y1="226.26" x2="482.054" y2="248.41" gradientUnits="userSpaceOnUse">
<stop stop-color="#09005D"/>
<stop offset="1" stop-color="#1A0F91"/>
</linearGradient>
<linearGradient id="paint29_linear_142_655" x1="502.708" y1="234.435" x2="489.69" y2="252.021" gradientUnits="userSpaceOnUse">
<stop stop-color="#FF928E"/>
<stop offset="1" stop-color="#FEB3B1"/>
</linearGradient>
<linearGradient id="paint30_linear_142_655" x1="503.167" y1="246.237" x2="408.914" y2="401.554" gradientUnits="userSpaceOnUse">
<stop stop-color="#FE7062"/>
<stop offset="1" stop-color="#FF928E"/>
</linearGradient>
<linearGradient id="paint31_linear_142_655" x1="490.609" y1="269.6" x2="491.92" y2="291.033" gradientUnits="userSpaceOnUse">
<stop stop-color="#CB236D"/>
<stop offset="1" stop-color="#4C246D"/>
</linearGradient>
<linearGradient id="paint32_linear_142_655" x1="1491.64" y1="-1066.75" x2="1464.64" y2="-1033.52" gradientUnits="userSpaceOnUse">
<stop stop-color="#FF928E"/>
<stop offset="1" stop-color="#FEB3B1"/>
</linearGradient>
<linearGradient id="paint33_linear_142_655" x1="257.902" y1="24.0402" x2="196.629" y2="141.844" gradientUnits="userSpaceOnUse">
<stop stop-color="#4042E2"/>
<stop offset="1" stop-color="#4F52FF"/>
</linearGradient>
<linearGradient id="paint34_linear_142_655" x1="267.502" y1="17.6104" x2="109.063" y2="256.967" gradientUnits="userSpaceOnUse">
<stop stop-color="#4042E2"/>
<stop offset="1" stop-color="#4F52FF"/>
</linearGradient>
<linearGradient id="paint35_linear_142_655" x1="239.057" y1="55.183" x2="248.593" y2="131.47" gradientUnits="userSpaceOnUse">
<stop stop-color="#4042E2"/>
<stop offset="1" stop-color="#4F52FF"/>
</linearGradient>
<linearGradient id="paint36_linear_142_655" x1="236.08" y1="55.5553" x2="245.616" y2="131.843" gradientUnits="userSpaceOnUse">
<stop stop-color="#4042E2"/>
<stop offset="1" stop-color="#4F52FF"/>
</linearGradient>
<linearGradient id="paint37_linear_142_655" x1="347.795" y1="66.5567" x2="308.702" y2="141.718" gradientUnits="userSpaceOnUse">
<stop stop-color="#4042E2"/>
<stop offset="1" stop-color="#4F52FF"/>
</linearGradient>
<linearGradient id="paint38_linear_142_655" x1="353.92" y1="62.4538" x2="252.831" y2="215.169" gradientUnits="userSpaceOnUse">
<stop stop-color="#4042E2"/>
<stop offset="1" stop-color="#4F52FF"/>
</linearGradient>
<linearGradient id="paint39_linear_142_655" x1="335.769" y1="86.4318" x2="341.853" y2="135.105" gradientUnits="userSpaceOnUse">
<stop stop-color="#4042E2"/>
<stop offset="1" stop-color="#4F52FF"/>
</linearGradient>
<linearGradient id="paint40_linear_142_655" x1="333.871" y1="86.6693" x2="339.955" y2="135.343" gradientUnits="userSpaceOnUse">
<stop stop-color="#4042E2"/>
<stop offset="1" stop-color="#4F52FF"/>
</linearGradient>
<linearGradient id="paint41_linear_142_655" x1="153.828" y1="63.3327" x2="114.734" y2="138.494" gradientUnits="userSpaceOnUse">
<stop stop-color="#4042E2"/>
<stop offset="1" stop-color="#4F52FF"/>
</linearGradient>
<linearGradient id="paint42_linear_142_655" x1="159.952" y1="59.2298" x2="58.8636" y2="211.945" gradientUnits="userSpaceOnUse">
<stop stop-color="#4042E2"/>
<stop offset="1" stop-color="#4F52FF"/>
</linearGradient>
<linearGradient id="paint43_linear_142_655" x1="141.803" y1="83.2019" x2="147.888" y2="131.875" gradientUnits="userSpaceOnUse">
<stop stop-color="#4042E2"/>
<stop offset="1" stop-color="#4F52FF"/>
</linearGradient>
<linearGradient id="paint44_linear_142_655" x1="139.905" y1="83.44" x2="145.989" y2="132.113" gradientUnits="userSpaceOnUse">
<stop stop-color="#4042E2"/>
<stop offset="1" stop-color="#4F52FF"/>
</linearGradient>
<linearGradient id="paint45_linear_142_655" x1="172.525" y1="2.27493" x2="133.432" y2="77.4368" gradientUnits="userSpaceOnUse">
<stop stop-color="#4042E2"/>
<stop offset="1" stop-color="#4F52FF"/>
</linearGradient>
<linearGradient id="paint46_linear_142_655" x1="178.65" y1="-1.82792" x2="77.5617" y2="150.888" gradientUnits="userSpaceOnUse">
<stop stop-color="#4042E2"/>
<stop offset="1" stop-color="#4F52FF"/>
</linearGradient>
<linearGradient id="paint47_linear_142_655" x1="160.498" y1="22.1456" x2="166.582" y2="70.8189" gradientUnits="userSpaceOnUse">
<stop stop-color="#4042E2"/>
<stop offset="1" stop-color="#4F52FF"/>
</linearGradient>
<linearGradient id="paint48_linear_142_655" x1="158.6" y1="22.3832" x2="164.684" y2="71.0565" gradientUnits="userSpaceOnUse">
<stop stop-color="#4042E2"/>
<stop offset="1" stop-color="#4F52FF"/>
</linearGradient>
<linearGradient id="paint49_linear_142_655" x1="329.095" y1="4.91553" x2="290.002" y2="80.0773" gradientUnits="userSpaceOnUse">
<stop stop-color="#4042E2"/>
<stop offset="1" stop-color="#4F52FF"/>
</linearGradient>
<linearGradient id="paint50_linear_142_655" x1="335.22" y1="0.812677" x2="234.132" y2="153.528" gradientUnits="userSpaceOnUse">
<stop stop-color="#4042E2"/>
<stop offset="1" stop-color="#4F52FF"/>
</linearGradient>
<linearGradient id="paint51_linear_142_655" x1="317.073" y1="24.7828" x2="323.157" y2="73.4561" gradientUnits="userSpaceOnUse">
<stop stop-color="#4042E2"/>
<stop offset="1" stop-color="#4F52FF"/>
</linearGradient>
<linearGradient id="paint52_linear_142_655" x1="315.175" y1="25.0214" x2="321.259" y2="73.6947" gradientUnits="userSpaceOnUse">
<stop stop-color="#4042E2"/>
<stop offset="1" stop-color="#4F52FF"/>
</linearGradient>
<linearGradient id="paint53_linear_142_655" x1="212.38" y1="297.987" x2="263.131" y2="38.64" gradientUnits="userSpaceOnUse">
<stop stop-color="#FE7062"/>
<stop offset="1" stop-color="#FF928E"/>
</linearGradient>
<linearGradient id="paint54_linear_142_655" x1="257.381" y1="-49.6534" x2="242.657" y2="76.4711" gradientUnits="userSpaceOnUse">
<stop stop-color="#E1473D"/>
<stop offset="1" stop-color="#E9605A"/>
</linearGradient>
<linearGradient id="paint55_linear_142_655" x1="248.125" y1="266.557" x2="191.1" y2="454.848" gradientUnits="userSpaceOnUse">
<stop stop-color="#FE7062"/>
<stop offset="1" stop-color="#FF928E"/>
</linearGradient>
<linearGradient id="paint56_linear_142_655" x1="254.923" y1="238.739" x2="228.926" y2="402.472" gradientUnits="userSpaceOnUse">
<stop stop-color="#E1473D"/>
<stop offset="1" stop-color="#E9605A"/>
</linearGradient>
<linearGradient id="paint57_linear_142_655" x1="415.985" y1="16.1539" x2="369.613" y2="105.311" gradientUnits="userSpaceOnUse">
<stop stop-color="#4042E2"/>
<stop offset="1" stop-color="#4F52FF"/>
</linearGradient>
<linearGradient id="paint58_linear_142_655" x1="423.25" y1="11.2841" x2="303.34" y2="192.435" gradientUnits="userSpaceOnUse">
<stop stop-color="#4042E2"/>
<stop offset="1" stop-color="#4F52FF"/>
</linearGradient>
<linearGradient id="paint59_linear_142_655" x1="401.72" y1="39.7202" x2="408.937" y2="97.4563" gradientUnits="userSpaceOnUse">
<stop stop-color="#4042E2"/>
<stop offset="1" stop-color="#4F52FF"/>
</linearGradient>
<linearGradient id="paint60_linear_142_655" x1="399.469" y1="40.0017" x2="406.686" y2="97.7379" gradientUnits="userSpaceOnUse">
<stop stop-color="#4042E2"/>
<stop offset="1" stop-color="#4F52FF"/>
</linearGradient>
<linearGradient id="paint61_linear_142_655" x1="90.2945" y1="19.8378" x2="43.922" y2="108.994" gradientUnits="userSpaceOnUse">
<stop stop-color="#4042E2"/>
<stop offset="1" stop-color="#4F52FF"/>
</linearGradient>
<linearGradient id="paint62_linear_142_655" x1="97.5612" y1="14.9679" x2="-22.3493" y2="196.118" gradientUnits="userSpaceOnUse">
<stop stop-color="#4042E2"/>
<stop offset="1" stop-color="#4F52FF"/>
</linearGradient>
<linearGradient id="paint63_linear_142_655" x1="76.0308" y1="43.407" x2="83.2478" y2="101.143" gradientUnits="userSpaceOnUse">
<stop stop-color="#4042E2"/>
<stop offset="1" stop-color="#4F52FF"/>
</linearGradient>
<linearGradient id="paint64_linear_142_655" x1="73.779" y1="43.688" x2="80.9959" y2="101.424" gradientUnits="userSpaceOnUse">
<stop stop-color="#4042E2"/>
<stop offset="1" stop-color="#4F52FF"/>
</linearGradient>
<linearGradient id="paint65_linear_142_655" x1="422.461" y1="310.793" x2="425.275" y2="356.482" gradientUnits="userSpaceOnUse">
<stop stop-color="#FF928E"/>
<stop offset="1" stop-color="#FEB3B1"/>
</linearGradient>
<linearGradient id="paint66_linear_142_655" x1="348.462" y1="348.082" x2="399.941" y2="288.329" gradientUnits="userSpaceOnUse">
<stop stop-color="#E1473D"/>
<stop offset="1" stop-color="#E9605A"/>
</linearGradient>
<linearGradient id="paint67_linear_142_655" x1="429.031" y1="244.75" x2="276.805" y2="474.72" gradientUnits="userSpaceOnUse">
<stop stop-color="#FE7062"/>
<stop offset="1" stop-color="#FF928E"/>
</linearGradient>
<linearGradient id="paint68_linear_142_655" x1="424.489" y1="251.34" x2="343.431" y2="387.422" gradientUnits="userSpaceOnUse">
<stop stop-color="#FE7062"/>
<stop offset="1" stop-color="#FF928E"/>
</linearGradient>
<linearGradient id="paint69_linear_142_655" x1="435.966" y1="452.149" x2="463.139" y2="452.149" gradientUnits="userSpaceOnUse">
<stop stop-color="#FF928E"/>
<stop offset="1" stop-color="#FEB3B1"/>
</linearGradient>
<linearGradient id="paint70_linear_142_655" x1="473.316" y1="391.38" x2="459.859" y2="478.852" gradientUnits="userSpaceOnUse">
<stop stop-color="#4042E2"/>
<stop offset="1" stop-color="#4F52FF"/>
</linearGradient>
<linearGradient id="paint71_linear_142_655" x1="444.843" y1="386.999" x2="431.385" y2="474.472" gradientUnits="userSpaceOnUse">
<stop stop-color="#4042E2"/>
<stop offset="1" stop-color="#4F52FF"/>
</linearGradient>
<linearGradient id="paint72_linear_142_655" x1="419.477" y1="454.167" x2="435.212" y2="454.167" gradientUnits="userSpaceOnUse">
<stop stop-color="#FF928E"/>
<stop offset="1" stop-color="#FEB3B1"/>
</linearGradient>
<linearGradient id="paint73_linear_142_655" x1="434.892" y1="384.522" x2="395.379" y2="329.478" gradientUnits="userSpaceOnUse">
<stop stop-color="#FF928E"/>
<stop offset="1" stop-color="#FEB3B1"/>
</linearGradient>
<linearGradient id="paint74_linear_142_655" x1="431.08" y1="322.988" x2="406.437" y2="478.84" gradientUnits="userSpaceOnUse">
<stop stop-color="#FE7062"/>
<stop offset="1" stop-color="#FF928E"/>
</linearGradient>
<linearGradient id="paint75_linear_142_655" x1="431.616" y1="388.575" x2="431.844" y2="454.353" gradientUnits="userSpaceOnUse">
<stop stop-color="#020039"/>
<stop offset="1" stop-color="#090056"/>
</linearGradient>
<linearGradient id="paint76_linear_142_655" x1="424.246" y1="351.231" x2="433.876" y2="351.231" gradientUnits="userSpaceOnUse">
<stop stop-color="#FF928E"/>
<stop offset="1" stop-color="#FEB3B1"/>
</linearGradient>
<linearGradient id="paint77_linear_142_655" x1="439.55" y1="338.788" x2="509.64" y2="343.554" gradientUnits="userSpaceOnUse">
<stop stop-color="#FF928E"/>
<stop offset="1" stop-color="#FEB3B1"/>
</linearGradient>
</defs>
</svg>
