<svg width="582" height="533" viewBox="0 0 582 533" fill="none" xmlns="http://www.w3.org/2000/svg">
<path d="M526.015 437.059C502.428 463.723 461.873 463.284 298.571 512.618C258.58 524.7 215.376 521.579 177.914 503.091C121.414 475.208 43.4647 437.181 37.9627 436.875C37.797 436.406 -27.4947 275.466 100.853 211.065C147.102 187.858 98.3262 151.235 130.431 111.114C167.327 65.0096 207.589 116.011 248.615 95.1068C255.865 91.4162 263.139 85.4767 270.42 76.3622C274.517 71.2353 279.01 66.7537 283.819 62.8822C284.557 62.2856 285.301 61.7051 286.055 61.1408C288.935 58.9783 291.919 57.021 294.994 55.2607C297.06 54.0809 299.165 52.9875 301.307 51.9859H301.31C304.711 50.393 308.206 49.0188 311.773 47.8579C316.841 46.2056 322.06 44.9799 327.382 44.1484C329.703 43.7839 332.042 43.4978 334.399 43.2818C380.239 39.1052 413.682 53.6462 441.367 86.6943C457.214 105.609 470.633 140.25 461.194 195.906C455.204 231.233 507.657 249.443 525.715 284.886C571.628 374.996 526.431 435.884 526.015 437.059Z" fill="url(#paint0_linear_301_600)"/>
<path d="M152.464 361.429C153.091 361.727 153.642 362.1 154.18 362.501C154.715 362.902 155.208 363.347 155.667 363.82C156.592 364.759 157.377 365.817 158.014 366.945C159.292 369.199 159.973 371.71 160.203 374.221C160.244 374.536 160.254 374.852 160.272 375.167C160.285 375.482 160.306 375.797 160.299 376.112L160.292 377.058L160.241 378L160.213 378.473L160.162 378.942L160.056 379.881C159.949 380.501 159.878 381.125 159.744 381.741C159.617 382.358 159.49 382.975 159.326 383.581L159.09 384.496L158.846 385.38L157.863 388.905C156.561 393.605 155.311 398.299 154.324 403.023C153.365 407.741 152.704 412.513 152.854 417.224C152.889 418.402 152.978 419.574 153.146 420.729C153.31 421.887 153.536 423.034 153.865 424.151C154.194 425.268 154.595 426.364 155.109 427.413C155.681 428.598 156.126 429.828 156.472 431.047C157.13 433.497 157.517 435.943 157.815 438.382C158.103 440.822 158.326 443.251 158.504 445.68C158.877 450.527 159.196 455.361 159.98 460.13C160.08 460.727 160.182 461.319 160.309 461.912C160.419 462.505 160.563 463.09 160.7 463.68C160.827 464.272 161.008 464.848 161.159 465.434C161.244 465.725 161.34 466.009 161.433 466.297C161.525 466.585 161.611 466.876 161.728 467.157L162.05 468.007C162.159 468.291 162.293 468.562 162.416 468.843C162.649 469.404 162.957 469.935 163.235 470.48C163.858 471.535 164.592 472.546 165.486 473.444L165.267 473.635C164.276 472.779 163.43 471.792 162.694 470.747C161.991 469.685 161.378 468.572 160.881 467.424C159.857 465.132 159.182 462.741 158.63 460.339C157.527 455.533 157 450.664 156.407 445.841C156.106 443.429 155.835 441.02 155.465 438.639C155.098 436.258 154.636 433.898 153.951 431.637C153.587 430.513 153.183 429.43 152.656 428.392C152.056 427.224 151.583 426.011 151.196 424.785C150.806 423.558 150.535 422.311 150.333 421.064C150.124 419.817 150.007 418.563 149.946 417.313C149.713 412.304 150.408 407.374 151.343 402.537C152.299 397.696 153.594 392.941 155.037 388.24C155.403 387.065 155.77 385.893 156.147 384.725L156.434 383.848L156.695 382.995C156.88 382.426 157.02 381.854 157.174 381.279C157.335 380.707 157.438 380.128 157.572 379.552L157.723 378.682C157.777 378.391 157.822 378.103 157.856 377.812C158.038 376.647 158.082 375.479 158.093 374.31C158.096 373.142 157.99 371.974 157.767 370.826C157.538 369.678 157.226 368.541 156.76 367.445C156.52 366.9 156.26 366.362 155.955 365.841C155.664 365.314 155.324 364.807 154.958 364.313C154.221 363.337 153.348 362.405 152.31 361.669L152.464 361.429Z" fill="#DCE5FE"/>
<path d="M111.527 434.519C112.099 438.338 112.915 442.124 113.912 445.858C114.412 447.726 114.963 449.579 115.577 451.419C115.72 451.881 115.892 452.333 116.049 452.793C116.203 453.252 116.375 453.704 116.546 454.16C116.872 455.071 117.238 455.972 117.594 456.873C117.978 457.764 118.352 458.661 118.773 459.538C119.164 460.429 119.609 461.296 120.041 462.169C120.945 463.899 121.901 465.606 122.963 467.264C124.022 468.922 125.19 470.518 126.433 472.074C127.704 473.612 129.085 475.075 130.548 476.497L130.342 476.699C128.647 475.479 127.088 474.102 125.652 472.629C124.241 471.135 122.949 469.552 121.771 467.904C120.633 466.236 119.557 464.53 118.629 462.759C118.177 461.871 117.711 460.987 117.303 460.08C116.878 459.179 116.508 458.264 116.125 457.349C115.768 456.428 115.402 455.509 115.083 454.577C114.915 454.115 114.761 453.649 114.614 453.18C114.467 452.71 114.306 452.244 114.172 451.775C113.593 449.898 113.113 448 112.702 446.091C111.894 442.275 111.325 438.417 111.229 434.532L111.527 434.519Z" fill="#DCE5FE"/>
<path d="M211.216 370.846L203.171 470.478H296.51L284.354 370.846H211.216Z" fill="url(#paint1_linear_301_600)"/>
<path d="M0 143.381V354.776C0 372.166 13.858 386.387 31.2413 386.836C108.452 388.826 379.275 392.904 452.776 391.821C467.983 382.907 465.361 382.907 469.556 372.419C467.595 325.321 475.962 204.252 470.434 147.619C468.639 136.073 458.896 127.44 447.217 127.066C382.525 124.997 96.2521 118.426 22.786 120.074C10.1168 120.358 0 130.708 0 143.381Z" fill="url(#paint2_linear_301_600)"/>
<path d="M10.1987 142.827V357.151C10.1987 367.987 18.3795 376.812 28.5684 376.977L439.959 382.38C450.062 382.541 458.343 373.899 458.38 363.157L459.068 150.75C459.096 143.069 453.339 136.777 446.118 136.59L24.9336 127.538C16.8561 127.33 10.1987 134.236 10.1987 142.827Z" fill="url(#paint3_linear_301_600)"/>
<path d="M462.866 375.127C462.863 375.127 462.859 375.127 462.856 375.127L13.2512 367.466C12.9052 367.459 12.6277 367.175 12.6311 366.826C12.638 366.483 12.9189 366.206 13.2615 366.206C13.2649 366.206 13.2684 366.206 13.2718 366.206L462.877 373.866C463.223 373.873 463.5 374.157 463.497 374.507C463.49 374.853 463.209 375.127 462.866 375.127Z" fill="#BDD0FB"/>
<path d="M335.115 482.015H160.368C155.62 482.015 152.057 479.548 152.975 476.901L155.219 470.43C155.894 468.485 158.826 467.055 162.31 466.975L330.774 463.141C334.416 463.059 337.64 464.468 338.431 466.491L342.473 476.796C343.518 479.476 339.938 482.015 335.115 482.015Z" fill="url(#paint4_linear_301_600)"/>
<path d="M48.3472 311.306H71.7014V355.894H48.3472V311.306Z" fill="#91B3FA"/>
<path d="M107.597 278.53H130.947V355.895H107.597V278.53Z" fill="#91B3FA"/>
<path d="M166.844 297.926H190.194V355.892H166.844V297.926Z" fill="#91B3FA"/>
<path d="M226.088 250.447H249.442V355.898H226.088V250.447Z" fill="#91B3FA"/>
<path d="M285.338 273.182H308.692V355.894H285.338V273.182Z" fill="#91B3FA"/>
<path d="M344.587 222.354H367.941V355.894H344.587V222.354Z" fill="#91B3FA"/>
<path d="M403.833 184.897H427.183V355.893H403.833V184.897Z" fill="#91B3FA"/>
<path d="M69.297 277.092C69.9077 277.573 70.4505 278.098 70.9297 278.666C71.4089 279.231 71.8118 279.833 72.1426 280.462C72.4691 281.091 72.7193 281.744 72.889 282.413C73.0543 283.083 73.1392 283.759 73.1392 284.442C73.1392 285.121 73.0543 285.797 72.889 286.467C72.7193 287.136 72.4691 287.788 72.1426 288.417C71.8118 289.046 71.4089 289.649 70.9297 290.214C70.4505 290.782 69.9077 291.307 69.297 291.791C68.6905 292.272 68.0247 292.703 67.3123 293.083C66.5956 293.463 65.8365 293.782 65.0434 294.041C64.2462 294.304 63.4277 294.502 62.5838 294.633C61.7356 294.768 60.8832 294.835 60.0223 294.835C59.1614 294.835 58.309 294.768 57.4651 294.633C56.6212 294.502 55.7985 294.304 55.0054 294.041C54.2082 293.782 53.4533 293.463 52.7366 293.083C52.0199 292.703 51.3583 292.272 50.7477 291.791C50.137 291.307 49.5942 290.782 49.1149 290.214C48.64 289.649 48.2328 289.05 47.9063 288.417C47.5755 287.788 47.3253 287.136 47.1599 286.467C46.9903 285.797 46.9055 285.124 46.9055 284.442C46.9055 283.759 46.9903 283.083 47.1599 282.413C47.3253 281.744 47.5755 281.095 47.9063 280.462C48.2328 279.833 48.64 279.235 49.1149 278.666C49.5942 278.098 50.137 277.573 50.7477 277.092C51.3583 276.608 52.0199 276.177 52.7366 275.797C53.4533 275.42 54.2082 275.097 55.0012 274.838C55.7985 274.576 56.6169 274.377 57.4651 274.246C58.309 274.112 59.1614 274.048 60.0223 274.048C60.8832 274.048 61.7356 274.112 62.5838 274.246C63.4277 274.377 64.2462 274.576 65.0434 274.838C65.8365 275.097 66.5956 275.42 67.3123 275.797C68.0247 276.177 68.6905 276.608 69.297 277.092Z" fill="#91B3FA"/>
<path d="M128.545 244.126C129.156 244.607 129.699 245.131 130.178 245.7C130.657 246.268 131.06 246.867 131.391 247.496C131.717 248.128 131.968 248.778 132.137 249.447C132.303 250.116 132.387 250.792 132.387 251.475C132.387 252.158 132.303 252.834 132.137 253.504C131.968 254.173 131.717 254.822 131.391 255.451C131.06 256.083 130.657 256.682 130.178 257.251C129.699 257.816 129.156 258.341 128.545 258.825C127.939 259.306 127.273 259.736 126.556 260.117C125.844 260.497 125.085 260.816 124.292 261.079C123.494 261.338 122.676 261.536 121.828 261.667C120.984 261.802 120.131 261.869 119.271 261.869C118.41 261.869 117.557 261.802 116.713 261.667C115.865 261.536 115.047 261.338 114.249 261.079C113.456 260.816 112.702 260.497 111.985 260.117C111.268 259.736 110.607 259.306 109.996 258.825C109.385 258.341 108.842 257.816 108.363 257.251C107.884 256.682 107.481 256.083 107.15 255.451C106.824 254.822 106.574 254.173 106.404 253.504C106.239 252.834 106.154 252.158 106.154 251.475C106.154 250.792 106.239 250.116 106.404 249.447C106.574 248.778 106.824 248.128 107.15 247.496C107.481 246.867 107.884 246.268 108.363 245.7C108.842 245.131 109.385 244.607 109.996 244.126C110.602 243.641 111.268 243.211 111.985 242.834C112.697 242.454 113.456 242.134 114.249 241.872C115.047 241.61 115.865 241.415 116.713 241.28C117.557 241.149 118.41 241.082 119.271 241.082C120.131 241.082 120.984 241.149 121.828 241.28C122.676 241.415 123.494 241.61 124.292 241.872C125.085 242.134 125.84 242.454 126.556 242.834C127.273 243.211 127.935 243.641 128.545 244.126Z" fill="#91B3FA"/>
<path d="M187.794 262.85C188.4 263.334 188.943 263.859 189.423 264.424C189.902 264.992 190.305 265.591 190.635 266.224C190.966 266.853 191.216 267.502 191.382 268.171C191.551 268.84 191.636 269.517 191.636 270.199C191.636 270.882 191.551 271.558 191.382 272.228C191.216 272.897 190.966 273.546 190.635 274.179C190.305 274.808 189.902 275.406 189.423 275.975C188.948 276.543 188.4 277.068 187.794 277.549C187.183 278.033 186.522 278.464 185.805 278.841C185.088 279.221 184.334 279.54 183.536 279.803C182.743 280.065 181.921 280.26 181.077 280.395C180.233 280.526 179.38 280.593 178.519 280.593C177.659 280.593 176.802 280.526 175.958 280.395C175.114 280.26 174.296 280.065 173.498 279.803C172.701 279.54 171.946 279.221 171.229 278.841C170.513 278.464 169.851 278.033 169.24 277.549C168.634 277.068 168.091 276.543 167.612 275.975C167.133 275.406 166.73 274.808 166.399 274.179C166.068 273.546 165.822 272.897 165.653 272.228C165.483 271.558 165.403 270.882 165.403 270.199C165.403 269.517 165.483 268.84 165.653 268.171C165.822 267.502 166.068 266.853 166.399 266.224C166.73 265.591 167.133 264.992 167.612 264.424C168.091 263.859 168.634 263.334 169.24 262.85C169.851 262.369 170.513 261.938 171.229 261.558C171.946 261.178 172.701 260.858 173.498 260.596C174.291 260.337 175.114 260.139 175.958 260.004C176.802 259.873 177.654 259.806 178.519 259.806C179.38 259.806 180.233 259.873 181.077 260.004C181.921 260.139 182.743 260.337 183.536 260.596C184.334 260.858 185.088 261.178 185.805 261.558C186.522 261.938 187.183 262.369 187.794 262.85Z" fill="#91B3FA"/>
<path d="M247.042 216.035C247.649 216.516 248.191 217.041 248.671 217.609C249.15 218.177 249.553 218.776 249.883 219.405C250.214 220.038 250.464 220.687 250.63 221.356C250.799 222.026 250.884 222.702 250.884 223.384C250.884 224.067 250.799 224.743 250.63 225.413C250.464 226.082 250.214 226.731 249.883 227.36C249.553 227.993 249.15 228.591 248.671 229.16C248.196 229.725 247.649 230.25 247.042 230.734C246.431 231.215 245.77 231.646 245.053 232.026C244.336 232.406 243.582 232.725 242.784 232.988C241.991 233.247 241.169 233.445 240.325 233.58C239.481 233.711 238.628 233.778 237.767 233.778C236.907 233.778 236.05 233.711 235.206 233.58C234.362 233.445 233.544 233.247 232.746 232.988C231.949 232.725 231.194 232.406 230.477 232.026C229.761 231.646 229.099 231.215 228.489 230.734C227.882 230.25 227.339 229.725 226.86 229.16C226.381 228.591 225.978 227.993 225.647 227.36C225.316 226.731 225.07 226.082 224.901 225.413C224.731 224.743 224.651 224.067 224.651 223.384C224.651 222.702 224.731 222.026 224.901 221.356C225.07 220.687 225.316 220.038 225.647 219.405C225.978 218.776 226.381 218.177 226.86 217.609C227.339 217.044 227.882 216.516 228.489 216.035C229.099 215.55 229.761 215.12 230.477 214.743C231.194 214.363 231.949 214.044 232.746 213.781C233.539 213.519 234.362 213.324 235.206 213.189C236.05 213.058 236.902 212.991 237.767 212.991C238.628 212.991 239.481 213.058 240.325 213.189C241.169 213.324 241.991 213.519 242.784 213.781C243.582 214.044 244.336 214.363 245.053 214.743C245.77 215.12 246.431 215.55 247.042 216.035Z" fill="#91B3FA"/>
<path d="M300.045 236.025C300.88 236.179 301.694 236.401 302.475 236.684C303.259 236.966 304.001 237.309 304.701 237.706C305.397 238.107 306.041 238.557 306.626 239.055C307.216 239.556 307.733 240.095 308.187 240.676C308.641 241.255 309.018 241.867 309.319 242.506C309.62 243.145 309.837 243.801 309.977 244.474C310.117 245.15 310.168 245.826 310.138 246.509C310.108 247.192 309.994 247.865 309.794 248.527C309.595 249.193 309.319 249.836 308.963 250.455C308.603 251.077 308.174 251.662 307.67 252.217C307.165 252.772 306.597 253.28 305.969 253.744C305.337 254.212 304.659 254.622 303.925 254.982C303.191 255.339 302.424 255.638 301.614 255.877C300.808 256.116 299.981 256.291 299.129 256.398C298.281 256.509 297.424 256.55 296.563 256.526C295.702 256.503 294.854 256.412 294.014 256.254C293.175 256.099 292.365 255.877 291.58 255.594C290.8 255.312 290.058 254.969 289.358 254.572C288.658 254.171 288.018 253.724 287.428 253.223C286.843 252.725 286.321 252.184 285.872 251.605C285.418 251.023 285.041 250.414 284.74 249.772C284.438 249.133 284.218 248.477 284.082 247.804C283.942 247.131 283.891 246.452 283.921 245.769C283.951 245.09 284.065 244.414 284.265 243.751C284.46 243.088 284.74 242.446 285.096 241.823C285.452 241.201 285.885 240.616 286.389 240.061C286.894 239.509 287.458 238.998 288.09 238.534C288.717 238.07 289.4 237.656 290.134 237.299C290.868 236.939 291.635 236.64 292.441 236.401C293.251 236.162 294.078 235.988 294.93 235.88C295.778 235.769 296.635 235.729 297.496 235.752C298.357 235.776 299.205 235.866 300.045 236.025Z" fill="#91B3FA"/>
<path d="M358.369 185.03C359.217 185.141 360.048 185.312 360.854 185.551C361.66 185.79 362.432 186.089 363.161 186.449C363.895 186.809 364.578 187.219 365.205 187.683C365.837 188.151 366.405 188.659 366.906 189.214C367.41 189.766 367.843 190.354 368.199 190.973C368.555 191.595 368.835 192.238 369.035 192.904C369.23 193.567 369.344 194.239 369.374 194.922C369.404 195.605 369.353 196.281 369.213 196.954C369.077 197.63 368.857 198.286 368.555 198.925C368.254 199.564 367.877 200.173 367.423 200.755C366.969 201.337 366.452 201.875 365.863 202.376C365.277 202.874 364.633 203.325 363.937 203.721C363.237 204.122 362.495 204.461 361.711 204.747C360.93 205.03 360.116 205.249 359.281 205.407C358.441 205.561 357.593 205.652 356.732 205.676C355.871 205.703 355.015 205.659 354.166 205.551C353.314 205.44 352.487 205.265 351.681 205.027C350.871 204.788 350.104 204.492 349.37 204.132C348.636 203.772 347.958 203.362 347.326 202.894C346.694 202.43 346.13 201.922 345.625 201.367C345.121 200.812 344.692 200.227 344.332 199.604C343.976 198.985 343.7 198.343 343.501 197.677C343.301 197.014 343.187 196.342 343.157 195.659C343.128 194.976 343.183 194.3 343.318 193.624C343.458 192.951 343.675 192.295 343.976 191.656C344.277 191.017 344.654 190.405 345.108 189.826C345.562 189.244 346.083 188.706 346.669 188.205C347.254 187.707 347.898 187.256 348.598 186.859C349.294 186.459 350.036 186.116 350.82 185.833C351.605 185.551 352.415 185.332 353.255 185.174C354.09 185.016 354.942 184.925 355.803 184.902C356.664 184.878 357.517 184.922 358.369 185.03Z" fill="#91B3FA"/>
<path d="M58.1818 282.009L117.401 248.376L121.663 253.085L62.4438 286.722L58.1818 282.009Z" fill="#91B3FA"/>
<path d="M120.878 247.809L184.952 269.578L182.069 274.906L117.994 253.133L120.878 247.809Z" fill="#91B3FA"/>
<path d="M176.39 269.38L230.286 223.984L235.617 227.953L181.72 273.352L176.39 269.38Z" fill="#91B3FA"/>
<path d="M243.675 221.68L299.866 244.627L296.515 249.78L240.325 226.833L243.675 221.68Z" fill="#91B3FA"/>
<path d="M294.849 243.843L352.957 193.833L358.339 197.758L300.231 247.772L294.849 243.843Z" fill="#91B3FA"/>
<path d="M351.765 194.989L415.513 149.502L420.407 153.807L356.659 199.298L351.765 194.989Z" fill="#91B3FA"/>
<path d="M265.55 413.045C282.88 413.045 296.929 398.997 296.929 381.667C296.929 364.337 282.88 350.289 265.55 350.289C248.221 350.289 234.172 364.337 234.172 381.667C234.172 398.997 248.221 413.045 265.55 413.045Z" fill="url(#paint5_linear_301_600)"/>
<path d="M265.551 412.005C282.306 412.005 295.888 398.423 295.888 381.668C295.888 364.914 282.306 351.332 265.551 351.332C248.797 351.332 235.215 364.914 235.215 381.668C235.215 398.423 248.797 412.005 265.551 412.005Z" fill="url(#paint6_linear_301_600)"/>
<path opacity="0.65" d="M240.534 369.4C240.483 369.4 240.431 369.389 240.384 369.365C240.219 369.283 240.154 369.081 240.236 368.917C245.087 359.303 254.786 353.332 265.547 353.332C267.264 353.332 268.983 353.486 270.659 353.791C270.84 353.825 270.96 353.997 270.926 354.178C270.892 354.36 270.717 354.483 270.539 354.445C268.905 354.147 267.222 353.997 265.547 353.997C255.04 353.997 245.57 359.828 240.829 369.215C240.774 369.335 240.658 369.4 240.534 369.4Z" fill="white"/>
<path opacity="0.65" d="M276.054 406.051C289.154 400.624 295.375 385.605 289.948 372.505C284.522 359.405 269.503 353.184 256.403 358.61C243.302 364.037 237.081 379.055 242.508 392.156C247.934 405.256 262.953 411.477 276.054 406.051Z" fill="white"/>
<path d="M263.69 401.418V398.626C260.778 398.51 257.897 397.821 255.851 396.927C255.122 396.608 254.748 395.786 254.957 395.019L255.666 392.418C255.927 391.463 256.965 390.969 257.876 391.353C259.904 392.203 262.412 392.877 265.112 392.877C267.918 392.877 270.007 391.925 270.007 389.979C270.007 388.222 268.39 387.173 264.492 386.128C258.931 384.607 254.937 382.182 254.937 377.286C254.937 372.863 258.171 369.488 263.779 368.587V365.795C263.779 364.898 264.509 364.168 265.406 364.168H267.047C267.945 364.168 268.675 364.898 268.675 365.795V368.303C271.368 368.409 273.331 368.872 274.886 369.42C275.684 369.701 276.119 370.561 275.897 371.376L275.242 373.781C274.992 374.71 273.999 375.217 273.101 374.877C271.669 374.336 269.641 373.771 267.006 373.771C263.68 373.771 262.727 375.148 262.727 376.385C262.727 377.906 264.725 378.951 269.048 380.284C275.229 382.137 277.795 384.703 277.795 389.314C277.795 393.546 274.656 397.348 268.572 398.301V401.425C268.572 402.323 267.842 403.053 266.945 403.053H265.304C264.42 403.046 263.69 402.316 263.69 401.418Z" fill="url(#paint7_linear_301_600)"/>
<path d="M340.004 362.702C354.694 362.702 366.603 350.793 366.603 336.103C366.603 321.413 354.694 309.504 340.004 309.504C325.313 309.504 313.405 321.413 313.405 336.103C313.405 350.793 325.313 362.702 340.004 362.702Z" fill="url(#paint8_linear_301_600)"/>
<path d="M340.004 361.815C354.204 361.815 365.716 350.304 365.716 336.103C365.716 321.903 354.204 310.392 340.004 310.392C325.804 310.392 314.292 321.903 314.292 336.103C314.292 350.304 325.804 361.815 340.004 361.815Z" fill="url(#paint9_linear_301_600)"/>
<path opacity="0.65" d="M318.801 325.702C318.759 325.702 318.715 325.691 318.674 325.671C318.533 325.599 318.478 325.431 318.55 325.291C322.665 317.144 330.884 312.08 340.007 312.08C341.463 312.08 342.919 312.21 344.341 312.471C344.495 312.498 344.598 312.645 344.567 312.8C344.54 312.954 344.392 313.056 344.238 313.026C342.851 312.772 341.429 312.645 340.007 312.645C331.1 312.645 323.073 317.589 319.057 325.544C319.003 325.647 318.903 325.702 318.801 325.702Z" fill="white"/>
<path opacity="0.65" d="M344.697 358.05C356.5 355.777 364.225 344.367 361.952 332.565C359.679 320.763 348.269 313.037 336.467 315.31C324.665 317.583 316.94 328.993 319.212 340.795C321.485 352.598 332.895 360.323 344.697 358.05Z" fill="white"/>
<path d="M338.427 352.845V350.477C335.961 350.378 333.518 349.796 331.784 349.038C331.164 348.768 330.849 348.072 331.027 347.421L331.63 345.215C331.849 344.406 332.73 343.989 333.504 344.311C335.224 345.03 337.348 345.602 339.637 345.602C342.014 345.602 343.785 344.797 343.785 343.146C343.785 341.655 342.415 340.768 339.112 339.881C334.398 338.593 331.014 336.537 331.014 332.385C331.014 328.637 333.754 325.776 338.51 325.012V322.645C338.51 321.884 339.126 321.264 339.89 321.264H341.281C342.042 321.264 342.662 321.881 342.662 322.645V324.772C344.947 324.865 346.608 325.255 347.927 325.718C348.602 325.954 348.972 326.684 348.784 327.376L348.232 329.415C348.02 330.202 347.177 330.631 346.417 330.343C345.2 329.884 343.484 329.404 341.25 329.404C338.431 329.404 337.622 330.572 337.622 331.621C337.622 332.909 339.315 333.796 342.98 334.923C348.219 336.496 350.394 338.671 350.394 342.58C350.394 346.167 347.736 349.391 342.576 350.196V352.845C342.576 353.605 341.959 354.225 341.195 354.225H339.804C339.044 354.222 338.427 353.605 338.427 352.845Z" fill="url(#paint10_linear_301_600)"/>
<path d="M216.048 370.184C226.461 370.184 234.901 361.743 234.901 351.331C234.901 340.918 226.461 332.478 216.048 332.478C205.636 332.478 197.195 340.918 197.195 351.331C197.195 361.743 205.636 370.184 216.048 370.184Z" fill="url(#paint11_linear_301_600)"/>
<path d="M216.048 369.558C226.114 369.558 234.274 361.397 234.274 351.332C234.274 341.266 226.114 333.105 216.048 333.105C205.982 333.105 197.822 341.266 197.822 351.332C197.822 361.397 205.982 369.558 216.048 369.558Z" fill="url(#paint12_linear_301_600)"/>
<path opacity="0.65" d="M201.019 343.958C200.988 343.958 200.958 343.951 200.93 343.937C200.831 343.886 200.793 343.766 200.841 343.666C203.757 337.89 209.584 334.303 216.049 334.303C217.08 334.303 218.115 334.396 219.122 334.581C219.232 334.601 219.303 334.704 219.283 334.814C219.262 334.923 219.16 334.995 219.05 334.975C218.067 334.797 217.059 334.704 216.049 334.704C209.735 334.704 204.044 338.209 201.197 343.848C201.163 343.916 201.095 343.958 201.019 343.958Z" fill="white"/>
<path opacity="0.65" d="M216.446 367.155C224.966 367.155 231.873 360.248 231.873 351.728C231.873 343.208 224.966 336.301 216.446 336.301C207.926 336.301 201.019 343.208 201.019 351.728C201.019 360.248 207.926 367.155 216.446 367.155Z" fill="white"/>
<path d="M214.935 363.193V361.514C213.184 361.446 211.454 361.031 210.224 360.493C209.786 360.301 209.563 359.808 209.686 359.345L210.111 357.783C210.269 357.211 210.892 356.913 211.44 357.143C212.66 357.653 214.164 358.057 215.788 358.057C217.474 358.057 218.731 357.485 218.731 356.313C218.731 355.258 217.761 354.628 215.418 354.001C212.078 353.086 209.676 351.63 209.676 348.687C209.676 346.032 211.619 344.004 214.99 343.459V341.781C214.99 341.239 215.428 340.804 215.966 340.804H216.953C217.494 340.804 217.929 341.243 217.929 341.781V343.288C219.55 343.353 220.728 343.631 221.663 343.959C222.143 344.127 222.403 344.645 222.273 345.135L221.883 346.58C221.732 347.139 221.136 347.444 220.595 347.238C219.735 346.913 218.515 346.573 216.932 346.573C214.931 346.573 214.363 347.403 214.363 348.146C214.363 349.061 215.562 349.688 218.162 350.489C221.876 351.603 223.418 353.144 223.418 355.916C223.418 358.458 221.533 360.743 217.878 361.315V363.193C217.878 363.734 217.439 364.169 216.901 364.169H215.915C215.37 364.173 214.935 363.734 214.935 363.193Z" fill="url(#paint13_linear_301_600)"/>
<path d="M330.531 416.404C339.989 416.404 347.657 408.736 347.657 399.278C347.657 389.819 339.989 382.151 330.531 382.151C321.072 382.151 313.405 389.819 313.405 399.278C313.405 408.736 321.072 416.404 330.531 416.404Z" fill="url(#paint14_linear_301_600)"/>
<path d="M330.531 415.832C339.674 415.832 347.085 408.42 347.085 399.278C347.085 390.135 339.674 382.724 330.531 382.724C321.389 382.724 313.977 390.135 313.977 399.278C313.977 408.42 321.389 415.832 330.531 415.832Z" fill="url(#paint15_linear_301_600)"/>
<path opacity="0.65" d="M316.878 392.583C316.851 392.583 316.823 392.577 316.796 392.563C316.707 392.518 316.669 392.409 316.717 392.32C319.366 387.074 324.659 383.813 330.531 383.813C331.469 383.813 332.408 383.899 333.319 384.063C333.419 384.08 333.484 384.176 333.467 384.275C333.45 384.375 333.354 384.44 333.254 384.423C332.364 384.262 331.445 384.176 330.531 384.176C324.796 384.176 319.629 387.359 317.043 392.481C317.008 392.546 316.947 392.583 316.878 392.583Z" fill="white"/>
<path opacity="0.65" d="M344.53 402.904C346.309 395.373 341.645 387.826 334.114 386.048C326.582 384.27 319.035 388.933 317.257 396.464C315.479 403.996 320.142 411.543 327.674 413.321C335.205 415.099 342.752 410.436 344.53 402.904Z" fill="white"/>
<path d="M329.516 410.056V408.531C327.926 408.466 326.354 408.093 325.237 407.603C324.84 407.428 324.634 406.979 324.75 406.561L325.138 405.143C325.278 404.622 325.847 404.351 326.344 404.56C327.45 405.026 328.817 405.393 330.294 405.393C331.825 405.393 332.966 404.876 332.966 403.81C332.966 402.851 332.085 402.279 329.958 401.71C326.922 400.881 324.744 399.555 324.744 396.883C324.744 394.471 326.508 392.628 329.571 392.134V390.61C329.571 390.12 329.968 389.723 330.458 389.723H331.352C331.842 389.723 332.24 390.12 332.24 390.61V391.98C333.709 392.039 334.782 392.292 335.631 392.59C336.066 392.744 336.303 393.21 336.183 393.656L335.827 394.968C335.689 395.475 335.148 395.752 334.658 395.567C333.877 395.273 332.771 394.964 331.332 394.964C329.516 394.964 328.995 395.718 328.995 396.39C328.995 397.219 330.085 397.791 332.445 398.517C335.816 399.528 337.217 400.929 337.217 403.447C337.217 405.756 335.504 407.832 332.185 408.35V410.056C332.185 410.546 331.787 410.943 331.297 410.943H330.403C329.913 410.943 329.516 410.546 329.516 410.056Z" fill="url(#paint16_linear_301_600)"/>
<path d="M578.041 482.675L483.235 299.818C482.704 298.79 483.105 297.522 484.133 296.991C485.16 296.46 486.428 296.861 486.959 297.889L581.765 480.742C582.296 481.77 581.896 483.038 580.868 483.569C580.57 483.723 580.237 483.805 579.905 483.805C579.117 483.805 578.405 483.373 578.041 482.675Z" fill="#7D97F4"/>
<path d="M533.003 484.072L451.969 297.882C451.507 296.82 451.993 295.583 453.055 295.121C454.114 294.658 455.354 295.148 455.817 296.207L536.851 482.397C537.073 482.911 537.084 483.479 536.878 484.004C536.673 484.524 536.279 484.936 535.765 485.158C535.497 485.275 535.217 485.333 534.929 485.333C534.089 485.333 533.336 484.836 533.003 484.072Z" fill="#7D97F4"/>
<path d="M469.202 333.324H502.071C502.793 333.324 503.383 332.738 503.383 332.012C503.383 331.289 502.797 330.7 502.071 330.7H469.202C468.479 330.7 467.89 331.286 467.89 332.012C467.893 332.735 468.479 333.324 469.202 333.324Z" fill="#7D97F4"/>
<path d="M477.986 353.685H510.855C511.578 353.685 512.167 353.099 512.167 352.373C512.167 351.65 511.581 351.061 510.855 351.061H477.986C477.263 351.061 476.674 351.646 476.674 352.373C476.674 353.099 477.263 353.685 477.986 353.685Z" fill="#7D97F4"/>
<path d="M489.568 378.065H524.53C525.253 378.065 525.842 377.479 525.842 376.753C525.842 376.03 525.257 375.44 524.53 375.44H489.568C488.846 375.44 488.256 376.026 488.256 376.753C488.26 377.479 488.846 378.065 489.568 378.065Z" fill="#7D97F4"/>
<path d="M460.468 313.573H491.826C492.549 313.573 493.138 312.988 493.138 312.261C493.138 311.538 492.552 310.949 491.826 310.949H460.468C459.746 310.949 459.156 311.535 459.156 312.261C459.156 312.984 459.746 313.573 460.468 313.573Z" fill="#7D97F4"/>
<path d="M501.104 406.119H539.091C539.814 406.119 540.403 405.533 540.403 404.807C540.403 404.08 539.818 403.495 539.091 403.495H501.104C500.381 403.495 499.792 404.08 499.792 404.807C499.792 405.533 500.381 406.119 501.104 406.119Z" fill="#7D97F4"/>
<path d="M510.032 427.879H550.777C551.5 427.879 552.089 427.293 552.089 426.567C552.089 425.844 551.503 425.255 550.777 425.255H510.032C509.309 425.255 508.72 425.841 508.72 426.567C508.72 427.293 509.306 427.879 510.032 427.879Z" fill="#7D97F4"/>
<path d="M518.043 401.425C522.24 397.772 531.254 394.847 531.254 394.847L536.677 394.967C538.054 396.515 538.674 399.516 538.942 401.397C537.921 402.01 536.005 402.545 532.497 402.713C526.002 403.021 520.757 402.072 518.043 401.425Z" fill="url(#paint17_linear_301_600)"/>
<path d="M518.043 401.425C520.757 402.073 526.002 403.022 532.497 402.714C536.005 402.546 537.921 402.011 538.941 401.398C538.962 401.549 538.983 401.696 539 401.83C539.096 402.6 538.619 403.327 537.876 403.553C532.922 405.071 522.024 404.584 517.772 404.32C516.865 404.265 516.388 403.197 516.971 402.498C517.279 402.135 517.639 401.778 518.043 401.425Z" fill="url(#paint18_linear_301_600)"/>
<path d="M536.238 390.281V394.594C536.238 395.423 535.659 396.139 534.847 396.317C534.008 396.499 532.891 396.615 531.809 396.348C531.13 396.18 530.637 395.598 530.555 394.906L530.01 390.284H536.238V390.281Z" fill="url(#paint19_linear_301_600)"/>
<path d="M508.81 368.179C510.492 364.434 510.012 362.749 513.342 363.122C513.743 363.167 514.076 363.245 514.357 363.345C514.566 363.965 514.579 364.647 514.353 365.298C513.51 367.72 511.749 371.862 508.522 375.939C507.844 376.795 506.806 377.292 505.713 377.309L502.04 377.371C505.521 374.585 507.412 371.29 508.81 368.179Z" fill="url(#paint20_linear_301_600)"/>
<path d="M501.804 371.813C504.623 369.83 505.675 361.724 505.675 361.724L510.019 359.511L513.295 361.885C513.802 362.262 514.158 362.776 514.353 363.344C514.072 363.245 513.74 363.166 513.339 363.122C510.009 362.748 510.489 364.434 508.807 368.178C507.409 371.286 505.521 374.585 502.037 377.367L499.512 377.408C498.378 377.428 497.724 376.13 498.409 375.229C499.276 374.098 500.454 372.766 501.804 371.813Z" fill="url(#paint21_linear_301_600)"/>
<path d="M507.4 355.43L510.025 359.51C510.357 360.027 510.244 360.709 509.761 361.086C508.921 361.747 507.462 362.487 505.68 361.72L501.467 358.832L507.4 355.43Z" fill="url(#paint22_linear_301_600)"/>
<path d="M527.088 312.362C527.088 312.362 528.469 316.25 530.469 329.913C532.47 343.576 533.789 353.508 534.879 358.927C535.876 363.881 537.451 381.724 537.359 389.528C537.345 390.576 536.482 391.412 535.434 391.378L530.271 391.217C529.472 391.193 528.804 390.611 528.671 389.826C527.304 381.792 517.862 340.338 512.168 328.412C512.168 328.412 497.018 332.695 493.243 334.418C493.243 334.418 498.125 336.374 508.132 355.131C508.132 355.131 503.812 358.564 500.749 359.28C500.749 359.28 478.851 341.119 476.538 339.218C474.226 337.316 472.119 334.041 478.021 328.077C483.924 322.112 502.044 312.704 502.044 312.704L527.088 312.362Z" fill="url(#paint23_linear_301_600)"/>
<path d="M513.004 328.837C513.042 328.837 513.079 328.83 513.117 328.813L518.52 326.73C520.842 325.624 522.35 323.246 522.364 320.673C522.364 320.529 522.247 320.409 522.103 320.409C521.935 320.409 521.839 320.526 521.839 320.67C521.826 323.044 520.435 325.236 518.294 326.257L512.891 328.34C512.761 328.402 512.706 328.56 512.767 328.69C512.812 328.782 512.908 328.837 513.004 328.837Z" fill="url(#paint24_linear_301_600)"/>
<path d="M478.1 311.212C478.1 311.212 472.41 306.906 469.82 307.714C467.23 308.523 465.321 310.948 465.321 310.948H471.043C471.043 310.948 472.406 313.569 471.043 313.569H469.021C469.025 313.573 474.366 319.167 478.1 311.212Z" fill="url(#paint25_linear_301_600)"/>
<path d="M487.735 270.598C487.735 270.598 481.057 296.998 472.013 307.615C472.013 307.615 474.463 310.407 478.101 311.216C478.101 311.216 491.983 299.047 496.214 290.592C500.441 282.133 487.735 270.598 487.735 270.598Z" fill="url(#paint26_linear_301_600)"/>
<path d="M496.659 245.464L503.291 257.599H492.825C492.825 257.599 491.982 252.052 489.231 248.712L496.659 245.464Z" fill="url(#paint27_linear_301_600)"/>
<path d="M486.606 231.015C486.606 231.015 483.283 238.648 483.06 242.657C482.837 246.665 481.974 249.265 486.606 250.07C491.238 250.879 495.143 248.57 497.257 244.578C497.257 244.578 500.57 238.429 499.827 235.911C499.083 233.393 486.606 231.015 486.606 231.015Z" fill="url(#paint28_linear_301_600)"/>
<path d="M495.675 241.711H495.089C495.089 241.711 497.501 236.76 495.38 235.89C493.26 235.02 484.859 233.307 483.047 230.326C481.3 227.452 482.859 223.741 485.188 222.703C485.335 222.638 485.51 222.707 485.586 222.851L485.777 223.217C485.911 223.467 486.278 223.43 486.356 223.159C486.432 222.902 486.778 222.844 486.922 223.073C487.477 223.964 488.977 225.413 493.006 226.157C498.724 227.212 502.503 229.524 502.595 233.478C502.602 233.728 502.869 233.865 503.082 233.735C503.503 233.478 504.178 233.358 505.083 234.115C506.652 235.434 506.011 238.86 502.568 241.676C502.404 241.81 502.407 242.067 502.582 242.18C503.205 242.588 504.134 243.554 501.725 244.842C499.259 246.161 497.802 246.017 497.251 245.877C497.104 245.839 497.004 245.705 497.011 245.551L497.227 242.05C497.237 241.868 497.093 241.717 496.912 241.717H495.675V241.711Z" fill="url(#paint29_linear_301_600)"/>
<path d="M495.531 242.441C495.531 242.441 496.799 237.566 498.984 238.933C501.17 240.3 497.85 244.397 496.093 244.579L495.531 242.441Z" fill="url(#paint30_linear_301_600)"/>
<path d="M504.765 256.648C504.765 256.648 501.805 251.786 482.462 252.978C472.407 253.599 449.792 244.835 444.756 240.426C444.756 240.426 441.474 240.405 438.448 243.571C438.448 243.571 459.337 265.613 483.692 268.433C483.692 268.433 502.175 306.523 502.044 312.703C502.044 312.703 513.014 320.065 527.9 314.796C527.9 314.796 528.356 304.21 522.549 289.585C515.001 270.598 504.765 256.648 504.765 256.648Z" fill="url(#paint31_linear_301_600)"/>
<path d="M495.994 269.79C496.127 269.79 496.244 269.688 496.254 269.55C496.264 269.407 496.158 269.28 496.014 269.266C495.922 269.259 486.634 268.502 485.188 268.341C485.044 268.327 484.914 268.427 484.897 268.571C484.88 268.715 484.983 268.845 485.127 268.862C486.583 269.026 495.877 269.78 495.97 269.79C495.98 269.79 495.987 269.79 495.994 269.79Z" fill="url(#paint32_linear_301_600)"/>
<path d="M438.829 242.5C438.657 243.117 440.915 243.966 442.131 241.421C442.135 240.222 442.672 235.072 441.922 234.127C437.928 229.077 430.312 222.842 430.312 222.842C429.109 224.116 430.181 225.288 430.181 225.288L433.895 228.885C433.196 230.266 432.326 231.441 431.956 233.092C431.679 234.343 431.925 235.662 432.59 236.765C433.258 237.875 434.169 239.314 435.022 240.438C436.643 242.565 438.829 242.5 438.829 242.5Z" fill="url(#paint33_linear_301_600)"/>
<path d="M238.307 101.66C260.369 101.66 278.253 83.7751 278.253 61.7132C278.253 39.6513 260.369 21.7666 238.307 21.7666C216.245 21.7666 198.36 39.6513 198.36 61.7132C198.36 83.7751 216.245 101.66 238.307 101.66Z" fill="url(#paint34_linear_301_600)"/>
<path d="M238.306 100.333C259.634 100.333 276.924 83.0437 276.924 61.716C276.924 40.3882 259.634 23.0986 238.306 23.0986C216.979 23.0986 199.689 40.3882 199.689 61.716C199.689 83.0437 216.979 100.333 238.306 100.333Z" fill="url(#paint35_linear_301_600)"/>
<path d="M202.707 60.2311C202.7 60.2311 202.693 60.2311 202.687 60.2311C202.461 60.2208 202.289 60.0256 202.3 59.8029C202.378 58.2852 202.556 56.7606 202.824 55.2738C202.865 55.0511 203.074 54.9038 203.296 54.9449C203.519 54.986 203.666 55.1984 203.625 55.4177C203.362 56.8703 203.19 58.3605 203.115 59.844C203.105 60.0598 202.923 60.2311 202.707 60.2311Z" fill="#BDD0FB"/>
<path d="M206.461 46.0788C206.4 46.0788 206.338 46.0651 206.276 46.0343C206.074 45.9315 205.995 45.6883 206.095 45.4861C212.268 33.2555 224.612 25.6567 238.302 25.6567C240.485 25.6567 242.674 25.852 244.808 26.2426C245.031 26.2837 245.178 26.4961 245.137 26.7154C245.096 26.938 244.883 27.0854 244.661 27.0442C242.578 26.664 240.437 26.4721 238.302 26.4721C224.92 26.4721 212.858 33.8996 206.821 45.8561C206.756 45.9966 206.612 46.0788 206.461 46.0788Z" fill="#BDD0FB"/>
<path d="M262.258 85.6682C275.023 72.9032 275.023 52.2071 262.258 39.4422C249.493 26.6772 228.797 26.6772 216.032 39.4422C203.267 52.2071 203.267 72.9032 216.032 85.6682C228.797 98.4331 249.493 98.4331 262.258 85.6682Z" fill="#91B3FA"/>
<path d="M248.734 49.6263C248.734 55.3511 244.091 61.5349 238.367 61.5349C232.642 61.5349 228 55.3545 228 49.6263C228 43.8981 232.642 39.8384 238.367 39.8384C244.091 39.8384 248.734 43.9016 248.734 49.6263Z" fill="url(#paint36_linear_301_600)"/>
<path d="M225.498 83.5783H250.806C253.471 83.5783 255.828 81.8551 256.64 79.3199L258.004 75.0648C259.001 71.9472 257.38 68.5727 254.307 67.449C244.009 63.6838 233.358 64.1669 222.449 67.795C219.393 68.8125 217.697 72.0808 218.54 75.1882L219.589 79.0526C220.312 81.7249 222.734 83.5783 225.498 83.5783Z" fill="url(#paint37_linear_301_600)"/>
<path d="M335.294 116.079C349.37 116.079 360.78 104.669 360.78 90.5936C360.78 76.5182 349.37 65.1079 335.294 65.1079C321.219 65.1079 309.809 76.5182 309.809 90.5936C309.809 104.669 321.219 116.079 335.294 116.079Z" fill="url(#paint38_linear_301_600)"/>
<path d="M335.294 115.234C348.902 115.234 359.933 104.203 359.933 90.5945C359.933 76.9865 348.902 65.9551 335.294 65.9551C321.686 65.9551 310.655 76.9865 310.655 90.5945C310.655 104.203 321.686 115.234 335.294 115.234Z" fill="url(#paint39_linear_301_600)"/>
<path d="M312.58 89.6444C312.576 89.6444 312.57 89.6444 312.566 89.6444C312.422 89.6375 312.313 89.5142 312.319 89.3703C312.371 88.4007 312.484 87.4312 312.655 86.4822C312.679 86.3418 312.816 86.2458 312.957 86.2732C313.097 86.3006 313.193 86.4343 313.166 86.5747C312.998 87.5032 312.888 88.4521 312.84 89.3977C312.833 89.5382 312.717 89.6444 312.58 89.6444Z" fill="#BDD0FB"/>
<path d="M314.975 80.6192C314.937 80.6192 314.896 80.609 314.858 80.5918C314.732 80.5267 314.68 80.3691 314.742 80.2424C318.682 72.4381 326.555 67.5903 335.291 67.5903C336.685 67.5903 338.079 67.7171 339.44 67.9638C339.58 67.9877 339.676 68.1248 339.649 68.2652C339.625 68.4057 339.488 68.5016 339.347 68.4742C338.018 68.231 336.654 68.1077 335.291 68.1077C326.753 68.1077 319.055 72.8457 315.204 80.4753C315.163 80.5678 315.071 80.6192 314.975 80.6192Z" fill="#BDD0FB"/>
<path d="M350.572 105.88C358.715 97.7366 358.715 84.5329 350.572 76.3891C342.428 68.2452 329.224 68.2452 321.08 76.3891C312.936 84.5329 312.936 97.7366 321.08 105.88C329.224 114.024 342.428 114.024 350.572 105.88Z" fill="#91B3FA"/>
<path d="M341.943 82.8876C341.943 86.5397 338.983 90.4829 335.327 90.4829C331.672 90.4829 328.712 86.5397 328.712 82.8876C328.712 79.2355 331.672 76.6421 335.327 76.6421C338.983 76.6421 341.943 79.2321 341.943 82.8876Z" fill="url(#paint40_linear_301_600)"/>
<path d="M327.119 104.551H343.266C344.965 104.551 346.469 103.451 346.99 101.834L347.86 99.117C348.497 97.13 347.462 94.975 345.499 94.259C338.928 91.8574 332.131 92.1658 325.173 94.4817C323.224 95.1292 322.141 97.2156 322.679 99.1993L323.347 101.666C323.81 103.369 325.355 104.551 327.119 104.551Z" fill="url(#paint41_linear_301_600)"/>
<path d="M141.326 112.854C155.402 112.854 166.812 101.443 166.812 87.368C166.812 73.2926 155.402 61.8823 141.326 61.8823C127.251 61.8823 115.841 73.2926 115.841 87.368C115.841 101.443 127.251 112.854 141.326 112.854Z" fill="url(#paint42_linear_301_600)"/>
<path d="M141.325 112.008C154.933 112.008 165.965 100.977 165.965 87.3689C165.965 73.761 154.933 62.7295 141.325 62.7295C127.717 62.7295 116.686 73.761 116.686 87.3689C116.686 100.977 127.717 112.008 141.325 112.008Z" fill="url(#paint43_linear_301_600)"/>
<path d="M118.612 86.4227C118.608 86.4227 118.601 86.4227 118.598 86.4227C118.454 86.4158 118.345 86.2925 118.351 86.1486C118.403 85.1791 118.516 84.2095 118.687 83.2605C118.711 83.1201 118.848 83.0241 118.989 83.0516C119.129 83.079 119.225 83.2126 119.198 83.353C119.03 84.2815 118.92 85.2305 118.872 86.176C118.865 86.3131 118.749 86.4227 118.612 86.4227Z" fill="#BDD0FB"/>
<path d="M121.006 77.3941C120.965 77.3941 120.928 77.3839 120.89 77.3667C120.763 77.3016 120.712 77.144 120.773 77.0173C124.713 69.213 132.586 64.3652 141.322 64.3652C142.717 64.3652 144.111 64.492 145.471 64.7387C145.612 64.7626 145.707 64.8997 145.68 65.0401C145.653 65.1806 145.519 65.2765 145.379 65.2491C144.049 65.0059 142.686 64.8826 141.322 64.8826C132.785 64.8826 125.087 69.6206 121.236 77.2502C121.195 77.3393 121.102 77.3941 121.006 77.3941Z" fill="#BDD0FB"/>
<path d="M141.864 108.76C153.381 108.76 162.718 99.4232 162.718 87.906C162.718 76.3888 153.381 67.0522 141.864 67.0522C130.347 67.0522 121.01 76.3888 121.01 87.906C121.01 99.4232 130.347 108.76 141.864 108.76Z" fill="#91B3FA"/>
<path d="M147.976 79.6566C147.976 83.3087 145.016 87.252 141.361 87.252C137.709 87.252 134.745 83.3087 134.745 79.6566C134.745 76.0046 137.705 73.4111 141.361 73.4111C145.013 73.4111 147.976 76.0046 147.976 79.6566Z" fill="url(#paint44_linear_301_600)"/>
<path d="M133.153 101.32H149.299C150.999 101.32 152.503 100.22 153.023 98.6028L153.893 95.8861C154.531 93.899 153.496 91.7441 151.533 91.0281C144.962 88.6265 138.168 88.9348 131.207 91.2508C129.257 91.8983 128.175 93.9847 128.713 95.9683L129.381 98.435C129.843 100.138 131.388 101.32 133.153 101.32Z" fill="url(#paint45_linear_301_600)"/>
<path d="M160.024 51.795C174.099 51.795 185.51 40.3847 185.51 26.3094C185.51 12.234 174.099 0.82373 160.024 0.82373C145.949 0.82373 134.538 12.234 134.538 26.3094C134.538 40.3847 145.949 51.795 160.024 51.795Z" fill="url(#paint46_linear_301_600)"/>
<path d="M160.023 50.9493C173.631 50.9493 184.663 39.9178 184.663 26.3099C184.663 12.7019 173.631 1.67041 160.023 1.67041C146.415 1.67041 135.384 12.7019 135.384 26.3099C135.384 39.9178 146.415 50.9493 160.023 50.9493Z" fill="url(#paint47_linear_301_600)"/>
<path d="M137.31 25.3631C137.306 25.3631 137.299 25.3631 137.296 25.3631C137.152 25.3563 137.042 25.2329 137.049 25.089C137.101 24.1195 137.214 23.15 137.385 22.201C137.409 22.0605 137.546 21.9646 137.686 21.992C137.827 22.016 137.923 22.153 137.895 22.2935C137.727 23.2219 137.618 24.1709 137.57 25.1165C137.563 25.2569 137.447 25.3631 137.31 25.3631Z" fill="#BDD0FB"/>
<path d="M139.708 16.335C139.667 16.335 139.63 16.3248 139.592 16.3076C139.465 16.2425 139.414 16.085 139.476 15.9582C143.415 8.15387 151.288 3.30615 160.024 3.30615C161.419 3.30615 162.813 3.43291 164.173 3.67958C164.314 3.70356 164.41 3.8406 164.382 3.98106C164.358 4.12153 164.221 4.21745 164.081 4.19005C162.751 3.9468 161.388 3.82347 160.024 3.82347C151.487 3.82347 143.789 8.56156 139.938 16.1912C139.893 16.2802 139.801 16.335 139.708 16.335Z" fill="#BDD0FB"/>
<path d="M181.158 30.1121C182.969 18.7377 175.215 8.04924 163.841 6.23874C152.467 4.42823 141.778 12.1813 139.968 23.5557C138.157 34.9301 145.91 45.6186 157.285 47.4291C168.659 49.2396 179.348 41.4865 181.158 30.1121Z" fill="#91B3FA"/>
<path d="M166.671 18.6C166.671 22.2521 163.711 26.1953 160.056 26.1953C156.4 26.1953 153.44 22.2521 153.44 18.6C153.44 14.9479 156.4 12.3545 160.056 12.3545C163.711 12.3545 166.671 14.9479 166.671 18.6Z" fill="url(#paint48_linear_301_600)"/>
<path d="M151.848 40.2625H167.994C169.694 40.2625 171.198 39.1628 171.718 37.5457L172.589 34.8289C173.226 32.8419 172.191 30.687 170.228 29.9709C163.657 27.5693 156.863 27.8777 149.902 30.1936C147.953 30.8411 146.87 32.9275 147.408 34.9112L148.076 37.3778C148.538 39.0805 150.084 40.2625 151.848 40.2625Z" fill="url(#paint49_linear_301_600)"/>
<path d="M316.596 54.4381C330.671 54.4381 342.081 43.0278 342.081 28.9525C342.081 14.8771 330.671 3.4668 316.596 3.4668C302.52 3.4668 291.11 14.8771 291.11 28.9525C291.11 43.0278 302.52 54.4381 316.596 54.4381Z" fill="url(#paint50_linear_301_600)"/>
<path d="M316.595 53.5928C330.203 53.5928 341.234 42.5614 341.234 28.9534C341.234 15.3454 330.203 4.31396 316.595 4.31396C302.987 4.31396 291.956 15.3454 291.956 28.9534C291.956 42.5614 302.987 53.5928 316.595 53.5928Z" fill="url(#paint51_linear_301_600)"/>
<path d="M293.881 28.0042C293.877 28.0042 293.871 28.0042 293.867 28.0042C293.723 27.9974 293.614 27.874 293.62 27.7302C293.672 26.7606 293.785 25.7911 293.956 24.8421C293.98 24.7016 294.117 24.6057 294.258 24.6331C294.398 24.6571 294.494 24.7941 294.467 24.9346C294.299 25.863 294.189 26.812 294.141 27.7576C294.134 27.898 294.018 28.0042 293.881 28.0042Z" fill="#BDD0FB"/>
<path d="M296.276 18.9757C296.238 18.9757 296.197 18.9654 296.159 18.9483C296.033 18.8832 295.981 18.7256 296.043 18.5988C299.983 10.7945 307.856 5.94678 316.592 5.94678C317.986 5.94678 319.381 6.07354 320.741 6.3202C320.881 6.34419 320.977 6.48123 320.95 6.62169C320.926 6.76215 320.789 6.85808 320.648 6.83067C319.319 6.58743 317.955 6.4641 316.592 6.4641C308.054 6.4641 300.356 11.2022 296.505 18.8318C296.464 18.9243 296.372 18.9757 296.276 18.9757Z" fill="#BDD0FB"/>
<path d="M331.871 44.2369C340.015 36.0931 340.015 22.8893 331.871 14.7455C323.728 6.6017 310.524 6.60169 302.38 14.7455C294.236 22.8893 294.236 36.0931 302.38 44.2369C310.524 52.3807 323.728 52.3807 331.871 44.2369Z" fill="#91B3FA"/>
<path d="M323.247 21.2397C323.247 24.8917 320.287 28.835 316.631 28.835C312.976 28.835 310.016 24.8917 310.016 21.2397C310.016 17.5876 312.976 14.9941 316.631 14.9941C320.287 14.9941 323.247 17.5842 323.247 21.2397Z" fill="url(#paint52_linear_301_600)"/>
<path d="M308.423 42.8997H324.57C326.269 42.8997 327.773 41.8 328.294 40.1829L329.164 37.4661C329.801 35.4791 328.767 33.3242 326.804 32.6081C320.233 30.2066 313.439 30.5149 306.477 32.8308C304.528 33.4783 303.445 35.5647 303.983 37.5484L304.651 40.0151C305.114 41.7177 306.659 42.8997 308.423 42.8997Z" fill="url(#paint53_linear_301_600)"/>
<path d="M303.21 278.843C262.196 278.843 221.185 278.843 180.171 278.843C156.083 224.558 131.996 169.541 107.911 115.257C197.098 115.257 286.284 115.257 375.471 115.257C351.383 169.541 327.295 224.558 303.21 278.843Z" fill="url(#paint54_linear_301_600)"/>
<path d="M383.93 117.693C383.93 119.587 382.537 121.126 380.822 121.126H102.452C100.736 121.126 99.3438 119.587 99.3438 117.693V112.088C99.3438 110.194 100.736 108.655 102.452 108.655H380.822C382.537 108.655 383.93 110.194 383.93 112.088V117.693Z" fill="url(#paint55_linear_301_600)"/>
<path d="M294.374 343.03C259.25 343.03 224.127 343.03 189.006 343.03C185.951 322.125 182.898 300.483 179.843 278.841C221.074 278.841 262.306 278.841 303.537 278.841C300.485 300.483 297.429 322.121 294.374 343.03Z" fill="url(#paint56_linear_301_600)"/>
<path d="M297.59 343.488C297.59 345.845 296.204 347.798 294.65 347.798H187.92C186.369 347.798 185.348 345.848 185.348 343.488V340.86C185.348 338.503 186.366 336.427 187.92 336.427H294.65C296.201 336.427 297.59 338.503 297.59 340.86V343.488Z" fill="url(#paint57_linear_301_600)"/>
<path d="M401.156 74.8972C417.852 74.8972 431.387 61.3625 431.387 44.6666C431.387 27.9707 417.852 14.436 401.156 14.436C384.46 14.436 370.926 27.9707 370.926 44.6666C370.926 61.3625 384.46 74.8972 401.156 74.8972Z" fill="url(#paint58_linear_301_600)"/>
<path d="M401.156 73.8916C417.298 73.8916 430.383 60.8063 430.383 44.6648C430.383 28.5233 417.298 15.438 401.156 15.438C385.015 15.438 371.929 28.5233 371.929 44.6648C371.929 60.8063 385.015 73.8916 401.156 73.8916Z" fill="url(#paint59_linear_301_600)"/>
<path d="M374.214 43.5437C374.207 43.5437 374.204 43.5437 374.197 43.5437C374.025 43.5334 373.895 43.3895 373.906 43.2182C373.967 42.0705 374.097 40.916 374.303 39.7923C374.334 39.6244 374.491 39.5113 374.663 39.5422C374.831 39.573 374.94 39.734 374.913 39.9019C374.714 41.0016 374.584 42.1288 374.526 43.2525C374.512 43.4135 374.375 43.5437 374.214 43.5437Z" fill="#BDD0FB"/>
<path d="M377.054 32.8319C377.006 32.8319 376.958 32.8216 376.913 32.7977C376.763 32.7223 376.701 32.5339 376.776 32.3831C381.449 23.1262 390.788 17.374 401.152 17.374C402.803 17.374 404.461 17.5213 406.075 17.816C406.243 17.8468 406.353 18.0078 406.325 18.1757C406.294 18.3436 406.133 18.4566 405.965 18.4224C404.389 18.1346 402.769 17.9907 401.152 17.9907C391.025 17.9907 381.895 23.6127 377.328 32.6606C377.276 32.7702 377.167 32.8319 377.054 32.8319Z" fill="#BDD0FB"/>
<path d="M419.28 62.796C428.941 53.135 428.941 37.4714 419.28 27.8104C409.619 18.1494 393.956 18.1494 384.295 27.8104C374.634 37.4714 374.634 53.135 384.295 62.796C393.956 72.457 409.619 72.457 419.28 62.796Z" fill="#91B3FA"/>
<path d="M409.041 35.5168C409.041 39.8506 405.53 44.527 401.196 44.527C396.862 44.527 393.351 39.8506 393.351 35.5168C393.351 31.1829 396.862 28.1099 401.196 28.1099C405.53 28.1064 409.041 31.1829 409.041 35.5168Z" fill="url(#paint60_linear_301_600)"/>
<path d="M391.46 61.2124H410.615C412.633 61.2124 414.418 59.9105 415.031 57.9886L416.062 54.7682C416.816 52.4111 415.589 49.8554 413.263 49.0057C405.469 46.1553 397.408 46.5219 389.151 49.2695C386.839 50.0404 385.554 52.5139 386.191 54.8675L386.986 57.7933C387.534 59.8078 389.367 61.2124 391.46 61.2124Z" fill="url(#paint61_linear_301_600)"/>
<path d="M75.4659 78.5784C92.1618 78.5784 105.697 65.0437 105.697 48.3478C105.697 31.6519 92.1618 18.1172 75.4659 18.1172C58.77 18.1172 45.2354 31.6519 45.2354 48.3478C45.2354 65.0437 58.77 78.5784 75.4659 78.5784Z" fill="url(#paint62_linear_301_600)"/>
<path d="M75.4673 77.5727C91.6088 77.5727 104.694 64.4874 104.694 48.3459C104.694 32.2044 91.6088 19.1191 75.4673 19.1191C59.3258 19.1191 46.2405 32.2044 46.2405 48.3459C46.2405 64.4874 59.3258 77.5727 75.4673 77.5727Z" fill="url(#paint63_linear_301_600)"/>
<path d="M48.5252 47.2253C48.5183 47.2253 48.5149 47.2253 48.5081 47.2253C48.3368 47.2151 48.2066 47.0712 48.2169 46.8999C48.2785 45.7522 48.4087 44.5976 48.6143 43.4739C48.6451 43.306 48.8027 43.193 48.974 43.2238C49.1419 43.2547 49.2515 43.4157 49.2241 43.5835C49.0254 44.6833 48.8952 45.8104 48.837 46.9341C48.8233 47.0951 48.6862 47.2253 48.5252 47.2253Z" fill="#BDD0FB"/>
<path d="M51.3648 36.5165C51.3169 36.5165 51.2689 36.5062 51.2244 36.4822C51.0736 36.4069 51.012 36.2184 51.0873 36.0677C55.7603 26.8108 65.0995 21.0586 75.463 21.0586C77.1143 21.0586 78.7724 21.2059 80.3861 21.5005C80.5539 21.5314 80.6636 21.6924 80.6362 21.8603C80.6053 22.0281 80.4443 22.1412 80.2765 22.1069C78.7005 21.8192 77.08 21.6753 75.463 21.6753C65.3359 21.6753 56.2057 27.2972 51.6389 36.3452C51.5875 36.4548 51.4779 36.5165 51.3648 36.5165Z" fill="#BDD0FB"/>
<path d="M93.5932 66.4767C103.253 56.817 103.252 41.1545 93.5907 31.4935C83.9297 21.8325 68.2672 21.8314 58.6076 31.4911C48.9479 41.1507 48.949 56.8132 58.61 66.4742C68.271 76.1353 83.9335 76.1364 93.5932 66.4767Z" fill="#91B3FA"/>
<path d="M83.3525 39.2004C83.3525 43.5342 79.8409 48.2106 75.507 48.2106C71.1732 48.2106 67.6616 43.5342 67.6616 39.2004C67.6616 34.8665 71.1732 31.7935 75.507 31.7935C79.8409 31.7935 83.3525 34.87 83.3525 39.2004Z" fill="url(#paint64_linear_301_600)"/>
<path d="M65.771 64.8984H84.9255C86.9434 64.8984 88.7283 63.5966 89.3416 61.6746L90.3728 58.4542C91.1265 56.0972 89.9 53.5414 87.5738 52.6918C79.7797 49.8414 71.7185 50.2079 63.4619 52.9556C61.1494 53.7264 59.8647 56.1999 60.5019 58.5536L61.2967 61.4793C61.8449 63.4938 63.6778 64.8984 65.771 64.8984Z" fill="url(#paint65_linear_301_600)"/>
<path d="M412.174 323.157C412.174 323.157 403.945 351.12 431.576 365.31L438.469 361.812C438.469 361.812 417.046 345.964 415.203 326.573C415.121 325.716 415.638 324.918 416.457 324.661L422.61 321.324C423.61 321.009 424.172 319.053 424.693 318.142L425.94 311.18L412.174 323.157Z" fill="url(#paint66_linear_301_600)"/>
<path d="M400.983 325.505C422.18 325.505 439.364 308.321 439.364 287.124C439.364 265.926 422.18 248.743 400.983 248.743C379.786 248.743 362.602 265.926 362.602 287.124C362.602 308.321 379.786 325.505 400.983 325.505Z" fill="url(#paint67_linear_301_600)"/>
<path d="M400.983 324.229C421.474 324.229 438.086 307.617 438.086 287.126C438.086 266.634 421.474 250.022 400.983 250.022C380.491 250.022 363.88 266.634 363.88 287.126C363.88 307.617 380.491 324.229 400.983 324.229Z" fill="url(#paint68_linear_301_600)"/>
<path opacity="0.65" d="M370.386 272.119C370.325 272.119 370.263 272.105 370.201 272.074C369.999 271.971 369.921 271.728 370.02 271.526C375.954 259.768 387.818 252.464 400.98 252.464C403.08 252.464 405.184 252.652 407.233 253.026C407.455 253.067 407.603 253.279 407.561 253.502C407.52 253.725 407.308 253.872 407.085 253.831C405.084 253.468 403.032 253.283 400.98 253.283C388.129 253.283 376.546 260.416 370.75 271.896C370.681 272.036 370.537 272.119 370.386 272.119Z" fill="white"/>
<path opacity="0.65" d="M423.99 310.136C436.253 297.872 436.253 277.99 423.99 265.727C411.727 253.463 391.844 253.463 379.581 265.727C367.318 277.99 367.318 297.872 379.581 310.136C391.844 322.399 411.727 322.399 423.99 310.136Z" fill="white"/>
<path d="M398.707 311.28V307.864C395.144 307.72 391.622 306.881 389.121 305.784C388.227 305.394 387.771 304.39 388.028 303.451L388.895 300.269C389.214 299.1 390.485 298.497 391.598 298.963C394.078 300.005 397.145 300.827 400.451 300.827C403.88 300.827 406.439 299.662 406.439 297.281C406.439 295.13 404.463 293.852 399.694 292.57C392.89 290.71 388.008 287.743 388.008 281.755C388.008 276.349 391.961 272.22 398.823 271.114V267.698C398.823 266.598 399.714 265.708 400.814 265.708H402.821C403.921 265.708 404.812 266.598 404.812 267.698V270.764C408.108 270.898 410.506 271.46 412.411 272.128C413.387 272.47 413.918 273.522 413.647 274.519L412.849 277.462C412.541 278.596 411.328 279.219 410.228 278.801C408.474 278.14 405.997 277.448 402.777 277.448C398.707 277.448 397.546 279.134 397.546 280.645C397.546 282.505 399.988 283.783 405.278 285.414C412.836 287.682 415.977 290.82 415.977 296.462C415.977 301.639 412.14 306.288 404.699 307.453V311.276C404.699 312.376 403.808 313.267 402.708 313.267H400.701C399.598 313.27 398.707 312.379 398.707 311.28Z" fill="url(#paint69_linear_301_600)"/>
<path d="M435.966 427.063C435.966 427.063 450.502 458.746 458.128 471.868C458.128 471.868 459.643 480.124 458.128 482.721L456.837 483.293L462.863 483.115C462.863 483.115 463.397 472.008 462.979 471.388C462.561 470.768 461.726 470.809 461.726 470.809C461.726 470.809 459.142 450.342 451.66 445.974L444.411 421.002L435.966 427.063Z" fill="url(#paint70_linear_301_600)"/>
<path d="M454.263 484.851C454.253 484.995 458.967 484.93 461.529 484.882C462.475 484.865 463.28 484.2 463.482 483.275L465.414 473.117C465.599 472.151 464.986 471.212 464.027 470.997L462.948 470.75C462.948 470.75 461.409 472.864 461.893 474.851C462.376 476.838 462.807 481.991 461.584 482.59C460.358 483.19 456.836 483.296 456.836 483.296C456.836 483.296 454.345 483.542 454.263 484.851Z" fill="url(#paint71_linear_301_600)"/>
<path d="M422.186 485.037C421.71 485.307 421.905 486.037 422.453 486.03C426.739 485.986 436.339 485.852 437.192 485.496C438.292 485.037 436.791 481.08 435.208 479.74L426.475 482.591L422.186 485.037Z" fill="url(#paint72_linear_301_600)"/>
<path d="M419.476 425.04C419.476 425.04 428.87 470.485 431.529 479.348L425.242 483.291C425.242 483.291 428.394 482.757 430.727 482.585C433.063 482.417 435.211 479.735 435.211 479.735L434.458 478.532C434.458 478.532 432.101 433.337 432.676 428.205L419.476 425.04Z" fill="url(#paint73_linear_301_600)"/>
<path d="M396.16 319.045C396.16 319.045 394.865 342.684 416.386 354.764L411.206 366.58C411.206 366.58 391.747 354.808 392.439 322.714C392.459 321.768 392.141 320.847 391.524 320.131L387.382 315.327C385.803 313.498 385.214 311.014 385.803 308.671L386.348 306.492C386.529 305.762 387.362 305.413 388.013 305.79L388.444 306.04C389.822 306.841 390.914 308.054 391.565 309.51L393.645 312.792C394.217 314.073 397.218 315.146 398.654 315.591C398.996 315.697 399.102 316.129 398.845 316.383L396.16 319.045Z" fill="url(#paint74_linear_301_600)"/>
<path d="M415.635 352.992C419.236 353.989 431.436 357.199 439.048 357.069L434.372 383.456L434.745 387.759L419.5 387.69C419.5 387.69 415.207 377.724 411.822 372.756C410.846 371.321 411.572 369.608 412.127 367.963L411.366 367.456C410.592 366.939 410.256 365.973 410.544 365.086L414.258 353.729C414.45 353.153 415.053 352.831 415.635 352.992Z" fill="#DECEB0"/>
<path d="M418.28 385.437L418.582 388.044C418.582 388.044 414.275 400.947 420.737 431.081C420.737 431.081 434.732 435.045 446.236 425.559C446.236 425.559 442.992 397.116 442.104 395.794C437.688 389.196 434.749 387.76 434.749 387.76L434.615 384.913C434.612 384.91 422.309 387.133 418.28 385.437Z" fill="url(#paint75_linear_301_600)"/>
<path d="M424.248 355.116C424.193 355.044 427.431 345.345 427.431 345.345L432.066 345.766L433.878 356.77C433.875 356.77 426.612 358.237 424.248 355.116Z" fill="url(#paint76_linear_301_600)"/>
<path d="M430.956 330.052C430.647 330.244 421.051 334.211 423.114 344.174C423.237 344.763 423.628 345.26 424.176 345.506C425.584 346.133 428.616 347.209 432.24 346.842C437.266 346.332 440.562 337.558 440.422 335.006C440.281 332.45 434.018 328.143 430.956 330.052Z" fill="url(#paint77_linear_301_600)"/>
<path d="M433.902 325.012C433.584 325.053 426.907 327.379 430.22 332.22C433.532 337.061 434.773 339.908 433.207 342.032C431.778 343.968 428.62 342.864 428.894 346.893C428.948 347.698 428.599 348.483 427.931 348.935C424.954 350.953 417.684 357.158 424.885 366.01C425.471 366.73 425.591 367.723 425.139 368.532C423.028 372.314 418.599 383.397 434.639 389.543C450.487 395.617 456.209 385.257 457.809 381.119C458.155 380.224 459.035 379.676 459.994 379.721C461.735 379.803 464.205 379.512 464.092 377.186C464.023 375.771 463.139 374.507 462.098 373.489C461.067 372.485 461.269 370.724 462.523 370.012C463.468 369.474 464.304 368.634 464.661 367.326C465.62 363.766 463.705 353.125 453.502 351.323C452.653 351.172 451.762 350.374 451.635 349.521C451.632 349.507 451.632 349.497 451.628 349.483C451.491 348.658 451.772 347.812 452.447 347.315C454.074 346.119 456.164 343.714 454.468 339.856C452.964 336.434 450.076 335.283 447.935 334.913C446.678 334.697 445.849 333.508 446.116 332.258C446.839 328.852 446.208 323.402 433.902 325.012Z" fill="#0D0369"/>
<path d="M67.3376 194.092C68.3068 194.626 69.3993 194.881 70.4938 194.881C72.919 194.881 75.1449 193.571 76.3031 191.421C77.1471 189.852 77.3381 188.057 76.8391 186.346C76.3401 184.632 75.2127 183.225 73.6623 182.369C72.6931 181.836 71.6006 181.555 70.5061 181.555C68.0809 181.555 65.855 182.893 64.6968 185.045C63.8528 186.614 63.6619 188.408 64.1609 190.122C64.6599 191.836 65.7893 193.238 67.3376 194.092Z" fill="#91B3FA"/>
<path d="M105.388 192.591L99.8107 188.864C99.8806 185.613 99.4144 182.425 98.4821 179.41L102.817 174.256C102.969 174.076 102.992 173.818 102.872 173.612L98.7922 166.624C98.6731 166.421 98.439 166.315 98.209 166.362L91.6563 167.717C89.4961 165.434 86.96 163.483 84.1118 161.977L83.5759 155.236C83.5574 154.999 83.3911 154.802 83.1652 154.742L75.3948 152.72C75.1669 152.662 74.9287 152.754 74.7993 152.953L71.1154 158.595C67.9017 158.525 64.7496 158.996 61.77 159.939L56.6752 155.554C56.4966 155.4 56.242 155.377 56.0387 155.498L49.1307 159.626C48.9295 159.746 48.8248 159.983 48.872 160.216L50.2109 166.844C47.9541 169.03 46.0259 171.595 44.5371 174.477L37.8736 175.019C37.6395 175.038 37.4444 175.206 37.3848 175.434L35.3868 183.295C35.3272 183.526 35.4196 183.767 35.6168 183.897L41.194 187.624C41.1242 190.875 41.5903 194.064 42.5226 197.078L38.1877 202.232C38.0358 202.413 38.0132 202.671 38.1323 202.876L42.2126 209.865C42.3317 210.068 42.5658 210.174 42.7958 210.126L49.3484 208.772C51.5087 211.055 54.0447 213.006 56.8929 214.512L57.4289 221.253C57.4474 221.489 57.6116 221.687 57.8396 221.747L65.61 223.768C65.8379 223.826 66.0761 223.735 66.2055 223.536L69.8894 217.894C73.1031 217.964 76.2552 217.493 79.2348 216.549L84.3295 220.935C84.5082 221.089 84.7628 221.111 84.9661 220.991L91.874 216.863C92.0753 216.743 92.18 216.506 92.1328 216.273L90.7939 209.644C93.0507 207.459 94.9789 204.893 96.4677 202.012L103.131 201.47C103.365 201.451 103.56 201.283 103.62 201.054L105.618 193.194C105.678 192.965 105.585 192.722 105.388 192.591ZM63.7947 184.55C65.1336 182.063 67.7066 180.52 70.5075 180.52C71.7745 180.52 73.0374 180.846 74.1566 181.463C75.9472 182.45 77.2532 184.084 77.8282 186.064C78.4052 188.044 78.1834 189.92 77.208 191.731C75.8692 194.218 73.2962 195.549 70.4952 195.549C69.2282 195.549 67.9653 195.437 66.8462 194.818C65.0555 193.831 63.7516 192.302 63.1745 190.323C62.5975 188.343 62.8172 186.361 63.7947 184.55ZM89.8226 193.102C89.8205 193.102 89.9745 193.268 89.9725 193.273C89.9725 193.275 90.1245 193.414 90.1245 193.414V193.422C90.1245 193.424 90.1245 193.431 90.1245 193.431V193.433C90.1245 193.437 89.9684 193.441 89.9684 193.443C89.9684 193.445 89.8904 193.447 89.8904 193.449C89.8904 193.451 89.8493 193.275 89.8493 193.277L89.8185 193.098H89.8144C89.8144 193.098 89.8103 193.287 89.8103 193.289C89.8103 193.291 89.8082 193.383 89.8082 193.383C89.8041 193.395 89.8 193.453 89.798 193.468C89.7959 193.476 89.7938 193.507 89.7918 193.516C89.7918 193.518 89.7918 193.528 89.7918 193.53C89.7856 193.555 89.7795 193.584 89.7733 193.609C89.7733 193.611 89.7733 193.615 89.7713 193.615C89.7672 193.632 89.7302 193.647 89.7261 193.663C89.724 193.669 89.6891 193.676 89.6891 193.682L89.722 193.684C89.722 193.686 89.9273 193.688 89.9273 193.69C89.9273 193.694 90.1306 193.698 90.1306 193.701C87.9313 202.432 79.549 208.221 70.5958 208.221C70.5958 208.221 70.5958 208.221 70.5938 208.221C68.9284 208.221 67.261 208.221 65.6325 207.555C65.6325 207.555 65.6325 207.555 65.6305 207.555C56.8416 205.552 50.7037 197.423 50.7017 188.256C50.7017 186.571 50.9132 184.959 51.3321 183.312C52.2295 179.782 54.053 176.608 56.6034 174.061C56.8046 173.86 57.1311 173.88 57.3303 174.086C57.4289 174.188 57.4782 174.329 57.4782 174.462C57.4782 174.597 57.4268 174.736 57.3242 174.838C54.9072 177.252 53.1782 180.302 52.328 183.648C51.9317 185.21 51.7284 186.716 51.7284 188.316C51.7284 197.01 57.55 204.667 65.8851 206.667C65.8872 206.667 66.0966 206.767 66.0987 206.769C67.6409 207.17 69.2426 207.5 71.0024 207.5V207.486V207.478C79.7954 207.478 86.8348 201.626 89.0115 193.25C89.0135 193.244 88.9129 193.235 88.9129 193.229C88.9149 193.225 88.8636 193.219 88.8657 193.214L88.841 193.16C88.841 193.156 88.8184 193.1 88.8205 193.1H88.8225H88.8205C88.8205 193.1 88.8205 193.1 88.8225 193.1C88.8225 193.1 88.9252 193.142 88.9273 193.14C88.9273 193.138 89.032 193.156 89.032 193.154V193.165C89.032 193.163 88.9293 193.167 88.9293 193.165C88.9293 193.163 88.9786 193.163 88.9786 193.16C88.9807 193.154 89.03 193.15 89.03 193.146C89.4694 191.584 89.5289 189.98 89.5289 188.383C89.5289 179.689 83.658 172.102 75.3229 169.933C74.021 169.595 72.7561 169.395 71.4234 169.343C71.1462 169.333 71.0004 169.1 71.0004 168.822C71.0004 168.816 71.0004 168.81 71.0004 168.801C71.2201 168.515 71.1523 168.292 71.4377 168.303C72.8423 168.359 74.2017 168.569 75.5755 168.926C84.3644 171.213 90.4797 179.059 90.4797 188.229C90.4797 189.92 90.2415 191.546 89.8226 193.102Z" fill="#91B3FA"/>
<path d="M430.252 140.256L417.481 168.981L399.535 146.943L430.252 140.256Z" fill="#95B5F9"/>
<path d="M125.563 156.373L357.339 156.373" stroke="#CEDCF9" stroke-dasharray="2 2"/>
<path d="M148.635 205.665L335.315 205.665" stroke="#CEDCF9" stroke-dasharray="2 2"/>
<path d="M169.611 250.761L315.388 250.761" stroke="#CEDCF9" stroke-dasharray="2 2"/>
<defs>
<linearGradient id="paint0_linear_301_600" x1="120.598" y1="171.197" x2="563.006" y2="431.37" gradientUnits="userSpaceOnUse">
<stop stop-color="#FFC362"/>
<stop offset="1" stop-color="#F77979"/>
</linearGradient>
<linearGradient id="paint1_linear_301_600" x1="262.013" y1="376.26" x2="208.268" y2="529.847" gradientUnits="userSpaceOnUse">
<stop stop-color="#09005D"/>
<stop offset="1" stop-color="#1A0F91"/>
</linearGradient>
<linearGradient id="paint2_linear_301_600" x1="247.999" y1="99.2913" x2="230.524" y2="363.459" gradientUnits="userSpaceOnUse">
<stop stop-color="#09005D"/>
<stop offset="1" stop-color="#1A0F91"/>
</linearGradient>
<linearGradient id="paint3_linear_301_600" x1="48.4456" y1="76.9645" x2="581.351" y2="528.266" gradientUnits="userSpaceOnUse">
<stop stop-color="#4042E2"/>
<stop offset="1" stop-color="#4F52FF"/>
</linearGradient>
<linearGradient id="paint4_linear_301_600" x1="247.74" y1="361.094" x2="247.74" y2="468.336" gradientUnits="userSpaceOnUse">
<stop stop-color="#09005D"/>
<stop offset="1" stop-color="#1A0F91"/>
</linearGradient>
<linearGradient id="paint5_linear_301_600" x1="222.611" y1="431.508" x2="264.7" y2="382.655" gradientUnits="userSpaceOnUse">
<stop stop-color="#E1473D"/>
<stop offset="1" stop-color="#E9605A"/>
</linearGradient>
<linearGradient id="paint6_linear_301_600" x1="288.484" y1="347.024" x2="164.025" y2="535.047" gradientUnits="userSpaceOnUse">
<stop stop-color="#FE7062"/>
<stop offset="1" stop-color="#FF928E"/>
</linearGradient>
<linearGradient id="paint7_linear_301_600" x1="284.77" y1="352.411" x2="218.498" y2="463.671" gradientUnits="userSpaceOnUse">
<stop stop-color="#FE7062"/>
<stop offset="1" stop-color="#FF928E"/>
</linearGradient>
<linearGradient id="paint8_linear_301_600" x1="303.607" y1="378.347" x2="339.283" y2="336.938" gradientUnits="userSpaceOnUse">
<stop stop-color="#E1473D"/>
<stop offset="1" stop-color="#E9605A"/>
</linearGradient>
<linearGradient id="paint9_linear_301_600" x1="359.442" y1="306.736" x2="253.948" y2="466.108" gradientUnits="userSpaceOnUse">
<stop stop-color="#FE7062"/>
<stop offset="1" stop-color="#FF928E"/>
</linearGradient>
<linearGradient id="paint10_linear_301_600" x1="356.294" y1="311.304" x2="300.121" y2="405.61" gradientUnits="userSpaceOnUse">
<stop stop-color="#FE7062"/>
<stop offset="1" stop-color="#FF928E"/>
</linearGradient>
<linearGradient id="paint11_linear_301_600" x1="190.25" y1="381.277" x2="215.539" y2="351.923" gradientUnits="userSpaceOnUse">
<stop stop-color="#E1473D"/>
<stop offset="1" stop-color="#E9605A"/>
</linearGradient>
<linearGradient id="paint12_linear_301_600" x1="229.829" y1="330.514" x2="155.048" y2="443.488" gradientUnits="userSpaceOnUse">
<stop stop-color="#FE7062"/>
<stop offset="1" stop-color="#FF928E"/>
</linearGradient>
<linearGradient id="paint13_linear_301_600" x1="227.598" y1="333.749" x2="187.779" y2="400.599" gradientUnits="userSpaceOnUse">
<stop stop-color="#FE7062"/>
<stop offset="1" stop-color="#FF928E"/>
</linearGradient>
<linearGradient id="paint14_linear_301_600" x1="307.097" y1="426.477" x2="330.066" y2="399.816" gradientUnits="userSpaceOnUse">
<stop stop-color="#E1473D"/>
<stop offset="1" stop-color="#E9605A"/>
</linearGradient>
<linearGradient id="paint15_linear_301_600" x1="343.046" y1="380.37" x2="275.124" y2="482.981" gradientUnits="userSpaceOnUse">
<stop stop-color="#FE7062"/>
<stop offset="1" stop-color="#FF928E"/>
</linearGradient>
<linearGradient id="paint16_linear_301_600" x1="341.019" y1="383.31" x2="304.852" y2="444.029" gradientUnits="userSpaceOnUse">
<stop stop-color="#FE7062"/>
<stop offset="1" stop-color="#FF928E"/>
</linearGradient>
<linearGradient id="paint17_linear_301_600" x1="527.013" y1="390.481" x2="529.111" y2="405.949" gradientUnits="userSpaceOnUse">
<stop stop-color="#09005D"/>
<stop offset="1" stop-color="#1A0F91"/>
</linearGradient>
<linearGradient id="paint18_linear_301_600" x1="527.804" y1="402.156" x2="532.654" y2="432.962" gradientUnits="userSpaceOnUse">
<stop stop-color="#020039"/>
<stop offset="1" stop-color="#090056"/>
</linearGradient>
<linearGradient id="paint19_linear_301_600" x1="536.238" y1="393.394" x2="530.01" y2="393.394" gradientUnits="userSpaceOnUse">
<stop stop-color="#FF928E"/>
<stop offset="1" stop-color="#FEB3B1"/>
</linearGradient>
<linearGradient id="paint20_linear_301_600" x1="509.557" y1="371.495" x2="523.952" y2="383.534" gradientUnits="userSpaceOnUse">
<stop stop-color="#020039"/>
<stop offset="1" stop-color="#090056"/>
</linearGradient>
<linearGradient id="paint21_linear_301_600" x1="514.355" y1="368.462" x2="498.131" y2="368.462" gradientUnits="userSpaceOnUse">
<stop stop-color="#09005D"/>
<stop offset="1" stop-color="#1A0F91"/>
</linearGradient>
<linearGradient id="paint22_linear_301_600" x1="510.213" y1="358.74" x2="501.464" y2="358.74" gradientUnits="userSpaceOnUse">
<stop stop-color="#FF928E"/>
<stop offset="1" stop-color="#FEB3B1"/>
</linearGradient>
<linearGradient id="paint23_linear_301_600" x1="491.342" y1="318.93" x2="555.181" y2="375.559" gradientUnits="userSpaceOnUse">
<stop stop-color="#4042E2"/>
<stop offset="1" stop-color="#4F52FF"/>
</linearGradient>
<linearGradient id="paint24_linear_301_600" x1="529.135" y1="349.341" x2="517.424" y2="324.348" gradientUnits="userSpaceOnUse">
<stop stop-color="#09005D"/>
<stop offset="1" stop-color="#1A0F91"/>
</linearGradient>
<linearGradient id="paint25_linear_301_600" x1="478.101" y1="311.549" x2="465.322" y2="311.549" gradientUnits="userSpaceOnUse">
<stop stop-color="#FF928E"/>
<stop offset="1" stop-color="#FEB3B1"/>
</linearGradient>
<linearGradient id="paint26_linear_301_600" x1="451.689" y1="338.38" x2="510.415" y2="254.484" gradientUnits="userSpaceOnUse">
<stop stop-color="#FE7062"/>
<stop offset="1" stop-color="#FF928E"/>
</linearGradient>
<linearGradient id="paint27_linear_301_600" x1="491.385" y1="234.485" x2="499.379" y2="265.09" gradientUnits="userSpaceOnUse">
<stop stop-color="#FF928E"/>
<stop offset="1" stop-color="#FEB3B1"/>
</linearGradient>
<linearGradient id="paint28_linear_301_600" x1="497.411" y1="230.514" x2="484.392" y2="248.1" gradientUnits="userSpaceOnUse">
<stop stop-color="#FF928E"/>
<stop offset="1" stop-color="#FEB3B1"/>
</linearGradient>
<linearGradient id="paint29_linear_301_600" x1="499.257" y1="226.26" x2="482.053" y2="248.41" gradientUnits="userSpaceOnUse">
<stop stop-color="#09005D"/>
<stop offset="1" stop-color="#1A0F91"/>
</linearGradient>
<linearGradient id="paint30_linear_301_600" x1="502.708" y1="234.435" x2="489.689" y2="252.021" gradientUnits="userSpaceOnUse">
<stop stop-color="#FF928E"/>
<stop offset="1" stop-color="#FEB3B1"/>
</linearGradient>
<linearGradient id="paint31_linear_301_600" x1="503.167" y1="246.237" x2="408.914" y2="401.554" gradientUnits="userSpaceOnUse">
<stop stop-color="#D6DBB8"/>
<stop offset="0.811317" stop-color="#F7A096"/>
<stop offset="1" stop-color="#FF928E"/>
</linearGradient>
<linearGradient id="paint32_linear_301_600" x1="490.609" y1="269.6" x2="491.92" y2="291.033" gradientUnits="userSpaceOnUse">
<stop stop-color="#CB236D"/>
<stop offset="1" stop-color="#4C246D"/>
</linearGradient>
<linearGradient id="paint33_linear_301_600" x1="1491.64" y1="-1066.75" x2="1464.64" y2="-1033.52" gradientUnits="userSpaceOnUse">
<stop stop-color="#FF928E"/>
<stop offset="1" stop-color="#FEB3B1"/>
</linearGradient>
<linearGradient id="paint34_linear_301_600" x1="257.902" y1="24.0402" x2="196.63" y2="141.844" gradientUnits="userSpaceOnUse">
<stop stop-color="#4042E2"/>
<stop offset="1" stop-color="#4F52FF"/>
</linearGradient>
<linearGradient id="paint35_linear_301_600" x1="267.502" y1="17.6108" x2="109.063" y2="256.967" gradientUnits="userSpaceOnUse">
<stop stop-color="#4042E2"/>
<stop offset="1" stop-color="#4F52FF"/>
</linearGradient>
<linearGradient id="paint36_linear_301_600" x1="239.057" y1="55.183" x2="248.593" y2="131.47" gradientUnits="userSpaceOnUse">
<stop stop-color="#4042E2"/>
<stop offset="1" stop-color="#4F52FF"/>
</linearGradient>
<linearGradient id="paint37_linear_301_600" x1="236.081" y1="55.5558" x2="245.617" y2="131.843" gradientUnits="userSpaceOnUse">
<stop stop-color="#4042E2"/>
<stop offset="1" stop-color="#4F52FF"/>
</linearGradient>
<linearGradient id="paint38_linear_301_600" x1="347.795" y1="66.5572" x2="308.702" y2="141.719" gradientUnits="userSpaceOnUse">
<stop stop-color="#4042E2"/>
<stop offset="1" stop-color="#4F52FF"/>
</linearGradient>
<linearGradient id="paint39_linear_301_600" x1="353.92" y1="62.4543" x2="252.832" y2="215.17" gradientUnits="userSpaceOnUse">
<stop stop-color="#4042E2"/>
<stop offset="1" stop-color="#4F52FF"/>
</linearGradient>
<linearGradient id="paint40_linear_301_600" x1="335.769" y1="86.4318" x2="341.853" y2="135.105" gradientUnits="userSpaceOnUse">
<stop stop-color="#4042E2"/>
<stop offset="1" stop-color="#4F52FF"/>
</linearGradient>
<linearGradient id="paint41_linear_301_600" x1="333.871" y1="86.6698" x2="339.955" y2="135.343" gradientUnits="userSpaceOnUse">
<stop stop-color="#4042E2"/>
<stop offset="1" stop-color="#4F52FF"/>
</linearGradient>
<linearGradient id="paint42_linear_301_600" x1="153.828" y1="63.3327" x2="114.734" y2="138.495" gradientUnits="userSpaceOnUse">
<stop stop-color="#4042E2"/>
<stop offset="1" stop-color="#4F52FF"/>
</linearGradient>
<linearGradient id="paint43_linear_301_600" x1="159.952" y1="59.2298" x2="58.8633" y2="211.945" gradientUnits="userSpaceOnUse">
<stop stop-color="#4042E2"/>
<stop offset="1" stop-color="#4F52FF"/>
</linearGradient>
<linearGradient id="paint44_linear_301_600" x1="141.803" y1="83.2019" x2="147.887" y2="131.875" gradientUnits="userSpaceOnUse">
<stop stop-color="#4042E2"/>
<stop offset="1" stop-color="#4F52FF"/>
</linearGradient>
<linearGradient id="paint45_linear_301_600" x1="139.905" y1="83.44" x2="145.989" y2="132.113" gradientUnits="userSpaceOnUse">
<stop stop-color="#4042E2"/>
<stop offset="1" stop-color="#4F52FF"/>
</linearGradient>
<linearGradient id="paint46_linear_301_600" x1="172.526" y1="2.27493" x2="133.432" y2="77.4368" gradientUnits="userSpaceOnUse">
<stop stop-color="#4042E2"/>
<stop offset="1" stop-color="#4F52FF"/>
</linearGradient>
<linearGradient id="paint47_linear_301_600" x1="178.65" y1="-1.82841" x2="77.5617" y2="150.887" gradientUnits="userSpaceOnUse">
<stop stop-color="#4042E2"/>
<stop offset="1" stop-color="#4F52FF"/>
</linearGradient>
<linearGradient id="paint48_linear_301_600" x1="160.499" y1="22.1461" x2="166.583" y2="70.8194" gradientUnits="userSpaceOnUse">
<stop stop-color="#4042E2"/>
<stop offset="1" stop-color="#4F52FF"/>
</linearGradient>
<linearGradient id="paint49_linear_301_600" x1="158.601" y1="22.3837" x2="164.685" y2="71.057" gradientUnits="userSpaceOnUse">
<stop stop-color="#4042E2"/>
<stop offset="1" stop-color="#4F52FF"/>
</linearGradient>
<linearGradient id="paint50_linear_301_600" x1="329.096" y1="4.91553" x2="290.003" y2="80.0774" gradientUnits="userSpaceOnUse">
<stop stop-color="#4042E2"/>
<stop offset="1" stop-color="#4F52FF"/>
</linearGradient>
<linearGradient id="paint51_linear_301_600" x1="335.22" y1="0.812676" x2="234.132" y2="153.528" gradientUnits="userSpaceOnUse">
<stop stop-color="#4042E2"/>
<stop offset="1" stop-color="#4F52FF"/>
</linearGradient>
<linearGradient id="paint52_linear_301_600" x1="317.073" y1="24.7833" x2="323.157" y2="73.4566" gradientUnits="userSpaceOnUse">
<stop stop-color="#4042E2"/>
<stop offset="1" stop-color="#4F52FF"/>
</linearGradient>
<linearGradient id="paint53_linear_301_600" x1="315.175" y1="25.0219" x2="321.259" y2="73.6952" gradientUnits="userSpaceOnUse">
<stop stop-color="#4042E2"/>
<stop offset="1" stop-color="#4F52FF"/>
</linearGradient>
<linearGradient id="paint54_linear_301_600" x1="212.38" y1="297.986" x2="263.131" y2="38.6395" gradientUnits="userSpaceOnUse">
<stop stop-color="#FE7062"/>
<stop offset="1" stop-color="#FF928E"/>
</linearGradient>
<linearGradient id="paint55_linear_301_600" x1="257.381" y1="-49.6534" x2="242.657" y2="76.4711" gradientUnits="userSpaceOnUse">
<stop stop-color="#E1473D"/>
<stop offset="1" stop-color="#E9605A"/>
</linearGradient>
<linearGradient id="paint56_linear_301_600" x1="248.126" y1="266.557" x2="191.101" y2="454.848" gradientUnits="userSpaceOnUse">
<stop stop-color="#FE7062"/>
<stop offset="1" stop-color="#FF928E"/>
</linearGradient>
<linearGradient id="paint57_linear_301_600" x1="254.923" y1="238.739" x2="228.926" y2="402.472" gradientUnits="userSpaceOnUse">
<stop stop-color="#E1473D"/>
<stop offset="1" stop-color="#E9605A"/>
</linearGradient>
<linearGradient id="paint58_linear_301_600" x1="415.985" y1="16.1539" x2="369.613" y2="105.311" gradientUnits="userSpaceOnUse">
<stop stop-color="#4042E2"/>
<stop offset="1" stop-color="#4F52FF"/>
</linearGradient>
<linearGradient id="paint59_linear_301_600" x1="423.251" y1="11.2841" x2="303.34" y2="192.435" gradientUnits="userSpaceOnUse">
<stop stop-color="#4042E2"/>
<stop offset="1" stop-color="#4F52FF"/>
</linearGradient>
<linearGradient id="paint60_linear_301_600" x1="401.72" y1="39.7202" x2="408.937" y2="97.4563" gradientUnits="userSpaceOnUse">
<stop stop-color="#4042E2"/>
<stop offset="1" stop-color="#4F52FF"/>
</linearGradient>
<linearGradient id="paint61_linear_301_600" x1="399.469" y1="40.0027" x2="406.686" y2="97.7389" gradientUnits="userSpaceOnUse">
<stop stop-color="#4042E2"/>
<stop offset="1" stop-color="#4F52FF"/>
</linearGradient>
<linearGradient id="paint62_linear_301_600" x1="90.2945" y1="19.8382" x2="43.922" y2="108.995" gradientUnits="userSpaceOnUse">
<stop stop-color="#4042E2"/>
<stop offset="1" stop-color="#4F52FF"/>
</linearGradient>
<linearGradient id="paint63_linear_301_600" x1="97.5614" y1="14.9684" x2="-22.3491" y2="196.119" gradientUnits="userSpaceOnUse">
<stop stop-color="#4042E2"/>
<stop offset="1" stop-color="#4F52FF"/>
</linearGradient>
<linearGradient id="paint64_linear_301_600" x1="76.0308" y1="43.407" x2="83.2478" y2="101.143" gradientUnits="userSpaceOnUse">
<stop stop-color="#4042E2"/>
<stop offset="1" stop-color="#4F52FF"/>
</linearGradient>
<linearGradient id="paint65_linear_301_600" x1="73.7792" y1="43.6885" x2="80.9962" y2="101.425" gradientUnits="userSpaceOnUse">
<stop stop-color="#4042E2"/>
<stop offset="1" stop-color="#4F52FF"/>
</linearGradient>
<linearGradient id="paint66_linear_301_600" x1="422.461" y1="310.793" x2="425.275" y2="356.482" gradientUnits="userSpaceOnUse">
<stop stop-color="#FF928E"/>
<stop offset="1" stop-color="#FEB3B1"/>
</linearGradient>
<linearGradient id="paint67_linear_301_600" x1="348.462" y1="348.082" x2="399.942" y2="288.329" gradientUnits="userSpaceOnUse">
<stop stop-color="#E1473D"/>
<stop offset="1" stop-color="#E9605A"/>
</linearGradient>
<linearGradient id="paint68_linear_301_600" x1="429.031" y1="244.75" x2="276.805" y2="474.72" gradientUnits="userSpaceOnUse">
<stop stop-color="#FE7062"/>
<stop offset="1" stop-color="#FF928E"/>
</linearGradient>
<linearGradient id="paint69_linear_301_600" x1="424.489" y1="251.34" x2="343.431" y2="387.422" gradientUnits="userSpaceOnUse">
<stop stop-color="#FE7062"/>
<stop offset="1" stop-color="#FF928E"/>
</linearGradient>
<linearGradient id="paint70_linear_301_600" x1="435.966" y1="452.149" x2="463.14" y2="452.149" gradientUnits="userSpaceOnUse">
<stop stop-color="#FF928E"/>
<stop offset="1" stop-color="#FEB3B1"/>
</linearGradient>
<linearGradient id="paint71_linear_301_600" x1="473.316" y1="391.38" x2="459.859" y2="478.852" gradientUnits="userSpaceOnUse">
<stop stop-color="#4042E2"/>
<stop offset="1" stop-color="#4F52FF"/>
</linearGradient>
<linearGradient id="paint72_linear_301_600" x1="444.843" y1="386.999" x2="431.385" y2="474.472" gradientUnits="userSpaceOnUse">
<stop stop-color="#4042E2"/>
<stop offset="1" stop-color="#4F52FF"/>
</linearGradient>
<linearGradient id="paint73_linear_301_600" x1="419.477" y1="454.168" x2="435.212" y2="454.168" gradientUnits="userSpaceOnUse">
<stop stop-color="#FF928E"/>
<stop offset="1" stop-color="#FEB3B1"/>
</linearGradient>
<linearGradient id="paint74_linear_301_600" x1="434.892" y1="384.522" x2="395.379" y2="329.478" gradientUnits="userSpaceOnUse">
<stop stop-color="#FF928E"/>
<stop offset="1" stop-color="#FEB3B1"/>
</linearGradient>
<linearGradient id="paint75_linear_301_600" x1="431.616" y1="388.575" x2="431.844" y2="454.353" gradientUnits="userSpaceOnUse">
<stop stop-color="#020039"/>
<stop offset="1" stop-color="#090056"/>
</linearGradient>
<linearGradient id="paint76_linear_301_600" x1="424.246" y1="351.231" x2="433.876" y2="351.231" gradientUnits="userSpaceOnUse">
<stop stop-color="#FF928E"/>
<stop offset="1" stop-color="#FEB3B1"/>
</linearGradient>
<linearGradient id="paint77_linear_301_600" x1="439.55" y1="338.788" x2="509.64" y2="343.554" gradientUnits="userSpaceOnUse">
<stop stop-color="#FF928E"/>
<stop offset="1" stop-color="#FEB3B1"/>
</linearGradient>
</defs>
</svg>
