<svg width="184" height="130" viewBox="0 0 184 130" fill="none" xmlns="http://www.w3.org/2000/svg">
<path fill-rule="evenodd" clip-rule="evenodd" d="M154.497 63.4067C157.007 42.7551 147.331 24.2056 131.365 20.611C120.146 18.0852 108.564 23.5607 100.38 33.8859C96.9068 30.5289 92.7281 28.1507 87.9971 27.0855C71.3688 23.3419 53.942 37.1757 47.9656 58.325C46.0845 58.0578 44.1423 57.918 42.156 57.918C25.2147 57.918 11.4811 68.0922 11.4811 80.6428C11.4811 93.1933 25.2147 103.368 42.156 103.368C46.915 103.368 51.4208 102.565 55.4401 101.132C59.1964 105.357 63.9279 108.344 69.3977 109.575C76.2724 111.123 83.2836 109.666 89.5657 105.93C89.926 109.443 90.9675 112.832 92.7492 115.957C101.567 131.428 125.176 134.602 145.481 123.046C165.786 111.49 175.098 89.58 166.28 74.1091C163.572 69.3588 159.47 65.7678 154.497 63.4067Z" fill="url(#paint0_linear_301_615)"/>
<path d="M38.7401 41.2762C38.7968 43.8573 36.4298 45.8152 33.9051 45.2757L24.7173 43.3122C22.3115 42.798 22.7771 39.2371 25.2342 39.3588L31.572 39.6727C32.6059 39.7239 33.508 38.9778 33.6516 37.9526L34.5511 31.5315C34.8924 29.0953 38.4773 29.3057 38.5313 31.7651L38.7401 41.2762Z" fill="#F4A727" fill-opacity="0.8"/>
<circle cx="100.981" cy="6.5" r="5.5" stroke="#029CF3" stroke-width="2"/>
<circle cx="153.981" cy="99.5" r="5.5" stroke="#F3B002" stroke-width="2"/>
<path d="M179.055 63.133L167.403 63.8654L169.479 52.3772L179.055 63.133Z" stroke="#FFD53F"/>
<defs>
<linearGradient id="paint0_linear_301_615" x1="83.7066" y1="96.1016" x2="144.284" y2="26.8179" gradientUnits="userSpaceOnUse">
<stop stop-color="#00C2FF"/>
<stop offset="1" stop-color="#3A65FD"/>
</linearGradient>
</defs>
</svg>
